<?xml version="1.0" encoding="utf-8"?>
<!-- Generator: Adobe Illustrator 28.2.0, SVG Export Plug-In . SVG Version: 6.00 Build 0)  -->
<svg version="1.1" id="Layer_1" xmlns="http://www.w3.org/2000/svg" xmlns:xlink="http://www.w3.org/1999/xlink" x="0px" y="0px"
	 viewBox="0 0 1440 563" style="enable-background:new 0 0 1440 563;" xml:space="preserve">
<style type="text/css">
	.st0{fill:#57BA65;}
</style>
<g>
	<path class="st0" d="M-25.8,340c4.6,3.5,4.6,4,0,7.6C-25.8,345.1-25.8,342.5-25.8,340z"/>
	<path class="st0" d="M856.5,328.3c-4.6-0.1-9-4.5-9.1-9.1c-0.1-4.6,4.2-9.1,8.9-9.3c4.9-0.2,9.8,4.7,9.5,9.6
		C865.6,324.1,861.1,328.4,856.5,328.3z"/>
	<path class="st0" d="M890.6,292.8c4.6-0.1,9.2,4.1,9.5,8.8c0.3,5-4.5,9.9-9.5,9.7c-4.7-0.1-9-4.6-9-9.3
		C881.5,297.4,885.9,292.9,890.6,292.8z"/>
	<path class="st0" d="M788.1,294.8c-0.2,4.7-4.7,9-9.3,9c-4.7,0-9.1-4.4-9.2-9.1c-0.1-5,4.8-9.8,9.8-9.5
		C784.1,285.5,788.3,290.1,788.1,294.8z"/>
	<path class="st0" d="M873.5,294.3c0.1,4.6-4.1,9.2-8.8,9.5c-5,0.3-9.9-4.5-9.8-9.5c0.1-4.7,4.6-9,9.3-9
		C868.9,285.2,873.4,289.6,873.5,294.3z"/>
	<path class="st0" d="M466.1,364.4c0.1-4.6,4.8-9,9.4-8.8c4.6,0.1,9,4.8,8.9,9.4c-0.1,4.6-4.8,9-9.4,8.8
		C470.3,373.6,465.9,369,466.1,364.4z"/>
	<path class="st0" d="M848.9,286.9c0,4.7-4.4,9.1-9.1,9.2c-5,0.1-9.8-4.8-9.5-9.8c0.3-4.7,4.9-8.9,9.5-8.8
		C844.5,277.8,848.9,282.3,848.9,286.9z"/>
	<path class="st0" d="M389.6,357.4c4.6-0.1,9.3,4.3,9.4,8.9c0.1,4.6-4.3,9.3-8.9,9.4c-4.6,0.1-9.3-4.3-9.4-8.9
		C380.5,362.2,384.9,357.5,389.6,357.4z"/>
	<path class="st0" d="M992.9,360.6c0.1,4.6-4.3,9.2-8.9,9.3c-4.6,0.1-9.2-4.2-9.3-8.9c-0.1-4.6,4.2-9.2,8.9-9.3
		C988.2,351.6,992.8,356,992.9,360.6z"/>
	<path class="st0" d="M917.2,336.1c0.1,4.6-4.2,9.2-8.9,9.4c-5,0.2-9.9-4.6-9.7-9.6c0.2-4.7,4.7-9,9.4-9
		C912.6,327,917.1,331.4,917.2,336.1z"/>
	<path class="st0" d="M967.1,319.4c4.6,0.2,8.9,4.8,8.8,9.4c-0.1,5-5.2,9.6-10.1,9c-4.6-0.5-8.7-5.3-8.4-9.8
		C957.9,323.4,962.5,319.2,967.1,319.4z"/>
	<path class="st0" d="M940.1,328.4c-4.6,0-9.1-4.4-9.2-9c-0.1-5,4.8-9.8,9.7-9.4c4.6,0.3,8.9,4.9,8.7,9.5
		C949.2,324,944.7,328.4,940.1,328.4z"/>
	<path class="st0" d="M1061.2,327c-0.1,4.6-4.7,8.9-9.3,8.8c-4.6-0.1-9-4.7-8.8-9.3c0.1-4.6,4.7-8.9,9.3-8.8
		C1057,317.8,1061.3,322.4,1061.2,327z"/>
	<path class="st0" d="M957.7,362.5c-4.6,0.2-9.3-3.9-9.7-8.6c-0.4-4.9,4.3-10,9.3-9.9c4.7,0,9.1,4.4,9.2,9.1
		C966.6,357.7,962.4,362.3,957.7,362.5z"/>
	<path class="st0" d="M363,348c4.5-0.1,9.2,4.2,9.3,8.8c0.1,4.5-4.2,9.2-8.8,9.3c-4.5,0.1-9.2-4.2-9.3-8.8
		C354,352.8,358.4,348.2,363,348z"/>
	<path class="st0" d="M1017.9,334.5c4.6,0,9.2,4.3,9.3,9c0.2,5-4.7,9.8-9.7,9.5c-4.7-0.2-9-4.8-8.8-9.5
		C1008.8,338.9,1013.3,334.6,1017.9,334.5z"/>
	<path class="st0" d="M934.1,370.6c-0.1,4.6-4.7,9-9.4,8.8c-4.6-0.1-9-4.8-8.9-9.3c0.1-4.6,4.8-9,9.4-8.8
		C929.9,361.4,934.2,366,934.1,370.6z"/>
	<path class="st0" d="M805.7,313.2c-4.6,0.1-9.2-4.1-9.5-8.8c-0.3-4.9,4.5-9.9,9.5-9.7c4.6,0.1,9,4.6,9,9.2
		C814.7,308.6,810.3,313.1,805.7,313.2z"/>
	<path class="st0" d="M941.8,345.7c0,4.6-4.4,9.1-9,9.2c-5,0.1-9.8-4.8-9.5-9.7c0.3-4.6,4.9-8.9,9.5-8.7
		C937.4,336.6,941.8,341.1,941.8,345.7z"/>
	<path class="st0" d="M991.3,345.5c-4.7,0-9.1-4.5-9.2-9.1c-0.1-5,4.9-9.8,9.8-9.4c4.7,0.3,8.9,5,8.7,9.6
		C1000.5,341.2,996,345.5,991.3,345.5z"/>
	<path class="st0" d="M839.3,311.8c-0.1,4.6-4.8,9.1-9.4,8.9c-4.6-0.2-9.1-4.8-8.9-9.4c0.2-4.6,4.8-9.1,9.4-8.9
		C835,302.6,839.4,307.2,839.3,311.8z"/>
	<path class="st0" d="M924.8,312c-0.2,4.7-4.8,9-9.4,8.9c-5-0.1-9.6-5.2-9.1-10.1c0.5-4.7,5.3-8.8,9.9-8.4
		C920.8,302.7,925,307.4,924.8,312z"/>
	<path class="st0" d="M890.6,328.2c0.2,4.6-3.9,9.3-8.6,9.7c-4.9,0.4-9.9-4.3-9.9-9.3c0-4.6,4.4-9.1,9-9.2
		C885.7,319.3,890.3,323.6,890.6,328.2z"/>
	<path class="st0" d="M898.5,268.9c4.5,0,8.4,3.8,8.5,8.4c0.1,4.9-4.2,9-9.1,8.7c-4.6-0.3-8.2-4.3-8-8.9
		C890,272.6,893.9,268.9,898.5,268.9z"/>
	<path class="st0" d="M882.4,353.5c-0.1,4.7-4.6,8.8-9.3,8.4c-4.5-0.4-8.1-4.4-8-8.8c0.1-4.7,4.6-8.8,9.3-8.4
		C878.9,345,882.5,349,882.4,353.5z"/>
	<path class="st0" d="M779.7,321.2c-0.1,4.6-3.8,8.3-8.4,8.3c-4.9,0.1-8.9-4.2-8.6-9.1c0.3-4.6,4.2-8.1,8.9-7.9
		C776.3,312.8,779.8,316.6,779.7,321.2z"/>
	<path class="st0" d="M1034.2,319.1c0,4.8-4.2,8.9-9,8.7c-4.4-0.2-8.2-4.1-8.2-8.6c0-4.8,4.3-8.9,9.1-8.7
		C1030.4,310.7,1034.2,314.7,1034.2,319.1z"/>
	<path class="st0" d="M508.4,374c0,4.6-3.6,8.4-8.2,8.6c-5,0.2-9-3.8-8.8-8.8c0.2-4.6,4-8.2,8.6-8.1
		C504.6,365.7,508.3,369.5,508.4,374z"/>
	<path class="st0" d="M414.7,365.2c4.7,0.1,9,4.8,8.8,9.4c-0.2,4.6-5.1,8.9-9.6,8.5c-4.3-0.4-8.3-4.7-8.3-8.9
		C405.5,369.5,410,365.1,414.7,365.2z"/>
	<path class="st0" d="M958.4,377.5c0.2,4.4-3.4,8.7-7.9,9.1c-4.7,0.5-9.4-3.5-9.7-8.3c-0.2-4.4,3.5-8.7,7.9-9.1
		C953.5,368.7,958.2,372.7,958.4,377.5z"/>
	<path class="st0" d="M448.5,365.7c-4.8-0.1-8.9-4.5-8.5-9.2c0.3-4.5,4.3-8.1,8.8-8.1c4.8,0.1,8.9,4.5,8.5,9.2
		C457,362.1,453,365.8,448.5,365.7z"/>
	<path class="st0" d="M1051.3,353.6c-0.2,4.7-4.7,8.8-9.4,8.3c-4.5-0.4-8.1-4.4-7.9-8.9c0.2-4.7,4.7-8.8,9.4-8.3
		C1047.9,345.1,1051.4,349.1,1051.3,353.6z"/>
	<path class="st0" d="M338.9,358c-4.6,0.2-8.5-3.2-8.9-7.9c-0.3-4.6,3.1-8.6,7.6-9c4.9-0.5,9.2,3.3,9.3,8.3
		C347.1,354,343.6,357.7,338.9,358z"/>
	<path class="st0" d="M542.9,357c0,4.7-4.3,9-9,8.9c-4.7-0.1-8.9-4.6-8.7-9.3c0.2-4.3,4.3-8.3,8.6-8.4
		C538.4,348,542.9,352.3,542.9,357z"/>
	<path class="st0" d="M1085.4,336c0.1,4.6-3.5,8.5-8.1,8.8c-4.6,0.2-8.6-3.3-9-7.9c-0.4-4.9,3.7-9.2,8.6-9.2
		C1081.4,327.7,1085.2,331.5,1085.4,336z"/>
	<path class="st0" d="M898,353.8c4.6-0.2,9.2,4.1,9.3,8.7c0.1,4.3-3.7,8.6-8.1,9c-4.6,0.5-9.4-3.5-9.8-8.2
		C889.1,358.9,893.4,354.1,898,353.8z"/>
	<path class="st0" d="M728.6,304c0,4.5-3.8,8.4-8.4,8.5c-4.9,0.1-9-4.2-8.7-9.1c0.3-4.6,4.3-8.2,8.9-8
		C724.9,295.6,728.6,299.5,728.6,304z"/>
	<path class="st0" d="M753.7,278.2c4.4-0.2,8.6,3.3,9.1,7.8c0.5,4.8-3.3,9.4-8.2,9.6c-4.4,0.2-8.6-3.3-9.1-7.8
		C745,283,748.9,278.5,753.7,278.2z"/>
	<path class="st0" d="M922.8,293.5c-4.6-0.2-8.2-3.9-8.2-8.5c0-4.9,4.3-8.8,9.2-8.4c4.6,0.4,8,4.4,7.7,9
		C931.3,290.2,927.4,293.7,922.8,293.5z"/>
	<path class="st0" d="M822,277c0.3,4.6-4.1,9.3-8.8,9.4c-4.3,0.1-8.6-3.7-9.1-8.1c-0.5-4.6,3.5-9.5,8.3-9.9
		C816.8,268.1,821.7,272.4,822,277z"/>
	<path class="st0" d="M746.4,302.9c4.4-0.1,8.5,3.6,8.9,8.1c0.4,4.7-3.8,9.3-8.5,9.4c-4.4,0.1-8.5-3.6-8.9-8.1
		C737.5,307.6,741.7,303,746.4,302.9z"/>
	<path class="st0" d="M982.3,302.4c-0.1,4.5-3.3,7.6-7.8,7.7c-5,0.1-8.3-3.3-8.2-8.3c0.1-4.5,3.3-7.6,7.8-7.7
		C979.1,294,982.5,297.4,982.3,302.4z"/>
	<path class="st0" d="M432.1,349.9c-0.2,4.8-3.9,8.1-8.7,7.7c-4.4-0.3-7.5-3.5-7.5-8c-0.1-4.9,3.4-8.3,8.2-8.2
		C428.9,341.4,432.3,345,432.1,349.9z"/>
	<path class="st0" d="M449.3,381.6c0.1,4.8-3.3,8.3-8.1,8.3c-4.8,0.1-8.3-3.3-8.3-8.1c-0.1-4.8,3.3-8.3,8.1-8.3
		C445.7,373.4,449.2,376.8,449.3,381.6z"/>
	<path class="st0" d="M796.3,270.2c-0.2,4.5-3.3,7.6-7.9,7.6c-4.9,0.1-8.3-3.4-8.1-8.3c0.2-4.5,3.3-7.6,7.9-7.6
		C793.2,261.8,796.5,265.3,796.3,270.2z"/>
	<path class="st0" d="M880,270.2c-0.2,4.8-3.9,8.1-8.8,7.8c-4.5-0.3-7.5-3.6-7.6-8.1c-0.1-4.9,3.4-8.3,8.3-8.3
		C876.8,261.8,880.2,265.4,880,270.2z"/>
	<path class="st0" d="M796,320.4c4.8,0.1,8.2,3.5,8.1,8.3c-0.1,4.8-3.5,8.2-8.3,8.1c-4.8-0.1-8.2-3.5-8.1-8.3
		C787.8,323.7,791.2,320.4,796,320.4z"/>
	<path class="st0" d="M855.2,345.7c0,4.9-3.6,8.3-8.5,8c-4.5-0.2-7.6-3.5-7.6-8c0-4.9,3.6-8.3,8.5-8
		C852.2,337.9,855.2,341.1,855.2,345.7z"/>
	<path class="st0" d="M1000.5,301.6c5-0.2,8.5,3.2,8.4,8.1c-0.1,4.6-3.1,7.7-7.7,7.9c-5,0.2-8.5-3.2-8.4-8.1
		C992.9,305,996,301.8,1000.5,301.6z"/>
	<path class="st0" d="M1084.6,301.6c4.5,0.1,7.7,3.2,7.8,7.7c0.1,5-3.3,8.4-8.2,8.3c-4.5-0.1-7.7-3.2-7.8-7.8
		C1076.2,305,1079.6,301.5,1084.6,301.6z"/>
	<path class="st0" d="M822,330.2c4.9-0.3,8.4,3.1,8.4,7.9c0,4.5-3,7.7-7.5,7.9c-4.9,0.3-8.4-3.1-8.4-7.9
		C814.6,333.6,817.6,330.4,822,330.2z"/>
	<path class="st0" d="M949.8,286.3c4.8,0.1,8.2,3.5,8.1,8.3c-0.1,4.8-3.5,8.2-8.3,8.1c-4.8-0.1-8.2-3.5-8.1-8.3
		C941.5,289.6,944.9,286.2,949.8,286.3z"/>
	<path class="st0" d="M744.3,338.3c-0.1,3.6-3.9,7.1-7.5,7c-3.7-0.1-7.1-3.8-7-7.5c0.1-3.6,3.9-7.1,7.5-7
		C741,331,744.5,334.7,744.3,338.3z"/>
	<path class="st0" d="M627.2,338.1c-4.2,0.1-7.8-3.5-7.7-7.6c0-4.2,3.7-7.7,7.9-7.5c3.8,0.2,7,3.4,7.2,7.2
		C634.8,334.3,631.4,338,627.2,338.1z"/>
	<path class="st0" d="M558.7,356.8c4.5,0,7.7,3.1,7.9,7.6c0.2,4.8-3.4,8.3-8.3,8.1c-4.4-0.2-7.5-3.6-7.4-8
		C551,360,554.2,356.8,558.7,356.8z"/>
	<path class="st0" d="M719.8,330.9c-0.2,3.7-3.8,7.1-7.5,7c-3.7-0.1-7.2-3.5-7.2-7.2c-0.1-4,4-7.8,7.9-7.4
		C716.7,323.5,720,327.3,719.8,330.9z"/>
	<path class="st0" d="M652.1,345.6c-4.1,0.3-7.9-3.4-7.9-7.5c0-3.8,3.3-7.2,7-7.4c4.1-0.3,7.9,3.4,7.9,7.5
		C659.2,341.9,655.9,345.3,652.1,345.6z"/>
	<path class="st0" d="M1162.6,341.8c-4.2,0.3-8-3.3-8-7.5c0-3.8,3.2-7.2,7.1-7.5c4.2-0.3,8,3.3,8,7.5
		C1169.7,338.2,1166.5,341.6,1162.6,341.8z"/>
	<path class="st0" d="M820.7,362.8c0,4.3-3.4,7.6-7.7,7.6c-4.3,0-7.6-3.4-7.6-7.7c0-4.3,3.4-7.6,7.7-7.6
		C817.3,355.1,820.7,358.5,820.7,362.8z"/>
	<path class="st0" d="M1076.7,360.4c0.3,4.2-3.3,8-7.5,8c-3.8,0-7.3-3.2-7.5-7.1c-0.3-4.2,3.3-8,7.5-8
		C1073.1,353.4,1076.5,356.6,1076.7,360.4z"/>
	<path class="st0" d="M735.1,278.9c0.3,4.2-3.3,8-7.5,8c-3.8,0-7.3-3.2-7.5-7.1c-0.3-4.2,3.3-8,7.5-8
		C731.5,271.8,734.9,275.1,735.1,278.9z"/>
	<path class="st0" d="M1111.2,326.8c-4.4,0.2-7.8-3.1-8-7.4c-0.2-4.3,3.1-7.8,7.4-8c4.4-0.2,7.8,3.1,8,7.4
		C1118.8,323.2,1115.6,326.7,1111.2,326.8z"/>
	<path class="st0" d="M286.9,340c-4.1-0.2-7.5-4.1-7.2-8.2c0.4-4.1,4.3-7.4,8.4-6.9c3.8,0.4,6.8,3.9,6.7,7.7
		C294.8,336.8,291.1,340.2,286.9,340z"/>
	<path class="st0" d="M788.5,347.4c4.4,0.1,7.7,3.5,7.6,8c-0.1,4.4-3.5,7.7-8,7.6c-4.4-0.1-7.7-3.5-7.6-8
		C780.7,350.5,784.1,347.3,788.5,347.4z"/>
	<path class="st0" d="M864.3,372.3c4.2,0,7.7,3.7,7.5,7.9c-0.2,4.2-4,7.5-8.1,7.2c-3.8-0.3-6.9-3.6-7-7.4
		C856.6,375.8,860.2,372.2,864.3,372.3z"/>
	<path class="st0" d="M1101.3,284.7c0.2,3.7-3.1,7.4-6.8,7.7c-4,0.4-8.1-3.4-8-7.5c0.1-3.7,3.5-7.2,7.3-7.3
		C1097.5,277.6,1101.1,280.9,1101.3,284.7z"/>
	<path class="st0" d="M602.2,313.7c3.7-0.1,7.3,3.3,7.5,7c0.2,4-3.7,7.9-7.7,7.7c-3.7-0.2-7.1-3.8-7-7.4
		C595.1,317.2,598.5,313.8,602.2,313.7z"/>
	<path class="st0" d="M703.1,296.4c0,4.4-3.4,7.7-7.8,7.7c-4.4,0-7.7-3.4-7.7-7.8c0-4.4,3.4-7.7,7.8-7.7
		C699.8,288.7,703.1,292,703.1,296.4z"/>
	<path class="st0" d="M1205.9,351.6c-0.1-3.8,3-7.4,6.8-7.8c4.1-0.4,8.1,3.1,8.2,7.3c0.1,4.2-3.5,7.9-7.7,7.8
		C1209.4,358.8,1206.1,355.5,1205.9,351.6z"/>
	<path class="st0" d="M1135.3,351.2c0.1,3.6-3.4,7.3-7,7.4c-3.6,0.1-7.3-3.4-7.5-7c-0.1-3.6,3.4-7.3,7-7.4
		C1131.4,344,1135.2,347.5,1135.3,351.2z"/>
	<path class="st0" d="M693.5,321.2c-0.1,4.3-3.6,7.6-7.8,7.5c-4.3-0.1-7.6-3.6-7.5-7.8c0.1-4.3,3.6-7.6,7.8-7.5
		C690.3,313.5,693.6,317,693.5,321.2z"/>
	<path class="st0" d="M1042.3,292.4c0.1,3.6-3.4,7.3-7,7.5c-3.6,0.1-7.3-3.4-7.5-7c-0.1-3.6,3.4-7.3,7-7.5
		C1038.4,285.2,1042.2,288.7,1042.3,292.4z"/>
	<path class="st0" d="M1118.9,285.2c3.7,0.2,7.1,3.6,7.1,7.3c0.1,4-3.7,7.8-7.8,7.6c-4.1-0.2-7.6-4.2-7.1-8.2
		C1111.5,288.2,1115.2,285,1118.9,285.2z"/>
	<path class="st0" d="M345.9,315.7c3.6-0.1,7.3,3.4,7.5,7c0.1,3.6-3.4,7.3-7,7.5c-3.6,0.1-7.3-3.4-7.5-7
		C338.8,319.6,342.3,315.8,345.9,315.7z"/>
	<path class="st0" d="M260.5,349.8c-0.2,3.7-3.8,7.1-7.5,7c-3.7-0.1-7.2-3.5-7.2-7.2c-0.1-4,4-7.8,7.9-7.4
		C257.4,342.5,260.7,346.2,260.5,349.8z"/>
	<path class="st0" d="M600.6,348c-0.2,4.4-3.7,7.6-8.2,7.4c-4.4-0.2-7.6-3.7-7.4-8.2c0.2-4.4,3.7-7.6,8.2-7.4
		C597.7,340,600.8,343.5,600.6,348z"/>
	<path class="st0" d="M515.3,347.9c-0.1,4.4-3.4,7.6-7.9,7.6c-4.8,0-8.2-3.8-7.8-8.6c0.4-4.4,3.9-7.4,8.4-7.1
		C512.4,340,515.5,343.4,515.3,347.9z"/>
	<path class="st0" d="M1145.5,307.5c-3.6,0.2-7.4-3.1-7.7-6.8c-0.4-4,3.5-8,7.5-7.9c3.7,0.1,7.2,3.5,7.2,7.2
		C1152.5,303.7,1149.1,307.3,1145.5,307.5z"/>
	<path class="st0" d="M915.2,404.4c-4.1-0.1-7.7-4.1-7.2-8.2c0.4-3.7,4-6.9,7.7-6.8c4.1,0.1,7.7,4.1,7.2,8.2
		C922.6,401.3,919,404.5,915.2,404.4z"/>
	<path class="st0" d="M661.6,305.9c4.3,0.2,7.6,4,7.2,8.3c-0.4,4.2-4.3,7.4-8.5,6.9c-3.9-0.5-6.8-3.9-6.7-7.8
		C653.7,308.9,657.3,305.6,661.6,305.9z"/>
	<path class="st0" d="M771.3,345.3c0.2,4.3-3,7.8-7.3,8c-4.3,0.2-7.8-3-8-7.3c-0.2-4.3,3-7.8,7.3-8
		C767.6,337.8,771.1,341,771.3,345.3z"/>
	<path class="st0" d="M1187.3,336.3c4.2,0.3,7.6,4.3,7,8.4c-0.5,3.8-4.1,6.8-7.9,6.6c-4.2-0.3-7.6-4.3-7-8.4
		C1179.9,339.1,1183.5,336,1187.3,336.3z"/>
	<path class="st0" d="M465.5,383.9c3.7-0.1,7.4,3.3,7.5,7c0.1,3.7-3.3,7.4-7,7.5c-3.7,0.1-7.4-3.3-7.5-7
		C458.3,387.8,461.7,384,465.5,383.9z"/>
	<path class="st0" d="M389.6,391.5c-0.2,3.7-3.7,7.1-7.5,7.1c-3.7,0-7.2-3.5-7.3-7.2c-0.1-4.1,3.9-7.9,7.9-7.6
		C386.5,384.1,389.8,387.8,389.6,391.5z"/>
	<path class="st0" d="M983.8,387.5c0,4.2-3.7,7.7-7.9,7.5c-4.2-0.2-7.6-4-7.2-8.1c0.3-3.8,3.6-6.9,7.4-7
		C980.2,379.8,983.8,383.3,983.8,387.5z"/>
	<path class="st0" d="M1067.4,302.1c0,4.3-3.4,7.6-7.7,7.6c-4.3,0-7.6-3.4-7.6-7.7c0-4.3,3.4-7.6,7.7-7.6
		C1064,294.5,1067.4,297.8,1067.4,302.1z"/>
	<path class="st0" d="M1109,343.4c0.2,4.2-3.4,7.9-7.6,7.9c-3.8-0.1-7.2-3.3-7.4-7.1c-0.2-4.2,3.4-7.9,7.6-7.9
		C1105.4,336.3,1108.8,339.6,1109,343.4z"/>
	<path class="st0" d="M890.7,379.8c4.2-0.1,7.8,3.5,7.7,7.7c-0.1,4.2-3.7,7.7-7.9,7.5c-3.9-0.2-7.1-3.4-7.2-7.2
		C883,383.5,886.5,379.9,890.7,379.8z"/>
	<path class="st0" d="M642,303.5c0.3,3.6-3,7.4-6.6,7.8c-3.9,0.4-8-3.3-8-7.3c0-3.7,3.4-7.2,7.1-7.3
		C638,296.5,641.7,299.8,642,303.5z"/>
	<path class="st0" d="M356.1,376.3c3.7,0.3,7,3.9,6.9,7.6c-0.1,4.1-4.3,7.6-8.3,7.1c-3.7-0.5-6.8-4.4-6.4-8
		C348.7,379.3,352.5,376,356.1,376.3z"/>
	<path class="st0" d="M314,349.7c-4.5,0.1-7.8-3-8-7.5c-0.2-4.8,3.4-8.4,8.2-8.2c4.4,0.2,7.6,3.5,7.5,7.9
		C321.7,346.4,318.5,349.7,314,349.7z"/>
	<path class="st0" d="M1135.9,319.2c4.2,0.2,7.6,3.9,7.3,8.1c-0.3,4.2-4.2,7.5-8.3,7.1c-3.8-0.4-6.9-3.8-6.9-7.6
		C1128.1,322.5,1131.7,319,1135.9,319.2z"/>
	<path class="st0" d="M576,339.6c0.2,4.4-2.8,7.9-7.2,8.2c-4.8,0.4-8.5-3.1-8.5-7.9c0-4.4,3.2-7.7,7.7-7.8
		C572.5,332.1,575.8,335.2,576,339.6z"/>
	<path class="st0" d="M526.7,389c-3.7,0.1-7.4-3.3-7.5-7c-0.1-3.7,3.3-7.4,7-7.5c3.7-0.1,7.4,3.3,7.5,7
		C533.9,385.2,530.4,388.9,526.7,389z"/>
	<path class="st0" d="M847.1,268c-4.2,0-7.7-3.6-7.6-7.8c0.2-4.2,3.9-7.6,8.1-7.3c3.8,0.3,7,3.5,7.1,7.4
		C854.9,264.4,851.4,268,847.1,268z"/>
	<path class="st0" d="M338.2,374.4c-0.1,3.6-3.9,7.1-7.5,7c-3.6-0.1-7.1-3.9-7-7.5c0.1-3.6,3.9-7.1,7.5-7
		C334.8,367,338.4,370.8,338.2,374.4z"/>
	<path class="st0" d="M1016.3,369.9c0.2,4.4-2.8,7.9-7.1,8.2c-4.8,0.4-8.5-3.1-8.5-7.8c0-4.4,3.2-7.6,7.6-7.7
		C1012.7,362.5,1016.1,365.5,1016.3,369.9z"/>
	<path class="st0" d="M847.2,370c0.2,4.2-3.3,7.8-7.5,7.9c-4.2,0-7.8-3.5-7.7-7.7c0.1-3.9,3.2-7.1,7-7.4
		C843.2,362.4,847,365.8,847.2,370z"/>
	<path class="st0" d="M1177.1,309.4c0.1,3.7-3.3,7.4-7.1,7.5c-3.7,0.1-7.4-3.3-7.5-7.1c-0.1-3.7,3.3-7.4,7.1-7.5
		C1173.3,302.2,1177,305.7,1177.1,309.4z"/>
	<path class="st0" d="M380.3,332.3c0.1,4.2-3.5,7.8-7.7,7.7c-4.3-0.1-7.7-3.7-7.5-7.9c0.2-3.9,3.4-7,7.2-7.2
		C376.6,324.6,380.2,328.1,380.3,332.3z"/>
	<path class="st0" d="M397.8,332.3c4.3,0.2,7.5,3.7,7.3,8.1c-0.2,4.3-3.7,7.5-8.1,7.3c-4.3-0.2-7.5-3.7-7.3-8.1
		C389.9,335.3,393.4,332.1,397.8,332.3z"/>
	<path class="st0" d="M1196.1,324.5c-3.6-0.1-7.1-3.9-7-7.5c0.1-3.6,3.9-7.1,7.5-7c3.6,0.1,7.1,3.9,7,7.5
		C1203.5,321.2,1199.7,324.6,1196.1,324.5z"/>
	<path class="st0" d="M619.6,362.2c-3.3,0.1-6.9-3.1-7.2-6.4c-0.4-3.6,3.2-7.6,6.9-7.7c3.7-0.1,7.4,3.7,7.2,7.3
		C626.3,358.7,622.8,362.1,619.6,362.2z"/>
	<path class="st0" d="M747.2,372.4c-0.1-3.2,3-6.8,6.3-7.1c3.5-0.4,7.5,3.1,7.6,6.7c0.1,3.2-3,6.8-6.3,7.1
		C751.3,379.5,747.3,376,747.2,372.4z"/>
	<path class="st0" d="M1159.4,360.7c0.1,3.5-3,6.7-6.5,6.8c-3.5,0.1-6.7-3-6.8-6.5c-0.1-3.5,3-6.7,6.5-6.8
		C1156.1,354.1,1159.3,357.2,1159.4,360.7z"/>
	<path class="st0" d="M226.2,366.3c0.1,3.6-3.6,7.4-7.2,7.4c-3.6,0-7.4-3.8-7.1-7.4c0.4-3.9,2.8-6.3,6.7-6.8
		C222.1,359,226.1,362.7,226.2,366.3z"/>
	<path class="st0" d="M1228.2,327c-0.2,3.7-4.1,7.2-7.7,6.9c-3.7-0.3-7.2-4.4-6.6-7.9c0.7-3.8,3.1-6.2,7.1-6.4
		C1224.7,319.4,1228.3,323.4,1228.2,327z"/>
	<path class="st0" d="M761.4,269.2c-3.7-0.2-7-4.1-6.5-7.8c0.4-3.3,4-6.3,7.3-6.1c3.7,0.2,7,4.2,6.5,7.8
		C768.2,266.4,764.6,269.4,761.4,269.2z"/>
	<path class="st0" d="M548.6,330.7c-0.1,3.6-4.1,7.1-7.6,6.7c-3.3-0.3-6.4-3.9-6.3-7.1c0.1-3.6,4.1-7.1,7.6-6.7
		C545.5,323.9,548.7,327.5,548.6,330.7z"/>
	<path class="st0" d="M1008.8,291.7c-3.5,0.2-6.8-2.8-6.9-6.4c-0.2-3.5,2.8-6.8,6.4-6.9c3.5-0.2,6.8,2.8,6.9,6.4
		C1015.3,288.2,1012.3,291.5,1008.8,291.7z"/>
	<path class="st0" d="M678.6,354.3c-3.4,0.2-6.8-2.9-7.1-6.2c-0.3-3.3,2.6-6.8,6-7.3c3.7-0.4,7.5,2.9,7.5,6.6
		C685.1,350.9,682,354.2,678.6,354.3z"/>
	<path class="st0" d="M1074.3,275.4c0.1,3.6-3.6,7.2-7.1,7.1c-3.6-0.1-7.3-3.8-6.9-7.4c0.4-3.8,2.8-6.2,6.6-6.6
		C1070.5,268.2,1074.3,271.8,1074.3,275.4z"/>
	<path class="st0" d="M1035.3,371.2c3.3,0.1,6.5,3.4,6.5,6.7c0,3.7-3.8,7.1-7.5,6.8c-3.4-0.4-6.3-3.9-6.1-7.2
		C1028.5,374.1,1031.9,371,1035.3,371.2z"/>
	<path class="st0" d="M262.9,332c-3.6,0.1-7.4-3.6-7.4-7.2c0-3.6,3.8-7.4,7.4-7.1c3.9,0.4,6.3,2.8,6.9,6.7
		C270.2,328,266.5,331.9,262.9,332z"/>
	<path class="st0" d="M235.6,342.1c-0.1,3.6-4,7.2-7.5,6.9c-3.6-0.2-7.2-4.2-6.6-7.7c0.7-3.8,3-6.2,7-6.4
		C232,334.6,235.7,338.5,235.6,342.1z"/>
	<path class="st0" d="M201.1,359c0,3.3-3.3,6.6-6.6,6.7c-3.8,0.1-7.2-3.6-6.9-7.3c0.3-3.4,3.7-6.4,7.1-6.2
		C198,352.4,201.1,355.7,201.1,359z"/>
	<path class="st0" d="M617.1,296.7c-0.2,3.7-4.1,7.2-7.7,6.8c-3.7-0.3-7.2-4.4-6.5-7.9c0.7-3.8,3.2-6.2,7.2-6.3
		C613.7,289.1,617.3,293.1,617.1,296.7z"/>
	<path class="st0" d="M780.4,387c-3.7-0.2-7.2-4.1-6.9-7.7c0.3-3.7,4.4-7.2,7.9-6.5c3.8,0.7,6.2,3.2,6.4,7.2
		C788,383.5,784,387.2,780.4,387z"/>
	<path class="st0" d="M812.2,387.3c0.1,3.4-3,6.7-6.4,6.9c-3.3,0.2-6.8-2.8-7.1-6.2c-0.3-3.7,3.1-7.4,6.9-7.3
		C808.9,380.7,812.1,383.9,812.2,387.3z"/>
	<path class="st0" d="M668.8,293.8c-3.7,0-7.2-3.8-7-7.4c0.2-3.2,3.7-6.5,6.9-6.5c3.7,0,7.2,3.8,7,7.4
		C675.5,290.6,672.1,293.8,668.8,293.8z"/>
	<path class="st0" d="M829.4,252.9c-0.1,3.7-3.9,7.2-7.5,6.8c-3.3-0.3-6.4-3.8-6.4-7c0.1-3.6,3.9-7.2,7.5-6.8
		C826.3,246.1,829.5,249.6,829.4,252.9z"/>
	<path class="st0" d="M583,296c-3.7-0.2-7.1-4.2-6.8-7.8c0.4-3.7,4.4-7.2,8-6.5c3.8,0.8,6.2,3.2,6.3,7.2
		C590.6,292.6,586.6,296.2,583,296z"/>
	<path class="st0" d="M413.6,399.2c-0.2,3.4-3.6,6.4-7,6.3c-3.8-0.1-7-3.9-6.5-7.6c0.5-3.4,4-6.2,7.3-5.9
		C410.9,392.4,413.9,395.9,413.6,399.2z"/>
	<path class="st0" d="M489.7,340.3c-0.2,3.7-4.1,7-7.7,6.6c-3.3-0.4-6.3-4-6.2-7.2c0.2-3.7,4.1-7,7.7-6.6
		C486.8,333.5,489.9,337.1,489.7,340.3z"/>
	<path class="st0" d="M311.3,366.7c-0.1,3.6-4,7.1-7.6,6.8c-3.3-0.3-6.4-3.8-6.3-7.1c0.1-3.6,4-7.1,7.6-6.8
		C308.3,359.9,311.4,363.5,311.3,366.7z"/>
	<path class="st0" d="M279.9,351.9c3.6,0.1,7.2,4.1,6.9,7.7c-0.3,3.3-3.9,6.5-7.2,6.4c-3.6-0.1-7.2-4.1-6.9-7.6
		C273,355.1,276.6,351.9,279.9,351.9z"/>
	<path class="st0" d="M582.6,313.5c0,3.3-3.4,6.7-6.7,6.8c-3.7,0.1-7.3-3.7-7-7.4c0.3-3.4,3.8-6.5,7.2-6.3
		C579.5,306.8,582.7,310.2,582.6,313.5z"/>
	<path class="st0" d="M941.6,397.3c3.6-0.3,7.6,3.3,7.6,7c-0.1,4-2.4,6.5-6.2,7.3c-3.6,0.7-7.7-2.7-8.1-6.4
		C934.5,401.6,938,397.6,941.6,397.3z"/>
	<path class="st0" d="M1244.6,359c0,3.6-3,6.5-6.6,6.5c-3.6,0-6.5-3-6.5-6.6c0-3.6,3-6.5,6.6-6.5
		C1241.7,352.5,1244.7,355.5,1244.6,359z"/>
	<path class="st0" d="M252.1,375.6c0.2,3.6-2.5,6.7-6.1,6.9c-3.6,0.2-6.7-2.5-7-6.1c-0.2-3.6,2.5-6.7,6.1-6.9
		C248.7,369.3,251.9,372,252.1,375.6z"/>
	<path class="st0" d="M114.9,359.4c-0.5,3.8-2.7,5.6-6.4,5.4c-3.8-0.3-5.6-2.6-5.4-6.3c0.2-3.8,2.6-5.6,6.3-5.4
		C113.2,353.3,114.9,355.7,114.9,359.4z"/>
	<path class="st0" d="M1329.3,359.4c-0.6,3.6-2.8,5.6-6.4,5.2c-3.7-0.4-5.5-2.9-5-6.5c0.4-3.2,2.6-5,5.8-4.8
		C1327.4,353.5,1329.2,355.8,1329.3,359.4z"/>
	<path class="st0" d="M1408.4,364.8c-3.7-0.5-5.6-2.7-5.3-6.3c0.3-3.8,2.6-5.6,6.3-5.4c3.8,0.2,5.6,2.6,5.4,6.3
		C1414.5,363.2,1412.1,364.8,1408.4,364.8z"/>
	<path class="st0" d="M729.5,368.7c-4.3-0.5-6.1-2.7-5.9-6.5c0.3-3.8,2.6-5.6,6.3-5.4c3.8,0.2,5.6,2.6,5.4,6.3
		C735.2,367.1,732.6,368.6,729.5,368.7z"/>
	<path class="st0" d="M649.9,364.6c-0.1,3.3-1.8,5.6-5.6,5.7c-3.8,0.1-5.9-2-5.9-5.8c0-3.3,1.9-5.2,5.1-5.7
		C646.8,358.5,649.6,360.9,649.9,364.6z"/>
	<path class="st0" d="M1354.1,366.1c-0.4,4.2-2.3,6.3-6,6.2c-3.7-0.1-5.7-2.2-5.6-5.9c0.1-3.7,2.2-5.7,5.9-5.6
		C1352.1,360.8,1353.7,363.2,1354.1,366.1z"/>
	<path class="st0" d="M1433.9,360.8c3.4,0.2,5.8,2.9,5.5,6.3c-0.3,3.3-3.2,5.7-6.5,5.2c-3.2-0.5-5-2.5-5-5.8
		C1427.8,363.1,1430.4,360.6,1433.9,360.8z"/>
	<path class="st0" d="M141.5,368.9c-0.4,3.7-2.5,5.6-6.2,5.5c-3.8,0-6.4-3.1-5.8-6.9c0.6-3.7,3-5.4,6.6-5.1
		C139.9,362.8,141.6,365.2,141.5,368.9z"/>
	<path class="st0" d="M1100.1,368.1c0.1,4.1-2.8,6.9-6.6,6.6c-3.7-0.3-5.7-2.4-5.9-6.1c-0.2-3.8,2.8-6.6,6.6-6.3
		C1098,362.5,1099.8,364.7,1100.1,368.1z"/>
	<path class="st0" d="M1179.3,374.8c-3.7,0-6.5-2.8-6.4-6.5c0.1-3.7,3-6.4,6.7-6.1c3.6,0.3,5.6,2.4,5.9,6
		C1185.8,371.9,1183.1,374.7,1179.3,374.8z"/>
	<path class="st0" d="M1264.4,362.6c4.2,0.6,6.2,2.7,5.9,6.3c-0.3,3.7-2.8,5.5-6.4,5.1c-3.2-0.3-5-2.4-5-5.7
		C1259.1,364.6,1261.5,363.1,1264.4,362.6z"/>
	<path class="st0" d="M585.5,366.5c3.7,0.5,5.7,2.6,5.4,6.3c-0.3,3.7-2.8,5.5-6.4,5.1c-3.2-0.3-5-2.4-4.9-5.7
		C579.7,368.5,581.9,366.7,585.5,366.5z"/>
	<path class="st0" d="M1463.8,374.3c-0.5,3.1-2.3,5.1-5.5,5.3c-3.1,0.2-6.2-3.1-5.6-6.1c0.6-3.1,2.6-5.1,5.9-4.8
		C1461.8,369,1463.5,371.1,1463.8,374.3z"/>
	<path class="st0" d="M160.3,370c3.8,0.3,5.8,2.3,5.9,5.9c0.1,3.8-2.8,6.4-6.6,6c-3.7-0.4-5.5-2.7-5.3-6.4
		C154.5,371.9,156.7,370.2,160.3,370z"/>
	<path class="st0" d="M1210.1,375.5c0.2,4-2.5,6.9-6.3,6.7c-3.7-0.2-5.8-2.1-6-5.8c-0.3-3.8,2.5-6.6,6.3-6.5
		C1207.7,370,1209.8,372,1210.1,375.5z"/>
	<path class="st0" d="M1374.9,370.2c3.8,0.4,5.7,2.5,5.6,6.2c-0.1,3.4-3,5.8-6.4,5.3c-3.2-0.4-5.1-2.4-5.1-5.7
		C1369.1,372.3,1371.2,370.5,1374.9,370.2z"/>
	<path class="st0" d="M1120.3,383.7c-3.3-0.1-5.5-1.9-5.6-5.7c-0.1-3.3,1.7-5.3,5-5.8c3.3-0.5,6.2,1.8,6.5,5.2
		C1126.5,380.8,1124.1,383.5,1120.3,383.7z"/>
	<path class="st0" d="M186.4,377.6c4.2,0.3,6.3,2.3,6.2,6.1c-0.1,3.8-2.3,5.8-6,5.7c-3.8-0.1-5.8-2.3-5.7-6
		C180.9,379.6,183.3,377.9,186.4,377.6z"/>
	<path class="st0" d="M1055.8,242.1c-0.6,2.8-2.4,4.8-5.8,4.8c-3.2,0-6-3.4-5.3-6.4c0.7-3.1,2.8-4.9,6.2-4.6
		C1053.7,236.1,1056,239.1,1055.8,242.1z"/>
	<path class="st0" d="M270.4,389.7c-3.6-0.1-5.9-1.9-6.2-5.6c-0.4-3.9,2.4-6.8,6.3-6.5c3.8,0.2,5.8,2.3,5.8,6.1
		C276.3,387.4,274.2,389.4,270.4,389.7z"/>
	<path class="st0" d="M1399.6,377.9c2.9,0.1,4.9,1.8,5.5,5c0.6,3.2-2.1,6.3-5.4,6.4c-3.3,0.1-5.3-1.8-5.9-4.9
		C1393.2,381.2,1395.9,378.1,1399.6,377.9z"/>
	<path class="st0" d="M1059.2,379.7c4,0.4,6.2,2.2,6.1,6c-0.1,3.7-2.4,5.7-6.1,5.5c-3.2-0.2-5.1-2.1-5.3-5.4
		C1053.9,382,1056.2,380.3,1059.2,379.7z"/>
	<path class="st0" d="M1150.8,385.7c-0.1,2.9-1.8,4.9-5,5.4c-3.2,0.5-6.3-2.2-6.3-5.4c0-3.3,1.8-5.3,5-5.9
		C1147.6,379.3,1150.7,382,1150.8,385.7z"/>
	<path class="st0" d="M801.6,242.9c-0.1,3.3-1.7,5.4-4.9,6c-3.2,0.6-6.3-2-6.5-5.3c-0.2-3.3,2.5-6.2,5.8-6
		C799.4,237.8,801.2,239.8,801.6,242.9z"/>
	<path class="st0" d="M1230.7,379.8c2.9,0.1,4.9,1.8,5.5,5c0.6,3.2-2.1,6.3-5.4,6.4c-3.3,0.1-5.3-1.8-5.9-4.9
		C1224.3,383,1227,380,1230.7,379.8z"/>
	<path class="st0" d="M302.7,391.7c-0.5,3.7-2.7,5.6-6.3,5.3c-3.8-0.3-5.6-2.6-5.4-6.3c0.2-3.8,2.6-5.6,6.3-5.4
		C301.1,385.6,302.7,388,302.7,391.7z"/>
	<path class="st0" d="M211.3,387.5c2.9,0,5,1.6,5.6,4.8c0.6,3.1-1.9,6.2-5.1,6.5c-3.2,0.2-6.1-2.4-6-5.7
		C205.8,390.2,208.2,387.7,211.3,387.5z"/>
	<path class="st0" d="M1006.8,394.6c-0.2,4-2,6.2-5.8,6.2c-3.7,0.1-5.9-1.9-6-5.7c-0.1-3.7,1.9-5.9,5.7-6
		C1004.5,389.1,1006.4,391.2,1006.8,394.6z"/>
	<path class="st0" d="M746.6,402.7c-3.3-0.1-5.6-1.8-5.7-5.6c-0.1-3.8,2-5.9,5.8-5.9c3.3,0,5.2,1.8,5.7,5.1
		C752.8,399.6,750.4,402.4,746.6,402.7z"/>
	<path class="st0" d="M832,402.9c-3.7-0.2-5.8-2-6-5.8c-0.2-3.8,2.6-6.5,6.4-6.2c3.7,0.3,5.6,2.5,5.5,6.2
		C837.8,400.8,835.6,402.7,832,402.9z"/>
	<path class="st0" d="M492,393.2c3.6,0.1,6.4,3.1,5.9,6.2c-0.5,3.1-2.5,5-5.7,5c-3.2,0-5.9-3-5.4-6.2
		C487.2,395,489.2,393.3,492,393.2z"/>
	<path class="st0" d="M321.5,395c3.6,0.2,6.2,3.3,5.6,6.4c-0.6,3.1-2.6,4.9-5.9,4.8c-3.2-0.1-5.8-3.3-5.2-6.4
		C316.5,396.7,318.6,395.1,321.5,395z"/>
	<path class="st0" d="M856.6,398.7c3.7,0.3,5.9,2.2,5.8,6c-0.1,3.8-2.4,5.7-6.1,5.5c-3.3-0.2-5.2-2.1-5.3-5.4
		C850.8,401,852.9,399,856.6,398.7z"/>
	<path class="st0" d="M777,407.1c-0.4,3.2-2.4,5.2-6.2,5c-3.4-0.1-5.8-3-5.3-6.4c0.4-3.2,2.4-5,5.7-5.1
		C774.7,400.5,777.1,403.1,777,407.1z"/>
	<path class="st0" d="M967,406.3c3.4,0.2,5.8,2.9,5.5,6.3c-0.3,3.3-3.2,5.7-6.5,5.2c-3.2-0.5-5-2.5-5-5.8
		C960.9,408.6,963.5,406.1,967,406.3z"/>
	<path class="st0" d="M1076.7,244.9c3.6,0.2,5.8,2,6,5.7c0.2,3.6-1.7,5.9-5.4,6.3c-3.8,0.4-6.6-2.3-6.5-6.1
		C1071,247,1073.1,245.2,1076.7,244.9z"/>
	<path class="st0" d="M906.1,247c3.8,0.4,5.7,2.5,5.6,6.2c-0.1,3.4-3,5.8-6.4,5.3c-3.2-0.4-5.1-2.4-5.1-5.7
		C900.3,249,902.5,247.2,906.1,247z"/>
	<path class="st0" d="M566.2,260.5c-3.7-0.3-5.8-2.3-5.7-6c0.1-3.7,2.2-5.7,5.9-5.6c3.7,0.1,5.7,2.2,5.6,5.9
		C572,258.5,569.8,260.3,566.2,260.5z"/>
	<path class="st0" d="M933,266.2c-4-0.2-6.2-2-6.2-5.7c-0.1-3.7,1.9-5.8,5.6-5.9c3.7-0.1,5.8,1.9,5.9,5.6
		C938.5,264,936.3,265.8,933,266.2z"/>
	<path class="st0" d="M1016.2,254.5c3.7,0.3,5.8,2.3,5.7,6c-0.1,3.7-2.2,5.7-5.9,5.6c-3.7-0.1-5.7-2.2-5.6-5.9
		C1010.4,256.5,1012.6,254.7,1016.2,254.5z"/>
	<path class="st0" d="M593.3,268.3c-3.7,0-6-1.7-6.4-5.4c-0.4-3.8,2.3-6.7,6.1-6.6c3.7,0.1,5.8,2.1,5.9,5.8
		C598.9,265.8,597,267.9,593.3,268.3z"/>
	<path class="st0" d="M683.9,262.5c-0.1,3.2-3.2,5.9-6.3,5.4c-3.1-0.6-5-2.5-4.9-5.8c0-3.2,3.1-5.8,6.3-5.4
		C681.8,257,684,259.6,683.9,262.5z"/>
	<path class="st0" d="M957.7,273.8c-3.7,0-6.1-1.6-6.3-5.4c-0.2-3.7,1.6-6,5.4-6.3c3.7-0.2,6,1.6,6.3,5.4
		C963.3,271.2,961.4,273.4,957.7,273.8z"/>
	<path class="st0" d="M1042.7,274.3c-3.7,0-6.5-2.8-6.4-6.5c0.1-3.7,3-6.4,6.7-6.1c3.6,0.3,5.6,2.4,5.9,6
		C1049.2,271.4,1046.4,274.2,1042.7,274.3z"/>
	<path class="st0" d="M1122.1,268.3c0.4-4.2,2.4-6.3,6.1-6.2c3.8,0.1,5.8,2.3,5.7,6c-0.1,3.8-2.3,5.8-6,5.7
		C1124,273.8,1122.4,271.4,1122.1,268.3z"/>
	<path class="st0" d="M703.2,263.8c3.8,0.4,5.7,2.4,5.8,6.1c0,3.8-3,6.5-6.8,5.9c-3.7-0.5-5.5-2.9-5.2-6.5
		C697.2,265.6,699.6,263.9,703.2,263.8z"/>
	<path class="st0" d="M539.7,271.6c0,2.9-1.6,5-4.8,5.6c-3.1,0.6-6.2-1.9-6.5-5.1c-0.2-3.2,2.4-6.1,5.7-6
		C536.9,266.2,539.4,268.5,539.7,271.6z"/>
	<path class="st0" d="M623.5,271.4c0,3.6-1.7,6-5.4,6.3c-3.6,0.3-6-1.4-6.5-5.1c-0.6-3.8,2-6.8,5.8-6.8
		C621.1,265.8,623.1,267.7,623.5,271.4z"/>
	<path class="st0" d="M1158.5,275.4c-0.2,3.7-2.1,5.8-5.9,5.9c-3.3,0-5.2-1.9-5.7-5.1c-0.4-3.4,2-6.2,5.3-6.4
		C1156.1,269.7,1158.1,271.7,1158.5,275.4z"/>
	<path class="st0" d="M990,277.7c-0.4,3.7-2.4,5.7-6,5.9c-3.8,0.2-6.5-2.7-6.3-6.5c0.2-3.7,3.2-6.4,7-5.8
		C988.2,271.8,990,274.1,990,277.7z"/>
	<path class="st0" d="M558.8,285.6c-3.8,0.1-6.6-2.8-6.4-6.6c0.3-3.7,2.4-5.7,6.1-5.9c3.8-0.2,6.6,2.7,6.4,6.6
		C564.8,283.1,562.3,285.5,558.8,285.6z"/>
	<path class="st0" d="M650.2,279.7c-0.2,3.3-2,5.5-5.8,5.7c-3.7,0.2-6-1.7-6.4-5.5c-0.4-3.8,2.4-6.7,6.2-6.6
		C647.8,273.3,650.2,275.8,650.2,279.7z"/>
	<path class="st0" d="M1183,282.7c0,3.3-1.6,5.4-4.8,6c-3.1,0.6-6.2-1.9-6.5-5.1c-0.2-3.2,2.4-6.1,5.7-6
		C1180.7,277.7,1182.5,279.6,1183,282.7z"/>
	<path class="st0" d="M165.7,290.9c-0.5,3.1-2.3,5.1-5.5,5.3c-3.1,0.2-6.2-3.1-5.6-6.1c0.6-3.1,2.6-5.1,5.9-4.8
		C163.7,285.5,165.4,287.7,165.7,290.9z"/>
	<path class="st0" d="M-11.1,298.2c-2.8-0.4-4.9-2.1-5.1-5.4c-0.3-3.2,2.9-6.2,6.1-5.7c3.2,0.5,5.1,2.5,5,5.8
		C-5.1,295.7-7.8,298.2-11.1,298.2z"/>
	<path class="st0" d="M1209.6,292.8c-0.1,2.8-1.8,4.8-4.9,5.4c-3.1,0.6-6.3-2.1-6.3-5.3c-0.1-3.3,1.8-5.2,4.9-5.8
		C1206.3,286.4,1209.4,289.2,1209.6,292.8z"/>
	<path class="st0" d="M530.2,296.3c0,2.9-1.6,5-4.8,5.6c-3.1,0.6-6.2-1.9-6.5-5.1c-0.2-3.2,2.4-6.1,5.7-6
		C527.5,290.8,529.9,293.1,530.2,296.3z"/>
	<path class="st0" d="M15.5,305.8c-3.2-0.2-5.8-3.4-5.1-6.5c0.7-3.1,2.7-4.9,6-4.7c3.2,0.1,5.7,3.3,5.2,6.5
		C21.1,303.9,18.4,306,15.5,305.8z"/>
	<path class="st0" d="M1228.5,305.8c-3.2-0.5-5.3-2.2-5.4-5.5c0-3.3,2-5.3,5.2-5.6c3.2-0.4,6.3,2.7,5.9,5.9
		C1233.8,303.8,1231.7,305.5,1228.5,305.8z"/>
	<path class="st0" d="M551.2,299.8c3.8,0.3,5.9,2.3,6,6.1c0.1,3.8-2.9,6.6-6.7,6.1c-3.7-0.5-5.6-2.8-5.4-6.5
		C545.3,301.7,547.6,299.9,551.2,299.8z"/>
	<path class="st0" d="M295.2,313.4c-3.3-0.2-5.3-1.9-5.8-5.1c-0.5-3.1,2.5-6.3,5.7-6c3.3,0.3,5.3,2.2,5.3,5.5
		C300.5,311,298.4,312.8,295.2,313.4z"/>
	<path class="st0" d="M1261,307.6c-0.3,3.6-2.1,5.8-5.8,5.8c-3.2,0-5.3-1.9-5.6-5.1c-0.3-3.6,1.5-6,5.3-6.3
		C1258.5,301.9,1260.5,304,1261,307.6z"/>
	<path class="st0" d="M41.1,315.3c-3.4,0-5.6-1.7-6-4.9c-0.5-3.3,1.4-5.4,4.6-6.2c3.1-0.7,6.5,2,6.5,5.2
		C46.2,312.8,44.2,314.6,41.1,315.3z"/>
	<path class="st0" d="M241.9,315.4c-0.3,3.7-3.1,6-6.4,5.7c-3.3-0.4-5.6-3.3-5-6.6c0.6-3.2,2.6-5,5.9-4.8
		C240.1,309.8,241.8,312.1,241.9,315.4z"/>
	<path class="st0" d="M321.8,321.5c-4.2-0.1-6.9-3-6.5-6.7c0.4-3.6,2.6-5.5,6.3-5.6c3.7,0,6.4,3,6,6.7
		C327.2,319.6,325,321.4,321.8,321.5z"/>
	<path class="st0" d="M-12.6,317.5c-0.6,3.2-2.3,5.2-5.6,5.3c-3.2,0.1-6.2-3.2-5.5-6.3c0.6-3.1,2.7-5.1,6-4.8
		C-14.5,312.1-12.8,314.2-12.6,317.5z"/>
	<path class="st0" d="M72.7,317.5c-0.3,2.8-2,4.8-5.1,5.3c-3.1,0.4-6.2-2.7-5.9-5.8c0.4-3.2,2.3-5.1,5.5-5.2
		C70,311.6,72.6,314.3,72.7,317.5z"/>
	<path class="st0" d="M1279.6,311.4c4.2,0.6,6.2,2.7,5.9,6.3c-0.3,3.7-2.8,5.5-6.4,5.1c-3.2-0.3-5-2.4-5-5.7
		C1274.2,313.4,1276.6,311.9,1279.6,311.4z"/>
	<path class="st0" d="M1364.8,311.6c3.7,0,6.5,2.8,6.1,6.1c-0.4,3.3-2.3,5.1-5.6,5.2c-3.3,0.1-6.1-2.8-5.7-6.1
		C1360,313.6,1362,311.9,1364.8,311.6z"/>
	<path class="st0" d="M522.7,323.2c-0.1,2.9-1.8,4.9-5,5.4c-3.2,0.5-6.3-2.2-6.3-5.4c0-3.3,1.8-5.3,5-5.9
		C519.5,316.7,522.5,319.5,522.7,323.2z"/>
	<path class="st0" d="M91.3,330.4c-2.8-0.4-4.9-2.2-5-5.5c0-3.3,2-5.3,5.2-5.6c3.2-0.4,6.1,2.7,5.9,5.9
		C97.2,328.1,94.5,330.5,91.3,330.4z"/>
	<path class="st0" d="M1312.1,325c-0.1,2.8-1.8,4.8-5,5.4c-3.1,0.5-6.2-2.2-6.3-5.4c0-3.3,1.8-5.2,4.9-5.8
		C1308.9,318.7,1311.9,321.4,1312.1,325z"/>
	<path class="st0" d="M1384.1,324.8c0.3-3.7,3.1-6,6.4-5.7c3.3,0.4,5.6,3.3,5,6.6c-0.6,3.2-2.6,5-5.9,4.8
		C1385.9,330.4,1384.2,328.1,1384.1,324.8z"/>
	<path class="st0" d="M12,326.8c-0.5,3.2-2.2,5.2-5.4,5.4c-3.1,0.3-6.2-3-5.7-6c0.5-3.1,2.5-5.1,5.8-4.9
		C9.9,321.5,11.6,323.6,12,326.8z"/>
	<path class="st0" d="M1100.9,264.6c-3.4-0.3-5.4-2.4-5.5-6.1c-0.1-3.8,3-6.6,6.8-6c3.7,0.5,5.5,2.9,5.3,6.6
		C1107.4,262.4,1104.7,264.7,1100.9,264.6z"/>
	<path class="st0" d="M463.7,330.7c-0.5,3.1-2.3,5.1-5.5,5.3c-3.1,0.2-6.2-3.1-5.6-6.1c0.6-3.1,2.6-5.1,5.9-4.8
		C461.7,325.3,463.4,327.5,463.7,330.7z"/>
	<path class="st0" d="M207.6,332.3c0.1,3.3-2.7,6.1-6,5.8c-3.3-0.3-5.1-2.3-5.3-5.5c-0.2-3.3,2.7-6,6-5.8
		C205.2,326.9,207.5,329.4,207.6,332.3z"/>
	<path class="st0" d="M1416.2,338.2c-3.4-0.2-5.8-2.9-5.5-6.3c0.3-3.3,3.2-5.7,6.5-5.2c3.2,0.5,5,2.5,5,5.8
		C1422.3,335.9,1419.7,338.3,1416.2,338.2z"/>
	<path class="st0" d="M33.2,328.7c3.1,0.6,5.1,2.3,5.3,5.6c0.1,3.1-3.2,6.1-6.2,5.5c-3-0.7-5.1-2.7-4.8-5.9
		C27.9,330.7,30,329,33.2,328.7z"/>
	<path class="st0" d="M124.1,334.1c-0.1,3.8-3.2,6.5-6.4,5.9c-3.2-0.5-5-2.5-5-5.9c0-3.3,3.1-6,6.3-5.4
		C122.3,329.2,124,331.2,124.1,334.1z"/>
	<path class="st0" d="M1251.9,334c-0.1,4.2-3,6.9-6.8,6.5c-3.6-0.4-5.5-2.6-5.6-6.3c0-3.7,3-6.4,6.7-6
		C1250,328.6,1251.7,330.8,1251.9,334z"/>
	<path class="st0" d="M1331.1,340.1c-3.6-0.3-5.8-2.2-5.7-5.9c0.1-3.7,2.4-5.7,6.1-5.5c3.2,0.2,5.1,2.2,5.3,5.4
		C1336.9,337.8,1334.8,339.7,1331.1,340.1z"/>
	<path class="st0" d="M63.4,341.9c-0.2,3.6-3.3,6.2-6.5,5.6c-3.2-0.6-5-2.7-4.8-6c0.1-3.3,3.3-5.9,6.5-5.3
		C61.7,336.9,63.3,339,63.4,341.9z"/>
	<path class="st0" d="M143.2,336c4.1,0.5,6,2.7,5.8,6.4c-0.3,3.8-2.6,5.6-6.3,5.4c-3.8-0.2-5.6-2.6-5.4-6.3
		C137.5,337.6,140,336.1,143.2,336z"/>
	<path class="st0" d="M1272.7,347.7c-3.9,0-6.4-2.6-6.2-6c0.2-3.4,2.9-5.8,6.3-5.5c3.3,0.4,5.2,2.3,5.2,5.5
		C1278.1,345.5,1275.9,347.4,1272.7,347.7z"/>
	<path class="st0" d="M1363.7,341.9c-0.2,3.7-2.1,5.8-5.8,5.9c-3.8,0.2-6.5-2.7-6.1-6.5c0.4-3.7,2.6-5.6,6.2-5.4
		C1361.7,336.1,1363.5,338.3,1363.7,341.9z"/>
	<path class="st0" d="M1441.2,336.1c3.7,0.3,6.1,3.1,5.7,6.4c-0.4,3.3-3.3,5.6-6.7,5c-3.2-0.6-5-2.6-4.8-5.9
		C1435.6,337.9,1437.9,336.2,1441.2,336.1z"/>
	<path class="st0" d="M1388.3,349.4c-0.2,3.6-2,5.8-5.7,6c-3.7,0.2-5.9-1.7-6.3-5.4c-0.4-3.8,2.3-6.6,6.1-6.5
		C1386.2,343.7,1388.1,345.7,1388.3,349.4z"/>
	<path class="st0" d="M83.8,345.5c3.7,0,6,1.7,6.3,5.4c0.2,3.6-1.6,6-5.3,6.2c-3.6,0.2-6-1.6-6.2-5.3
		C78.2,348.2,80.2,346.1,83.8,345.5z"/>
	<path class="st0" d="M169.5,357.5c-3.8-0.4-5.8-2.4-5.9-6.2c-0.1-3.8,3-6.6,6.8-6c3.7,0.5,5.6,2.9,5.3,6.6
		C175.4,355.7,173.1,357.4,169.5,357.5z"/>
	<path class="st0" d="M1302.7,351.4c-0.4,3.7-2.3,5.8-6,5.6c-3.7-0.2-5.6-2.5-5.4-6.2c0.2-3.2,2.2-5.1,5.5-5.2
		C1300.5,345.6,1302.4,347.8,1302.7,351.4z"/>
	<path class="st0" d="M703.2,349.2c3.7,0.4,5.7,2.4,5.7,6.1c0,3.8-3,6.4-6.7,5.9c-3.7-0.5-5.4-2.9-5.2-6.5
		C697.3,350.9,699.6,349.2,703.2,349.2z"/>
	<path class="st0" d="M1470.7,344.8c1.4,3,1,6,0.3,9.2c-3,2.2-5.7,1.6-7.9-1.2c-1.5-1.8-1.5-4.1-0.3-6.1
		C1464.7,343.7,1467.4,342.9,1470.7,344.8z"/>
	<path class="st0" d="M49.6,288.7c-6.9-5.6-6.8-6.1,0.3-11c3.1,0.3,4.9,2.1,5.6,5.2C55.2,286.1,53.4,287.9,49.6,288.7z"/>
	<path class="st0" d="M768.6,430.8c-0.7,3.3-2.3,5.2-5.2,4.9c-2.8-0.2-4.6-2.1-4.4-5c0.2-2.8,2.1-4.6,5-4.4
		C766.9,426.5,768.1,428.6,768.6,430.8z"/>
	<path class="st0" d="M933.1,434.5c-3.5-0.6-5-2.3-5.8-4.8c0.2-3.3,2-5.1,5-5.7c2.5,0.1,4.2,1.4,5,3.5
		C938.7,431.2,936.3,433,933.1,434.5z"/>
	<path class="st0" d="M101.4,390.4c-2.8-0.3-4.6-1.8-4.8-4.6c-0.2-2.9,1.6-4.8,4.3-5.1c3.2-0.3,5.3,1.7,5.3,5
		C106.1,388.5,104.2,390,101.4,390.4z"/>
	<path class="st0" d="M1111.1,407.7c-2.9-0.3-4.5-2-5.3-4.6c0-3.3,2-4.9,4.6-5.7c3.3,0.3,4.8,2,5.7,4.7
		C1115.9,405.3,1114.2,407.1,1111.1,407.7z"/>
	<path class="st0" d="M737.2,428.3c-2.8-0.2-4.6-1.7-4.9-4.5c-0.3-2.8,1.5-4.9,4.2-5.2c3.2-0.4,5.4,1.6,5.4,4.8
		C741.9,426.3,740,427.9,737.2,428.3z"/>
	<path class="st0" d="M1365.3,405.5c-2.8-0.4-4.7-1.9-4.7-4.8c0-2.9,1.8-4.7,4.7-4.7c2.9,0,4.7,1.8,4.7,4.7
		C1370,403.6,1368.1,405.1,1365.3,405.5z"/>
	<path class="st0" d="M993.4,416.9c3.2,0.4,4.7,2.2,4.4,5.1c-0.2,2.5-1.8,4-4.4,4c-3,0-4.8-1.6-4.7-4.6
		C988.8,418.5,990.6,417,993.4,416.9z"/>
	<path class="st0" d="M907.3,426.9c-2.7-0.9-4.4-2.5-4.7-5.3c0.3-2.9,2-4.4,4.6-5.3c3.3,0,5.1,1.8,6,4.9
		C912.9,424.7,910.9,426.7,907.3,426.9z"/>
	<path class="st0" d="M219.1,278.5c2.6,0.1,4.5,1.6,4.5,4.6c0,3-1.8,4.6-4.8,4.6c-2.5,0-4.2-1.6-4.3-4.1
		C214.3,280.7,215.7,278.8,219.1,278.5z"/>
	<path class="st0" d="M827.3,421.3c-0.2,2.8-1.7,4.7-4.5,4.9c-2.9,0.2-4.8-1.6-5-4.4c-0.2-2.9,1.6-4.8,4.4-5
		C825.1,416.6,826.7,418.4,827.3,421.3z"/>
	<path class="st0" d="M1423.8,313.2c-3-1-4.7-2.6-5-5.4c0.3-2.9,2-4.4,4.6-5.3c3.3,0,5.1,1.8,6,4.9
		C1429.2,311.1,1426.9,312.7,1423.8,313.2z"/>
	<path class="st0" d="M133,277.3c4.3,1.2,6.7,3.1,5.9,6.9c-0.6,2.6-2.5,4.4-5.5,4.3c-2.5-0.1-4.2-1.6-4.9-3.8
		C127.1,280.8,129.9,279.1,133,277.3z"/>
	<path class="st0" d="M193.9,268.3c3.4,0.6,5,2.3,5.7,5c-0.2,3.1-2,4.9-5,5.6c-2.5-0.1-4.2-1.4-5-3.5
		C188.2,271.6,190.6,269.7,193.9,268.3z"/>
	<path class="st0" d="M1308.6,301c0.6-3.8,2.4-5.3,4.9-6c3.3,0.2,5.1,2,5.7,5c-0.1,2.5-1.4,4.2-3.5,5
		C1311.9,306.5,1310.2,303.7,1308.6,301z"/>
	<path class="st0" d="M49.8,373.3c-2.8-0.6-4.7-2.2-4.4-5.1c0.3-3.2,2.4-5.1,5.7-4.5c2.7,0.5,4.4,2.6,3.9,5.4
		C54.5,371.8,52.6,373.3,49.8,373.3z"/>
	<path class="st0" d="M1456.1,314.9c-0.5,3.4-2.2,5-4.7,5.8c-2.9,0.2-4.9-1.3-5.8-3.8c-1.3-3.9,1.4-5.5,3.9-6.9
		C1453.2,309.9,1455,311.7,1456.1,314.9z"/>
	<path class="st0" d="M267.5,408c-0.4,3.1-2,5-4.9,5c-2.9,0-4.7-1.8-4.7-4.7c0-2.9,1.8-4.7,4.7-4.7C265.6,403.5,267,405.5,267.5,408
		z"/>
	<path class="st0" d="M238.3,395c6.7,5.9,6.7,5.9,0.2,11c-3.3,0-4.9-2.1-5.9-4.6C232.8,397.6,235,396.1,238.3,395z"/>
	<path class="st0" d="M152.7,396.1c2.4,0.1,4.3,1.5,4.4,4.5c0.1,3-1.7,4.7-4.7,4.7c-2.5,0-4.2-1.5-4.4-4
		C147.8,398.4,149.1,396.5,152.7,396.1z"/>
	<path class="st0" d="M69.1,292.3c5.8-7.1,6.3-7,11.1,0.1C75.8,300,74.3,300.1,69.1,292.3z"/>
	<path class="st0" d="M1238.1,270.7c2.8,0.4,4.7,1.9,4.7,4.8c0,2.9-1.9,4.7-4.7,4.7c-2.9,0-4.7-1.9-4.7-4.7
		C1233.4,272.7,1235.3,271.1,1238.1,270.7z"/>
	<path class="st0" d="M1302,266c-0.4,2.8-1.9,4.8-4.7,5c-2.9,0.2-4.7-1.7-5.2-4.4c-0.5-2.6,2.5-5.8,5.1-5.5
		C1300,261.4,1301.5,263.2,1302,266z"/>
	<path class="st0" d="M177.6,319.1c3.6,1.5,6,3.4,4.8,7.3c-0.7,2.2-2.4,3.8-4.9,3.8c-2.9,0.1-4.9-1.7-5.5-4.3
		C171.2,322.2,173.6,320.2,177.6,319.1z"/>
	<path class="st0" d="M495,313.6c-0.4,3.2-2.2,4.7-5.1,4.4c-2.5-0.2-4-1.8-4-4.4c0-3,1.6-4.8,4.6-4.7
		C493.4,308.9,494.9,310.8,495,313.6z"/>
	<path class="st0" d="M881,408.3c4,1.1,6.4,3,5.5,6.8c-0.6,2.6-2.6,4.4-5.5,4.3c-2.5-0.1-4.2-1.6-4.9-3.8
		C875,411.7,877.4,409.8,881,408.3z"/>
	<path class="st0" d="M792.1,414.3c1.1-4,3-6.4,6.8-5.5c2.6,0.6,4.4,2.5,4.3,5.5c-0.1,2.5-1.6,4.2-3.8,4.9
		C795.6,420.3,793.6,417.9,792.1,414.3z"/>
	<path class="st0" d="M500.1,293.7c-3.1-0.4-5-2-5-4.9c0-2.9,1.8-4.7,4.7-4.7c2.9,0,4.7,1.8,4.7,4.7
		C504.6,291.7,502.6,293.2,500.1,293.7z"/>
	<path class="st0" d="M109.2,269.8c7.1,5.8,7,6.3-0.1,11.1C101.5,276.6,101.5,275.1,109.2,269.8z"/>
	<path class="st0" d="M-1,356.3c-2.8-0.2-4.6-1.7-4.9-4.5c-0.3-2.8,1.5-4.9,4.2-5.2c3.2-0.4,5.4,1.6,5.4,4.8
		C3.7,354.2,1.8,355.8-1,356.3z"/>
	<path class="st0" d="M1257.3,282.6c5.6-6.5,5.6-6.5,10.8-0.1c0.1,3.4-2,5-4.6,6C1259.9,288.2,1258.1,286.4,1257.3,282.6z"/>
	<path class="st0" d="M430.9,402.5c4.3,1.2,6.7,3.1,5.9,6.9c-0.6,2.6-2.6,4.4-5.5,4.3c-2.5-0.1-4.2-1.7-4.9-3.8
		C425.1,405.9,427.9,404.2,430.9,402.5z"/>
	<path class="st0" d="M353.7,408.6c-1.5,3.6-3.4,6-7.3,4.8c-2.2-0.7-3.8-2.4-3.8-4.9c-0.1-2.9,1.7-4.9,4.3-5.5
		C350.7,402.2,352.6,404.6,353.7,408.6z"/>
	<path class="st0" d="M142.8,261.9c-2.9-1-4.7-2.5-5-5.4c0.3-2.8,2-4.3,4.6-5.2c3.2,0,5,1.8,5.9,4.8
		C148.1,259.8,145.8,261.4,142.8,261.9z"/>
	<path class="st0" d="M1353,283.1c-0.4,2.8-1.9,4.7-4.8,4.7c-2.9,0-4.7-1.8-4.7-4.7c0-2.9,1.9-4.7,4.7-4.7
		C1351.1,278.4,1352.6,280.3,1353,283.1z"/>
	<path class="st0" d="M1175,395c-0.8,3.3-2.7,4.7-5.1,5.2c-6.9-4.8-7-4.9-0.9-10.3C1172.3,389.8,1174.1,391.6,1175,395z"/>
	<path class="st0" d="M23.9,280.9c-3.4-0.7-5-2.3-5.6-5.1c0.3-3.1,2-4.9,5-5.5c2.5,0.1,4.2,1.4,5,3.6
		C29.7,277.7,27.2,279.5,23.9,280.9z"/>
	<path class="st0" d="M205.9,307.2c5.6-6.4,5.6-6.4,10.8,0.1c-0.1,3.2-1.9,5.1-5,5.9C208.5,312.8,206.7,311,205.9,307.2z"/>
	<path class="st0" d="M1085.5,389.5c3.9,0.6,5.4,2.5,6.2,4.8c-0.2,3.5-2,5.3-5.1,6c-2.6,0-4.3-1.4-5.2-3.5
		C1079.9,392.8,1082.7,391.2,1085.5,389.5z"/>
	<path class="st0" d="M126.4,313.1c-3.4-0.7-5-2.3-5.6-5.1c0.3-3.1,2-4.9,5-5.5c2.5,0.1,4.2,1.4,5,3.6
		C132.2,309.9,129.7,311.7,126.4,313.1z"/>
	<path class="st0" d="M30.3,360.7c-0.1,2.8-1.7,4.7-4.4,5c-2.8,0.4-4.9-1.4-5.3-4.1c-0.4-3.2,1.5-5.4,4.7-5.5
		C28.2,355.9,29.8,357.8,30.3,360.7z"/>
	<path class="st0" d="M1025.3,399c7.2,5.1,7.2,5.2,1,10.6C1018.6,405.9,1018.5,404.9,1025.3,399z"/>
	<path class="st0" d="M1340.3,313.5c-7.1-5.8-7-6.3,0.1-11.1C1348,306.7,1348.1,308.2,1340.3,313.5z"/>
	<path class="st0" d="M1294.9,290.2c-0.5,3.5-2.3,5.1-4.8,5.9c-3.3,0.1-5.1-1.8-6.1-4.6c-0.2-2.9,1.3-5,3.8-5.8
		C1291.6,284.5,1293.5,286.9,1294.9,290.2z"/>
	<path class="st0" d="M1321.4,268.8c2.8,0.2,4.7,1.6,4.9,4.5c0.2,2.9-1.6,4.8-4.4,5c-2.9,0.2-4.8-1.6-5-4.4
		C1316.7,271.1,1318.5,269.4,1321.4,268.8z"/>
	<path class="st0" d="M695.3,374.8c2.8,0.3,4.7,1.9,5,4.7c0.2,2.9-1.7,4.7-4.4,5.2c-2.6,0.5-5.8-2.5-5.5-5.1
		C690.7,376.8,692.5,375.2,695.3,374.8z"/>
	<path class="st0" d="M162.3,266.6c0.5-3.5,2.2-5.1,4.8-5.9c3.4-0.2,5,1.9,6.1,4.3c0.2,3.2-1.3,5.3-3.8,6.1
		C165.5,272.3,163.7,269.9,162.3,266.6z"/>
	<path class="st0" d="M1372.5,295.6c-2.8-0.6-4.7-2.2-4.4-5.1c0.3-3.2,2.4-5.1,5.6-4.5c2.7,0.5,4.4,2.6,3.9,5.4
		C1377.2,294,1375.3,295.6,1372.5,295.6z"/>
	<path class="st0" d="M156.2,317.8c-5.6,6.5-5.6,6.5-10.8,0.1c-0.1-3.4,2-5,4.6-6C153.5,312.2,155.4,313.9,156.2,317.8z"/>
	<path class="st0" d="M985.9,251.1c5.2-7.1,5.3-7.1,10.6-0.9C992.7,257.8,991.7,258,985.9,251.1z"/>
	<path class="st0" d="M1426.3,387.4c6.7,5.9,6.7,5.9,0.2,11c-3.3,0-4.9-2.1-5.9-4.6C1420.8,390.1,1423,388.6,1426.3,387.4z"/>
	<path class="st0" d="M1084.6,229.2c-2.8-0.2-4.7-1.7-4.9-4.5c-0.2-2.9,1.6-4.8,4.4-5c2.9-0.2,4.8,1.6,5,4.4
		C1089.3,226.9,1087.5,228.6,1084.6,229.2z"/>
	<path class="st0" d="M89.4,266c-4.6,7.1-5.5,7.2-10.2,0.1C83.7,259,84.6,259,89.4,266z"/>
	<path class="st0" d="M-5.8,266.3c0.1-2.8,1.5-4.7,4.5-4.7c3-0.1,4.7,1.7,4.7,4.7c0,2.5-1.5,4.2-4,4.4
		C-3.4,270.9-5.3,269.4-5.8,266.3z"/>
	<path class="st0" d="M1313.5,389c-6.4-5.5-6.4-5.5-0.1-10.6c3.3,0,4.9,2,5.9,4.6C1319,386.4,1317.3,388.2,1313.5,389z"/>
	<path class="st0" d="M1345.6,393.1c-0.3,2.8-1.9,4.7-4.7,5c-2.9,0.2-4.7-1.7-5.2-4.4c-0.5-2.6,2.5-5.8,5.1-5.5
		C1343.6,388.4,1345.2,390.2,1345.6,393.1z"/>
	<path class="st0" d="M179.4,300.6c0.5-3.4,2.2-5,4.7-5.8c2.9-0.2,4.9,1.3,5.8,3.8c1.3,3.8-1.2,5.7-4.2,6.9
		C182.3,305.7,180.5,303.8,179.4,300.6z"/>
	<path class="st0" d="M664.9,372c5.8-7.1,6.3-7.1,11.2,0.1c-0.3,3.1-2.1,4.9-5.2,5.6C667.6,377.4,666.1,375.4,664.9,372z"/>
	<path class="st0" d="M1272.1,263.3c-2.9-0.6-4.7-2.2-4.5-5.1c0.2-2.8,2.1-4.6,5-4.4c2.8,0.2,4.6,2.1,4.4,5
		C1276.8,261.6,1274.8,263.1,1272.1,263.3z"/>
	<path class="st0" d="M101.2,294.7c3.3,0.8,4.9,2.4,5.5,5.1c-4.3,7.6-5,7.6-10.6,1.1C96,297.6,97.8,295.8,101.2,294.7z"/>
	<path class="st0" d="M1250.2,393c0.4-2.8,2-4.6,4.9-4.9c2.7-0.3,5.7,2.9,5.1,5.5c-0.6,2.7-2.3,4.6-5.3,4.4
		C1252.1,397.8,1250.5,395.9,1250.2,393z"/>
	<path class="st0" d="M1030.4,233.6c-0.2,2.8-1.7,4.8-4.5,5c-2.9,0.2-4.8-1.6-5-4.4c-0.2-2.9,1.6-4.8,4.4-5
		C1028.2,228.9,1029.8,230.7,1030.4,233.6z"/>
	<path class="st0" d="M1106,234.1c0.4-3.1,2-5,4.8-5.1c3.3,0,5.2,2.1,4.9,5.3c-0.2,2.7-2.2,4.5-5.1,4.3
		C1107.8,238.5,1106.5,236.5,1106,234.1z"/>
	<path class="st0" d="M75,371.1c2.8,0.5,4.7,2.1,4.6,4.9c-0.1,3.2-2.3,5.2-5.5,4.7c-2.7-0.4-4.4-2.4-4.1-5.3
		C70.3,372.8,72.2,371.3,75,371.1z"/>
	<path class="st0" d="M651.9,258.2c-3.3-0.8-4.9-2.4-5.5-5.1c4.3-7.6,5-7.6,10.6-1.1C657.1,255.4,655.2,257.2,651.9,258.2z"/>
	<path class="st0" d="M131,392.9c-0.6,3.2-2.2,5.1-5,4.9c-3.2-0.2-5.2-2.3-4.7-5.5c0.4-2.7,2.4-4.4,5.3-4.1
		C129.3,388.6,130.6,390.7,131,392.9z"/>
	<path class="st0" d="M714.8,389.2c0.9-3.1,2.5-4.8,5.3-5c6.8,4.6,6.8,4.8,0.7,10.2C717.5,394.5,715.7,392.7,714.8,389.2z"/>
	<path class="st0" d="M771.1,231.1c2.8,0.1,4.7,1.5,4.7,4.5c0.1,3-1.7,4.7-4.7,4.7c-2.5,0-4.2-1.5-4.4-4
		C766.4,233.4,767.9,231.6,771.1,231.1z"/>
	<path class="st0" d="M742.8,253.1c-1.5,3.6-3.4,6-7.3,4.8c-2.2-0.7-3.8-2.4-3.8-4.9c-0.1-2.9,1.7-4.9,4.3-5.5
		C739.8,246.7,741.7,249.1,742.8,253.1z"/>
	<path class="st0" d="M550.8,393.9c-3.1-0.5-4.6-2.4-4.2-5.3c0.3-2.5,2-3.9,4.5-3.9c3,0.1,4.7,1.8,4.6,4.8
		C555.5,392.5,553.6,393.9,550.8,393.9z"/>
	<path class="st0" d="M595.3,237.7c4.6-7.1,5.5-7.2,10.2-0.1C601,244.7,600.1,244.7,595.3,237.7z"/>
	<path class="st0" d="M1404.4,298.7c-0.7,2.8-2.3,4.6-5.2,4.6c-2.8,0-5.4-3.2-4.7-5.8c0.7-2.7,2.7-4.5,5.5-4
		C1402.8,293.8,1404.4,295.8,1404.4,298.7z"/>
	<path class="st0" d="M1290,381.8c-4.3-1.2-6.7-3.1-5.9-6.9c0.6-2.6,2.6-4.4,5.5-4.3c2.5,0.1,4.2,1.7,4.9,3.8
		C1295.8,378.4,1293,380.1,1290,381.8z"/>
	<path class="st0" d="M265.6,298.5c0.1-2.8,1.5-4.7,4.5-4.7c3-0.1,4.7,1.7,4.7,4.7c0,2.5-1.5,4.2-4,4.4
		C267.9,303.1,266.1,301.7,265.6,298.5z"/>
	<path class="st0" d="M881.5,248.8c-7.1-5.2-7.1-5.3-0.9-10.6C888.3,242,888.4,243,881.5,248.8z"/>
	<path class="st0" d="M546.5,245c-0.7,3.3-2.3,5.2-5.2,4.9c-2.8-0.2-4.6-2.1-4.4-5c0.2-2.8,2.1-4.6,5-4.4
		C544.8,240.7,546.1,242.8,546.5,245z"/>
	<path class="st0" d="M632.5,245c-5.2,7.1-5.3,7.1-10.6,0.9C625.7,238.3,626.7,238.1,632.5,245z"/>
	<path class="st0" d="M715.2,244.9c-0.4,3.4-2.1,5-5.1,4.8c-2.5-0.2-4.1-1.7-4.2-4.3c-0.1-3,1.5-4.8,4.5-4.8
		C713.5,240.6,714.9,242.5,715.2,244.9z"/>
	<path class="st0" d="M116.8,244c2.6,0.5,4.4,2.1,4.6,4.9c0.2,2.7-3,5.6-5.6,5c-2.7-0.6-4.4-2.4-4.3-5.4
		C111.6,246.2,114.4,243.9,116.8,244z"/>
	<path class="st0" d="M57.7,263.3c-2.8-0.4-4.7-1.9-4.7-4.8c0-2.9,1.8-4.7,4.7-4.7c2.9,0,4.7,1.8,4.7,4.7
		C62.4,261.4,60.5,262.9,57.7,263.3z"/>
	<path class="st0" d="M663.2,228.4c-0.4,2.8-2.1,3.9-4.6,3.6c-2.7-0.3-3.6-2.3-3.2-4.7c0.4-2.1,1.9-3.2,4-3.1
		C662.1,224.4,663.3,226,663.2,228.4z"/>
	<path class="st0" d="M1391.7,406c2.5,0,4.1,1.3,4.3,3.8c0.2,2.5-1,4.3-3.6,4.5c-2.9,0.3-4.8-1.1-4.7-4.2
		C1387.7,407.5,1389.2,406.2,1391.7,406z"/>
	<path class="st0" d="M177.2,405.9c2.9,0.4,4.3,1.8,4.2,4.4c-0.2,3.1-2.1,4.4-5,4c-2.5-0.4-3.6-2.2-3.3-4.7
		C173.4,407,175.2,406,177.2,405.9z"/>
	<path class="st0" d="M150.6,228c3.1,0.5,4.3,2.1,3.9,4.5c-0.3,2.6-2.2,3.6-4.6,3.2c-2-0.4-3.1-1.8-3-3.9
		C147,229.1,148.7,228.2,150.6,228z"/>
	<path class="st0" d="M1433.1,285.2c-2.7-0.4-3.8-2.1-3.4-4.6c0.4-2.6,2.3-3.6,4.8-3.2c2.1,0.4,3.1,1.9,3,4
		C1437.3,284.1,1435.7,285.2,1433.1,285.2z"/>
	<path class="st0" d="M1462.3,291c-0.3,2.6-1.9,3.9-4.4,3.7c-2.6-0.2-3.8-1.8-3.6-4.3c0.2-2.6,1.8-3.8,4.3-3.6
		C1461.2,286.9,1462.3,288.5,1462.3,291z"/>
	<path class="st0" d="M1281.2,398.8c2.5,0,4,1.1,4.3,3.2c0.3,2.5-0.9,4.2-3.5,4.4c-2.2,0.2-3.6-1.1-3.9-3.1
		C1277.6,400.7,1279,399.2,1281.2,398.8z"/>
	<path class="st0" d="M1200.6,402.6c-0.2,2.6-1.5,4.1-4.1,4.1c-3.1,0.1-4.5-1.8-4.3-4.7c0.2-2.5,2-3.8,4.5-3.6
		C1199.2,398.6,1200.5,400.1,1200.6,402.6z"/>
	<path class="st0" d="M1280,236c-2.5-0.1-4-1.3-4.1-3.9c-0.1-2.6,1.3-4,3.9-4.1c2.6-0.1,4,1.3,4.1,3.9
		C1283.9,234.4,1282.5,235.7,1280,236z"/>
	<path class="st0" d="M1455,400.1c-0.2,3.2-1.6,4.7-4.1,4.8c-3.1,0.1-4.7-1.8-4.4-4.8c0.2-2.6,1.9-3.9,4.5-3.8
		C1453.6,396.5,1454.7,398.3,1455,400.1z"/>
	<path class="st0" d="M1381.9,270c-2.7-0.4-3.8-2.1-3.4-4.6c0.4-2.6,2.3-3.6,4.8-3.2c2.1,0.4,3.1,1.9,3,4
		C1386.1,269,1384.5,270.1,1381.9,270z"/>
	<path class="st0" d="M1215.7,265.9c-0.1,2.6-1.4,4.1-4,4.2c-2.6,0.1-4.1-1.3-4.2-3.9c-0.1-2.6,1.3-4.1,3.9-4.2
		C1214,261.9,1215.4,263.3,1215.7,265.9z"/>
	<path class="st0" d="M435.9,322.3c-0.1,3.1-1.4,4.7-4,4.9c-2.6,0.2-4.4-1.1-4.6-3.7c-0.3-2.9,1.2-4.8,4.3-4.9
		C434.3,318.7,435.5,320.4,435.9,322.3z"/>
	<path class="st0" d="M507.3,268.5c-2.8-0.5-4.3-1.9-4.1-4.6c0.1-2.6,1.6-4.1,4.2-4c3.1,0,4.6,2,4.3,4.9
		C511.4,267.5,509.5,268.5,507.3,268.5z"/>
	<path class="st0" d="M1063.8,216.4c0.1,2.6-1.1,4.2-3.8,4.4c-2.6,0.2-4.2-1.1-4.4-3.7c-0.2-2.6,1.1-4.2,3.7-4.4
		C1062,212.5,1063.5,213.8,1063.8,216.4z"/>
	<path class="st0" d="M232.4,427.2c-0.2,2.6-1.6,4-4.2,3.8c-2.6-0.2-3.8-1.9-3.5-4.3c0.2-2.1,1.6-3.3,3.7-3.3
		C230.9,423.3,232.2,424.8,232.4,427.2z"/>
	<path class="st0" d="M317.8,425.3c-0.2,2.6-1.6,4.1-4.2,3.9c-2.7-0.2-3.8-1.9-3.6-4.4c0.2-2.2,1.6-3.3,3.7-3.4
		C316.3,421.3,317.7,422.8,317.8,425.3z"/>
	<path class="st0" d="M858.9,235.2c-0.3,3.2-1.7,4.7-4.3,4.6c-2.6-0.1-4-1.6-3.9-4.2c0.1-2.6,1.6-4,4.2-4
		C857.6,231.7,858.6,233.5,858.9,235.2z"/>
	<path class="st0" d="M1164.2,250.9c-0.2,2.6-1.6,4.1-4.2,3.9c-2.7-0.2-3.8-1.9-3.6-4.4c0.2-2.2,1.6-3.3,3.7-3.4
		C1162.8,246.9,1164.1,248.3,1164.2,250.9z"/>
	<path class="st0" d="M181.2,239.5c-0.5,3.1-2.2,4.2-4.6,3.8c-2.5-0.4-3.6-2.3-3.1-4.7c0.4-2,1.9-3.1,4-3
		C180.1,235.8,181,237.6,181.2,239.5z"/>
	<path class="st0" d="M1080.7,419.8c-0.3,2.8-2,4-4.5,3.7c-2.7-0.3-3.7-2.2-3.3-4.7c0.3-2.1,1.8-3.2,3.9-3.1
		C1079.5,415.8,1080.7,417.3,1080.7,419.8z"/>
	<path class="st0" d="M377,418.1c-0.4,2.5-1.8,4.1-4.4,3.9c-3.1-0.2-4.5-2.2-4.1-5.1c0.4-2.5,2.3-3.7,4.8-3.4
		C375.9,413.8,377.1,415.5,377,418.1z"/>
	<path class="st0" d="M96.2,241.8c-0.4,2.5-1.9,4-4.5,3.8c-2.6-0.1-4.1-1.6-4.1-4.2c0-3.1,2-4.6,4.9-4.3
		C95.1,237.5,96.2,239.3,96.2,241.8z"/>
	<path class="st0" d="M1246,253c-2.5,0.1-4.1-1.1-4.3-3.7c-0.2-2.5,1.1-4.1,3.6-4.3c2.5-0.2,4.1,1.1,4.3,3.6
		C1249.9,251.2,1248.6,252.7,1246,253z"/>
	<path class="st0" d="M287.6,421.9c-2.6,0.1-4.2-1.1-4.4-3.8c-0.2-2.6,1.1-4.2,3.7-4.4c2.6-0.2,4.2,1.1,4.4,3.7
		C291.6,420,290.3,421.5,287.6,421.9z"/>
	<path class="st0" d="M1139.9,240.8c-0.2,3.1-1.5,4.6-4,4.7c-3.1,0.1-4.6-1.7-4.3-4.7c0.2-2.5,1.9-3.8,4.4-3.7
		C1138.5,237.4,1139.6,239,1139.9,240.8z"/>
	<path class="st0" d="M245.7,294.8c-2.6-0.1-4.1-1.4-4.2-4c-0.1-2.6,1.3-4.1,3.9-4.2c2.6-0.1,4.1,1.3,4.2,3.9
		C249.8,293.2,248.3,294.6,245.7,294.8z"/>
	<path class="st0" d="M1304,237.1c3.2,0.2,4.7,1.6,4.8,4.1c0.1,3.1-1.8,4.7-4.8,4.4c-2.6-0.2-3.9-1.9-3.8-4.5
		C1300.4,238.5,1302.1,237.4,1304,237.1z"/>
	<path class="st0" d="M199.7,417.7c0.3-2.7,1.6-4.1,4.3-4c2.6,0.1,4,1.6,3.9,4.2c-0.1,2.6-1.6,4-4.2,3.9
		C201,421.7,199.8,420.2,199.7,417.7z"/>
	<path class="st0" d="M458,411.9c3.1,0.5,4.3,2.1,3.9,4.5c-0.3,2.6-2.2,3.6-4.6,3.2c-2-0.4-3.1-1.8-3-3.9
		C454.4,413,456.1,412.1,458,411.9z"/>
	<path class="st0" d="M461.8,305.6c0.4-2.7,2.1-3.8,4.5-3.5c2.6,0.3,3.6,2.2,3.2,4.6c-0.4,2-1.8,3.1-3.9,3
		C462.9,309.6,461.8,308,461.8,305.6z"/>
	<path class="st0" d="M970.8,243.2c-0.1,2.5-1.3,4-3.9,4.1c-2.6,0.1-4-1.3-4.1-3.9c-0.1-2.6,1.3-4,3.9-4.1
		C969.2,239.2,970.5,240.7,970.8,243.2z"/>
	<path class="st0" d="M1331.1,252.9c-2.7-0.2-4.1-1.6-3.9-4.2c0.2-2.7,1.9-3.8,4.4-3.6c2.2,0.2,3.3,1.6,3.4,3.7
		C1335.1,251.5,1333.6,252.8,1331.1,252.9z"/>
	<path class="st0" d="M681.7,236.3c0.3-3.2,1.7-4.7,4.3-4.6c2.6,0.1,4,1.6,3.9,4.2c-0.1,2.6-1.6,4-4.2,4
		C683,239.8,682,238,681.7,236.3z"/>
	<path class="st0" d="M1187.1,254.6c2.7,0.4,3.9,1.9,3.6,4.4c-0.3,2.6-2.2,3.6-4.6,3.3c-2-0.3-3.2-1.8-3.1-3.9
		C1183.1,255.8,1184.6,254.6,1187.1,254.6z"/>
	<path class="st0" d="M853,430.9c0,2.5-1.3,4-3.9,4.1c-2.1,0-3.6-1.1-3.9-3.2c-0.3-2.5,0.7-4.3,3.4-4.6
		C851.1,426.9,852.7,428.1,853,430.9z"/>
	<path class="st0" d="M792.4,438.5c-0.1,2.5-1.3,4-3.9,4.1c-2.6,0.1-4-1.3-4.1-3.9c-0.1-2.6,1.3-4,3.9-4.1
		C790.8,434.5,792.1,435.9,792.4,438.5z"/>
	<path class="st0" d="M959,434.3c2.6,0.1,4.1,1.4,4.4,3.9c0.2,2.6-1.1,4.4-3.7,4.6c-2.9,0.3-4.9-1.2-4.9-4.3
		C954.9,435.9,956.5,434.6,959,434.3z"/>
	<path class="st0" d="M729.8,444.1c2.8,0.4,3.9,2.1,3.6,4.6c-0.3,2.7-2.3,3.6-4.7,3.2c-2.1-0.4-3.2-1.9-3.1-4
		C725.7,445.2,727.3,444.1,729.8,444.1z"/>
	<path class="st0" d="M716.4,413.6c0,2.6-1.1,4.2-3.7,4.4c-2.5,0.2-4.1-1.1-4.3-3.6c-0.2-2.5,1.1-4.1,3.6-4.3
		C714.6,409.8,716.1,411.1,716.4,413.6z"/>
	<path class="st0" d="M1411,273.2c-0.1,2.9-1.4,4.4-4,4.4c-2.1,0-3.6-1.1-3.9-3.2c-0.3-2.5,0.8-4.3,3.5-4.6
		C1409.2,269.5,1410.6,270.9,1411,273.2z"/>
	<path class="st0" d="M-8.7,374c2.6,0.2,4,1.6,3.8,4.1c-0.2,2.6-1.8,3.8-4.3,3.6c-2.1-0.2-3.3-1.5-3.3-3.6
		C-12.7,375.5-11.2,374.2-8.7,374z"/>
	<path class="st0" d="M1254.7,220.6c2.5,0,4,1.1,4.3,3.2c0.3,2.5-0.9,4.2-3.5,4.4c-2.2,0.2-3.6-1.1-3.9-3.1
		C1251.1,222.5,1252.4,221,1254.7,220.6z"/>
	<path class="st0" d="M1141.8,411.5c-0.2,3.1-1.5,4.6-4,4.7c-3.1,0.1-4.6-1.7-4.3-4.7c0.2-2.5,1.9-3.8,4.4-3.7
		C1140.4,408,1141.5,409.7,1141.8,411.5z"/>
	<path class="st0" d="M1359.7,257c-0.4,2.7-2.1,3.8-4.6,3.4c-2.6-0.4-3.6-2.3-3.2-4.8c0.4-2.1,1.9-3.1,4.1-3
		C1358.7,252.8,1359.8,254.5,1359.7,257z"/>
	<path class="st0" d="M1056.4,411.5c-0.2,3.1-1.5,4.6-4,4.7c-3.1,0.1-4.6-1.7-4.3-4.7c0.2-2.5,1.9-3.8,4.4-3.7
		C1055,408,1056.1,409.7,1056.4,411.5z"/>
	<path class="st0" d="M575.8,223.9c2.6,0.1,4.1,1.5,4.2,4c0.1,3.1-1.7,4.6-4.7,4.3c-2.5-0.2-3.8-1.9-3.7-4.4
		C571.8,225.3,573.3,224.1,575.8,223.9z"/>
	<path class="st0" d="M33.2,245.1c2.8,0.3,4,1.9,3.7,4.5c-0.3,2.7-2.2,3.7-4.7,3.3c-2.1-0.3-3.2-1.8-3.1-3.9
		C29.2,246.3,30.7,245.1,33.2,245.1z"/>
	<path class="st0" d="M1372.5,201.8c2.6,0.6,4,1.7,3.8,3.8c-0.2,2-1.5,3.4-3.6,3.2c-2-0.2-3.3-1.5-3.2-3.6
		C1369.5,203,1371.3,202.4,1372.5,201.8z"/>
	<path class="st0" d="M1115,207.4c2.7-4.1,4.7-3.9,7-0.1C1120,210.7,1118,211.7,1115,207.4z"/>
	<path class="st0" d="M1207.6,207c-2.5,4-4.5,4.4-7.1,0.4C1202.3,204,1204.1,202.9,1207.6,207z"/>
	<path class="st0" d="M1291.1,207.4c-0.3,2.1-1.5,3.4-3.6,3.5c-2.1,0-3.5-1.2-3.6-3.3c-0.1-2.6,1.4-4,4-3.8
		C1290,203.9,1291.1,205.3,1291.1,207.4z"/>
	<path class="st0" d="M1033.3,205.6c2.1,0.4,3.5,1.6,3.3,3.8c-0.2,2.1-1.6,3.4-3.7,3.3c-2.1-0.2-3.4-1.5-3.3-3.7
		C1029.8,206.8,1031.2,205.7,1033.3,205.6z"/>
	<path class="st0" d="M613.5,211.2c-0.5,2-1.6,3.4-3.7,3.2c-2-0.2-3.4-1.5-3.2-3.6c0.2-2,1.5-3.4,3.6-3.2
		C612.2,207.8,613.3,209.2,613.5,211.2z"/>
	<path class="st0" d="M693.5,214.5c-3.7-2.2-4.2-4.2-0.2-6.9C697.3,209.8,697.6,211.8,693.5,214.5z"/>
	<path class="st0" d="M99.4,211.2c4.1,2.5,4.2,4.6,0,7.3C95.4,216,95.2,213.8,99.4,211.2z"/>
	<path class="st0" d="M1228.4,211.4c2.1,0.1,3.4,1.2,3.6,3.3c0.2,2.1-1.2,3.5-3.2,3.6c-2.1,0.2-3.5-1.2-3.6-3.2
		C1225,212.9,1226.4,211.8,1228.4,211.4z"/>
	<path class="st0" d="M1317.8,214.6c0,2.2-1.1,3.7-3.2,3.9c-2.6,0.3-4.3-1.1-4.2-3.8c0-2.2,1.4-3.4,3.6-3.5
		C1316.2,211.1,1317.4,212.4,1317.8,214.6z"/>
	<path class="st0" d="M1399.6,218.4c-2.1-0.1-3.4-1.2-3.6-3.3c-0.2-2.1,1.2-3.5,3.2-3.6c2.1-0.2,3.4,1.2,3.6,3.2
		C1403,216.8,1401.6,217.9,1399.6,218.4z"/>
	<path class="st0" d="M974.4,220.3c-4.1-2.7-3.9-4.7-0.1-7C977.7,215.4,978.7,217.3,974.4,220.3z"/>
	<path class="st0" d="M1143.3,220.7c-4.5-2.8-4.4-5-0.2-7.7C1147,215.2,1148.1,217.3,1143.3,220.7z"/>
	<path class="st0" d="M719.8,214.7c4.5,2.9,4.5,5.1,0.3,7.7C716.1,220.3,715.3,218.1,719.8,214.7z"/>
	<path class="st0" d="M803.9,222.5c-4.2-2.4-4.9-4.5-0.8-7.3C807,216.8,808.2,218.7,803.9,222.5z"/>
	<path class="st0" d="M549,216.9c4.3,2.4,4.6,4.6,0.6,7.2C545.7,222.3,544.2,220.4,549,216.9z"/>
	<path class="st0" d="M638.4,220.7c-0.3,2.2-1.5,3.5-3.7,3.5c-2.2,0-3.6-1.2-3.7-3.4c-0.1-2.7,1.5-4.1,4.1-3.9
		C637.2,217.1,638.3,218.6,638.4,220.7z"/>
	<path class="st0" d="M1342.3,221.7c0,2.6-1.1,4.1-3.1,4.3c-2.5,0.3-4.2-1.1-4.1-3.7c0-2.1,1.4-3.4,3.5-3.4
		C1340.8,218.8,1341.8,220.2,1342.3,221.7z"/>
	<path class="st0" d="M1427.7,222.2c-2.5,4-4.5,4.4-7.1,0.4C1422.4,219.2,1424.3,218,1427.7,222.2z"/>
	<path class="st0" d="M44,224c-1.7,3-3.2,4.4-5.5,2c-1-1-1-2.3,0-3.4C40.7,220.1,42.1,222,44,224z"/>
	<path class="st0" d="M129.7,223.9c0.1,2.2-0.9,3.8-3.1,4.1c-2.6,0.4-4.3-0.9-4.3-3.7c0-2.2,1.3-3.5,3.5-3.6
		C128.1,220.5,129.3,221.8,129.7,223.9z"/>
	<path class="st0" d="M1173.3,224.3c-2.2,3.7-4.2,4.2-6.9,0.2C1168.5,220.5,1170.6,220.2,1173.3,224.3z"/>
	<path class="st0" d="M829.3,222.6c2.7,0.1,4.1,1.2,4.3,3.4c0.2,2.2-1.2,3.6-3.3,3.7c-2.2,0.2-3.5-1.2-3.7-3.3
		C826.3,224.2,828,223.3,829.3,222.6z"/>
	<path class="st0" d="M915.1,222.4c4.2,2.4,4.9,4.5,0.8,7.3C912,228.2,910.8,226.2,915.1,222.4z"/>
	<path class="st0" d="M998.4,222.5c2.8,0.2,4.1,1.3,4.3,3.5c0.2,2.2-1.1,3.7-3.2,3.9c-2.6,0.3-4.2-1.1-4.2-3.8
		C995.3,223.8,997,222.9,998.4,222.5z"/>
	<path class="st0" d="M745.1,231.9c-2.2,0.1-3.8-0.9-4.1-3.1c-0.4-2.6,0.9-4.3,3.7-4.3c2.2,0,3.5,1.3,3.7,3.5
		C748.5,230.2,747.2,231.4,745.1,231.9z"/>
	<path class="st0" d="M1190.7,232.5c1.4-3.3,2.9-5.1,5.7-3c1.7,1.2,2,3,0.4,4.7C1194.2,236.7,1192.6,234.8,1190.7,232.5z"/>
	<path class="st0" d="M1368.9,232.1c-0.3,2.1-1.5,3.4-3.6,3.5c-2.1,0-3.5-1.2-3.6-3.3c-0.1-2.6,1.4-4,4-3.8
		C1367.8,228.5,1368.9,230,1368.9,232.1z"/>
	<path class="st0" d="M940.8,237.5c-2.6-0.1-4-1.2-4.2-3.4c-0.1-2.2,1.2-3.6,3.3-3.7c2.2-0.2,3.5,1.2,3.7,3.3
		C943.9,235.9,942.3,236.8,940.8,237.5z"/>
	<path class="st0" d="M514.3,234c2.7,0.1,4.1,1.2,4.3,3.4c0.2,2.2-1.2,3.6-3.3,3.7c-2.2,0.2-3.5-1.2-3.7-3.3
		C511.3,235.6,513,234.7,514.3,234z"/>
	<path class="st0" d="M1389.9,243.2c-2.1-0.2-3.4-1.3-3.5-3.5c-0.1-2.2,1.1-3.6,3.2-3.7c2.6-0.2,4.1,1.3,4,3.9
		C1393.4,241.9,1392,243,1389.9,243.2z"/>
	<path class="st0" d="M6,237.4c4.8,2.8,4.9,5,0.9,7.6C2.1,243.3,2.1,241,6,237.4z"/>
	<path class="st0" d="M1224.7,240.5c0.1,2.7-0.9,4.2-3,4.5c-2.6,0.4-4.3-0.9-4.3-3.7c0-2.2,1.3-3.5,3.5-3.6
		C1223.1,237.6,1224.2,239,1224.7,240.5z"/>
	<path class="st0" d="M205.6,249.3c-0.3,2.2-1.5,3.5-3.8,3.4c-2.2,0-3.6-1.3-3.6-3.5c-0.1-2.7,1.6-4.1,4.2-3.8
		C204.6,245.6,205.7,247,205.6,249.3z"/>
	<path class="st0" d="M473.1,277.6c2.1,0.1,3.5,1.2,3.7,3.4c0.1,2.2-1.2,3.6-3.3,3.7c-2.2,0.2-3.6-1.2-3.7-3.3
		C469.6,279.2,471,278.1,473.1,277.6z"/>
	<path class="st0" d="M380.1,301.9c4.5,2.9,4.5,5.1,0.3,7.7C376.4,307.5,375.6,305.3,380.1,301.9z"/>
	<path class="st0" d="M1466.2,267.5c-3-1.7-4.4-3.2-2-5.5c1-1,2.3-1,3.4,0C1470.1,264.3,1468.2,265.7,1466.2,267.5z"/>
	<path class="st0" d="M355.5,294.6c4.3,2.5,4.2,4.7,0.2,7.4C351.5,299.4,351.6,297.3,355.5,294.6z"/>
	<path class="st0" d="M253.3,267.9c-4.3-2.5-4.2-4.7-0.2-7.4C257.4,263,257.2,265.2,253.3,267.9z"/>
	<path class="st0" d="M410.5,315.1c0,2.1-1.1,3.6-3.1,3.8c-2.5,0.3-4.2-1.1-4.1-3.7c0-2.1,1.4-3.4,3.5-3.4
		C409,311.7,410.1,313,410.5,315.1z"/>
	<path class="st0" d="M1437.3,256.7c2.8-4.5,5.1-4.4,7.7-0.2C1442.8,260.4,1440.6,261.4,1437.3,256.7z"/>
	<path class="st0" d="M224.9,256.9c1.3-3.1,2.8-4.9,5.6-2.8c1.7,1.2,2,3,0.4,4.6C228.2,261.2,226.6,259.7,224.9,256.9z"/>
	<path class="st0" d="M486.3,254.9c-0.5,2-1.6,3.4-3.7,3.2c-2-0.2-3.4-1.5-3.2-3.6c0.2-2,1.5-3.4,3.6-3.2
		C485.1,251.4,486.2,252.8,486.3,254.9z"/>
	<path class="st0" d="M329.4,294.2c-4-2.2-4.4-4.1-0.8-6.7C332.4,288.9,333.9,290.7,329.4,294.2z"/>
	<path class="st0" d="M613.7,381.6c0,2.2-1.2,3.6-3.3,3.8c-2.7,0.2-4.2-1.3-4.1-4c0.1-2.2,1.5-3.4,3.7-3.4
		C612.2,378.1,613.4,379.4,613.7,381.6z"/>
	<path class="st0" d="M776.9,465.3c2.6-4.5,4.8-4.6,7.4-0.6C782.6,469.3,780.4,470.1,776.9,465.3z"/>
	<path class="st0" d="M1420.1,249c-0.2,2.1-1.2,3.5-3.4,3.6c-2.6,0.1-4.1-1.4-3.8-4c0.2-2.1,1.6-3.3,3.8-3.2
		C1418.8,245.5,1420,246.8,1420.1,249z"/>
	<path class="st0" d="M19.7,385.6c-0.3,2.2-1.5,3.5-3.7,3.5c-2.2,0-3.6-1.2-3.7-3.4c-0.1-2.7,1.5-4.1,4.1-3.9
		C18.5,382,19.7,383.5,19.7,385.6z"/>
	<path class="st0" d="M640,389.5c-0.5,2-1.6,3.4-3.7,3.2c-2-0.2-3.4-1.5-3.2-3.6c0.2-2,1.5-3.4,3.6-3.2
		C638.8,386,639.9,387.4,640,389.5z"/>
	<path class="st0" d="M46.2,392.4c-0.1,2.7-1.2,4.1-3.3,4.3c-2.6,0.2-4.1-1.3-4-3.9c0.1-2.1,1.5-3.3,3.6-3.3
		C44.8,389.5,45.7,391,46.2,392.4z"/>
	<path class="st0" d="M664.8,396.9c-2.5,4.1-4.6,4.2-7.3,0C660.1,392.8,662.2,392.7,664.8,396.9z"/>
	<path class="st0" d="M66.9,398.9c3.1,1.3,4.9,2.8,2.8,5.6c-1.2,1.7-3,2-4.7,0.4C62.5,402.3,64.1,400.6,66.9,398.9z"/>
	<path class="st0" d="M691.3,406.2c-0.1,2.1-1.2,3.5-3.4,3.7c-2.2,0.2-3.6-1.2-3.7-3.3c-0.2-2.2,1.2-3.6,3.3-3.7
		C689.7,402.7,690.9,404,691.3,406.2z"/>
	<path class="st0" d="M517.1,411.8c-2.1-0.1-3.4-1.2-3.6-3.3c-0.2-2.1,1.2-3.5,3.2-3.6c2.1-0.2,3.4,1.2,3.6,3.2
		C520.6,410.2,519.2,411.3,517.1,411.8z"/>
	<path class="st0" d="M97.3,410.3c-0.5,2-1.6,3.4-3.7,3.2c-2-0.2-3.4-1.5-3.2-3.6c0.2-2,1.5-3.4,3.6-3.2
		C96,406.9,97.1,408.3,97.3,410.3z"/>
	<path class="st0" d="M1224.7,410.4c-0.3,2.2-1.5,3.5-3.8,3.4c-2.2,0-3.6-1.3-3.6-3.5c-0.1-2.7,1.6-4.1,4.2-3.8
		C1223.7,406.7,1224.8,408.2,1224.7,410.4z"/>
	<path class="st0" d="M1306.2,406.7c2.1,0.1,3.4,1.2,3.6,3.3c0.2,2.1-1.2,3.5-3.2,3.6c-2.1,0.2-3.5-1.2-3.6-3.2
		C1302.8,408.2,1304.2,407.1,1306.2,406.7z"/>
	<path class="st0" d="M1332.9,414.1c4.3,2.5,4.2,4.7,0.2,7.4C1328.8,418.9,1328.9,416.7,1332.9,414.1z"/>
	<path class="st0" d="M1420.2,417.5c0,2.2-1.1,3.7-3.2,3.9c-2.6,0.3-4.3-1.1-4.2-3.8c0-2.2,1.4-3.4,3.6-3.5
		C1418.7,414,1419.9,415.3,1420.2,417.5z"/>
	<path class="st0" d="M118.2,415.9c4.3,2.4,4.6,4.6,0.6,7.2C114.9,421.4,113.4,419.5,118.2,415.9z"/>
	<path class="st0" d="M1158.7,419.6c2.7-4.1,4.7-3.7,6.9,0C1163.5,423.2,1161.6,424.1,1158.7,419.6z"/>
	<path class="st0" d="M1251.1,419.6c-2.2,3.7-4.2,4.2-6.9,0.2C1246.3,415.8,1248.4,415.5,1251.1,419.6z"/>
	<path class="st0" d="M399.5,421.7c2.1,0.4,3.5,1.6,3.3,3.8c-0.2,2.1-1.6,3.4-3.7,3.3c-2.1-0.2-3.4-1.6-3.3-3.7
		C395.9,423,397.3,421.8,399.5,421.7z"/>
	<path class="st0" d="M1443.2,429.2c-4.5-2.8-4.4-5-0.2-7.7C1446.9,423.7,1447.9,425.9,1443.2,429.2z"/>
	<path class="st0" d="M146.9,426.8c-2.4,4.2-4.5,4.9-7.3,0.8C141.2,423.7,143.1,422.5,146.9,426.8z"/>
	<path class="st0" d="M1357.8,430.4c-2.7-1.5-4.2-2.9-1.8-5.3c1-1,2.3-1.1,3.4-0.1C1361.7,427.2,1360.5,428.8,1357.8,430.4z"/>
	<path class="st0" d="M1021.7,428.7c0.1,2.2-0.9,3.8-3.1,4.1c-2.6,0.4-4.3-0.9-4.3-3.7c0-2.2,1.3-3.5,3.5-3.6
		C1020,425.3,1021.2,426.6,1021.7,428.7z"/>
	<path class="st0" d="M1107.1,428.3c0,2.7-1,4.2-3.2,4.4c-2.6,0.3-4.3-1.1-4.2-3.8c0-2.2,1.4-3.4,3.6-3.5
		C1105.6,425.3,1106.6,426.8,1107.1,428.3z"/>
	<path class="st0" d="M65.7,235.7c-2.2,0.1-3.8-0.9-4.1-3.1c-0.4-2.6,0.9-4.3,3.7-4.3c2.2,0,3.5,1.3,3.6,3.5
		C69.1,234,67.8,235.2,65.7,235.7z"/>
	<path class="st0" d="M169.3,431.2c2.6,0.6,4,1.7,3.8,3.8c-0.2,2-1.5,3.4-3.6,3.2c-2-0.2-3.3-1.5-3.2-3.6
		C166.3,432.4,168.1,431.8,169.3,431.2z"/>
	<path class="st0" d="M258.8,434.7c0,2.2-1.2,3.6-3.3,3.8c-2.7,0.2-4.2-1.3-4.1-4c0.1-2.2,1.5-3.4,3.7-3.4
		C257.3,431.2,258.5,432.4,258.8,434.7z"/>
	<path class="st0" d="M338.8,431.2c2.1,0.4,3.5,1.6,3.3,3.8c-0.2,2.1-1.6,3.4-3.7,3.3c-2.1-0.2-3.4-1.6-3.3-3.7
		C335.2,432.4,336.6,431.3,338.8,431.2z"/>
	<path class="st0" d="M1131.4,436.4c-1.7,3-3.2,4.4-5.5,2c-1-1-1-2.3,0-3.4C1128.2,432.5,1129.6,434.3,1131.4,436.4z"/>
	<path class="st0" d="M1219.5,159.6c-4.1-2.2-4.5-4.2-0.9-6.8C1222.5,154.3,1223.8,156.1,1219.5,159.6z"/>
	<path class="st0" d="M877.3,438.8c-0.4,2.1-1.6,3.5-3.8,3.3c-2.1-0.2-3.5-1.6-3.3-3.7c0.2-2.1,1.6-3.4,3.7-3.3
		C876.1,435.2,877.2,436.6,877.3,438.8z"/>
	<path class="st0" d="M1245.8,167.2c-2.9-3.6-2.9-3.6,0.1-6.9C1249.1,162.3,1250.1,164.2,1245.8,167.2z"/>
	<path class="st0" d="M708.4,440.3c-0.1,2.1-1.2,3.5-3.4,3.7c-2.2,0.1-3.6-1.2-3.7-3.3c-0.2-2.2,1.2-3.5,3.3-3.7
		C706.8,436.8,708,438.2,708.4,440.3z"/>
	<path class="st0" d="M280.4,446c-2.6-0.1-4-1.2-4.2-3.4c-0.1-2.2,1.2-3.6,3.3-3.7c2.2-0.2,3.5,1.2,3.7,3.3
		C283.5,444.5,281.8,445.4,280.4,446z"/>
	<path class="st0" d="M198,443.6c-0.1,2.6-1.2,4-3.4,4.2c-2.2,0.1-3.6-1.2-3.7-3.3c-0.2-2.2,1.2-3.5,3.3-3.7
		C196.4,440.5,197.3,442.2,198,443.6z"/>
	<path class="st0" d="M904.2,446.1c-2.8,4.5-5.1,4.4-7.7,0.2C898.7,442.4,900.9,441.4,904.2,446.1z"/>
	<path class="st0" d="M984.7,449.8c-2.6,0.1-4.1-0.9-4.4-3c-0.4-2.5,0.9-4.2,3.6-4.2c2.1,0,3.4,1.3,3.6,3.4
		C987.6,448.2,986.1,449.2,984.7,449.8z"/>
	<path class="st0" d="M1186.5,169.6c4.1,2.2,4.5,4.2,0.9,6.8C1183.5,175,1182.2,173.2,1186.5,169.6z"/>
	<path class="st0" d="M815.2,444.4c2.1,0.3,3.4,1.5,3.3,3.7c0,2.1-1.3,3.5-3.4,3.5c-2.6,0.1-4-1.5-3.8-4.1
		C811.5,445.5,813,444.4,815.2,444.4z"/>
	<path class="st0" d="M224.6,451.5c-0.5,2.7-1.7,4.1-3.9,3.9c-2.1-0.2-3.5-1.5-3.3-3.7c0.2-2.1,1.5-3.4,3.7-3.3
		C223.4,448.4,224.1,450.2,224.6,451.5z"/>
	<path class="st0" d="M309.6,451.5c-1.6,3-3.1,4.5-5.5,2.1c-1-1-1.1-2.3-0.1-3.4C306.3,447.7,307.8,449.4,309.6,451.5z"/>
	<path class="st0" d="M756.4,459.4c-2.2,0-3.7-1.1-3.9-3.2c-0.3-2.6,1.1-4.3,3.8-4.2c2.2,0,3.5,1.4,3.5,3.6
		C759.8,457.8,758.5,459,756.4,459.4z"/>
	<path class="st0" d="M839.3,452c3.1,1.3,4.9,2.8,2.8,5.6c-1.2,1.7-3,2-4.7,0.4C834.9,455.4,836.5,453.7,839.3,452z"/>
	<path class="st0" d="M924.9,451.8c4.5,2.8,4.4,5,0.2,7.7C921.1,457.2,920.1,455.1,924.9,451.8z"/>
	<path class="st0" d="M242.1,459.5c2.2-3.7,4.2-4.2,6.9-0.2C246.8,463.3,244.8,463.6,242.1,459.5z"/>
	<path class="st0" d="M1266.9,173.4c2.2-4,4.1-4.4,6.7-0.8C1272.2,176.4,1270.4,178,1266.9,173.4z"/>
	<path class="st0" d="M953.3,463c-2.4,4.3-4.6,4.6-7.2,0.6C947.9,459.8,949.8,458.3,953.3,463z"/>
	<path class="st0" d="M1359.5,172.9c-2.4,4.3-4.6,4.6-7.2,0.6C1354,169.7,1355.9,168.2,1359.5,172.9z"/>
	<path class="st0" d="M801.9,473c2.2-4,4.1-4.4,6.7-0.8C807.2,476,805.5,477.6,801.9,473z"/>
	<path class="st0" d="M718.7,474.1c2.3-2.7,3.9-3.1,5.4-1.1c1.6,2.1,0.2,3.4-1.6,4.5C720.1,477.6,719.4,476,718.7,474.1z"/>
	<path class="st0" d="M1300.5,180.7c-2.7,4.1-4.7,3.9-7,0.1C1295.5,177.3,1297.5,176.3,1300.5,180.7z"/>
	<path class="st0" d="M1380.7,184.4c-4.3-2.4-4.6-4.6-0.6-7.2C1383.9,179,1385.4,180.9,1380.7,184.4z"/>
	<path class="st0" d="M1211.5,186.3c-4.1-2.5-4.2-4.6,0-7.3C1215.6,181.5,1215.8,183.7,1211.5,186.3z"/>
	<path class="st0" d="M1239.9,189.7c-1.4,3.3-2.9,5.1-5.7,3c-1.7-1.2-2-3-0.4-4.7C1236.5,185.5,1238.1,187.4,1239.9,189.7z"/>
	<path class="st0" d="M1321.6,193.9c-4.1-2.5-4.2-4.6,0-7.3C1325.7,189.1,1325.8,191.2,1321.6,193.9z"/>
	<path class="st0" d="M1262,194.2c2.7,0.1,4.1,1.2,4.3,3.3c0.2,2.6-1.3,4.1-3.9,4c-2.1-0.1-3.3-1.5-3.3-3.6
		C1259.2,195.5,1260.7,194.6,1262,194.2z"/>
	<path class="st0" d="M1348.4,201.3c-2.1-0.1-3.4-1.2-3.6-3.3c-0.2-2.1,1.2-3.5,3.2-3.6c2.1-0.2,3.4,1.2,3.6,3.2
		C1351.8,199.8,1350.4,200.8,1348.4,201.3z"/>
	<path class="st0" d="M1091.6,196.3c3,1.7,4.4,3.2,2,5.5c-1,1-2.3,1-3.4,0C1087.7,199.6,1089.6,198.2,1091.6,196.3z"/>
	<path class="st0" d="M1177.6,203.3c-4-2.5-4.4-4.5-0.4-7.1C1180.6,198,1181.8,199.9,1177.6,203.3z"/>
	<path class="st0" d="M583.9,207.2c-3.3-1.4-5.1-2.9-3-5.7c1.2-1.7,3-2,4.7-0.4C588.1,203.8,586.2,205.4,583.9,207.2z"/>
	<path class="st0" d="M16,218.3c-1.1-0.1-1.8-0.6-1.6-1.8c0.2-1,0.9-1.6,2-1.3c0.5,0.1,1,0.7,1.1,1.2C17.8,217.7,17,218.1,16,218.3z
		"/>
	<path class="st0" d="M1450.4,230.1c0.1,0.6-0.4,1.3-1.5,1.4c-0.5,0-1.3-0.3-1.5-0.7c-0.5-0.9-0.2-1.9,0.7-2.3
		C1449,228.2,1449.9,228.6,1450.4,230.1z"/>
	<path class="st0" d="M1390.2,155.9c-1.2,0.2-1.7-0.5-1.9-1.5c-0.3-1.2,0.5-1.7,1.4-1.9c1.2-0.3,1.7,0.5,1.9,1.5
		C1391.9,155.2,1391.1,155.6,1390.2,155.9z"/>
	<path class="st0" d="M1196.6,148.5c-0.2,1.6-1.2,2.2-2.6,2c-1.5-0.2-2-1.4-1.6-2.7c0.2-0.8,0.8-1.5,2-1.5
		C1196,146.4,1196.5,147.3,1196.6,148.5z"/>
	<path class="st0" d="M1365,146.9c-0.2,0.9-0.7,1.7-1.9,1.4c-1-0.2-1.7-0.8-1.4-1.9c0.2-1,0.8-1.7,1.9-1.4
		C1364.5,145.2,1365.4,145.6,1365,146.9z"/>
	<path class="st0" d="M1281.5,146.4c0.2,1.2-0.5,1.7-1.5,1.9c-1.2,0.3-1.7-0.5-1.9-1.4c-0.3-1.2,0.5-1.7,1.5-1.9
		C1280.8,144.7,1281.3,145.4,1281.5,146.4z"/>
	<path class="st0" d="M492.4,230c-0.2,1.7-1.3,2.2-2.6,1.9c-0.8-0.2-1.6-0.8-1.4-2c0.2-1.6,1.3-2.1,2.6-1.8
		C491.8,228.3,492.7,229,492.4,230z"/>
	<path class="st0" d="M755.7,201.6c-0.1,1-0.6,1.7-1.7,1.5c-1-0.2-1.6-0.9-1.3-2c0.1-0.5,0.8-1,1.2-1.1
		C755.1,199.7,755.6,200.5,755.7,201.6z"/>
	<path class="st0" d="M33.1,421.2c-1.1-0.1-1.8-0.6-1.6-1.8c0.2-1,0.9-1.6,2-1.3c0.5,0.1,1,0.7,1.1,1.2
		C34.9,420.6,34.1,421,33.1,421.2z"/>
	<path class="st0" d="M1340.1,138.9c-0.3,0.5-0.4,1.3-0.8,1.4c-0.9,0.3-1.8-0.2-1.9-1.2c0-0.5,0.4-1.3,0.8-1.4
		C1339.1,137.4,1339.8,137.9,1340.1,138.9z"/>
	<path class="st0" d="M1253.1,137.4c1.2-0.2,1.7,0.5,1.9,1.5c0.3,1.2-0.5,1.7-1.5,1.9c-1.2,0.3-1.7-0.5-1.9-1.5
		C1251.3,138.1,1252.1,137.6,1253.1,137.4z"/>
	<path class="st0" d="M211.3,222.6c-0.2,1-0.7,1.6-1.7,1.6c-1.7,0-2.1-1.2-1.8-2.4c0.2-0.9,1.1-1.4,2.1-1.1
		C210.8,221,211.6,221.5,211.3,222.6z"/>
	<path class="st0" d="M654,424.5c-0.5-0.2-1.2-0.3-1.4-0.7c-0.1-0.3,0.2-1.2,0.6-1.3c0.3-0.1,1.2,0.2,1.3,0.6
		C654.7,423.4,654.2,424,654,424.5z"/>
	<path class="st0" d="M467.3,220.9c-0.4,1-1.1,1.6-2.1,1.2c-1-0.3-1.3-1.3-0.9-2.2c0.2-0.4,1-0.8,1.5-0.8
		C466.8,219.1,467.5,219.7,467.3,220.9z"/>
	<path class="st0" d="M1471,327.7c-1.6-2-1.4-3.4-0.6-5.1C1472.2,324.2,1471.2,325.6,1471,327.7z"/>
	<path class="st0" d="M1169.6,139.3c-0.3,0.9-0.7,1.7-1.9,1.4c-1-0.2-1.7-0.7-1.4-1.9c0.2-1,0.8-1.7,1.9-1.4
		C1169.1,137.6,1169.8,138.1,1169.6,139.3z"/>
	<path class="st0" d="M484.8,425.3c0.2,1.1-0.6,1.7-1.4,1.9c-1.3,0.3-2.4-0.2-2.6-1.8c-0.2-1.2,0.6-1.9,1.4-2
		C483.5,423.1,484.6,423.6,484.8,425.3z"/>
	<path class="st0" d="M1228.8,133.1c-1.2,0.2-1.7-0.5-1.9-1.5c-0.3-1.2,0.5-1.7,1.4-1.9c1.2-0.3,1.7,0.5,1.9,1.5
		C1230.6,132.4,1229.8,132.8,1228.8,133.1z"/>
	<path class="st0" d="M889.1,220.6c-1.8-0.2-2.3-1.2-2-2.5c0.2-0.8,0.8-1.5,1.9-1.3c1.6,0.2,2,1.2,1.7,2.4
		C890.6,220,890,220.9,889.1,220.6z"/>
	<path class="st0" d="M59.6,425.5c0.9-0.2,1.4,0.5,1.6,1.5c0.3,1.2-0.5,1.7-1.5,1.9c-1.2,0.3-1.7-0.5-1.9-1.5
		C57.6,426.3,58.4,425.8,59.6,425.5z"/>
	<path class="st0" d="M1201.9,123.4c-1.1-0.3-1.5-1-1.2-2c0.1-0.4,1-0.8,1.4-0.8c1.1,0.1,1.5,1,1.2,1.9
		C1203.2,122.9,1202.4,123.1,1201.9,123.4z"/>
	<path class="st0" d="M184.8,216.8c-1.6-0.2-2.1-1.2-1.8-2.4c0.2-0.8,0.8-1.5,1.9-1.3c1.6,0.2,2,1.2,1.7,2.4
		C186.5,216.2,185.9,217,184.8,216.8z"/>
	<path class="st0" d="M526.1,212.6c0.2,1.1-0.4,1.8-1.4,1.9c-0.5,0-1.3-0.3-1.5-0.7c-0.5-0.9-0.2-1.9,0.7-2.3
		C524.8,211.1,525.7,211.6,526.1,212.6z"/>
	<path class="st0" d="M1189.1,425.4c0.9,0.3,1.6,0.7,1.5,1.9c-0.1,1.7-1.4,2-2.5,1.6c-0.5-0.2-1.1-1.5-1-2.2
		C1187.1,425.9,1188,425.2,1189.1,425.4z"/>
	<path class="st0" d="M1274.1,427.2c0.1,1.1-0.6,1.6-1.5,1.8c-1.1,0.3-1.9-0.4-2-1.3c-0.2-1.3,0.2-2.4,1.9-2.3
		C1273.4,425.5,1274,426.1,1274.1,427.2z"/>
	<path class="st0" d="M438.1,213.4c0.2-0.5,0.3-1.2,0.7-1.4c0.3-0.1,1.2,0.2,1.3,0.6c0.1,0.3-0.2,1.2-0.6,1.3
		C439.2,214.1,438.6,213.6,438.1,213.4z"/>
	<path class="st0" d="M677.5,432.9c-1.2-0.3-1.6-1.5-1.2-2.7c0.3-0.8,1.2-1.4,2.3-1.2c1.6,0.3,1.9,1.6,1.6,2.8
		C679.9,432.6,679,433.3,677.5,432.9z"/>
	<path class="st0" d="M457.9,246.9c0.2,1.2-0.5,1.7-1.5,1.9c-1.2,0.3-1.7-0.5-1.9-1.4c-0.3-1.2,0.5-1.7,1.5-1.9
		C457.2,245.1,457.6,246,457.9,246.9z"/>
	<path class="st0" d="M780.8,210.9c-0.2,1.8-1.2,2.3-2.5,2c-0.8-0.2-1.5-0.8-1.3-1.9c0.2-1.6,1.2-2,2.4-1.7
		C780.1,209.4,781.1,210,780.8,210.9z"/>
	<path class="st0" d="M946.6,206.9c2.4,0.8,3,1.2,3,2.3c-0.1,1.7-1.4,2-2.5,1.6c-0.5-0.2-1.1-1.5-1-2.2
		C946.1,207.9,946.9,207,946.6,206.9z"/>
	<path class="st0" d="M423.9,435.1c-1.6-0.2-2.2-1.2-2-2.5c0.2-1.5,1.4-2,2.7-1.6c0.8,0.2,1.5,0.8,1.5,2
		C426.1,434.5,425.2,435,423.9,435.1z"/>
	<path class="st0" d="M865.6,209.1c-0.3,0.5-0.4,1.3-0.8,1.4c-0.9,0.3-1.8-0.2-1.9-1.2c0-0.5,0.4-1.3,0.8-1.4
		C864.7,207.5,865.4,208,865.6,209.1z"/>
	<path class="st0" d="M1297.5,434.8c0.2-0.4,0.4-1.2,0.8-1.3c0.9-0.3,1.8,0.2,1.9,1.2c0,0.5-0.4,1.3-0.8,1.4
		C1298.4,436.4,1297.6,436,1297.5,434.8z"/>
	<path class="st0" d="M1382.5,436.7c-1.8-0.2-2.3-1.2-2-2.5c0.2-0.8,0.8-1.5,1.9-1.3c1.6,0.2,2,1.2,1.7,2.4
		C1384,436.1,1383.4,437.1,1382.5,436.7z"/>
	<path class="st0" d="M1469.6,435.5c-0.3,1.2-1.5,1.6-2.7,1.2c-0.8-0.3-1.4-1.2-1.2-2.3c0.3-1.6,1.6-1.9,2.8-1.6
		C1469.4,433.1,1470,434.1,1469.6,435.5z"/>
	<path class="st0" d="M-1.2,438.3c-1-0.1-1.7-0.6-1.5-1.7c0.2-1,0.9-1.6,2-1.3c0.5,0.1,1,0.7,1.1,1.2C0.7,437.6-0.1,438.1-1.2,438.3
		z"/>
	<path class="st0" d="M86,436.9c-0.3,0.9-0.7,1.7-1.9,1.4c-1-0.2-1.7-0.7-1.4-1.9c0.2-1,0.8-1.7,1.9-1.4
		C85.5,435.3,86.2,435.8,86,436.9z"/>
	<path class="st0" d="M440.9,298.2c0.1,1.1-0.6,1.6-1.5,1.8c-1.1,0.3-1.9-0.4-2-1.3c-0.2-1.3,0.2-2.4,1.9-2.3
		C440.3,296.6,440.9,297.2,440.9,298.2z"/>
	<path class="st0" d="M162,206.9c0.2,1.1-0.3,1.9-1.2,2.1c-1.2,0.3-2.4-0.1-2.4-1.8c0-1.1,0.6-1.5,1.6-1.7
		C161.2,205.3,161.6,206.1,162,206.9z"/>
	<path class="st0" d="M76.9,207.8c0.1,0.6-0.7,1.2-1.5,1.4c-1.3,0.3-2.4-0.2-2.6-1.8c-0.2-1.2,0.6-1.9,1.4-2
		C75.5,205,76.6,205.6,76.9,207.8z"/>
	<path class="st0" d="M1046.4,437.4c-0.3,1.2-1.5,1.6-2.7,1.2c-0.8-0.3-1.4-1.2-1.2-2.3c0.3-1.6,1.6-1.9,2.8-1.6
		C1046.2,435,1046.8,436,1046.4,437.4z"/>
	<path class="st0" d="M1214.8,436.7c-0.2,0.4-0.4,1.2-0.8,1.3c-0.9,0.3-1.8-0.2-1.9-1.2c0-0.5,0.4-1.3,0.8-1.4
		C1213.8,435.1,1214.6,435.5,1214.8,436.7z"/>
	<path class="st0" d="M671,203.4c-0.3,1.9-1.4,2.4-2.7,2.2c-1.5-0.3-1.9-1.6-1.5-2.8c0.2-0.8,0.9-1.5,2.1-1.4
		C670.5,201.5,670.8,202.5,671,203.4z"/>
	<path class="st0" d="M923,200.3c0.4,0.2,1.2,0.4,1.3,0.8c0.3,0.9-0.2,1.8-1.2,1.9c-0.5,0-1.3-0.4-1.4-0.8
		C921.5,201.2,921.9,200.4,923,200.3z"/>
	<path class="st0" d="M577.4,399.1c-0.4,1-1.1,1.6-2.1,1.2c-1-0.3-1.3-1.3-0.9-2.2c0.2-0.4,1-0.8,1.5-0.8
		C576.9,397.3,577.6,397.9,577.4,399.1z"/>
	<path class="st0" d="M367.1,442.2c-0.2,1.8-1.2,2.3-2.5,2c-0.8-0.2-1.5-0.8-1.3-1.9c0.2-1.6,1.2-2,2.4-1.7
		C366.4,440.8,367.4,441.3,367.1,442.2z"/>
	<path class="st0" d="M450,442.1c-0.2,0.5-0.3,1.3-0.7,1.5c-0.9,0.4-1.8,0.1-2-0.9c-0.1-0.4,0.2-1.3,0.6-1.5
		C448.8,440.7,449.6,441.1,450,442.1z"/>
	<path class="st0" d="M1407.6,442.4c0.2-0.4,0.4-1.2,0.8-1.3c0.9-0.3,1.8,0.2,1.9,1.2c0,0.5-0.4,1.3-0.8,1.4
		C1408.5,444,1407.7,443.6,1407.6,442.4z"/>
	<path class="st0" d="M27.3,444.3c0.2,1-0.6,1.6-1.4,1.8c-1.2,0.3-2.2-0.2-2.4-1.7c-0.2-1.1,0.6-1.8,1.4-1.9
		C26.1,442.2,27.2,442.6,27.3,444.3z"/>
	<path class="st0" d="M109.4,444.4c0.3-0.5,0.4-1.3,0.8-1.4c0.9-0.3,1.8,0.2,1.9,1.2c0,0.5-0.4,1.3-0.8,1.4
		C110.4,445.9,109.7,445.4,109.4,444.4z"/>
	<path class="st0" d="M288.4,246.7c-0.2,0.5-0.3,1.2-0.7,1.4c-0.3,0.1-1.2-0.2-1.3-0.6c-0.1-0.4,0.3-0.9,0.6-1.4
		C287.4,246.3,287.9,246.5,288.4,246.7z"/>
	<path class="st0" d="M838.7,201.2c-0.2,0.5-0.3,1.2-0.7,1.4c-0.3,0.1-1.2-0.2-1.3-0.6c-0.1-0.3,0.2-1.2,0.6-1.3
		C837.7,200.5,838.2,201,838.7,201.2z"/>
	<path class="st0" d="M1155.7,443.9c-0.2,0.5-0.3,1.2-0.7,1.4c-0.3,0.1-1.2-0.2-1.3-0.6c-0.1-0.3,0.2-1.2,0.6-1.3
		C1154.6,443.2,1155.2,443.7,1155.7,443.9z"/>
	<path class="st0" d="M1008.6,201.8c-2-0.4-2.4-1.6-2-2.9c0.3-0.8,1.2-1.4,2.3-1.2c1.6,0.3,1.9,1.6,1.5,2.8
		C1010.2,201.3,1009.3,202.1,1008.6,201.8z"/>
	<path class="st0" d="M448.4,270.4c0.4,0.2,1.2,0.3,1.4,0.6c0.4,0.9,0.1,1.8-0.9,2c-0.4,0.1-1.3-0.2-1.5-0.6
		C447,271.6,447.3,270.8,448.4,270.4z"/>
	<path class="st0" d="M1069.6,448c-1.1,0.2-1.9-0.3-2.1-1.2c-0.3-1.2,0.1-2.4,1.8-2.4c1.1,0,1.5,0.6,1.7,1.6
		C1071.2,447.2,1070.4,447.6,1069.6,448z"/>
	<path class="st0" d="M48.1,201.1c-1.1-0.3-1.5-1-1.2-2c0.1-0.4,1-0.8,1.4-0.8c1.1,0.1,1.5,1,1.2,1.9
		C49.4,200.7,48.6,200.8,48.1,201.1z"/>
	<path class="st0" d="M1433.1,197.5c-0.2,0.5-0.3,1.3-0.7,1.5c-0.9,0.4-1.8,0.1-2-0.9c-0.1-0.4,0.2-1.3,0.6-1.5
		C1431.9,196.2,1432.6,196.5,1433.1,197.5z"/>
	<path class="st0" d="M389.4,448.9c0.5,0.2,1.2,0.3,1.4,0.7c0.1,0.3-0.2,1.2-0.6,1.3c-0.3,0.1-1.2-0.2-1.3-0.6
		C388.7,450,389.2,449.4,389.4,448.9z"/>
	<path class="st0" d="M137.2,451.6c0.2,1.2-0.5,1.7-1.5,1.9c-1.2,0.3-1.7-0.5-1.9-1.5c-0.3-1.2,0.5-1.7,1.5-1.9
		C136.4,449.9,136.9,450.7,137.2,451.6z"/>
	<path class="st0" d="M135.2,198c-0.3,1-0.9,1.6-2,1.3c-1-0.3-1.4-1.3-1.1-2.2c0.1-0.4,0.9-0.8,1.5-0.9
		C134.6,196.2,135.3,196.8,135.2,198z"/>
	<path class="st0" d="M558.7,193.9c1.1-0.2,1.7,0.6,1.9,1.4c0.3,1.3-0.2,2.4-1.8,2.6c-1.2,0.2-1.9-0.6-2-1.4
		C556.5,195.2,556.9,194.1,558.7,193.9z"/>
	<path class="st0" d="M-16.1,402.7c-0.3,1.6-1.3,2.2-2.6,1.9c-1.5-0.3-1.9-1.6-1.5-2.8c0.2-0.8,0.9-1.5,2.1-1.4
		C-16.6,400.6-16.1,401.4-16.1,402.7z"/>
	<path class="st0" d="M1010.1,452c1.3-0.2,1.8,0.6,2.1,1.5c0.3,1.1-0.4,1.9-1.3,2c-1.3,0.2-2.5-0.2-2.3-1.9
		C1008.7,452.6,1009.2,451.9,1010.1,452z"/>
	<path class="st0" d="M1095.3,454.5c-0.2,0.5-0.9,1.1-1.9,0.8c-1-0.3-1.3-1.3-0.9-2.2c0.2-0.4,1-0.8,1.5-0.8
		C1095,452.3,1095.7,452.8,1095.3,454.5z"/>
	<path class="st0" d="M727.6,192.7c0.4,0.2,1.2,0.4,1.3,0.8c0.3,0.9-0.2,1.8-1.2,1.9c-0.5,0-1.3-0.4-1.4-0.8
		C726,193.6,726.4,192.8,727.6,192.7z"/>
	<path class="st0" d="M671.1,458.6c-0.5-0.2-1.2-0.3-1.4-0.7c-0.1-0.3,0.2-1.2,0.6-1.3c0.3-0.1,1.2,0.2,1.3,0.6
		C671.8,457.5,671.3,458.1,671.1,458.6z"/>
	<path class="st0" d="M644,193.9c0.1,1.1-0.6,1.6-1.5,1.8c-1.1,0.3-1.9-0.4-2-1.3c-0.2-1.3,0.2-2.4,1.9-2.3
		C643.4,192.3,644,192.9,644,193.9z"/>
	<path class="st0" d="M331.2,461.1c-1.2,0.2-1.7-0.5-1.9-1.5c-0.3-1.2,0.5-1.7,1.5-1.9c1.2-0.3,1.7,0.5,1.9,1.5
		C332.9,460.4,332.1,460.8,331.2,461.1z"/>
	<path class="st0" d="M162.4,459.6c0.9,0.3,1.6,0.7,1.5,1.9c-0.1,1.7-1.4,2-2.5,1.6c-0.5-0.2-1.1-1.5-1-2.2
		C160.4,460,161.3,459.3,162.4,459.6z"/>
	<path class="st0" d="M1069.2,192.1c-0.2,1.6-1.2,2.1-2.4,1.8c-0.8-0.2-1.5-0.8-1.3-1.9c0.2-1.6,1.2-2,2.4-1.7
		C1068.7,190.5,1069.5,191.1,1069.2,192.1z"/>
	<path class="st0" d="M1176.3,114.8c0.2-0.5,0.3-1.2,0.7-1.4c0.3-0.1,1.2,0.2,1.3,0.6c0.1,0.3-0.2,1.2-0.6,1.3
		C1177.4,115.5,1176.8,115,1176.3,114.8z"/>
	<path class="st0" d="M866.1,461.2c0.8-0.2,1.7,0.4,2,1.2c0.4,1.2,0,2.4-1.6,2.8c-1.1,0.2-2-0.4-2.3-1.2
		C863.8,462.8,864.2,461.6,866.1,461.2z"/>
	<path class="st0" d="M694.6,467c-1.2-0.3-1.6-1.5-1.2-2.7c0.3-0.8,1.2-1.4,2.3-1.2c1.6,0.3,1.9,1.6,1.6,2.8
		C697,466.8,696.1,467.4,694.6,467z"/>
	<path class="st0" d="M981.8,193.5c-1.1-0.3-1.5-1-1.2-2c0.1-0.4,1-0.8,1.4-0.8c1.1,0.1,1.5,1,1.2,1.9
		C983.1,193.1,982.3,193.3,981.8,193.5z"/>
	<path class="st0" d="M187.1,470.7c-1,0.2-1.9-0.3-2.1-1.2c-0.3-1.2,0.1-2.4,1.8-2.4c1.1,0,1.5,0.6,1.7,1.6
		C188.8,470,188,470.4,187.1,470.7z"/>
	<path class="st0" d="M273.8,469.2c-0.3,0.9-0.8,1.7-1.9,1.4c-1-0.2-1.7-0.8-1.4-1.9c0.2-1,0.8-1.7,1.9-1.4
		C273.3,467.5,274.1,468,273.8,469.2z"/>
	<path class="st0" d="M306.5,281.4c-0.3,1.6-1.3,2.2-2.6,1.9c-1.5-0.3-1.9-1.6-1.5-2.8c0.2-0.8,0.9-1.5,2.1-1.4
		C306,279.2,306.5,280.1,306.5,281.4z"/>
	<path class="st0" d="M278.1,271.5c1.6,0.4,2.1,1.5,1.8,2.8c-0.4,1.4-1.7,1.8-2.9,1.4c-0.7-0.3-1.5-1.1-1.3-2.2
		C275.9,272,276.8,271.5,278.1,271.5z"/>
	<path class="st0" d="M890.6,471.1c1.2-0.2,1.7,0.5,1.9,1.5c0.3,1.2-0.5,1.7-1.5,1.9c-1.2,0.3-1.7-0.5-1.9-1.5
		C888.9,471.8,889.6,471.3,890.6,471.1z"/>
	<path class="st0" d="M976.3,474.7c-1.9-0.4-2.3-1.6-1.8-2.7c0.2-0.6,1.4-1.1,2.1-1c1.5,0.1,1.8,1.4,1.5,2.6
		C977.8,474.2,977,475,976.3,474.7z"/>
	<path class="st0" d="M211.2,478.2c-0.9-0.3-1.7-0.7-1.4-1.9c0.2-1,0.7-1.7,1.9-1.4c1,0.2,1.7,0.8,1.4,1.9
		C212.8,477.7,212.3,478.4,211.2,478.2z"/>
	<path class="st0" d="M917.2,478.6c1.2-0.2,1.7,0.5,1.9,1.5c0.3,1.2-0.5,1.7-1.5,1.9c-1.2,0.3-1.7-0.5-1.9-1.5
		C915.4,479.4,916.2,478.9,917.2,478.6z"/>
	<path class="st0" d="M1000.5,479.3c0.5,0.2,1.2,0.3,1.4,0.7c0.1,0.3-0.2,1.2-0.6,1.3c-0.3,0.1-1.2-0.2-1.3-0.6
		C999.8,480.3,1000.3,479.7,1000.5,479.3z"/>
	<path class="st0" d="M748.5,482.2c-0.3,0.5-0.6,1.6-1.2,1.8c-1.1,0.4-2.5,0-2.6-1.5c0-0.7,0.5-1.9,1.1-2.1
		C747,480,748.1,480.4,748.5,482.2z"/>
	<path class="st0" d="M831.9,480.2c0.8-0.2,1.7,0.4,2,1.2c0.4,1.2,0,2.4-1.6,2.8c-1.1,0.2-2-0.4-2.3-1.2
		C829.7,481.8,830.1,480.6,831.9,480.2z"/>
	<path class="st0" d="M603.4,405.9c-0.2,0.5-0.3,1.2-0.7,1.4c-0.3,0.1-1.2-0.2-1.3-0.6c-0.1-0.3,0.2-1.2,0.6-1.3
		C602.3,405.3,602.9,405.7,603.4,405.9z"/>
	<path class="st0" d="M772.9,491.5c-0.9-0.3-1.7-0.7-1.4-1.9c0.2-1,0.7-1.7,1.9-1.4c1,0.2,1.7,0.8,1.4,1.9
		C774.6,491,774.1,491.7,772.9,491.5z"/>
	<path class="st0" d="M855,489.7c-0.1-0.6,0.4-1.3,1.5-1.4c0.5,0,1.3,0.3,1.5,0.7c0.5,0.9,0.2,1.9-0.7,2.3
		C856.4,491.6,855.5,491.3,855,489.7z"/>
	<path class="st0" d="M940.7,489.9c0.3-0.5,0.4-1.3,0.8-1.4c0.9-0.3,1.8,0.2,1.9,1.2c0,0.5-0.4,1.3-0.8,1.4
		C941.6,491.4,940.9,490.9,940.7,489.9z"/>
	<path class="st0" d="M260.5,237.8c1.2-0.2,1.7,0.5,1.9,1.5c0.3,1.2-0.5,1.7-1.5,1.9c-1.2,0.3-1.7-0.5-1.9-1.5
		C258.8,238.6,259.6,238.1,260.5,237.8z"/>
	<path class="st0" d="M884.3,497c-0.2,0.5-0.3,1.2-0.7,1.4c-0.3,0.1-1.2-0.2-1.3-0.6c-0.1-0.4,0.3-0.9,0.6-1.4
		C883.3,496.5,883.8,496.7,884.3,497z"/>
	<path class="st0" d="M711.4,499.7c0.2-0.5,0.3-1.2,0.7-1.4c0.3-0.1,1.2,0.2,1.3,0.6c0.1,0.3-0.2,1.2-0.6,1.3
		C712.4,500.4,711.9,499.9,711.4,499.7z"/>
	<path class="st0" d="M797.5,497.9c0.5,0.2,1.3,0.3,1.5,0.7c0.4,0.9,0.1,1.8-0.9,2c-0.4,0.1-1.3-0.2-1.5-0.6
		C796.2,499.1,796.5,498.3,797.5,497.9z"/>
	<path class="st0" d="M824,505.8c0.5,0.2,1.2,0.3,1.4,0.7c0.1,0.3-0.2,1.2-0.6,1.3c-0.3,0.1-1.2-0.2-1.3-0.6
		C823.3,506.9,823.8,506.3,824,505.8z"/>
	<path class="st0" d="M1152.6,188c1.9,0.3,2.4,1.4,2.2,2.7c-0.3,1.5-1.6,1.9-2.8,1.5c-0.8-0.2-1.5-0.9-1.4-2.1
		C1150.7,188.5,1151.7,188.2,1152.6,188z"/>
	<path class="st0" d="M108.5,189.2c0.5,0.2,1.2,0.3,1.4,0.7c0.1,0.3-0.2,1.2-0.6,1.3c-0.4,0.1-0.9-0.3-1.4-0.6
		C108.1,190.1,108.3,189.7,108.5,189.2z"/>
	<path class="st0" d="M-17.8,235.6c-1.1,0.2-1.9-0.3-2.1-1.2c-0.3-1.2,0.1-2.4,1.8-2.4c1.1,0,1.5,0.6,1.7,1.6
		C-16.2,234.9-17,235.2-17.8,235.6z"/>
	<path class="st0" d="M237.7,232c-0.1,1-0.6,1.7-1.7,1.5c-1-0.2-1.6-0.9-1.3-2c0.1-0.5,0.8-1,1.2-1.1
		C237,230.1,237.5,230.9,237.7,232z"/>
	<path class="st0" d="M1408.9,189.1c-0.3,1.2-1.5,1.5-2.7,1.2c-0.8-0.3-1.4-1.2-1.2-2.3c0.3-1.6,1.6-1.9,2.8-1.6
		C1408.6,186.6,1409.3,187.6,1408.9,189.1z"/>
	<path class="st0" d="M10.2,409.8c0.2,1.1-0.3,1.9-1.2,2.1c-1.2,0.3-2.4-0.1-2.4-1.8c0-1.1,0.6-1.5,1.6-1.7
		C9.4,408.1,9.8,408.9,10.2,409.8z"/>
	<path class="st0" d="M617.4,188.2c-1-0.2-1.6-0.7-1.6-1.7c0-1.7,1.2-2.1,2.4-1.8c0.9,0.2,1.4,1.1,1.1,2.1
		C619,187.7,618.5,188.5,617.4,188.2z"/>
	<path class="st0" d="M533.2,186c-0.2,0.5-0.3,1.2-0.7,1.4c-0.3,0.1-1.2-0.2-1.3-0.6c-0.1-0.4,0.3-0.9,0.6-1.4
		C532.2,185.6,532.7,185.8,533.2,186z"/>
	<path class="st0" d="M1127.5,182.6c-0.2,0.4-0.4,1.2-0.8,1.3c-0.9,0.3-1.8-0.2-1.9-1.2c0-0.5,0.4-1.3,0.8-1.4
		C1126.5,181,1127.3,181.4,1127.5,182.6z"/>
	<path class="st0" d="M1042.2,181.6c0.5,0.2,1.2,0.3,1.4,0.7c0.1,0.3-0.2,1.2-0.6,1.3c-0.4,0.1-0.9-0.3-1.4-0.6
		C1041.8,182.6,1042,182.1,1042.2,181.6z"/>
	<path class="st0" d="M594.8,176.9c-0.4,1.8-1.6,2.2-2.7,1.8c-0.6-0.2-1.1-1.4-1-2.1c0.1-1.5,1.4-1.8,2.6-1.5
		C594.2,175.4,594.5,176.5,594.8,176.9z"/>
	<path class="st0" d="M567.3,169c-0.2,0.5-0.3,1.2-0.7,1.4c-0.3,0.1-1.2-0.2-1.3-0.6c-0.1-0.4,0.3-0.9,0.6-1.4
		C566.4,168.5,566.9,168.7,567.3,169z"/>
	<path class="st0" d="M1160.7,167.4c-1.1,0.2-1.9-0.3-2.1-1.2c-0.3-1.2,0.1-2.4,1.8-2.4c1.1,0,1.5,0.6,1.7,1.6
		C1162.3,166.6,1161.5,167,1160.7,167.4z"/>
	<path class="st0" d="M1333.1,163.6c-0.4,1.8-1.6,2.2-2.7,1.8c-0.6-0.2-1.1-1.4-1-2.1c0.1-1.5,1.4-1.8,2.6-1.5
		C1332.5,162.1,1332.8,163.2,1333.1,163.6z"/>
	<path class="st0" d="M1306.3,156c0.1,1.1-0.6,1.6-1.5,1.8c-1.1,0.3-1.9-0.4-2-1.3c-0.2-1.3,0.2-2.4,1.9-2.3
		C1305.7,154.4,1306.3,155,1306.3,156z"/>
	<path class="st0" d="M544.6,415.4c-0.2,0.5-0.3,1.2-0.7,1.4c-0.3,0.1-1.2-0.2-1.3-0.6c-0.1-0.4,0.3-0.9,0.6-1.4
		C543.6,415,544.1,415.2,544.6,415.4z"/>
</g>
</svg>
