<?xml version="1.0" encoding="utf-8"?>
<!-- Generator: Adobe Illustrator 28.2.0, SVG Export Plug-In . SVG Version: 6.00 Build 0)  -->
<svg version="1.1" id="Layer_1" xmlns="http://www.w3.org/2000/svg" xmlns:xlink="http://www.w3.org/1999/xlink" x="0px" y="0px"
	 viewBox="0 0 364 201" style="enable-background:new 0 0 364 201;" xml:space="preserve">
<style type="text/css">
	.st0{fill:#40855D;}
</style>
<path class="st0" d="M2.3,165.6c0.5-0.2,1-0.5,1.7-0.8c0.2,0.5,0.4,0.9,0.5,1.3c-0.8,0.8-1.5,0.2-2.2,0.4
	C2.3,166.1,2.3,165.9,2.3,165.6z"/>
<path class="st0" d="M177.1,157.6c0-4.8,3.6-8.4,8.3-8.5c4.9-0.1,8.7,3.7,8.6,8.7c-0.1,4.7-3.6,8.4-8.5,8.3
	C180.1,166,177,161.8,177.1,157.6z"/>
<path class="st0" d="M400.5,230.4c0-4.7,3.8-8.4,8.5-8.3c4.6,0.1,8.1,3.6,8.2,8.2c0.1,4.8-3.5,8.5-8.2,8.6
	C404.2,238.9,400.5,235.1,400.5,230.4z"/>
<path class="st0" d="M187.5,177.9c-0.1,4.6-4.1,8.4-8.7,8.3c-4.4-0.2-8.3-4-8.1-8.4c0.2-4.7,3.7-8.4,8.7-8.2
	C184.7,169.7,187.4,174,187.5,177.9z"/>
<path class="st0" d="M388.6,215.3c4.7-0.1,8.1,3.4,8.4,8c0.3,4.5-3.7,8.6-8.3,8.6c-4.6,0-8.5-4-8.4-8.5
	C380.4,218.8,384,215.3,388.6,215.3z"/>
<path class="st0" d="M395,195.2c4.2-0.1,8,3.5,8.2,7.8c0.2,4.5-3.5,8.2-8,8.4c-3.7,0.1-8.1-2.8-8.2-8.1
	C386.9,198.9,390.7,195.3,395,195.2z"/>
<path class="st0" d="M158.8,163.4c4.3,0,8,3.6,8.1,7.9c0.1,4.3-3.4,8-7.8,8.2c-4.5,0.1-8.4-3.6-8.3-8
	C150.8,167.1,154.5,163.4,158.8,163.4z"/>
<path class="st0" d="M414.3,190c0-4.6,3.5-8.2,8.1-8.1c4.4,0.1,7.8,3.5,7.8,7.9c0,4.6-3.6,8.2-8.1,8.2
	C417.7,197.9,414.3,194.4,414.3,190z"/>
<path class="st0" d="M415.3,202.4c4.5,0,7.9,3.4,7.8,7.9c-0.1,4.4-3.7,7.9-8,7.8c-4.2-0.1-7.6-3.6-7.6-7.8
	C407.4,205.8,410.8,202.4,415.3,202.4z"/>
<path class="st0" d="M213.5,164.5c0,4.1-3.5,7.6-7.6,7.7c-4.2,0.1-7.9-3.8-7.8-8c0.1-4.1,3.7-7.5,7.9-7.4
	C210.2,156.9,213.6,160.4,213.5,164.5z"/>
<path class="st0" d="M368.2,224.8c-4.4-0.1-7.7-3.8-7.5-8.2c0.2-4.3,3.6-7.4,8-7.2c4.2,0.2,7.5,3.7,7.3,7.9
	C375.9,221.5,372.3,225,368.2,224.8z"/>
<path class="st0" d="M382,236.2c4.3-0.1,7.7,3.1,7.8,7.5c0.1,4.2-3.2,7.9-7.4,7.9c-4.3,0-7.8-3.4-7.8-7.5
	C374.5,239.6,377.7,236.2,382,236.2z"/>
<path class="st0" d="M382.4,196.9c0,4.1-3.6,7.6-7.8,7.5c-4.2-0.1-7.6-3.7-7.5-7.8c0.2-4,3.6-7.3,7.6-7.3
	C378.9,189.2,382.4,192.7,382.4,196.9z"/>
<path class="st0" d="M362,229.9c4.1,0.1,7.4,3.3,7.4,7.4c0,4.1-3.5,7.6-7.7,7.6c-4-0.1-7.4-3.4-7.4-7.4
	C354.4,233.2,357.6,229.8,362,229.9z"/>
<path class="st0" d="M394.5,183.1c0-4.1,3.1-7.4,7.2-7.4c4.2-0.1,7.4,3,7.6,7.1c0.2,4.5-3.7,7.8-7.5,7.7
	C397.9,190.5,394.6,187.1,394.5,183.1z"/>
<path class="st0" d="M428.5,162c4.2-0.1,7.5,3,7.5,7.2c0,4.1-3.3,7.5-7.3,7.5c-3.8,0-7.2-3.2-7.3-7.1
	C421.2,165.4,424.3,162.1,428.5,162z"/>
<path class="st0" d="M260.4,157.3c-0.1,3.9-3.3,7.1-7.2,7c-4.1,0-7.2-3.5-7-7.6c0.2-3.9,3.4-6.9,7.4-6.8
	C257.5,150.2,260.4,153.3,260.4,157.3z"/>
<path class="st0" d="M152.7,184.6c3.9,0.2,6.8,3.4,6.6,7.4c-0.2,3.9-3.4,6.8-7.5,6.5c-3.8-0.2-6.6-3.3-6.5-7.1
	C145.5,187.5,148.8,184.4,152.7,184.6z"/>
<path class="st0" d="M401.6,135.9c0.1,4-3,7.2-6.9,7.2c-3.9,0-7.1-3.1-7-7.1c0-3.8,2.9-6.8,6.7-6.9
	C398.4,129,401.5,131.9,401.6,135.9z"/>
<path class="st0" d="M226,163.9c3.8,0,7.3,3.3,7.1,7.1c-0.1,3.9-2.9,6.8-6.8,6.9c-3.8,0.1-7.1-2.4-7.3-6.8
	C218.8,167.3,222.2,163.9,226,163.9z"/>
<path class="st0" d="M124.7,130.9c3.9,0,6.9,2.8,7,6.6c0.1,4-2.9,7.2-6.9,7.3c-3.9,0-7.1-3.2-7-7.1
	C117.9,133.8,120.9,130.9,124.7,130.9z"/>
<path class="st0" d="M165.2,144.2c3.7-0.1,6.9,2.9,7.1,6.6c0.2,4-2.8,7.2-6.8,7.2c-3.8,0.1-6.9-2.7-7.1-6.5
	C158.2,147.6,161.3,144.3,165.2,144.2z"/>
<path class="st0" d="M125.3,185c0.1-3.8,3.1-6.7,7-6.6c3.8,0.1,6.8,3.2,6.6,7c-0.1,3.7-3.4,6.8-7,6.7
	C128.2,192,125.3,188.8,125.3,185z"/>
<path class="st0" d="M137.9,76.5c0.4-3.7,3.8-6.6,7.4-6.2c3.7,0.4,6.6,3.8,6.1,7.4c-0.5,3.7-3.8,6.4-7.6,5.9
	C140.3,83.3,137.5,79.9,137.9,76.5z"/>
<path class="st0" d="M415,135.8c3.8,0.1,6.7,3.2,6.5,7.1c-0.1,3.7-3.1,6.4-6.8,6.4c-3.8-0.1-6.7-3.2-6.5-7.1
	C408.4,138.5,411.4,135.7,415,135.8z"/>
<path class="st0" d="M239.6,150.8c0,3.7-2.8,6.6-6.5,6.7c-3.8,0.1-6.8-3-6.8-6.8c0-3.9,3.1-6.8,6.9-6.7
	C236.9,144.1,239.7,147,239.6,150.8z"/>
<path class="st0" d="M111.4,171.6c3.7,0,6.6,2.8,6.7,6.4c0.1,3.9-2.8,7-6.6,7c-3.6,0-6.6-2.8-6.7-6.5
	C104.7,174.7,107.5,171.6,111.4,171.6z"/>
<path class="st0" d="M408.4,156.1c3.6,0,6.6,2.9,6.7,6.5c0.1,3.7-3.1,6.8-6.9,6.7c-4.3-0.1-6.5-3.6-6.5-6.7
	C401.7,159.1,404.9,156.1,408.4,156.1z"/>
<path class="st0" d="M409.1,250.7c0,3.5-3,6.5-6.6,6.5c-3.7,0-6.6-2.7-6.7-6.4c-0.1-3.6,3.1-6.9,6.8-6.8
	C406,244.1,409.1,247.2,409.1,250.7z"/>
<path class="st0" d="M117.8,70.5c0-3.6,3-6.5,6.6-6.5c3.6,0,6.5,3,6.4,6.7c0,3.7-2.9,6.5-6.6,6.4C120.6,77,117.8,74.1,117.8,70.5z"
	/>
<path class="st0" d="M124.8,158.2c-0.1,3.6-3.2,6.5-6.7,6.3c-3.6-0.2-6.4-3.3-6.2-6.9c0.2-3.4,3-6.1,6.5-6
	C122.1,151.7,124.9,154.6,124.8,158.2z"/>
<path class="st0" d="M253.2,177.5c-0.1,3.5-2.8,6.2-6.3,6.3c-3.6,0-6.6-2.9-6.5-6.5c0.1-3.4,3-6.3,6.4-6.4
	C250.2,170.9,253.3,173.9,253.2,177.5z"/>
<path class="st0" d="M179,197.9c0.1,3.4-2.6,6.3-6,6.5c-3.6,0.2-6.7-2.6-6.8-6.2c-0.1-3.5,3-6.6,6.5-6.6
	C176,191.7,179,194.6,179,197.9z"/>
<path class="st0" d="M144.6,97.3c0,3.6-3,6.4-6.6,6.3c-3.4-0.1-6.2-3-6.2-6.4c0-3.5,3.2-6.6,6.7-6.4C141.8,91,144.6,93.9,144.6,97.3
	z"/>
<path class="st0" d="M117.7,84.5c3.5-0.1,6.3,2.6,6.4,6.1c0.1,3.5-2.5,6.4-6,6.5c-3.4,0.1-6.3-2.6-6.4-6.1
	C111.6,87.4,114.2,84.6,117.7,84.5z"/>
<path class="st0" d="M97.4,171.6c0.1,3.5-2.6,6.4-6,6.5c-3.4,0.1-6.3-2.7-6.4-6.1c-0.1-3.5,2.6-6.4,6-6.4
	C94.5,165.5,97.3,168.1,97.4,171.6z"/>
<path class="st0" d="M429.2,230.7c3.5,0.1,6.2,2.8,6.1,6.4c-0.1,3.5-3,6.2-6.5,6c-3.3-0.2-5.9-2.9-5.9-6.2
	C422.9,233.4,425.7,230.6,429.2,230.7z"/>
<path class="st0" d="M138.7,158.7c3.5,0,6.2,2.9,6.1,6.4c-0.1,3.5-3,6.2-6.5,6.1c-3.4-0.2-5.9-2.8-5.9-6.2
	C132.4,161.4,135.2,158.6,138.7,158.7z"/>
<path class="st0" d="M212.6,137.6c3.5-0.1,6.3,2.7,6.3,6.2c0,3.4-2.5,6.1-5.8,6.3c-3.5,0.2-6.4-2.5-6.5-6
	C206.5,140.5,209.1,137.7,212.6,137.6z"/>
<path class="st0" d="M422.7,251c3.2,0,6,2.8,6.2,6c0.1,3.4-2.8,6.3-6.2,6.3c-3.3,0-6.1-2.7-6.2-5.9
	C416.4,253.9,419.3,250.9,422.7,251z"/>
<path class="st0" d="M381.8,170.4c3.6,0,6.1,2.7,6,6.3c-0.1,3.3-2.7,5.9-6,6c-3.4,0.1-6.3-2.7-6.3-6.2
	C375.5,173,378.2,170.4,381.8,170.4z"/>
<path class="st0" d="M98.1,145.5c3.4,0,6,2.6,6,6c0,3.3-2.6,6.1-5.9,6.2c-3.4,0.1-6.3-2.8-6.3-6.3C92.1,148.1,94.7,145.5,98.1,145.5
	z"/>
<path class="st0" d="M429.1,148.9c0-3.3,2.6-5.9,6-5.9c3.4,0,6,2.5,6.1,5.8c0.1,3.4-2.8,6.4-6.2,6.3
	C431.8,155,429.1,152.2,429.1,148.9z"/>
<path class="st0" d="M415.8,122.1c0.1-3.4,2.7-5.8,6.2-5.7c3.3,0.1,5.9,2.8,5.8,6.2c-0.1,3.3-3,6-6.2,5.9
	C418.3,128.2,415.8,125.4,415.8,122.1z"/>
<path class="st0" d="M144.9,138.7c3.4-0.1,6.1,2.4,6.2,5.7c0.1,3.2-2.5,6.1-5.8,6.3c-3.2,0.2-6-2.5-6.2-5.8
	C139,141.5,141.5,138.8,144.9,138.7z"/>
<path class="st0" d="M382.3,156.2c0.1-3.3,2.9-6,6.1-5.9c3.3,0.2,5.8,3,5.6,6.4c-0.2,3.2-2.7,5.6-5.9,5.6
	C384.7,162.2,382.2,159.6,382.3,156.2z"/>
<path class="st0" d="M354.9,251.7c3.3,0,6,2.6,6,5.9c0,3.3-2.9,6-6.1,5.9c-3.1-0.1-5.7-2.7-5.8-5.8
	C348.9,254.6,351.6,251.7,354.9,251.7z"/>
<path class="st0" d="M260.1,131c3.3,0.2,5.7,3,5.4,6.4c-0.2,3.1-3,5.6-6,5.5c-3.3-0.1-5.8-2.9-5.7-6.3
	C254,133.3,256.7,130.8,260.1,131z"/>
<path class="st0" d="M145.3,56.9c-0.1-3.4,2.5-6,5.8-6c3.2,0,5.7,2.5,5.7,5.7c0.1,3.3-2.6,6.1-5.8,6.1
	C148,62.6,145.4,60.1,145.3,56.9z"/>
<path class="st0" d="M354.5,184.6c3.1,0,5.7,2.6,5.7,5.7c0,3.2-2.4,5.7-5.6,5.7c-3.2,0-5.7-2.4-5.7-5.6
	C348.9,187.2,351.4,184.6,354.5,184.6z"/>
<path class="st0" d="M396,115.4c0.2-3.2,2.9-5.4,6.2-5.1c3,0.3,5.2,3,4.9,6c-0.3,3-3,5.4-5.8,5.2C398.2,121.3,395.7,118.5,396,115.4
	z"/>
<path class="st0" d="M98.9,131.3c0-3.2,2.6-5.6,5.8-5.5c3,0.1,5.4,2.5,5.4,5.5c0,3.1-2.8,5.8-5.8,5.6
	C101.4,136.8,98.9,134.2,98.9,131.3z"/>
<path class="st0" d="M347.2,230.7c0.1,3-2.2,5.5-5.2,5.6c-3.2,0.2-5.9-2.2-5.9-5.4c-0.1-3,2.6-5.8,5.7-5.8
	C344.6,225.3,347.1,227.8,347.2,230.7z"/>
<path class="st0" d="M273.5,169.1c-3,0-5.5-2.5-5.5-5.5c0-2.9,2.7-5.5,5.6-5.5c2.9,0,5.5,2.6,5.5,5.6
	C279,166.7,276.5,169.1,273.5,169.1z"/>
<path class="st0" d="M131.9,112.1c2.8,0.3,5,2.9,4.8,5.7c-0.2,3-2.9,5.3-5.9,5.1c-3-0.3-5.4-3.1-5-5.9
	C126.2,114,128.9,111.8,131.9,112.1z"/>
<path class="st0" d="M348.2,205.2c3,0,5.4,2.4,5.3,5.5c0,3-2.5,5.5-5.5,5.4c-3-0.1-5.3-2.5-5.3-5.6
	C342.7,207.5,345.1,205.1,348.2,205.2z"/>
<path class="st0" d="M375.4,258.7c2.8,0.1,5.1,2.5,5.2,5.2c0.1,2.9-2.5,5.4-5.5,5.3c-2.9-0.1-5.2-2.4-5.2-5.2
	C369.9,261.2,372.5,258.6,375.4,258.7z"/>
<path class="st0" d="M158.4,108.8c-2.9,0-5.2-2.4-5.1-5.2c0.1-2.6,2.4-4.9,5-5c2.7-0.1,5.2,2.3,5.3,5.1
	C163.6,106.5,161.2,108.8,158.4,108.8z"/>
<path class="st0" d="M192.3,142.4c-2.9-0.1-5-2.4-4.9-5.4c0.1-2.7,2.3-4.9,5-4.9c2.7,0,5.2,2.5,5.2,5.2
	C197.6,140.3,195.3,142.5,192.3,142.4z"/>
<path class="st0" d="M171.2,68.2c-2.7-0.1-4.9-2.3-4.9-5c0-2.7,2.6-5.2,5.3-5.1c2.6,0.1,4.9,2.4,4.9,5C176.4,66,174,68.3,171.2,68.2
	z"/>
<path class="st0" d="M210.4,97c-0.1,2.7-2.3,4.8-5,4.8c-2.9,0-5.1-2.3-5-5.3c0.1-2.7,2.3-4.9,5-4.9C208.2,91.7,210.5,94.2,210.4,97z
	"/>
<path class="st0" d="M151.6,129.4c-2.7,0-5-2.1-5.1-4.8c-0.1-2.7,2.4-5.3,5.2-5.2c2.6,0.1,4.9,2.5,4.9,5
	C156.5,127.1,154.3,129.4,151.6,129.4z"/>
<path class="st0" d="M435.6,211.9c2.8,0,4.9,2.1,4.8,4.9c0,2.5-2,4.6-4.6,4.8c-2.7,0.1-5-2-5.1-4.7
	C430.7,214,432.8,211.9,435.6,211.9z"/>
<path class="st0" d="M287.2,185.9c2.8,0,4.9,2,4.9,4.8c0,2.7-2.1,5-4.7,5c-2.7,0-4.9-2.1-5-4.8C282.4,188.1,284.4,186,287.2,185.9z"
	/>
<path class="st0" d="M160,83.3c0.1-2.7,2.3-4.8,5-4.8c2.7,0.1,4.8,2.3,4.7,5c-0.1,2.8-2.2,4.8-5,4.7C162,88.3,160,86.1,160,83.3z"/>
<path class="st0" d="M145.3,216.7c-2.7-0.1-4.9-2.4-4.7-5.1c0.2-2.5,2.3-4.6,4.8-4.6c2.6,0,5,2.3,5,4.9
	C150.4,214.6,148.1,216.7,145.3,216.7z"/>
<path class="st0" d="M307.7,202c-2.6,0.1-4.7-1.8-4.9-4.4c-0.2-2.7,2-5.1,4.7-5.2c2.6-0.1,5,2.3,5,4.9
	C312.3,199.9,310.3,201.9,307.7,202z"/>
<path class="st0" d="M412.8,95.6c0,2.6-2,4.6-4.6,4.7c-2.8,0.1-5-2.1-4.9-4.8c0.1-2.5,2.1-4.6,4.6-4.7
	C410.5,90.6,412.8,92.9,412.8,95.6z"/>
<path class="st0" d="M328,199c2.6,0.1,4.6,2.1,4.6,4.7c0,2.7-2.3,5-4.9,4.9c-2.5-0.1-4.6-2.3-4.6-4.8C323,201,325.2,198.9,328,199z"
	/>
<path class="st0" d="M334.6,246.4c2.6-0.1,4.7,1.8,4.8,4.4c0.2,2.7-2,5-4.6,5.1c-2.6,0.1-4.9-2.2-4.9-4.9
	C330,248.5,332,246.5,334.6,246.4z"/>
<path class="st0" d="M126.3,49.7c0.3-2.6,2.4-4.3,5.1-4c2.6,0.3,4.3,2.5,4,5.2c-0.3,2.5-2.7,4.5-5.2,4.1
	C127.7,54.6,126,52.3,126.3,49.7z"/>
<path class="st0" d="M199.4,180.2c2.5,0,4.6,2.1,4.6,4.6c0,2.5-2.3,4.7-4.7,4.6c-2.4,0-4.6-2.3-4.6-4.7
	C194.7,182.3,196.9,180.2,199.4,180.2z"/>
<path class="st0" d="M420.6,277.3c0.1,2.6-1.9,4.7-4.5,4.6c-2.4,0-4.3-1.9-4.3-4.3c-0.1-2.6,1.9-4.6,4.5-4.6
	C418.7,273,420.5,274.8,420.6,277.3z"/>
<path class="st0" d="M271.5,184.1c-0.1,2.4-1.9,4.2-4.4,4.2c-2.6,0-4.5-2-4.4-4.6c0.1-2.4,2-4.3,4.4-4.3
	C269.6,179.4,271.6,181.4,271.5,184.1z"/>
<path class="st0" d="M176.6,130.8c0.1,2.6-1.9,4.7-4.5,4.6c-2.4,0-4.3-1.9-4.3-4.3c-0.1-2.6,1.9-4.6,4.5-4.6
	C174.8,126.5,176.6,128.3,176.6,130.8z"/>
<path class="st0" d="M453.3,176c0.1,2.5-1.7,4.4-4.2,4.5c-2.5,0.1-4.4-1.6-4.6-4c-0.2-2.6,1.9-4.8,4.4-4.7
	C451.3,171.7,453.2,173.6,453.3,176z"/>
<path class="st0" d="M199.1,112.9c2.5,0.1,4.3,2.1,4.1,4.5c-0.2,2.2-2.1,4-4.3,4c-2.3,0-4.4-2.1-4.3-4.4
	C194.7,114.6,196.7,112.8,199.1,112.9z"/>
<path class="st0" d="M442.5,192.1c2.4,0,4.4,2,4.4,4.3c0,2.3-2.1,4.4-4.4,4.4c-2.3,0-4.4-2.1-4.4-4.4
	C438.1,194,440.1,192.1,442.5,192.1z"/>
<path class="st0" d="M395.5,266.7c2.3,0,4.3,2.2,4.2,4.5c-0.1,2.2-2,3.9-4.3,3.9c-2.4,0-4.4-2.1-4.2-4.4
	C391.4,268.5,393.4,266.6,395.5,266.7z"/>
<path class="st0" d="M361.6,165.8c2.4,0.1,4.2,2.2,4,4.7c-0.2,2.3-2,3.9-4.3,3.8c-2.5-0.1-4.2-2.1-4-4.6
	C357.5,167.5,359.5,165.7,361.6,165.8z"/>
<path class="st0" d="M208.2,76.4c0.1-2.3,1.8-4,4.1-4c2.4,0,4.3,1.9,4.2,4.4c-0.1,2.2-1.9,4.1-4.1,4.1
	C210,80.9,208.1,78.8,208.2,76.4z"/>
<path class="st0" d="M165.8,214.1c1.5,0.2,2.7,0.7,3.5,2.1c0.5,0.9,0.7,1.8,0.5,2.9c-0.3,2.1-2,3.6-4.1,3.6c-2.1,0-3.8-1.5-4.1-3.6
	C161.3,216.4,162.3,215.3,165.8,214.1z"/>
<path class="st0" d="M111.1,107c2.2,0,4.1,2,4.1,4.2c0,2.2-2,4-4.2,4c-2.2,0-4.1-2-4.1-4.2C106.9,108.8,108.9,106.9,111.1,107z"/>
<path class="st0" d="M338.4,183.4c0,2.2-1.9,4.1-4.1,4.1c-2.2,0-4.1-1.9-4.2-4.1c0-2.1,1.9-4.1,4.1-4.1
	C336.5,179.4,338.4,181.3,338.4,183.4z"/>
<path class="st0" d="M185.1,86.3c2.2,0,4.1,1.9,4.1,4.1c0,2.2-1.9,4.1-4.1,4.1c-2.2,0-4.1-1.9-4.2-4.1C181,88.2,183,86.3,185.1,86.3
	z"/>
<path class="st0" d="M428,97.9c2.2-0.1,4.2,1.7,4.3,3.9c0.1,2.2-1.7,4.2-3.9,4.3c-2.2,0.1-4.2-1.7-4.4-3.9
	C424,100.1,425.9,98,428,97.9z"/>
<path class="st0" d="M182.7,110.7c0,2.3-1.8,4.1-4.1,4c-2.2,0-4-1.8-4-4.1c0-2.3,1.8-4.1,4.1-4.1C181,106.6,182.7,108.4,182.7,110.7
	z"/>
<path class="st0" d="M162,36.8c-0.1,2.3-2,3.9-4.3,3.8c-2.3-0.2-3.9-2-3.7-4.4c0.1-2.3,2.1-3.9,4.3-3.8
	C160.5,32.6,162.1,34.5,162,36.8z"/>
<path class="st0" d="M243.5,130.7c-0.1,2.1-2.3,4-4.4,3.8c-2-0.2-3.6-2.2-3.5-4.2c0.1-2.3,2-3.9,4.4-3.7
	C242,126.8,243.6,128.6,243.5,130.7z"/>
<path class="st0" d="M438.1,128.8c0-2.1,1.6-3.8,3.7-3.9c2.3-0.1,4.2,1.6,4.3,3.8c0,1.9-1.7,3.9-3.7,4
	C440.2,132.9,438.1,131,438.1,128.8z"/>
<path class="st0" d="M325.4,224c-1.4,3.3-2.7,4.2-5,3.7c-1.7-0.3-3-1.9-3-3.7c-0.1-1.9,1.3-3.6,3.2-4c0.9-0.2,1.7-0.1,2.5,0.4
	C324.1,221,324.3,221.3,325.4,224z"/>
<path class="st0" d="M121.3,205.3c0.1-2.3,2-3.9,4.3-3.7c2.1,0.2,3.6,1.9,3.5,4.1c-0.1,2.1-1.9,3.8-3.9,3.8
	C123,209.4,121.2,207.5,121.3,205.3z"/>
<path class="st0" d="M195.5,70.1c0,2.3-1.8,4.1-4,4.1c-2-0.1-3.7-1.8-3.8-3.9c-0.1-2.3,1.7-4,4-4C193.9,66.3,195.5,67.9,195.5,70.1z
	"/>
<path class="st0" d="M276.5,211.2c-0.1-2,1.6-3.9,3.6-4.1c2.1-0.2,4.2,1.7,4.1,3.9c0,2.1-1.6,3.8-3.8,3.8
	C278.3,214.9,276.6,213.3,276.5,211.2z"/>
<path class="st0" d="M451.6,156c-0.1-1.9,1.8-3.9,3.8-3.9c1.8,0,3.6,1.6,3.8,3.5c0.2,2-1.4,3.9-3.5,4
	C453.5,159.7,451.7,158,451.6,156z"/>
<path class="st0" d="M279.9,139.6c2.1,0,3.8,1.6,3.8,3.7c0,2.1-1.7,3.8-3.7,3.9c-2,0-3.7-1.7-3.8-3.8
	C276.2,141.3,277.8,139.7,279.9,139.6z"/>
<path class="st0" d="M310.3,177.1c0.1-1.3,0.6-2.4,1.8-3.2c0.7-0.5,1.6-0.6,2.4-0.5c1.7,0.2,3.1,1.8,3.2,3.5
	c0.1,1.7-1.2,3.3-2.9,3.7C312.6,181,311.6,180.2,310.3,177.1z"/>
<path class="st0" d="M263.8,204.6c0,2-1.5,3.6-3.5,3.7c-2.1,0.1-3.8-1.6-3.8-3.8c0-2,1.5-3.6,3.5-3.6
	C262.1,200.8,263.8,202.5,263.8,204.6z"/>
<path class="st0" d="M364.3,149.9c0-2.2,1.7-3.9,3.8-3.8c2,0.1,3.5,1.7,3.5,3.7c0,2.2-1.7,3.8-3.8,3.8
	C365.7,153.5,364.3,151.9,364.3,149.9z"/>
<path class="st0" d="M84.2,121.1c1.9-0.1,3.6,1.4,3.7,3.4c0.2,2.2-1.4,4-3.5,4c-2,0.1-3.6-1.4-3.7-3.4C80.5,123,82,121.2,84.2,121.1
	z"/>
<path class="st0" d="M317,156.7c0-2,1.5-3.5,3.6-3.4c2,0,3.5,1.5,3.4,3.6c0,2-1.6,3.5-3.6,3.5C318.5,160.3,316.9,158.7,317,156.7z"
	/>
<path class="st0" d="M297.2,217.5c0-1.9,1.7-3.6,3.6-3.5c1.9,0.1,3.5,1.8,3.4,3.7c-0.1,1.8-1.5,3.2-3.3,3.2
	C298.7,220.9,297.2,219.5,297.2,217.5z"/>
<path class="st0" d="M293.9,167.1c2,0.1,3.5,1.6,3.3,3.7c-0.1,1.8-1.6,3.2-3.4,3.3c-1.9,0.1-3.6-1.6-3.6-3.5
	C290.3,168.5,291.9,167.1,293.9,167.1z"/>
<path class="st0" d="M107.5,63.8c-0.1,1.7-1.6,3.2-3.3,3.3c-1.8,0-3.6-1.8-3.5-3.6c0.1-1.9,1.9-3.4,3.8-3.2
	C106.3,60.5,107.6,62.1,107.5,63.8z"/>
<path class="st0" d="M90.9,101.1c1.8,0.1,3.4,1.9,3.3,3.8c-0.1,1.8-1.6,3.1-3.5,3.1c-2,0-3.4-1.6-3.2-3.7
	C87.6,102.5,89.2,101.1,90.9,101.1z"/>
<path class="st0" d="M178.1,46.3c-1.7-0.1-3.2-1.7-3.2-3.4c0-1.9,1.8-3.4,3.7-3.2c1.8,0.2,3.1,1.8,3,3.5
	C181.4,44.9,179.8,46.4,178.1,46.3z"/>
<path class="st0" d="M239.7,194.2c1.6-0.1,3.3,1.4,3.5,3.1c0.2,2-1.2,3.6-3.2,3.7c-1.9,0.1-3.3-1.1-3.5-3
	C236.4,196.1,237.9,194.3,239.7,194.2z"/>
<path class="st0" d="M216,123.7c-0.1-1.8,1.3-3.3,3-3.5c1.8-0.2,3.5,1.5,3.5,3.4c0,1.8-1.4,3.2-3.2,3.2
	C217.4,126.9,216,125.5,216,123.7z"/>
<path class="st0" d="M325,271.4c0-1.7,1.5-3.2,3.2-3.3c1.7,0,3.3,1.5,3.3,3.2c0,1.7-1.5,3.3-3.2,3.3
	C326.6,274.6,325,273.1,325,271.4z"/>
<path class="st0" d="M374.5,125.9c1.8,0.1,3.1,1.5,3,3.5c-0.1,1.7-1.4,3-3.1,3c-1.8,0-3.3-1.4-3.2-3.3
	C371.2,127.3,372.7,125.9,374.5,125.9z"/>
<path class="st0" d="M228.9,103.2c-0.3,1.5-0.8,2.5-2.1,2.9c-0.7,0.2-1.4,0.2-2.1,0.1c-1.3-0.2-2.2-1.5-2.3-2.8
	c-0.1-1.4,1-2.8,2.4-3.2C226.6,99.8,227.5,100.5,228.9,103.2z"/>
<path class="st0" d="M94.5,84.2c0.1-1.8,1.6-3.2,3.4-3c1.6,0.2,2.8,1.5,2.8,3.2c0,1.9-1.5,3.1-3.4,3C95.7,87.2,94.5,85.9,94.5,84.2z
	"/>
<path class="st0" d="M84.9,188.9c1.8,0.1,3.1,1.7,2.9,3.5c-0.2,1.7-1.5,2.8-3.3,2.7c-1.9-0.1-3.1-1.6-2.9-3.5
	C81.9,190,83.3,188.8,84.9,188.9z"/>
<path class="st0" d="M340.7,160.2c1.7,0,3,1.2,3,2.9c0,1.6-1.2,3-2.8,3.2c-1.7,0.2-3.3-1.4-3.3-3.1
	C337.7,161.5,339.1,160.2,340.7,160.2z"/>
<path class="st0" d="M71,162.3c1.9,0.5,3.1,1.5,2.9,3.5c-0.2,1.5-1.5,2.5-3,2.4c-1.5,0-2.8-1.2-2.9-2.6
	C67.9,163.6,69.1,162.7,71,162.3z"/>
<path class="st0" d="M311.6,244.8c-0.1-1.7,1.2-3.1,2.8-3.2c1.5,0,3,1.4,3,3c0,1.5-1.1,2.8-2.6,2.9
	C313,247.7,311.7,246.6,311.6,244.8z"/>
<path class="st0" d="M269.1,116.6c0,1.6-1.4,3.1-2.9,3.1c-1.6,0-2.9-1.4-2.9-3.1c0-1.6,1.1-2.7,2.7-2.8
	C267.7,113.7,269.1,114.9,269.1,116.6z"/>
<path class="st0" d="M305.2,264.8c0.2-1.2,0.8-2.1,2-2.5c0.5-0.2,1.1-0.1,1.6,0c1.2,0.4,2.1,1.7,1.9,2.9c-0.2,1.1-1.1,2.1-2.2,2.3
	c-0.7,0.2-1.4,0-2-0.3C305.7,266.7,305.3,265.8,305.2,264.8z"/>
<path class="st0" d="M344.8,143c0.4-1.9,1.4-2.9,3.3-2.8c1.2,0.1,2.4,1.4,2.4,2.6c0,1.2-1,2.6-2.2,2.8
	C346.4,146,345.4,145,344.8,143z"/>
<path class="st0" d="M345.6,277.8c0.6-2,1.6-3,3.5-2.7c1.2,0.2,2.2,1.6,2.2,2.8c0,1.2-1.1,2.5-2.4,2.6c-0.5,0.1-1.1-0.1-1.6-0.2
	C346.8,280.1,346.8,280.1,345.6,277.8z"/>
<path class="st0" d="M137.9,27.4c1.5,0.1,2.6,1.3,2.5,2.9c-0.1,1.5-1.3,2.6-2.9,2.5c-1.5-0.1-2.6-1.4-2.5-2.9
	C135.1,28.4,136.4,27.3,137.9,27.4z"/>
<path class="st0" d="M80.5,144.8c-0.1,1.2-0.5,2-1.2,2.5c-0.6,0.4-1.3,0.5-2,0.4c-1.1-0.2-2.1-1.2-2.1-2.3c-0.1-1.1,0.7-2.2,1.8-2.7
	C78.2,142.1,79,142.5,80.5,144.8z"/>
<path class="st0" d="M233.3,220.6c-1.7-0.6-2.7-1.6-2.3-3.3c0.3-1.2,1.4-1.9,2.6-1.8c1.2,0.1,2.2,0.9,2.4,2.1
	C236.1,219.3,235.1,220.2,233.3,220.6z"/>
<path class="st0" d="M442.7,266.1c-1.7-0.7-2.7-1.6-2.1-3.3c0.3-1,1.1-1.6,2.2-1.6c1.2,0,2.3,0.8,2.4,1.9
	C445.5,264.9,444.5,265.7,442.7,266.1z"/>
<path class="st0" d="M300.3,147.7c1.3,0.1,2.4,1.2,2.4,2.5c0,1.5-1.2,2.7-2.8,2.5c-1.4-0.1-2.3-1.3-2.2-2.7
	C297.9,148.7,299.1,147.6,300.3,147.7z"/>
<path class="st0" d="M368.9,282.2c1.7,0.6,2.7,1.5,2.2,3.3c-0.3,1-1.1,1.6-2.2,1.7c-1.2,0-2.3-0.7-2.5-1.9
	C366.1,283.5,367.1,282.6,368.9,282.2z"/>
<path class="st0" d="M219.8,193.8c-1.8-0.5-2.8-1.3-2.5-3.1c0.2-1.2,1.3-1.9,2.5-1.9c1.1,0,1.8,0.7,2.2,1.7
	C222.4,191.6,221.9,192.3,219.8,193.8z"/>
<path class="st0" d="M327.5,134c1.7,0.6,2.7,1.5,2.2,3.3c-0.3,1-1.1,1.6-2.2,1.7c-1.2,0-2.3-0.7-2.5-1.9
	C324.7,135.3,325.7,134.4,327.5,134z"/>
<path class="st0" d="M64,120.6c-0.9-0.1-1.6-0.5-2.1-1.3c-0.3-0.7-0.4-1.3-0.2-2.1c0.3-1,1.2-1.6,2.2-1.7c1.2-0.1,2.3,0.6,2.5,1.9
	c0.1,0.5,0,1.1-0.1,1.6C65.9,120,65,120.4,64,120.6z"/>
<path class="st0" d="M356.5,122.8c-0.6,1.6-1.4,2.3-2.7,2.2c-1.3-0.2-1.8-1.1-2.1-2.2c0.2-1.3,0.9-2.2,2.2-2.3
	C355.5,120.4,356.2,121.4,356.5,122.8z"/>
<path class="st0" d="M275.5,96.5c-2,2.9-3,2.8-4.7,0c0.2-1.4,0.9-2.4,2.4-2.4C274.5,94.1,275.1,95.1,275.5,96.5z"/>
<path class="st0" d="M102.6,199.1c0.4-1.6,1.2-2.6,2.7-2.4c1.1,0.1,2.1,1.3,2,2.4c-0.1,0.9-0.6,1.6-1.4,1.9
	C104.7,201.5,104,201.2,102.6,199.1z"/>
<path class="st0" d="M110.7,41c1.3,0.1,2.3,1.4,2.2,2.7c-0.1,1.2-1.1,2.1-2.3,2.1c-1.4,0-2.4-1-2.4-2.5
	C108.3,42,109.4,40.9,110.7,41z"/>
<path class="st0" d="M284.6,123.2c0-0.9,0.4-1.7,1.2-2.1c0.5-0.2,1.1-0.3,1.6-0.3c1.1,0.2,1.7,1,1.8,2.1c0.2,0.9-0.6,1.9-1.5,2.3
	C286.3,125.7,285.8,125.3,284.6,123.2z"/>
<path class="st0" d="M295.5,102.7c0.1,1.2-0.8,2.2-2,2.3c-1.1,0.1-2.2-0.8-2.3-2c-0.1-1.2,0.8-2.2,2-2.3
	C294.4,100.7,295.4,101.5,295.5,102.7z"/>
<path class="st0" d="M294.2,235.5c1.5,0.3,2.3,1.1,2.1,2.7c-0.1,1-1.1,1.7-2.1,1.7c-1,0-2-0.8-2.1-1.7
	C291.9,236.5,292.8,235.8,294.2,235.5z"/>
<path class="st0" d="M117.3,20.9c1.1-0.1,2.2,0.9,2.3,2c0.1,1.2-0.8,2.2-2,2.3c-1.2,0.1-2.2-0.8-2.3-2
	C115.3,22.1,116.2,21,117.3,20.9z"/>
<path class="st0" d="M253.5,222.6c1.1-0.1,2.2,0.9,2.3,2c0.1,1.2-0.8,2.2-2,2.3c-1.2,0.1-2.2-0.8-2.3-2
	C251.5,223.8,252.4,222.7,253.5,222.6z"/>
<path class="st0" d="M388.9,289c1.1-0.1,2.2,0.8,2.3,2c0.1,1.2-0.8,2.2-2,2.3c-1.2,0.1-2.2-0.8-2.3-1.9
	C386.8,290.1,387.7,289.1,388.9,289z"/>
<path class="st0" d="M96.9,18.8c-1.3-0.3-2-0.9-2.2-2.1c0.2-1.3,0.8-2.1,2.2-2c1,0,1.6,0.6,1.8,1.5C99.1,17.5,98.3,18.3,96.9,18.8z"
	/>
<path class="st0" d="M415.9,73.7c0.6,2.4,0.5,2.9-0.5,3.5c-0.7,0.4-1.3,0.3-2-0.2c-0.8-0.7-1.1-1.7-0.6-2.6
	C413.2,73.5,413.5,73.4,415.9,73.7z"/>
<path class="st0" d="M81.8,57.2c1.8-2.5,2.2-2.5,4-0.3C84.6,59.7,83.8,59.8,81.8,57.2z"/>
<path class="st0" d="M307.2,128.1c1.1,0.2,1.8,0.8,1.8,2c-1.7,2.5-2.4,2.5-3.9-0.2C305.4,128.8,306.1,128.2,307.2,128.1z"/>
<path class="st0" d="M88.8,35.7c1-0.8,1.9-0.8,2.8-0.1c0.7,1,0.7,2-0.3,2.9c-0.6,0.5-1.3,0.5-2,0C88.4,37.9,88.3,37,88.8,35.7z"/>
<path class="st0" d="M331.9,116.2c0.2-1.1,0.9-1.7,2-1.8c1.1,0.2,1.8,0.8,1.8,2C334.1,118.8,333.4,118.8,331.9,116.2z"/>
<path class="st0" d="M243.9,110.2c0.5-1.4,1.2-2.1,2.6-1.7c0.7,0.2,1.2,0.8,1.3,1.5c0.1,1-0.4,1.7-1.3,2
	C245.2,112.4,244.4,111.7,243.9,110.2z"/>
<path class="st0" d="M230.9,84.2c0-2.3,0.7-3.2,1.9-3c1.1,0.2,1.4,0.9,1.2,3C233.1,85.2,232.2,85.1,230.9,84.2z"/>
<path class="st0" d="M437,282.2c0.6,0.4,1.1,0.8,1.2,1.6c-0.1,0.9-0.5,1.6-1.5,1.7c-0.9,0.1-1.6-0.3-1.9-1.2
	C434.5,283.2,435.1,282.6,437,282.2z"/>
<path class="st0" d="M200.3,49.9c-0.2,1.1-0.8,1.8-2,1.7c-0.9-0.1-1.4-0.8-1.5-1.7c0-0.8,0.4-1.4,1.1-1.6
	C199.3,48,200,48.6,200.3,49.9z"/>
<path class="st0" d="M58.9,139.2c-1.8,0.7-2.5,0.6-2.9-0.2c-0.5-0.9-0.1-1.5,1.5-2.5C59.1,137.4,59.1,137.4,58.9,139.2z"/>
<path class="st0" d="M409.2,296c1.2,0.4,1.8,1,1.7,2c-1.5,1.5-1.5,1.5-3.2-0.1c0.1-0.4,0.1-0.8,0.4-1.1
	C408.3,296.4,408.7,296.3,409.2,296z"/>
<path class="st0" d="M44.1,109.9c0.9,0.4,1.5,0.9,1.2,2c-1.6,1.4-1.6,1.4-3.1-0.2C42.2,110.5,42.9,109.9,44.1,109.9z"/>
<path class="st0" d="M303,284.4c0.3,1.4-0.3,1.9-1.2,2.3c-1,0.1-1.6-0.5-1.9-1.3C300.9,283.4,300.9,283.4,303,284.4z"/>
<path class="st0" d="M68.8,97.8c0.3-1.1,0.8-1.5,1.6-1.7c0.8,0,1.4,0.5,1.6,1.2c0.2,0.8-0.1,1.4-0.8,1.7
	C70.4,99.4,70.2,99.3,68.8,97.8z"/>
<path class="st0" d="M252.8,88.3c1.4,0.4,1.8,1.2,1.2,2.5c-0.7,0.7-1.5,0.8-2.3,0.1C251,89.7,251.4,88.8,252.8,88.3z"/>
<path class="st0" d="M273.9,232.7c-0.9-0.3-1.1-0.8-1.3-1.4c0.4-1.5,1-1.6,2.7-0.5C275.4,231.7,275.4,231.7,273.9,232.7z"/>
<path class="st0" d="M260.6,70.2c-0.9,1-1.8,1.1-2.6,0.1c-0.3-1,0.1-1.6,1-1.9C260.1,68.4,260.6,68.8,260.6,70.2z"/>
<path class="st0" d="M278.7,77.6c-0.9-1.5-0.7-2.4,0.6-3c1,0.1,1.7,0.7,1.6,1.6C280.9,77.1,280.7,77.3,278.7,77.6z"/>
<path class="st0" d="M78.6,78.1c-1.1,1-1.8,0.6-2.4,0.1c-0.4-1.1,0-1.7,0.9-2.1C78.4,76.1,78.9,76.8,78.6,78.1z"/>
<path class="st0" d="M63.1,185.2c1-1.1,1.8-1,2.6-0.1c0.3,1-0.1,1.6-1.1,1.9C63.6,187,63.1,186.4,63.1,185.2z"/>
<path class="st0" d="M55.2,70.8c1-1.4,1.9-1.4,2.7-0.3c0.2,1.1-0.4,1.5-1,1.8C55.8,72.4,55.5,71.7,55.2,70.8z"/>
<path class="st0" d="M49,91.8c-0.1-1.4,0.4-1.9,1.3-1.9c1.1,0.3,1.3,1,1.1,1.9C50.7,92.8,49.9,92.7,49,91.8z"/>
<path class="st0" d="M37.7,130.4c0.8,0.7,1,1.3,0.6,2.1c-0.6,0.7-1.3,0.6-2.1,0.2C35.8,131.3,36.1,130.5,37.7,130.4z"/>
<path class="st0" d="M448.9,107.1c0.8,0.7,1,1.3,0.7,2c-0.7,0.7-1.4,0.8-2.2,0.1C447,108,447.3,107.3,448.9,107.1z"/>
<path class="st0" d="M313.4,111c-0.9-0.6-1-1.2-0.7-1.9c0.5-0.5,1.2-0.6,1.6,0.1C315,110.1,314.5,110.6,313.4,111z"/>
<path class="st0" d="M286.8,257.3c1.1-0.6,1.6-0.4,2,0.4c0.2,0.8-0.2,1.3-0.9,1.5C286.7,259.1,286.7,258.3,286.8,257.3z"/>
<path class="st0" d="M165.4,17c-2.1,0.1-2.1,0.1-1.5-1.9C165.2,14.9,165.6,15.5,165.4,17z"/>
<path class="st0" d="M194,205.1c-0.5,1.1-1.1,1.2-1.8,0.8c-0.7-0.8-0.3-1.4,0.1-1.9C193.5,203.7,193.8,204.3,194,205.1z"/>
<path class="st0" d="M379.9,108.2c0.9-0.6,1.6-0.4,1.9,0.3c0.3,0.9-0.1,1.6-1.2,1.5C379.8,109.7,379.8,109.1,379.9,108.2z"/>
<path class="st0" d="M386.6,88.9c0.2-0.5,0.3-0.9,0.5-1.2c0.8-0.4,1.4-0.2,1.6,0.5c0.1,0.3,0,0.8-0.2,1.1
	C387.9,90,387.3,89.8,386.6,88.9z"/>
<path class="st0" d="M56.8,206.1c0.2-1,0.6-1.2,1.2-1.4c0.9,0.7,0.9,0.7,1,1.8C57.8,206.8,57.8,206.8,56.8,206.1z"/>
<path class="st0" d="M44.3,178c0.6,0.2,1,0.5,1.1,1.2c-0.3,1.5-1.2,1.2-2.1,0.8C43.3,178.6,43.3,178.6,44.3,178z"/>
<path class="st0" d="M31.6,152c-0.1,0.7-0.5,1-1.1,1.2c-1-0.2-1.4-0.7-1.1-1.7C30.4,150.6,31.2,150.7,31.6,152z"/>
<path class="st0" d="M23.1,172.9c-0.2-0.8-0.1-1.3,0.3-1.7c1-0.4,1.7,0.1,1.6,1C24.9,173.3,24.2,173.6,23.1,172.9z"/>
<path class="st0" d="M433.5,81.8c0.1-0.7,0.5-1,1.1-1.2c1,0.2,1.4,0.7,1.1,1.8C434.7,83.1,434,83.1,433.5,81.8z"/>
<path class="st0" d="M10.2,144.4c0.6,0.1,0.9,0.6,1,1.1c-0.2,1-0.7,1.4-1.7,0.9C8.9,145.7,9,145.3,10.2,144.4z"/>
<path class="st0" d="M449.6,244.5c-0.9,0-1.3-0.4-1.4-1.4c0.6-1.1,1.3-1.2,2.2-0.3C450.6,243.7,450.3,244.2,449.6,244.5z"/>
<path class="st0" d="M463.2,269.3c0.6,0.2,1,0.5,1.1,1.2c-0.4,1.3-1.1,1.4-2.1,0.6C461.8,270.1,462.3,269.6,463.2,269.3z"/>
<path class="st0" d="M64.4,50.5c-0.1,0.3-0.3,0.7-0.4,1.1c-0.9,0-1.4-0.4-1-1.2C63.4,49.7,63.9,50,64.4,50.5z"/>
<path class="st0" d="M123.1,3.1c0.1-0.3,0.3-0.7,0.4-1c0.9,0,1.4,0.4,1,1.2C124.1,3.9,123.6,3.5,123.1,3.1z"/>
<path class="st0" d="M281.6,277.6c0.4,0.2,0.6,0.5,0.4,1c-0.2,0.4-0.5,0.7-0.9,0.5c-0.6-0.2-0.8-0.7-0.5-1.2
	C280.8,277.5,281.2,277.3,281.6,277.6z"/>
<path class="st0" d="M37.3,64.4c-0.1,0.8-0.5,1.3-1.3,0.8c-0.2-0.1-0.4-0.8-0.2-1C36.3,63.4,36.8,63.7,37.3,64.4z"/>
<path class="st0" d="M143.4,10c0.1-0.6,0.3-1,0.9-1.1c0.6,0.2,0.8,0.6,0.7,1.2C144.4,10.8,143.9,10.6,143.4,10z"/>
<path class="st0" d="M119.6,225.4c-0.2,0.4-0.3,0.7-0.4,1.1c-0.9,0-1.4-0.4-1-1.2C118.6,224.6,119.1,225,119.6,225.4z"/>
<path class="st0" d="M217.9,56.6c0.1-0.3,0.3-0.7,0.4-1c0.9,0,1.4,0.4,1,1.2C219,57.4,218.4,57,217.9,56.6z"/>
<path class="st0" d="M226.1,238.4c0-0.6,0.2-1,0.6-1c0.6-0.1,1,0.3,1,0.9c0,0.3-0.5,0.7-0.8,0.7C226.7,239,226.4,238.6,226.1,238.4z
	"/>
<path class="st0" d="M246.4,245.3c0.1-0.3,0.3-0.7,0.4-1c0.9,0,1.4,0.4,1,1.2C247.4,246.1,246.9,245.7,246.4,245.3z"/>
<path class="st0" d="M470.4,250.5c-0.5,0.4-1,0.8-1.4,0.2c-0.5-0.8,0.1-1.2,1-1.2C470.2,249.8,470.3,250.1,470.4,250.5z"/>
<path class="st0" d="M300.6,82.4c-0.1,0.3-0.3,0.7-0.4,1.1c-0.9,0-1.4-0.4-1-1.2C299.6,81.6,300.1,81.9,300.6,82.4z"/>
<path class="st0" d="M37.4,198.4c1.1,0.4,1.3,0.8,0.9,1.4c-0.4,0.6-0.9,0.2-1.4-0.2C37.1,199.3,37.2,198.9,37.4,198.4z"/>
<path class="st0" d="M184.7,22.3c0.1,0.1,0.2,0.2,0.3,0.3c0.2,0.3,0.1,0.6-0.3,0.6c-0.4,0-0.5-0.3-0.3-0.6
	C184.5,22.4,184.6,22.4,184.7,22.3z"/>
<path class="st0" d="M185.6,225.4c0.2-0.1,0.5-0.3,0.7-0.2c0.4,0.1,0.4,0.4,0,0.5C186,225.7,185.8,225.5,185.6,225.4z"/>
<path class="st0" d="M285.5,55.7c0.2-0.1,0.5-0.3,0.7-0.2c0.4,0.1,0.3,0.4,0,0.5C286,56.1,285.7,55.8,285.5,55.7z"/>
<path class="st0" d="M320,88.6c0.1,0.3,0.3,0.5,0.3,0.7c0,0-0.2,0.2-0.3,0.2c-0.4-0.1-0.5-0.3-0.3-0.6
	C319.8,88.8,319.9,88.7,320,88.6z"/>
<path class="st0" d="M322.1,291.5c0.1,0.3,0,0.6-0.4,0.6c-0.1,0-0.3-0.2-0.3-0.2c0.1-0.2,0.3-0.4,0.4-0.6
	C321.9,291.3,322,291.4,322.1,291.5z"/>
<path class="st0" d="M393.9,68.3c0.1-0.1,0.2-0.2,0.3-0.3c0.1,0.2,0.2,0.5,0.3,0.7c0,0-0.2,0.2-0.3,0.2
	C393.8,68.8,393.7,68.6,393.9,68.3z"/>
<path class="st0" d="M51.1,225.7c0.1,0.1,0.2,0.2,0.3,0.3c0.2,0.3,0.1,0.6-0.3,0.6c-0.4,0-0.5-0.3-0.3-0.6
	C50.8,225.8,51,225.8,51.1,225.7z"/>
<path class="st0" d="M50.2,159c0.2-0.1,0.5-0.3,0.7-0.2c0.4,0.1,0.4,0.4,0,0.5C50.7,159.3,50.4,159.1,50.2,159z"/>
<path class="st0" d="M206.9,231.3c0.1,0.1,0.2,0.2,0.2,0.3c-0.2,0.1-0.4,0.2-0.7,0.2c-0.1,0-0.2-0.2-0.3-0.3
	C206.5,231.5,206.7,231.4,206.9,231.3z"/>
<path class="st0" d="M267.1,251.3c0.1-0.1,0.2-0.2,0.3-0.2c0.4,0,0.5,0.3,0.3,0.6c-0.1,0.1-0.2,0.2-0.3,0.3
	C267.4,251.7,267.2,251.5,267.1,251.3z"/>
<path class="st0" d="M265.8,48.5c0.3,0.1,0.4,0.4,0.2,0.7c-0.1,0.1-0.2,0.2-0.3,0.3c-0.1-0.2-0.2-0.5-0.3-0.7
	C265.4,48.7,265.6,48.6,265.8,48.5z"/>
<path class="st0" d="M43.6,44.6c-0.1,0.1-0.3,0.2-0.4,0.2c-0.3-0.1-0.4-0.3-0.2-0.6c0.1-0.1,0.2-0.2,0.3-0.3
	C43.4,44.1,43.5,44.3,43.6,44.6z"/>
<path class="st0" d="M213.1,211c0.1,0.3,0.3,0.5,0.3,0.7c0,0-0.2,0.2-0.3,0.2c-0.4-0.1-0.5-0.3-0.3-0.6
	C212.9,211.2,213,211.1,213.1,211z"/>
<path class="st0" d="M339.9,96.1c0.2-0.1,0.5-0.3,0.7-0.3c0.4,0.1,0.4,0.4,0,0.5C340.3,96.4,340.1,96.2,339.9,96.1z"/>
<path class="st0" d="M139.3,232c0.1,0.3,0,0.6-0.4,0.6c-0.1,0-0.3-0.2-0.3-0.2c0.1-0.2,0.3-0.4,0.4-0.6
	C139.1,231.8,139.2,231.9,139.3,232z"/>
<path class="st0" d="M30.4,219.5c0.2-0.1,0.5-0.3,0.7-0.3c0.4,0.1,0.4,0.4,0,0.5C30.8,219.8,30.6,219.6,30.4,219.5z"/>
<path class="st0" d="M29.5,84.9c0.2-0.1,0.5-0.3,0.7-0.2c0.4,0.1,0.4,0.4,0,0.5C30,85.2,29.7,85,29.5,84.9z"/>
<path class="st0" d="M238.7,62.5c0.1-0.1,0.2-0.2,0.3-0.2c0.4,0,0.5,0.3,0.3,0.6c-0.1,0.1-0.2,0.2-0.3,0.3
	C238.9,63,238.8,62.8,238.7,62.5z"/>
<path class="st0" d="M429.6,303.6c0.3,0.1,0.4,0.4,0.2,0.7c-0.1,0.1-0.2,0.2-0.3,0.3c-0.1-0.2-0.2-0.5-0.3-0.7
	C429.2,303.8,429.4,303.7,429.6,303.6z"/>
<path class="st0" d="M17.4,192c0.1,0.3,0.3,0.5,0.3,0.7c0,0-0.2,0.2-0.3,0.2c-0.4-0.1-0.5-0.3-0.3-0.6
	C17.2,192.2,17.3,192.1,17.4,192z"/>
<path class="st0" d="M16.9,125.2c0.1,0.3,0,0.6-0.4,0.6c-0.1,0-0.3-0.2-0.3-0.2c0.1-0.2,0.3-0.4,0.4-0.7
	C16.7,125,16.8,125.1,16.9,125.2z"/>
<path class="st0" d="M360.6,102c0.4,0.1,0.5,0.3,0.3,0.6c-0.1,0.1-0.2,0.2-0.3,0.3c-0.1-0.2-0.2-0.5-0.3-0.7
	C360.2,102.1,360.4,102,360.6,102z"/>
<path class="st0" d="M456.6,290.6c0.2,0.1,0.4,0.2,0.6,0.3c-0.1,0.1-0.2,0.3-0.3,0.2c-0.2-0.1-0.4-0.2-0.6-0.3
	C456.4,290.8,456.5,290.7,456.6,290.6z"/>
<path class="st0" d="M456.3,222.6c0.4,0.1,0.5,0.3,0.3,0.6c-0.1,0.1-0.2,0.2-0.3,0.3c-0.1-0.2-0.2-0.5-0.3-0.7
	C455.9,222.8,456.1,222.7,456.3,222.6z"/>
<path class="st0" d="M462,135.5c0.1-0.1,0.2-0.2,0.3-0.3c0.1,0.2,0.2,0.5,0.3,0.7c0,0-0.2,0.2-0.3,0.2
	C461.9,136,461.8,135.8,462,135.5z"/>
<path class="st0" d="M469.5,182.4c-0.1,0.2-0.2,0.5-0.4,0.7c-0.1-0.1-0.2-0.2-0.3-0.3c-0.2-0.3-0.1-0.6,0.3-0.6
	C469.3,182.1,469.4,182.3,469.5,182.4z"/>
<path class="st0" d="M476.1,229.9c0.2-0.1,0.5-0.3,0.7-0.3c0.4,0.1,0.4,0.4,0,0.5C476.5,230.2,476.3,230,476.1,229.9z"/>
<path class="st0" d="M483.7,276.8c0.1,0.1,0.2,0.2,0.2,0.3c-0.2,0.1-0.4,0.2-0.7,0.2c-0.1,0-0.2-0.2-0.3-0.3
	C483.2,277,483.4,276.9,483.7,276.8z"/>
<path class="st0" d="M306.6,62.3c0.1,0.3,0,0.6-0.4,0.6c-0.1,0-0.3-0.2-0.3-0.2c0.1-0.2,0.3-0.4,0.4-0.7
	C306.4,62,306.5,62.2,306.6,62.3z"/>
<path class="st0" d="M77.8,212.5c0.2-0.1,0.5-0.3,0.7-0.3c0.4,0.1,0.4,0.4,0,0.5C78.3,212.8,78,212.6,77.8,212.5z"/>
<path class="st0" d="M489.9,256.2c0.3,0.1,0.4,0.4,0.2,0.7c-0.1,0.1-0.2,0.2-0.3,0.3c-0.1-0.2-0.2-0.5-0.3-0.7
	C489.6,256.4,489.8,256.3,489.9,256.2z"/>
<path class="st0" d="M76.1,10.1c0.2-0.1,0.5-0.3,0.7-0.2c0.4,0.1,0.4,0.4,0,0.5C76.5,10.4,76.3,10.2,76.1,10.1z"/>
</svg>
