<?xml version="1.0" encoding="utf-8"?>
<!-- Generator: Adobe Illustrator 28.2.0, SVG Export Plug-In . SVG Version: 6.00 Build 0)  -->
<svg version="1.1" id="Layer_1" xmlns="http://www.w3.org/2000/svg" xmlns:xlink="http://www.w3.org/1999/xlink" x="0px" y="0px"
	 viewBox="0 0 450 556" style="enable-background:new 0 0 450 556;" xml:space="preserve">
<style type="text/css">
	.st0{fill:#40855D;}
</style>
<path class="st0" d="M457.5,72.6c0,5.8-4.4,9.6-9.4,9.8c-5.3,0.2-9.9-4.4-9.8-9.8c0.1-5.2,4.5-9.7,9.7-9.6
	C453.5,63.2,457.5,67.3,457.5,72.6z"/>
<path class="st0" d="M427.6,75.5c-5.1-0.1-9.2-4.3-9.2-9.4c0-5.1,4.3-9.3,9.3-9.2c5,0,9.2,4.4,9.2,9.4
	C436.9,71.4,432.6,75.6,427.6,75.5z"/>
<path class="st0" d="M433.9,36.8c5.1-0.3,9.4,4.1,9.5,9.1c0,5.1-4.1,9.3-9.2,9.3c-5.1,0-9-3.8-9.2-8.8
	C424.8,41,428.7,36.9,433.9,36.8z"/>
<path class="st0" d="M463.4,52.4c0,5-3.9,9.1-8.9,9.2c-5,0.1-9.4-4.3-9.3-9.3c0.1-4.9,4.2-9,9.2-8.9
	C459.5,43.3,463.4,47.3,463.4,52.4z"/>
<path class="st0" d="M468.3,70.5c4.6,0.1,8.5,4.1,8.5,8.6c0,4.8-4.2,8.7-9,8.5c-4.7-0.2-8.3-4.1-8.1-8.8
	C459.8,74.2,463.7,70.4,468.3,70.5z"/>
<path class="st0" d="M460.7,40.5c-4.1,0.1-8.3-3.2-8.3-8.5c0-4.7,3.9-8.3,8.6-8.2c4.7,0.1,8.3,3.8,8.3,8.5
	C469.2,37,465.5,40.6,460.7,40.5z"/>
<path class="st0" d="M414.1,31c4.3,0.1,7.8,3.8,7.8,8.1c0,4.5-3.9,8.2-8.3,8c-4.3-0.2-7.8-4-7.6-8.3C406.2,33.6,410.4,31.1,414.1,31
	z"/>
<path class="st0" d="M407.3,51.3c4-0.2,8.1,2.8,8.2,8.1c0.1,4.4-3.5,7.8-7.9,7.9c-4.6,0-8.2-3.5-8.1-8.1
	C399.5,54.8,402.9,51.4,407.3,51.3z"/>
<path class="st0" d="M421.2,78.6c4.4,0.3,7.8,4.2,7.4,8.4c-0.3,4.3-4.4,7.8-8.5,7.3c-4.4-0.5-7.5-4.2-7.1-8.6
	C413.4,81.5,417.1,78.3,421.2,78.6z"/>
<path class="st0" d="M475.5,12c-0.1,4.4-3.6,7.8-8,7.6c-4.2-0.1-7.6-3.6-7.6-7.7c0-4.3,3.6-7.9,7.9-7.9
	C472.2,4.1,475.6,7.6,475.5,12z"/>
<path class="st0" d="M319.6,45.5c4.2,0.1,7.5,3.5,7.5,7.8c0,4.2-3.4,7.7-7.6,7.7c-4.3,0-8-3.7-7.9-8
	C311.9,48.9,315.5,45.5,319.6,45.5z"/>
<path class="st0" d="M495.8,18.4c0,4.1-3.6,7.7-7.8,7.7c-4.4,0-7.9-3.5-7.7-8c0.1-4.3,3.5-7.5,7.9-7.4
	C492.4,10.8,495.9,14.3,495.8,18.4z"/>
<path class="st0" d="M474.4,51.2c4.3-0.1,7.7,3.1,7.9,7.3c0.1,4.5-3.2,8-7.7,8c-4.2,0-7.8-3.5-7.8-7.6
	C466.9,54.8,470.1,51.3,474.4,51.2z"/>
<path class="st0" d="M400.5,72c4.3,0,7.6,3.3,7.6,7.6c0,4.3-3.3,7.6-7.6,7.6c-4.5,0-7.7-3.4-7.7-7.6C392.8,75.1,396.4,71.9,400.5,72
	z"/>
<path class="st0" d="M326,25.4c4.2-0.1,7.7,3.2,7.6,7.7c0,4.2-3.2,7.6-7.8,7.5c-4.3,0-7.6-3.4-7.6-7.7
	C318.4,28.6,321.7,25.4,326,25.4z"/>
<path class="st0" d="M440.7,33.3c-4,0.1-7.5-3.2-7.6-7.2c-0.2-4.2,3.2-7.9,7.4-7.9c3.3,0,7.3,2.2,7.6,7.2
	C448.3,29.6,444.9,33.2,440.7,33.3z"/>
<path class="st0" d="M448.5,92.8c0.1,4.2-3.5,7.7-7.6,7.7c-4,0-7.3-3.3-7.3-7.4c-0.1-4.5,3.3-7.6,7.5-7.6
	C445.1,85.4,448.5,88.8,448.5,92.8z"/>
<path class="st0" d="M394.3,52.9c0,4.3-3.4,7.5-7.8,7.4c-4.1-0.1-7.3-3.4-7.3-7.5c0-4.3,3.5-7.5,7.8-7.4
	C391.1,45.5,394.3,48.8,394.3,52.9z"/>
<path class="st0" d="M346.5,99.8c4.1-0.1,7.4,3.1,7.4,7.2c0.1,4.2-3,7.4-7.2,7.5c-4.1,0.1-7.5-3.2-7.5-7.2
	C339.2,103.3,342.5,99.9,346.5,99.8z"/>
<path class="st0" d="M299.4,39.5c4.1,0.1,7.2,3.6,7,7.7c-0.2,3.9-3.5,7-7.4,6.9c-3.9-0.1-7.1-3.4-7.1-7.3
	C291.9,42.8,295.5,39.4,299.4,39.5z"/>
<path class="st0" d="M380.4,80.5c-4,0.1-7.5-3.3-7.5-7.3c0-4,3.3-7.3,7.5-7.3c4,0,7.1,3,7.2,7C387.6,77,384.5,80.4,380.4,80.5z"/>
<path class="st0" d="M292.9,74.4c-4,0.1-7.4-3.2-7.4-7.3c0-4,2.9-7.1,6.9-7.2c4.6-0.2,7.4,3.2,7.7,7
	C300.4,70.8,296.9,74.3,292.9,74.4z"/>
<path class="st0" d="M333.1,73.2c3.9-0.1,7.5,3.4,7.4,7.3c0,3.8-3.3,7.1-7.1,7.2c-3.9,0.1-7.2-3-7.3-6.9
	C325.9,76.7,329.1,73.3,333.1,73.2z"/>
<path class="st0" d="M393.5,25.4c4.1-0.2,7.3,3.1,7.3,7.3c0,3.9-3.2,7-7.1,7c-4.2,0.1-7.3-3.1-7.3-7.3
	C386.5,28.5,389.6,25.5,393.5,25.4z"/>
<path class="st0" d="M408.3,187c3.8,0,7.1,3.2,7.1,7.1c0.1,3.8-3.1,7.2-6.9,7.3c-4,0.1-7.4-3.3-7.3-7.3
	C401.2,190.3,404.5,187,408.3,187z"/>
<path class="st0" d="M360.3,19.1c0.1,3.8-3.1,7.2-6.9,7.3c-3.8,0.1-7.2-3.1-7.3-6.9c-0.2-4,3.2-7.5,7.1-7.5
	C357,12,360.2,15.3,360.3,19.1z"/>
<path class="st0" d="M360.7,87.2c-0.2,4-3.4,6.9-7.4,6.7c-4-0.1-7-3.5-6.8-7.4c0.2-3.9,3.5-6.9,7.5-6.7
	C357.8,80,360.8,83.2,360.7,87.2z"/>
<path class="st0" d="M353.4,39.7c-0.1,4-3.3,7-7.3,6.9c-4-0.1-7-3.3-6.9-7.2c0.1-4,3.3-7,7.3-6.9C350.3,32.5,353.5,35.8,353.4,39.7z
	"/>
<path class="st0" d="M305.9,33.6c-4,0.1-7.2-2.9-7.3-6.9c-0.1-4,3-7.2,6.9-7.2c4-0.1,7.2,3,7.3,6.9C313,30.3,309.9,33.5,305.9,33.6z
	"/>
<path class="st0" d="M395.2,187.9c-0.1,4-3.2,7-7.2,6.9c-4-0.1-7.1-3.3-7-7.2c0.1-3.9,3.3-7,7.3-6.9
	C392.2,180.7,395.2,183.9,395.2,187.9z"/>
<path class="st0" d="M320.1,73.5c0,3.9-3.3,7.2-7.1,7.2c-3.9,0-7.1-3.2-7.1-7.1c0-3.9,3.2-7.2,7.1-7.2
	C316.8,66.4,320.1,69.7,320.1,73.5z"/>
<path class="st0" d="M380.5,26.3c-0.1,3.8-3.5,7.1-7.3,7c-3.9-0.1-7-3.4-6.9-7.3c0.1-3.9,3.4-7.1,7.2-7
	C377.4,19.1,380.6,22.4,380.5,26.3z"/>
<path class="st0" d="M421.8,173.8c0.1,3.9-3,7.1-7,7.1c-3.9,0-6.9-2.8-7-6.6c-0.2-4,2.8-7.3,6.7-7.4
	C418.5,166.8,421.7,169.9,421.8,173.8z"/>
<path class="st0" d="M442,181c-0.1,4-3.2,7-7.3,6.8c-3.8-0.1-6.8-3.1-6.8-6.9c0-3.9,3.1-7.1,7.1-7.1C439,173.9,442.1,177,442,181z"
	/>
<path class="st0" d="M312.3-0.8c3.9,0.1,7.1,3.5,6.9,7.3c-0.1,3.8-3.6,7.1-7.4,6.9c-3.8-0.2-6.7-3.3-6.7-7.1
	C305.2,1.4,309.1-0.7,312.3-0.8z"/>
<path class="st0" d="M326,12.4c0.2-3.8,3.3-6.6,7-6.5c3.8,0.1,7,3.5,6.8,7.3c-0.2,3.7-3.4,6.6-7.1,6.5
	C328.7,19.6,325.8,16.4,326,12.4z"/>
<path class="st0" d="M373.4,46.5c-0.1,3.7-3.3,6.8-7,6.7c-4,0-7-3.2-6.8-7.2c0.2-3.8,3.3-6.7,7.1-6.5
	C370.4,39.6,373.5,42.9,373.4,46.5z"/>
<path class="st0" d="M265.5,87.7c-3.8-0.1-6.7-3.2-6.6-7c0.1-3.8,3.2-6.8,7-6.7c3.7,0.1,6.9,3.5,6.7,7.1
	C272.4,84.8,269.2,87.8,265.5,87.7z"/>
<path class="st0" d="M346.7,60.2c0,3.7-3.2,6.8-7,6.8c-3.8,0-6.8-3.1-6.8-6.9c0-3.8,3.1-6.9,6.8-6.8
	C343.5,53.3,346.7,56.6,346.7,60.2z"/>
<path class="st0" d="M285.9,80.5c3.9,0,6.8,2.9,6.8,6.8c0,3.8-3,6.8-6.8,6.8c-3.7,0-7-3.2-6.9-6.8C279.1,84.1,281.4,80.6,285.9,80.5
	z"/>
<path class="st0" d="M394.5,174.3c-3.7,0-7-3.2-6.9-6.9c0.1-3.3,2.5-6.8,6.9-6.8c3.9,0,6.8,3,6.8,6.8
	C401.3,171.4,398.3,174.4,394.5,174.3z"/>
<path class="st0" d="M366.8,66.6c0,3.8-3,6.7-6.9,6.7c-3.6-0.1-6.6-2.9-6.7-6.5c0-4,3-6.9,6.7-6.9C363.8,59.9,366.8,62.8,366.8,66.6
	z"/>
<path class="st0" d="M279.4,114.3c-3.6,0-6.6-3.1-6.6-6.6c0-3.7,3.2-6.9,6.9-6.8c3.6,0.2,6.4,3.2,6.3,6.8
	C285.9,111.4,282.9,114.3,279.4,114.3z"/>
<path class="st0" d="M326.3,107.3c-3.6-0.1-6.4-3-6.4-6.7c0-3.6,2.8-6.6,6.4-6.6c3.7-0.1,6.8,3.2,6.7,6.9
	C332.9,104.4,329.8,107.4,326.3,107.3z"/>
<path class="st0" d="M380.5,93.4c0,3.6-3,6.5-6.6,6.5c-3.9,0-6.8-3-6.6-6.9c0.1-3.7,3.1-6.4,6.8-6.3
	C377.6,86.9,380.5,89.8,380.5,93.4z"/>
<path class="st0" d="M394.2,93.7c3.6,0.1,6.4,2.9,6.4,6.6c0,3.9-3,6.7-6.9,6.5c-3.6-0.2-6.4-3.2-6.2-6.8
	C387.6,96.4,390.6,93.6,394.2,93.7z"/>
<path class="st0" d="M345.9-7.6c0.1,3.6-2.9,6.6-6.5,6.6c-3.7,0.1-6.6-2.7-6.6-6.4c0-3.7,2.7-6.6,6.4-6.6
	C342.9-14.1,345.9-11.2,345.9-7.6z"/>
<path class="st0" d="M319.9,114.4c3.6,0,6.5,2.8,6.5,6.5c0,3.7-2.8,6.5-6.5,6.5c-3.6,0-6.6-2.9-6.6-6.5
	C313.3,117.4,316.3,114.4,319.9,114.4z"/>
<path class="st0" d="M299.7,107.5c3.6,0,6.6,3,6.6,6.6c0,3.6-3,6.5-6.6,6.5c-3.7,0-6.5-2.8-6.5-6.5
	C293.2,110.3,296.1,107.5,299.7,107.5z"/>
<path class="st0" d="M366-0.9c0,3.6-2.9,6.4-6.7,6.4c-3.4-0.1-6.2-3.1-6.3-6.5c0-3.5,3-6.6,6.6-6.6C363.3-7.5,366.1-4.6,366-0.9z"/>
<path class="st0" d="M272.3,67c-3.4,0.1-6.3-2.6-6.5-6c-0.2-3.6,2.6-6.7,6.2-6.8c3.5-0.1,6.6,3,6.6,6.5
	C278.5,64,275.6,66.9,272.3,67z"/>
<path class="st0" d="M441.3,167c-3.4-0.1-6.2-3-6.3-6.3c0-3.5,3.1-6.6,6.6-6.5c3.6,0.1,6.4,3.1,6.2,6.8
	C447.6,164.4,444.7,167.1,441.3,167z"/>
<path class="st0" d="M487.5,38.7c0,3.7-2.9,6.6-6.5,6.5c-3.5-0.1-6.5-3.3-6.4-6.7c0.2-3.4,3-6.1,6.4-6.2
	C484.7,32.2,487.5,34.9,487.5,38.7z"/>
<path class="st0" d="M387.6,126.8c-3.6,0-6.3-2.7-6.3-6.2c0-3.7,2.8-6.5,6.6-6.4c3.4,0.1,6.3,3.1,6.2,6.4
	C393.9,124.1,391.1,126.8,387.6,126.8z"/>
<path class="st0" d="M325.3-13.9c-0.1,3.5-2.9,6.2-6.4,6.1c-3.5-0.1-6.2-3-6-6.5c0.2-3.3,2.8-5.9,6.2-5.9
	C322.6-20.2,325.4-17.4,325.3-13.9z"/>
<path class="st0" d="M488.8,65.7c0-3.4,2.9-6.3,6.3-6.2c3.3,0.1,6,2.8,6.1,6.1c0.1,3.4-2.7,6.4-6.1,6.4
	C491.6,72.1,488.8,69.2,488.8,65.7z"/>
<path class="st0" d="M381,201.8c3.4-0.1,6.3,2.9,6.3,6.3c0,3.2-2.8,6-6,6.1c-3.2,0.1-6.1-2.6-6.2-5.9
	C374.9,204.8,377.6,201.9,381,201.8z"/>
<path class="st0" d="M374.5,141c-0.1-3.4,2.8-6.4,6.2-6.4c3.3,0,6,2.7,6.1,6c0.1,3.5-2.7,6.4-6.1,6.4
	C377.4,147,374.6,144.2,374.5,141z"/>
<path class="st0" d="M354.6,215.7c3.3,0.1,6,2.9,5.9,6.2c-0.1,3.4-3.2,6.3-6.5,6c-3.3-0.3-5.8-3-5.6-6.4
	C348.5,218.2,351.3,215.6,354.6,215.7z"/>
<path class="st0" d="M453.7,4.9c0.1,3.3-2.5,6.1-5.8,6.2c-3.6,0.2-6.4-2.4-6.4-6c-0.1-3.4,2.4-6.1,5.7-6.2
	C450.6-1.3,453.6,1.4,453.7,4.9z"/>
<path class="st0" d="M312.3,93.7c0,3.3-2.6,6-5.9,6.2c-3.6,0.1-6.3-2.4-6.4-6c0-3.4,2.4-6.1,5.8-6.2
	C309.3,87.5,312.3,90.3,312.3,93.7z"/>
<path class="st0" d="M258,53.6c0,3.2-2.7,6-5.9,6.2c-3.3,0.1-6.1-2.5-6.2-5.8c-0.1-3.6,2.5-6.4,6-6.3
	C255.2,47.7,257.9,50.4,258,53.6z"/>
<path class="st0" d="M334,127.3c0.1-3.3,2.9-6,6.2-5.9c3.5,0,6.2,2.8,6,6.4c-0.2,3.4-2.9,5.8-6.3,5.7
	C336.7,133.4,334,130.5,334,127.3z"/>
<path class="st0" d="M500.4-2c0,3.4-2.6,6-5.9,6.1c-3.3,0-6.1-2.7-6.1-6c0-3.2,2.8-6,6-6.1C497.7-8,500.4-5.3,500.4-2z"/>
<path class="st0" d="M367.4,107.6c3.2,0,6,2.9,6,6c0,3.2-2.8,6-6,5.9c-3.3,0-5.9-2.7-5.9-6C361.4,110.3,364.1,107.6,367.4,107.6z"/>
<path class="st0" d="M426.3,19c-0.1,3.3-2.8,5.9-6.1,5.8c-3.2-0.1-6-3-5.8-6.2c0.1-3.2,3-5.9,6.2-5.8
	C423.8,12.9,426.3,15.7,426.3,19z"/>
<path class="st0" d="M400.3,6.4c3.3,0.1,6,2.9,5.9,6.1c-0.1,3.2-3,6-6.2,5.9c-3.3-0.1-5.9-2.8-5.8-6.2
	C394.2,8.8,396.8,6.3,400.3,6.4z"/>
<path class="st0" d="M265.1,101.2c0,3.3-2.7,6-6,6c-3.2,0-6.1-2.8-6-6c0-3.2,2.8-5.9,6.1-5.9C262.6,95.2,265.1,97.7,265.1,101.2z"/>
<path class="st0" d="M428.4,195.2c3.3-0.1,6.2,2.6,6.2,5.9c0,3.2-2.8,6-6.1,5.9c-3.2,0-5.7-2.4-5.8-5.7
	C422.5,197.9,425,195.3,428.4,195.2z"/>
<path class="st0" d="M251.3,74.1c-0.1,3.3-2.9,6-6.1,5.8c-3.1-0.2-5.6-2.8-5.7-5.9c0-3.2,2.8-6.1,6-6
	C248.7,68,251.3,70.8,251.3,74.1z"/>
<path class="st0" d="M514.1,24.8c0,3.3-2.7,6-6,6c-3.3-0.1-6-2.9-5.9-6.1c0.1-3.1,2.7-5.7,5.8-5.8C511.3,18.8,514.1,21.5,514.1,24.8
	z"/>
<path class="st0" d="M284.8,40.2c0.1,3.3-2.6,6.1-5.9,6.1c-3.1,0-5.7-2.6-5.8-5.7c-0.1-3.2,2.7-6.1,5.9-6.1
	C282.1,34.4,284.8,37.1,284.8,40.2z"/>
<path class="st0" d="M385.7,5.7c0.1,3.1-2.4,5.8-5.6,6c-3.2,0.2-6.1-2.6-6.1-5.9c0-3.1,2.7-5.8,5.8-5.8C382.9,0,385.6,2.6,385.7,5.7
	z"/>
<path class="st0" d="M264.4,33.3c0.1,3.2-2.4,5.8-5.5,5.9c-3.2,0.1-6.1-2.7-6-5.9c0.1-3.1,2.7-5.7,5.8-5.7
	C261.8,27.6,264.4,30.2,264.4,33.3z"/>
<path class="st0" d="M379.9,161.2c-0.1,3.1-2.8,5.7-5.9,5.6c-3.1-0.1-5.6-2.9-5.5-6c0.1-3.1,2.9-5.7,5.9-5.5
	C377.6,155.4,380,158,379.9,161.2z"/>
<path class="st0" d="M421.1,148c3.1-0.1,5.8,2.6,5.8,5.6c0,3.1-2.6,5.7-5.8,5.6c-3.1,0-5.4-2.3-5.5-5.4
	C415.5,150.7,417.9,148.1,421.1,148z"/>
<path class="st0" d="M190.3,54c0.1,3.2-2.3,5.8-5.5,5.9c-3,0.1-5.8-2.6-5.9-5.6c-0.1-3.1,2.5-5.8,5.6-5.9
	C187.6,48.3,190.2,50.8,190.3,54z"/>
<path class="st0" d="M355.3,201.6c0-3.1,2.3-5.5,5.4-5.6c3.2-0.1,5.9,2.5,5.9,5.6c0,3.1-2.8,5.8-5.9,5.6
	C357.7,207.1,355.3,204.6,355.3,201.6z"/>
<path class="st0" d="M291.8,5c-3.2-0.1-5.6-2.7-5.4-5.9c0.2-3,2.7-5.3,5.6-5.3c2.9,0.1,5.4,2.6,5.5,5.5C297.6,2.3,294.9,5,291.8,5z"
	/>
<path class="st0" d="M501.5,50.6c-3,0.1-5.5-2.3-5.6-5.3c-0.1-3.2,2.5-5.9,5.6-5.8c2.9,0.1,5.5,2.7,5.5,5.5
	C507,47.9,504.4,50.6,501.5,50.6z"/>
<path class="st0" d="M367.6,186.8c-3-0.1-5.4-2.5-5.3-5.6c0-3,2.4-5.5,5.4-5.5c3,0,5.8,2.8,5.6,5.8
	C373.2,184.5,370.6,186.9,367.6,186.8z"/>
<path class="st0" d="M290.9,20.1c0,3-2.4,5.4-5.4,5.5c-2.9,0-5.5-2.4-5.6-5.4c-0.1-3,2.7-5.8,5.7-5.7
	C288.6,14.6,291,17.1,290.9,20.1z"/>
<path class="st0" d="M334,220.8c-3.1-0.1-5.4-2.4-5.4-5.5c0-3.1,2.3-5.4,5.4-5.4c3.2,0,5.8,2.6,5.6,5.7
	C339.6,218.6,337.1,220.8,334,220.8z"/>
<path class="st0" d="M466.8,99.5c-0.1,3-2.5,5.4-5.5,5.4c-2.9,0-5.5-2.6-5.5-5.5c-0.1-3,2.8-5.8,5.8-5.6
	C464.5,94,466.8,96.5,466.8,99.5z"/>
<path class="st0" d="M169.8,47.9c-0.1,3-2.8,5.5-5.7,5.3c-3-0.2-5.3-2.8-5.1-5.9c0.2-2.8,2.7-5.1,5.5-5.1
	C167.4,42.3,169.9,44.9,169.8,47.9z"/>
<path class="st0" d="M170.9,32.7c-3.1,0-5.5-2.3-5.5-5.3c0-3,2.5-5.4,5.5-5.3c2.9,0.1,5.2,2.3,5.3,5.1
	C176.3,30.3,174,32.7,170.9,32.7z"/>
<path class="st0" d="M406.3,147.1c0.1,2.9-2.1,5.2-5,5.4c-3.2,0.2-5.6-2.1-5.6-5.2c-0.1-2.9,2.1-5.3,5-5.4
	C403.7,141.8,406.2,144.1,406.3,147.1z"/>
<path class="st0" d="M401.3,209.2c2.9,0,5.2,2.1,5.4,5c0.2,3.1-2.1,5.6-5.2,5.6c-2.9,0-5.3-2.1-5.4-5
	C395.9,211.7,398.2,209.2,401.3,209.2z"/>
<path class="st0" d="M520.1,4.8c-0.1,2.8-2.5,5.1-5.3,5.2c-2.9,0-5.4-2.5-5.3-5.5c0.1-2.9,2.4-5.2,5.2-5.2
	C517.6-0.8,520.2,1.8,520.1,4.8z"/>
<path class="st0" d="M254.4,168.6c-0.1-3.1,2.3-5.6,5.2-5.6c2.7,0,5.2,2.4,5.3,5.2c0.1,2.9-2.4,5.5-5.3,5.6
	C256.8,173.7,254.5,171.4,254.4,168.6z"/>
<path class="st0" d="M243.7,26.8c0.1,2.9-2,5.3-4.9,5.5c-2.8,0.2-5.6-2.4-5.6-5.3c0-2.8,2.4-5.2,5.2-5.2
	C241.3,21.7,243.6,23.9,243.7,26.8z"/>
<path class="st0" d="M488.6,80.8c2.9,0.1,5,2.4,5,5.3c-0.1,2.9-2.3,5.1-5.2,5.1c-3,0-5.5-2.6-5.3-5.5
	C483.4,82.9,485.8,80.7,488.6,80.8z"/>
<path class="st0" d="M419.5,106.7c0,2.9-2.2,5.1-5.1,5.2c-2.9,0-5.2-2.2-5.3-5c-0.1-2.9,2.4-5.5,5.4-5.4
	C417.3,101.5,419.5,103.8,419.5,106.7z"/>
<path class="st0" d="M231.6,52.4c-2.8,0-5.2-2.4-5.2-5.2c0-2.8,2.4-5.2,5.2-5.2c2.9,0,5.1,2.3,5.1,5.2
	C236.7,50.2,234.5,52.4,231.6,52.4z"/>
<path class="st0" d="M353.1,242.1c0,2.9-2.3,5.2-5.2,5.1c-2.8,0-5.2-2.4-5.2-5.2c0-2.8,2.4-5.2,5.3-5.2
	C350.8,236.9,353.1,239.2,353.1,242.1z"/>
<path class="st0" d="M360.6,128.7c2.8,0.1,5.2,2.5,5.1,5.3c-0.1,2.8-2.6,5.2-5.4,5.1c-2.9-0.1-5.1-2.4-5-5.4
	C355.4,130.8,357.7,128.6,360.6,128.7z"/>
<path class="st0" d="M196.2,34.1c-0.1,2.9-2.5,5.2-5.3,5c-2.8-0.1-5.2-2.7-5.1-5.4c0.1-2.8,2.6-5.1,5.4-5
	C194.2,28.8,196.3,31.1,196.2,34.1z"/>
<path class="st0" d="M220,67.7c-0.1-3,2-5.3,5-5.3c2.8-0.1,5.3,2.2,5.4,5c0.1,2.7-2.3,5.3-5.1,5.4C222.5,72.8,220.1,70.6,220,67.7z"
	/>
<path class="st0" d="M209.9,61.1c0,2.9-2.4,5.2-5.2,5.1c-2.6-0.1-4.9-2.3-5-4.9c-0.1-2.7,2.3-5.3,5.1-5.3
	C207.6,55.9,209.9,58.2,209.9,61.1z"/>
<path class="st0" d="M218.2,15.4c2.7,0,5.2,2.4,5.2,5.2c0,2.8-2.5,5.1-5.3,5.1c-2.7-0.1-4.8-2.2-4.9-4.9
	C213.1,17.8,215.4,15.4,218.2,15.4z"/>
<path class="st0" d="M293.2,129.2c2.7,0,5.2,2.5,5.2,5.2c0,2.8-2.5,5.1-5.3,5c-2.7-0.1-4.8-2.3-4.9-5
	C288.1,131.6,290.4,129.2,293.2,129.2z"/>
<path class="st0" d="M379.7,228.2c0.1,2.9-2.3,5.2-5.1,5.2c-2.6-0.1-4.9-2.3-5-4.9c-0.1-2.7,2.5-5.3,5.2-5.2
	C377.4,223.3,379.6,225.5,379.7,228.2z"/>
<path class="st0" d="M280,170.2c2.8,0.1,4.9,2.2,4.9,5c0,2.9-2.3,5.1-5.2,5c-2.7-0.1-4.9-2.3-5-5C274.7,172.5,277.1,170.2,280,170.2
	z"/>
<path class="st0" d="M327.7,240.6c-2.8,0-5-2-5.1-4.8c-0.1-3,2.1-5.2,5-5.3c2.9,0,5.3,2.4,5.2,5.2
	C332.7,238.5,330.5,240.6,327.7,240.6z"/>
<path class="st0" d="M333.7,152.6c-2.8,0-4.9-2.1-4.9-4.8c-0.1-2.9,2.1-5.1,5.1-5.1c2.7,0,4.9,2.1,5,4.8
	C338.9,150.3,336.6,152.7,333.7,152.6z"/>
<path class="st0" d="M318.4,141c0.1,2.7-2,5-4.7,5.2c-2.7,0.2-5.3-2.2-5.3-5c0-2.6,2.3-4.9,4.9-5C316,136.1,318.3,138.3,318.4,141z"
	/>
<path class="st0" d="M358.9,154.2c0,2.7-2.3,4.9-5,4.9c-2.6,0-4.9-2.3-5-4.9c-0.1-2.8,2.5-5.3,5.2-5.1
	C356.9,149.2,359,151.6,358.9,154.2z"/>
<path class="st0" d="M202.9,13.8c-0.1,2.7-2.3,4.9-5,4.9c-2.6,0-4.9-2.3-4.9-5c0-2.8,2.5-5.3,5.2-5.1C200.9,8.8,203,11.1,202.9,13.8
	z"/>
<path class="st0" d="M474.3-13.3c2.8,0,4.9,2.1,4.9,4.8c0,2.9-2.3,5.1-5.3,4.9c-2.7-0.1-4.8-2.3-4.7-5.1
	C469.3-11.2,471.5-13.3,474.3-13.3z"/>
<path class="st0" d="M407.9,122.1c2.8,0,4.9,2.1,4.9,4.8c0,2.9-2.3,5.1-5.3,4.9c-2.7-0.1-4.8-2.3-4.7-5.1
	C403,124.1,405.2,122.1,407.9,122.1z"/>
<path class="st0" d="M177.2,12c-2.8-0.1-4.9-2.2-4.9-4.9c0-2.9,2.4-5,5.3-4.9c2.7,0.2,4.7,2.4,4.6,5.1C182.1,10.1,180,12.1,177.2,12
	z"/>
<path class="st0" d="M501-27c2.8,0,4.8,2.2,4.7,5c-0.1,2.6-2,4.5-4.7,4.6c-2.7,0-5-2.1-5-4.8C496-24.8,498.3-27,501-27z"/>
<path class="st0" d="M453.8-20.1c2.7-0.1,5,2,5.1,4.7c0.1,2.7-2,4.9-4.8,5c-2.8,0.1-4.9-1.9-5-4.7C449-17.9,451.1-20,453.8-20.1z"/>
<path class="st0" d="M350.5-27.9c0.1,2.8-2.1,5.1-4.8,5c-2.5,0-4.7-2.2-4.8-4.7c-0.1-2.6,2.2-5,4.9-5
	C348.4-32.6,350.4-30.5,350.5-27.9z"/>
<path class="st0" d="M211.5,45.5c-2.7,0.1-5-2.2-5-4.8c0.1-2.5,2.2-4.6,4.7-4.7c2.8-0.1,4.9,2.1,4.9,4.9
	C216,43.5,214.1,45.5,211.5,45.5z"/>
<path class="st0" d="M361.4-21.4c0-2.6,2-4.6,4.6-4.7c2.6-0.1,5,2.2,4.9,4.8c0,2.6-2.4,4.8-5.1,4.6
	C363.2-16.7,361.3-18.8,361.4-21.4z"/>
<path class="st0" d="M260.6,13.3c-0.1-2.5,1.9-4.7,4.4-4.8c2.6-0.1,5,2.2,5,4.8c0,2.5-2.2,4.6-4.7,4.6
	C262.7,17.9,260.7,15.9,260.6,13.3z"/>
<path class="st0" d="M390.9-14.6c0.1,2.6-1.8,4.7-4.3,4.9c-2.6,0.2-5-2.1-5-4.7c0-2.4,2.2-4.6,4.6-4.7
	C388.7-19.2,390.8-17.1,390.9-14.6z"/>
<path class="st0" d="M273.1,123.1c2.4,0.1,4.6,2.3,4.7,4.7c0,2.6-2.4,4.9-5,4.7c-2.5-0.2-4.4-2.3-4.3-4.9
	C268.4,125.1,270.6,123.1,273.1,123.1z"/>
<path class="st0" d="M431.4-1.4c0,2.6-2,4.6-4.6,4.7c-2.5,0-4.7-2-4.8-4.5c-0.1-2.6,2.2-5,4.8-4.9C429.4-6.1,431.5-4,431.4-1.4z"/>
<path class="st0" d="M244.9,2.1c2.7,0,4.7,1.9,4.7,4.6c0,2.6-2,4.7-4.6,4.7c-2.5,0-4.7-2.1-4.8-4.6C240.2,4.3,242.3,2.1,244.9,2.1z"
	/>
<path class="st0" d="M294.2-20.7c-0.1-2.7,1.8-4.7,4.4-4.8c2.6-0.1,4.8,1.9,4.9,4.4c0.1,2.5-2,4.7-4.5,4.8
	C296.4-16.1,294.3-18,294.2-20.7z"/>
<path class="st0" d="M313.9,212.9c-2.6,0-4.6-2.1-4.5-4.6c0.1-2.4,2-4.3,4.4-4.3c2.6-0.1,4.7,1.8,4.7,4.4
	C318.5,211,316.5,212.9,313.9,212.9z"/>
<path class="st0" d="M340.7,190.6c2.3,0,4.4,2.1,4.4,4.4c0,2.5-2.3,4.7-4.7,4.5c-2.4-0.2-4.2-2.2-4.1-4.6
	C336.4,192.5,338.3,190.6,340.7,190.6z"/>
<path class="st0" d="M239.1,89.8c2.3,0.1,4.3,2.1,4.3,4.5c0,2.5-2.4,4.7-4.8,4.5c-2.4-0.2-4.1-2.2-4-4.7
	C234.7,91.6,236.7,89.7,239.1,89.8z"/>
<path class="st0" d="M327.4,172.3c-2.6,0.1-4.7-1.9-4.6-4.5c0-2.4,1.9-4.3,4.3-4.3c2.6-0.1,4.6,1.9,4.6,4.5
	C331.6,170.5,329.8,172.3,327.4,172.3z"/>
<path class="st0" d="M525.5-15.7c0,2.5-1.8,4.3-4.3,4.3c-2.4,0-4.4-1.8-4.5-4.2c-0.1-2.5,2-4.6,4.6-4.6
	C523.8-20,525.5-18.2,525.5-15.7z"/>
<path class="st0" d="M559.9,85.3c-0.1,2.5-1.9,4.3-4.4,4.2c-2.4-0.1-4.3-2.1-4.3-4.4c0.1-2.3,2.2-4.3,4.5-4.2
	C558.2,80.9,560,82.8,559.9,85.3z"/>
<path class="st0" d="M270.3,148c0.1,2.5-1.7,4.4-4.2,4.5c-2.4,0.1-4.4-1.9-4.5-4.2c-0.1-2.3,1.9-4.4,4.3-4.5
	C268.4,143.7,270.3,145.5,270.3,148z"/>
<path class="st0" d="M410.8-8c0,2.5-1.9,4.4-4.3,4.3c-2.4,0-4.4-2.2-4.3-4.5c0.1-2.1,2-4,4.2-4.1C408.8-12.3,410.8-10.4,410.8-8z"/>
<path class="st0" d="M311.7,228.9c-0.1,2.4-2.1,4.3-4.5,4.2c-2.3-0.1-4.3-2.3-4.2-4.6c0.1-2.3,2.2-4.3,4.6-4.2
	C310,224.4,311.8,226.4,311.7,228.9z"/>
<path class="st0" d="M229,0.1c0.1,2.4-1.8,4.5-4.2,4.5c-2.2,0.1-4.4-2-4.5-4.3c-0.1-2.3,1.9-4.4,4.2-4.5
	C226.9-4.2,228.9-2.3,229,0.1z"/>
<path class="st0" d="M577,163.5c-2.2,0.1-4.2-1.6-4.4-3.9c-0.2-2.4,1.8-4.5,4.1-4.5"/>
<path class="st0" d="M320.4,184c2.3,0,4.1,1.7,4.2,4c0.1,2.5-1.8,4.4-4.2,4.3c-2.3,0-4.1-1.8-4.2-4C316,186,318,184,320.4,184z"/>
<path class="st0" d="M576,96.2c-2.2,0-4.1-1.9-4.1-4.1c0-2.2,1.9-4.2,4-4.2"/>
<path class="st0" d="M437.6-21.7c0,2.3-1.9,4.2-4.1,4.1c-2.2-0.1-4-2.1-3.9-4.3c0.1-2,1.9-3.8,3.9-3.9
	C435.8-25.9,437.6-24,437.6-21.7z"/>
<path class="st0" d="M297.7,201.9c0,2.2-1.8,4-4.1,4c-2.2,0-3.8-1.6-3.9-3.7c-0.1-2.3,1.5-4.1,3.8-4.2
	C295.8,198,297.7,199.7,297.7,201.9z"/>
<path class="st0" d="M144.1,37.1c2.2,0,4,1.9,3.9,4.2c-0.1,2.1-1.7,3.8-3.8,3.9c-2.1,0.1-4.2-1.8-4.2-4
	C140,39.1,142,37.1,144.1,37.1z"/>
<path class="st0" d="M290.2,154.9c0,2.3-1.8,4.2-4,4.1c-2-0.1-3.8-2-3.8-3.9c0-2.2,1.9-4.1,4.1-4
	C288.6,151.1,290.2,152.8,290.2,154.9z"/>
<path class="st0" d="M304.1,181.8c0,2.3-2,4.1-4.2,4c-2-0.1-3.8-1.9-3.8-3.9c-0.1-2.2,1.8-4.2,4-4.2
	C302.3,177.6,304.1,179.5,304.1,181.8z"/>
<path class="st0" d="M277.3,195.3c0.1,2.3-1.6,4.2-3.9,4.3c-2.1,0.1-4.1-1.9-4.1-4.1c0-2,1.7-3.8,3.7-4
	C275.3,191.3,277.2,193,277.3,195.3z"/>
<path class="st0" d="M511.6-42.5c0,2.2-1.5,3.9-3.6,4c-2.1,0.1-4.2-1.9-4.1-4c0.1-2,1.8-3.7,3.9-3.7C510-46.2,511.6-44.7,511.6-42.5
	z"/>
<path class="st0" d="M351.3,174.2c0.1,2.2-1.4,3.9-3.5,4c-2.2,0.1-4.2-1.7-4.2-3.9c0-2,1.8-3.8,3.9-3.8
	C349.5,170.5,351.2,172.1,351.3,174.2z"/>
<path class="st0" d="M310.4,161.6c-0.1,2-1.9,3.8-4,3.7c-2.1-0.1-3.7-1.8-3.7-3.9c0.1-2.1,1.8-3.8,3.9-3.7
	C308.7,157.7,310.5,159.6,310.4,161.6z"/>
<path class="st0" d="M325.5-30.4c-2.1,0-3.7-1.7-3.8-3.8c0-2.1,1.6-3.8,3.7-3.9c2.2-0.1,4.2,1.9,4.1,4
	C329.4-32,327.6-30.4,325.5-30.4z"/>
<path class="st0" d="M253.1,192.4c-2.1,0-3.7-1.7-3.7-3.8c0-2.1,1.7-3.7,3.8-3.7c2.1,0,3.8,1.8,3.8,3.8
	C256.9,190.7,255.1,192.4,253.1,192.4z"/>
<path class="st0" d="M256.5,121.6c-0.1,2.1-1.8,3.7-3.9,3.6c-2-0.1-3.8-2-3.7-3.9c0.1-2,1.9-3.6,4-3.5
	C255,117.7,256.6,119.4,256.5,121.6z"/>
<path class="st0" d="M290.9,222.3c0,2.1-1.6,3.8-3.8,3.7c-2,0-3.8-1.8-3.8-3.8c0-2,1.7-3.7,3.9-3.7
	C289.4,218.5,290.9,220.1,290.9,222.3z"/>
<path class="st0" d="M321,259.6c-2.1,0.1-3.9-1.5-4-3.5c-0.1-2,1.6-3.8,3.6-3.9c2.2-0.1,3.9,1.4,4,3.5
	C324.6,257.8,323.1,259.5,321,259.6z"/>
<path class="st0" d="M484.5-28.6c0,2-1.8,3.8-3.8,3.8c-2.1,0-3.8-1.6-3.8-3.7c0-2.1,1.6-3.7,3.7-3.7
	C482.8-32.3,484.5-30.7,484.5-28.6z"/>
<path class="st0" d="M488-52.6c3,1.7,3.7,2.9,3,4.9c-0.5,1.5-2.1,2.6-3.6,2.5c-1.7-0.1-3.2-1.5-3.4-3.2c-0.1-0.9,0.1-1.7,0.6-2.4
	C485.3-52,486.4-52.5,488-52.6z"/>
<path class="st0" d="M161.6,68c-0.1,2.2-1.8,3.7-4,3.5c-2-0.1-3.5-1.8-3.4-3.8c0.1-2.1,1.9-3.7,4.1-3.5
	C160.2,64.4,161.7,66.1,161.6,68z"/>
<path class="st0" d="M242.8,161.8c0.1,2.1-1.4,3.6-3.4,3.6c-2,0-3.6-1.5-3.7-3.4c-0.1-1.9,1.5-3.6,3.5-3.6
	C241.2,158.3,242.8,159.8,242.8,161.8z"/>
<path class="st0" d="M178.3,71.3c2,0.1,3.4,1.6,3.4,3.6c-0.1,2-1.6,3.4-3.6,3.4c-2-0.1-3.5-1.7-3.4-3.6
	C174.6,72.8,176.3,71.2,178.3,71.3z"/>
<path class="st0" d="M455.3,190.9c-1.9,0-3.5-1.7-3.5-3.6c0-2,1.6-3.6,3.5-3.6c1.9,0,3.6,1.7,3.6,3.6
	C458.9,189.2,457.1,190.9,455.3,190.9z"/>
<path class="st0" d="M275.3-7.3c0.1,1.9-1.4,3.6-3.4,3.7c-2.1,0.1-3.6-1.2-3.7-3.3c-0.1-2,1.3-3.6,3.3-3.7
	C273.4-10.7,275.1-9.2,275.3-7.3z"/>
<path class="st0" d="M150.6,17.3c1.9,0,3.5,1.6,3.5,3.6c0,2-1.7,3.6-3.5,3.6c-1.9,0-3.6-1.8-3.6-3.6C147,19.1,148.7,17.3,150.6,17.3
	z"/>
<path class="st0" d="M425.6,221.5c-0.1,2-1.6,3.4-3.7,3.3c-2-0.1-3.5-1.8-3.4-3.7c0.1-1.9,1.8-3.4,3.7-3.4
	C424.2,217.9,425.6,219.5,425.6,221.5z"/>
<path class="st0" d="M337.5,262.1c1.6-2.8,2.8-3.5,4.7-2.9c1.5,0.5,2.4,1.9,2.2,3.7c-0.2,1.5-1.3,2.6-2.8,2.8
	C339.7,266,338.7,265.1,337.5,262.1z"/>
<path class="st0" d="M394.8,231.8c1.6-0.1,3.3,1.5,3.5,3.1c0.2,1.6-1.3,3.4-3,3.6c-1.9,0.2-3.6-1.3-3.7-3.3
	C391.6,233.5,393.1,231.9,394.8,231.8z"/>
<path class="st0" d="M167.4-19.7c0.1,1.6-1.4,3.3-3.1,3.5c-2,0.2-3.6-1.2-3.7-3.2c-0.1-1.9,1.1-3.3,3-3.5
	C165.5-23.1,167.3-21.6,167.4-19.7z"/>
<path class="st0" d="M156.8-2.7c1.6-0.1,3.4,1.4,3.6,3c0.2,1.6-1.2,3.4-2.9,3.7c-1.8,0.3-3.7-1.3-3.7-3.2
	C153.7-0.9,155.1-2.5,156.8-2.7z"/>
<path class="st0" d="M184.2-16.5c2.8,1.4,3.5,2.3,3.1,4c-0.3,1.5-1.8,2.8-3.4,2.6c-1.4-0.1-2.6-1.2-2.9-2.6
	C180.7-14.2,181.4-15.1,184.2-16.5z"/>
<path class="st0" d="M266.4,219c-1.8,0-3.2-1.4-3.2-3.2c0-1.8,1.3-3.2,3.2-3.3c1.9-0.1,3.6,1.6,3.5,3.4
	C269.7,217.7,268.2,219.1,266.4,219z"/>
<path class="st0" d="M207.7-6.7c0.1,1.8-1.4,3.3-3.2,3.3c-1.7,0-3-1.2-3.2-2.8c-0.2-1.8,1.2-3.4,3-3.5
	C206.1-9.9,207.6-8.5,207.7-6.7z"/>
<path class="st0" d="M140.5,61.4c0,1.8-1.5,3.2-3.3,3.2c-1.7,0-3-1.2-3.1-2.9c-0.1-1.8,1.2-3.3,3.1-3.4
	C138.9,58.2,140.4,59.6,140.5,61.4z"/>
<path class="st0" d="M371.4,248.7c-0.1,1.8-1.6,3.1-3.5,3c-1.7-0.1-2.9-1.4-3-3.1c0-1.8,1.4-3.2,3.3-3.2
	C370.1,245.4,371.5,246.9,371.4,248.7z"/>
<path class="st0" d="M303.7,248.8c0.1,1.7-1.5,3.4-3.2,3.3c-1.6,0-3-1.4-3-3c-0.1-1.7,1.1-3.1,2.7-3.3
	C301.9,245.6,303.6,247.1,303.7,248.8z"/>
<path class="st0" d="M376-41.6c0,1.5-1.4,3-3,3.1c-1.7,0.1-3.2-1.4-3.1-3.3c0.1-1.6,1.5-2.9,3.1-2.8C374.6-44.5,376-43.1,376-41.6z"
	/>
<path class="st0" d="M254.5-13.3c-0.1,1.6-1.6,2.8-3.2,2.8c-1.8,0-3.1-1.5-2.9-3.4c0.2-1.7,1.6-2.8,3.3-2.6
	C253.3-16.4,254.6-14.9,254.5-13.3z"/>
<path class="st0" d="M573,179.4c0.1,1.7-1.1,3.1-2.7,3.2c-1.8,0.2-3.4-1.1-3.5-2.9c-0.1-1.7,1.4-3.3,3.2-3.2
	C571.6,176.5,572.9,177.7,573,179.4z"/>
<path class="st0" d="M437.6,113.2c0,1.7-1.2,3-2.9,3.1c-1.8,0.1-3.4-1.3-3.4-3.1c0-1.7,1.6-3.2,3.4-3.1
	C436.4,110.2,437.7,111.5,437.6,113.2z"/>
<path class="st0" d="M524.5,52.1c0,1.4-1.3,2.7-2.7,2.8c-1.6,0.1-3-1.4-3-3c0.1-1.4,1.4-2.7,2.8-2.8C523,49,524.5,50.5,524.5,52.1z"
	/>
<path class="st0" d="M572.3,112.2c0,1.4-1.2,2.8-2.6,2.9c-1.6,0.2-3.1-1.2-3.1-2.8c0-1.6,1.5-3.1,3-3
	C570.9,109.5,572.3,110.9,572.3,112.2z"/>
<path class="st0" d="M558.9,152.8c0,1.6-1.4,3-3,2.9c-1.4-0.1-2.7-1.5-2.7-2.8c0-1.5,1.5-3.1,3-2.9
	C557.7,150.1,558.9,151.4,558.9,152.8z"/>
<path class="st0" d="M248.6,141.5c0.1,1.6-1.4,3.1-2.9,3c-1.4-0.1-2.7-1.4-2.8-2.8c-0.1-1.5,1.5-3.1,3-3
	C247.3,138.8,248.6,140.1,248.6,141.5z"/>
<path class="st0" d="M460.6-38.3c1.5,0.1,2.6,1.2,2.7,2.7c0,1.7-1.3,2.9-3,2.9c-1.4-0.1-2.7-1.3-2.7-2.7
	C457.5-37,458.9-38.3,460.6-38.3z"/>
<path class="st0" d="M221.5,87.8c-0.1,1.6-1.5,2.8-3.2,2.7c-1.5-0.1-2.6-1.3-2.5-2.8c0.1-1.7,1.4-2.8,3.1-2.7
	C220.4,85.1,221.6,86.4,221.5,87.8z"/>
<path class="st0" d="M231.3-17.2c-1.7,0.1-3.1-1.2-3-2.8c0-1.4,1.3-2.6,2.7-2.7c1.7-0.1,3,1.2,3,2.8C234-18.4,232.9-17.3,231.3-17.2
	z"/>
<path class="st0" d="M198.7,78.5c1,0.2,2,0.8,2.3,2c0.2,0.5,0.1,1.1,0,1.6c-0.3,1.2-1.7,2.1-2.9,2c-1.1-0.1-2.1-1-2.3-2.2
	c-0.1-0.4-0.1-0.9,0-1.2c0.2-0.5,0.4-1,0.8-1.4C197.1,78.8,197.8,78.5,198.7,78.5z"/>
<path class="st0" d="M232.1,112.1c1.6,0.5,2.6,1.2,2.6,2.7c0.1,1.7-1,2.5-2.5,3c-1.8-0.1-2.9-1-2.9-2.9
	C229.3,113.2,230.4,112.4,232.1,112.1z"/>
<path class="st0" d="M565.7,132.5c0,1.5-1.1,2.7-2.7,2.7c-1.6,0-2.7-1.1-2.7-2.6c0-1.5,1.1-2.7,2.6-2.7
	C564.5,129.9,565.7,131,565.7,132.5z"/>
<path class="st0" d="M535.5,76.1c1.5,0.1,2.7,1.4,2.6,2.8c-0.1,1.4-1.6,2.6-2.9,2.5c-1.3-0.1-2.3-1.3-2.3-2.6
	C532.8,77.2,534.1,76,535.5,76.1z"/>
<path class="st0" d="M430.7,133.4c0,1.6-1.1,2.7-2.6,2.6c-1.5,0-2.7-1.3-2.6-2.8c0.1-1.3,1.2-2.4,2.5-2.4
	C429.4,130.7,430.6,131.8,430.7,133.4z"/>
<path class="st0" d="M549.3,103.2c1.5,0.1,2.7,1.3,2.6,2.8c0,1.5-1.3,2.6-2.8,2.6c-1.5,0-2.7-1.2-2.6-2.8
	C546.6,104.2,547.8,103.1,549.3,103.2z"/>
<path class="st0" d="M395.9-35.3c0.1,1.4-1.1,2.8-2.5,2.9c-1.3,0.1-2.5-0.9-2.7-2.2c-0.2-1.6,0.8-2.9,2.2-3.1
	C394.3-37.9,395.7-36.7,395.9-35.3z"/>
<path class="st0" d="M535.9,143.8c1.5,0,2.6,1.3,2.5,2.8c-0.1,1.4-1.1,2.4-2.4,2.4c-1.5,0.1-2.8-1.1-2.8-2.6
	C533.1,145,534.4,143.7,535.9,143.8z"/>
<path class="st0" d="M464.8,166.9c-0.4,1.8-1.2,2.8-3,2.7c-1.2-0.1-2.1-1.1-2.1-2.3c-0.1-1.2,0.6-2.3,1.8-2.6
	C463.2,164.2,464.1,165.2,464.8,166.9z"/>
<path class="st0" d="M512.5,72.1c0.6-1.7,1.5-2.7,3.2-2.4c1.2,0.2,1.9,1.3,1.9,2.5c0,1.2-0.8,2.3-2,2.4C513.8,75,513,74,512.5,72.1z
	"/>
<path class="st0" d="M282.9,242.5c-0.1,1-0.5,1.9-1.6,2.3c-0.5,0.2-1.1,0.3-1.6,0.2c-1.2-0.2-1.9-1.3-1.9-2.5c0-1.1,0.7-1.9,1.7-2.2
	c0.4-0.1,0.9-0.2,1.3-0.1c0.4,0.1,0.8,0.2,1.2,0.5C282.5,241.1,282.8,241.7,282.9,242.5z"/>
<path class="st0" d="M235.5,182.3c-0.1,1.3-1.2,2.4-2.5,2.4c-1.5,0-2.7-1.2-2.5-2.8c0.1-1.4,1.3-2.3,2.7-2.2
	C234.5,179.8,235.5,181,235.5,182.3z"/>
<path class="st0" d="M448.2,137.8c1.7,0.3,2.4,1.1,2.7,2.4c-0.2,1.5-1,2.6-2.7,2.5c-1-0.1-1.8-0.7-2.1-1.8
	C445.7,139.2,446.7,138.4,448.2,137.8z"/>
<path class="st0" d="M547.1,172.8c0.6-1.6,1.5-2.6,3.3-2c1,0.3,1.6,1.1,1.6,2.2c0,1.2-0.8,2.2-1.9,2.4c-0.4,0.1-0.9,0-1.2-0.1
	C547.8,175,547.3,174.2,547.1,172.8z"/>
<path class="st0" d="M139.2-6.4c0.1,1.3-1,2.5-2.2,2.6c-1.2,0.1-2.5-1.1-2.6-2.3c-0.1-1.2,1-2.5,2.3-2.6
	C137.9-8.8,139.1-7.7,139.2-6.4z"/>
<path class="st0" d="M306.7-39.2c-2.5,0.2-3.3-0.1-3.6-1.3c-0.2-0.9,0-1.7,0.7-2.3c0.8-0.8,2.3-0.8,3.1,0
	C307.8-41.8,307.8-40.6,306.7-39.2z"/>
<path class="st0" d="M540.3,126.2c1-2.1,1.6-2.6,2.9-2.3c1.2,0.2,2,1.2,1.9,2.4c-0.1,1.1-0.8,1.9-1.8,2.1
	C541.9,128.7,541.4,128.3,540.3,126.2z"/>
<path class="st0" d="M141.2-26.5c1.1-2.1,1.7-2.5,3-2.2c1.2,0.3,1.9,1.3,1.8,2.5c-0.1,1-0.8,1.8-1.9,2
	C142.8-23.9,142.2-24.4,141.2-26.5z"/>
<path class="st0" d="M279.9-25.4c-2.5,0.2-3.3-0.1-3.6-1.3c-0.2-0.9,0-1.7,0.7-2.3c0.8-0.8,2.4-0.8,3.1,0
	C281.1-27.9,281.1-26.7,279.9-25.4z"/>
<path class="st0" d="M349.8-48.1c1.1-2.1,1.7-2.5,3-2.2c1.2,0.3,1.9,1.3,1.8,2.5c-0.1,1-0.8,1.8-1.9,2
	C351.4-45.5,350.8-46,349.8-48.1z"/>
<path class="st0" d="M451.1,207.6c0,1.3-1.2,2.4-2.5,2.3c-1.1-0.1-2-1.1-2-2.3c0-1.2,0.9-2.2,2-2.3
	C449.9,205.2,451.1,206.3,451.1,207.6z"/>
<path class="st0" d="M528-38.1c1.1,0,2.2,0.9,2.3,2c0.1,1.1-0.9,2.2-2.1,2.3c-1.2,0.1-2.2-0.8-2.2-2C525.9-37.1,526.8-38.1,528-38.1
	z"/>
<path class="st0" d="M469.1-55.7c-0.3,1.4-1.1,2.2-2.6,2c-1-0.1-1.7-1.1-1.7-2.1c0-1,0.8-1.9,1.7-2.1
	C467.6-58.1,468.1-57.7,469.1-55.7z"/>
<path class="st0" d="M442.4-42.1c-0.2,1.4-1,2.3-2.5,2.2c-1-0.1-1.8-1-1.8-2c0-1,0.7-2,1.6-2.2C441.3-44.3,442.1-43.5,442.4-42.1z"
	/>
<path class="st0" d="M530.3,30.3c0.7,1.9,0.3,3.1-1.4,3.6c-0.9,0.1-1.6-0.3-2.2-1.1c-0.3-0.5-0.4-1-0.3-1.6
	C526.8,29.8,527.9,29.5,530.3,30.3z"/>
<path class="st0" d="M316.5,276c0.1,1.1-0.9,2.2-2,2.3c-1.2,0.1-2.2-0.8-2.3-2c-0.1-1.2,0.8-2.2,2-2.3
	C315.4,273.9,316.5,274.8,316.5,276z"/>
<path class="st0" d="M209.2-28.2c1.1-1.1,2.3-1.1,3.4-0.1c0.7,0.7,0.7,1.9,0.1,2.7c-0.7,0.8-1.8,1.1-2.6,0.6
	C208.6-25.8,208.6-26.9,209.2-28.2z"/>
<path class="st0" d="M415.6-28.1c-0.5,1.5-1.3,2.2-2.6,1.9c-0.9-0.2-1.5-0.9-1.5-1.9c0-1.4,0.8-2.1,2-2.2
	C414.7-30.1,415.3-29.4,415.6-28.1z"/>
<path class="st0" d="M246.4,206.8c1.1,0.2,1.7,1,2,2c-1,1.9-1.7,2.4-2.6,2.1c-0.9-0.3-1.5-1-1.4-1.9
	C244.3,207.6,245.1,206.9,246.4,206.8z"/>
<path class="st0" d="M258.4,237.4c-0.5-1.5-0.5-2.5,0.8-3.1c1.1-0.5,1.6-0.2,2.9,1.6C261.1,238.3,261.1,238.3,258.4,237.4z"/>
<path class="st0" d="M239.7-39.5c-2.4,1.1-2.4,1.1-3.7-1.2c1-1.8,1.6-2.2,2.7-1.9C239.7-42.3,240-41.6,239.7-39.5z"/>
<path class="st0" d="M123.9,32.7c1.4,0.5,2.1,1.2,1.8,2.6c-0.2,0.7-0.8,1.2-1.5,1.3c-1,0.1-1.7-0.4-2-1.3
	C121.6,34,122.4,33.2,123.9,32.7z"/>
<path class="st0" d="M483.5,106.3c-0.4,1.3-1,1.8-1.9,1.9c-2.6-1.6-2.6-2.3,0-3.9C482.7,104.5,483.2,105.2,483.5,106.3z"/>
<path class="st0" d="M130.4,16c-1.2-0.1-1.7-0.8-1.9-1.9c0.2-1.2,0.8-1.9,1.9-2C132.9,13.7,132.9,14.4,130.4,16z"/>
<path class="st0" d="M114.6-12.6c0.2-1.2,0.8-1.8,1.9-2c2.6,1.6,2.6,2.3,0.1,3.9C115.4-10.8,114.9-11.6,114.6-12.6z"/>
<path class="st0" d="M131.8,80.2c1,1,1,1.9,0.2,3c-1.1,0.6-2.1,0.6-2.9-0.6c-0.3-0.5-0.4-1.1-0.1-1.6
	C129.7,79.8,130.7,79.7,131.8,80.2z"/>
<path class="st0" d="M213.7,108.1c-0.2,1.1-0.8,1.8-2,1.8c-2.5-1.7-2.5-2.4,0.2-3.9C213,106.3,213.6,107,213.7,108.1z"/>
<path class="st0" d="M223.1-65.8c-0.9-1.2-0.9-2.1-0.1-3c0.7-0.4,1.5-0.6,2.2-0.1c0.8,0.5,1.1,1.3,0.7,2.2
	C225.4-65.4,224.4-65.5,223.1-65.8z"/>
<path class="st0" d="M531.1,167.2c-0.3,0.6-0.8,1.1-1.6,1.2c-0.9-0.1-1.6-0.5-1.7-1.5c-0.1-0.9,0.3-1.6,1.2-1.9
	C530,164.7,530.7,165.3,531.1,167.2z"/>
<path class="st0" d="M192.4-33.9c0,1.5-0.7,2.1-1.7,2.3c-1.6-1-2-1.8-1.4-2.7C189.9-35.3,190.7-35.2,192.4-33.9z"/>
<path class="st0" d="M560.8,64.9c0.2-1,0.8-1.5,1.7-1.6c2.4,1.2,2.4,1.9,0.2,3.4C561.5,66.5,560.9,66,560.8,64.9z"/>
<path class="st0" d="M115.2,55c0.2-1.2,0.8-1.8,2-1.7c0.8,0.1,1.5,1,1.3,1.9c-0.1,0.8-0.5,1.4-1.3,1.5
	C116.1,56.8,115.4,56.2,115.2,55z"/>
<path class="st0" d="M108.3,7.5c0.2-1.2,0.9-1.8,2.1-1.7c0.8,0.1,1.4,1,1.3,1.9c-0.1,0.8-0.6,1.4-1.3,1.4
	C109.2,9.4,108.5,8.8,108.3,7.5z"/>
<path class="st0" d="M256.4-33.7c1.2-1.8,1.8-2.1,2.6-1.7c0.8,0.5,0.9,1.1,0.2,2.9C258-31.7,257.2-32.2,256.4-33.7z"/>
<path class="st0" d="M123.1-31.4c-1.5-1.6-1.5-1.6,0-3.1c1-0.1,1.6,0.5,1.9,1.4C124.9-32,124.4-31.3,123.1-31.4z"/>
<path class="st0" d="M226.3,136.6c-1.4,0.3-1.9-0.3-2.3-1.1c0-1,0.4-1.6,1.3-1.9C227.3,134.6,227.3,134.6,226.3,136.6z"/>
<path class="st0" d="M334.2,281c1.2,0,1.6,0.6,1.9,1.3c0,1.1,0,1.1-1.8,1.9C332.8,282.7,332.8,282.7,334.2,281z"/>
<path class="st0" d="M216.3-46c-0.7-1.2-0.6-2,0.3-2.5c1.1-0.5,1.9,0,2.3,1.2C218.6-45.8,217.7-45.5,216.3-46z"/>
<path class="st0" d="M332.5-53.1c-1.1-0.1-1.6-0.5-1.8-1.2c-0.1-0.9,0.5-1.2,1.2-1.5C333.5-54.9,333.5-54.9,332.5-53.1z"/>
<path class="st0" d="M515.5,140.9c-0.7-0.2-1.3-0.5-1.3-1.4c0-0.9,0.6-1.2,1.4-1.4c0.3,0.2,0.8,0.3,0.9,0.6
	C517.1,139.8,517,139.8,515.5,140.9z"/>
<path class="st0" d="M245.6-59.8c-1.5,0.6-2.3,0.2-2.6-1.2c0.4-1.2,1.1-1.7,2.3-1.2C246.2-61.8,246.2-61,245.6-59.8z"/>
<path class="st0" d="M109.4,74.2c1.4-0.7,2.3-0.3,2.7,1.1c-0.3,1.2-1.1,1.8-2.2,1.3C108.6,76,108.8,75.1,109.4,74.2z"/>
<path class="st0" d="M360.4,268.3c1.4-1.4,2.1-0.9,2.7,0.2c0.1,1-0.6,1.3-1.1,1.6C360.8,270.1,360.5,269.4,360.4,268.3z"/>
<path class="st0" d="M294.5,268.3c1.2,1,1,1.8,0.2,2.6c-1.1,0.3-1.7-0.1-2-1C292.7,268.8,293.3,268.3,294.5,268.3z"/>
<path class="st0" d="M151.7,89.3c-0.8,0.3-1.4,0.1-1.9-0.5c-0.5-1.2,0.3-1.6,1.3-2C152.5,87.4,152.6,88.3,151.7,89.3z"/>
<path class="st0" d="M509.3,93.7c-1.3,0.2-2-0.1-2-1.4c0.4-1,1.1-1.2,2-0.9C510,92,510.2,92.7,509.3,93.7z"/>
<path class="st0" d="M102.2,28c0.3-1.2,0.8-1.6,1.8-1.4c0.9,0.5,1.1,1.1,0.6,2.1C103.7,29.5,102.9,29.2,102.2,28z"/>
<path class="st0" d="M416.6,241.7c-0.2,1-0.8,1.4-1.8,1.2c-0.9-0.5-1.1-1.1-0.6-2C415,240,415.4,240.2,416.6,241.7z"/>
<path class="st0" d="M387.7,256.6c-0.8-1.1-0.6-1.8,0.2-2.4c1.1-0.2,1.9,0.2,1.9,1.4C389.5,256.6,388.7,256.8,387.7,256.6z"/>
<path class="st0" d="M196.1-54.1c0.7-0.8,1.4-0.6,2.1,0c0.2,1-0.2,1.6-1.3,1.5C196.1-52.7,196-53.4,196.1-54.1z"/>
<path class="st0" d="M205.2-73.9c-0.4,1-0.9,1.3-1.7,1.1c-0.8-0.7-0.8-1.4,0.1-2.1C204.4-75.2,204.9-74.8,205.2-73.9z"/>
<path class="st0" d="M204.3,127.7c0.5-0.4,1-0.6,1.5-0.4c0.5,0.3,0.8,0.8,0.5,1.4c-0.3,0.5-0.7,0.8-1.3,0.6
	C204.2,129,204,128.4,204.3,127.7z"/>
<path class="st0" d="M360.2-68.9c0.4,1.1-0.1,1.6-1,1.6c-0.7,0.1-1.3-0.8-1-1.4C358.7-69.6,359.4-69.4,360.2-68.9z"/>
<path class="st0" d="M563.4,201c-1.1-0.5-1.2-1.1-0.8-1.8c0.8-0.6,1.5-0.5,2,0.3C564.7,200.4,564.2,200.7,563.4,201z"/>
<path class="st0" d="M467.9,214.2c0-0.8,0.4-1.3,1.3-1.3c1.3,0.5,1.1,1.3,0.5,2.2C468.7,215.3,468.2,215,467.9,214.2z"/>
<path class="st0" d="M170.5,162.3c0.2-0.6,0.5-1,1.2-1.1c1.3,0.4,1.4,1.1,0.6,2.1C171.3,163.7,170.7,163.3,170.5,162.3z"/>
<path class="st0" d="M380-62.8c0.6,0.8,0.7,1.5-0.2,2c-0.9,0.2-1.3-0.3-1.6-1C378.5-62.7,379-63.2,380-62.8z"/>
<path class="st0" d="M172.5,95c-0.4,1.1-1,1.3-1.7,1.1c-0.8-0.7-0.7-1.4,0-2.1C171.6,93.8,172.1,94.2,172.5,95z"/>
<path class="st0" d="M337.7-75.5c0.8-0.8,1.5-0.9,2.2-0.2c0.2,0.7,0,1.4-0.8,1.5C338.3-74,337.8-74.5,337.7-75.5z"/>
<path class="st0" d="M190.5,101c0.5-0.4,1-0.6,1.5-0.4c0.5,0.3,0.8,0.8,0.5,1.4c-0.3,0.5-0.7,0.8-1.3,0.6
	C190.4,102.3,190.2,101.7,190.5,101z"/>
<path class="st0" d="M443,226.9c0.6,0.8,0.7,1.5-0.2,2c-0.9,0.2-1.3-0.3-1.6-1C441.4,226.9,441.9,226.4,443,226.9z"/>
<path class="st0" d="M503.3,181.5c-1.3,0-1.7-0.4-1.8-1.2c0.2-0.6,0.6-0.9,1.2-1C504.1,179.7,503.9,180.5,503.3,181.5z"/>
<path class="st0" d="M494.8-70c0.5,1,0.3,1.5-0.4,1.9c-0.8,0.2-1.3-0.2-1.5-0.9C493-70.2,493.7-70.3,494.8-70z"/>
<path class="st0" d="M513.9-63.8c0.9,0,1.3,0.4,1.5,1c0,0.8-0.4,1.2-1.4,1.3C513-62.1,512.9-62.8,513.9-63.8z"/>
<path class="st0" d="M226.7,201.5c0.6,0.9,0.4,1.6-0.3,1.9c-1,0.4-1.4-0.3-1.6-1C225.2,201.3,225.8,201.3,226.7,201.5z"/>
<path class="st0" d="M541.1,58.1c0.8-0.8,1.5-0.9,2.2-0.2c0.2,0.7,0,1.4-0.8,1.5C541.7,59.6,541.2,59.2,541.1,58.1z"/>
<path class="st0" d="M436.3,249c-1.4,0-1.4,0-2.1-0.9c0.2-0.8,0.2-0.8,1.8-0.8C436.7,247.6,436.5,248.2,436.3,249z"/>
<path class="st0" d="M166.4,182.7c-0.1,0.6-0.6,0.8-1.1,1c-1-0.2-1.4-0.7-0.9-1.7C165.1,181.3,165.5,181.4,166.4,182.7z"/>
<path class="st0" d="M407.6,261.4c0.6-0.5,1.1-0.8,1.8-0.2c0.5,0.9,0.4,1.6-0.7,1.7C407.8,263.1,407.4,262.4,407.6,261.4z"/>
<path class="st0" d="M284.3-48.5c0.8-0.2,1.3-0.1,1.7,0.3c0.4,1-0.1,1.6-1,1.6C284-46.6,283.6-47.3,284.3-48.5z"/>
<path class="st0" d="M198.7,147.3c0.9,0.1,1.1,0.6,1.3,1.2c-0.7,0.9-0.7,0.9-1.8,1C197.6,148.7,197.5,148,198.7,147.3z"/>
<path class="st0" d="M219.7,154.4c0.7,0.8,0.8,1.5-0.2,2.1c-0.9,0.2-1.3-0.3-1.6-1C218.1,154.5,218.7,154.1,219.7,154.4z"/>
<path class="st0" d="M476.7,193.9c-0.1,0.6-0.6,0.9-1.1,1c-1-0.2-1.4-0.7-0.9-1.7C475.4,192.5,475.8,192.6,476.7,193.9z"/>
<path class="st0" d="M239.5,228.7c0.7,0.1,1.1,0.3,1.2,1c-0.2,0.6-0.7,0.9-1.2,0.6C238.7,229.8,239.1,229.2,239.5,228.7z"/>
<path class="st0" d="M231.5-87.4c-0.3,0.5-0.6,0.7-1,0.5c-0.4-0.2-0.7-0.5-0.5-0.9c0.2-0.6,0.7-0.9,1.2-0.5
	C231.5-88.1,231.8-87.7,231.5-87.4z"/>
<path class="st0" d="M509.4,158.9c0.6,0.5,0.7,1.1,0,1.6c-0.6,0-1-0.2-1.2-0.8C508.4,159.2,508.8,158.9,509.4,158.9z"/>
<path class="st0" d="M542.8,192.6c0.6-0.1,1,0.1,1.2,0.7c-0.1,0.6-0.5,0.9-1.1,0.9C542.4,193.7,542.1,193.2,542.8,192.6z"/>
<path class="st0" d="M461.8,234.7c0-0.9,0.4-1.4,1.2-1c0.6,0.4,0.3,0.9-0.2,1.4C462.5,235,462.1,234.8,461.8,234.7z"/>
<path class="st0" d="M170.6-39c-0.3-0.1-0.7-0.3-1-0.4c0-0.9,0.4-1.4,1.2-1C171.4-40.1,171.1-39.5,170.6-39z"/>
<path class="st0" d="M534.1,11.4c0.2-0.6,0.6-0.8,1.2-0.8c0.7,0.6,0.6,1.1,0,1.6C534.7,12.3,534.2,12,534.1,11.4z"/>
<path class="st0" d="M206.6,195.9c-0.2,0.5-0.3,0.9-0.8,0.9c-0.4,0-0.8-0.2-0.9-0.7c-0.1-0.5,0.5-1.1,1-1
	C206.2,195.3,206.4,195.7,206.6,195.9z"/>
<path class="st0" d="M522.1,118.5c0.6-0.1,1,0.1,1.2,0.7c-0.1,0.6-0.5,0.9-1.1,0.9C521.7,119.6,521.4,119.1,522.1,118.5z"/>
<path class="st0" d="M76.7,42.5c-0.6-0.1-1-0.4-1.1-1c0.2-0.6,0.7-0.9,1.2-0.6C77.6,41.4,77.2,42,76.7,42.5z"/>
<path class="st0" d="M192.2,168c0.4,0.4,0.7,0.9,0.1,1.4c-0.5,0.4-1.1,0.2-1.2-0.5C191,168.1,191.7,168.1,192.2,168z"/>
<path class="st0" d="M97.5,48.5c-0.3,0.1-0.7,0.3-1,0.4c-0.5-0.5-0.8-1-0.2-1.4C97.2,47,97.5,47.6,97.5,48.5z"/>
<path class="st0" d="M482.7,172.7c0.6,0.5,0.7,1.1,0,1.6c-0.6,0-1-0.2-1.2-0.8C481.7,172.9,482.1,172.7,482.7,172.7z"/>
<path class="st0" d="M144.8,109.3c-0.4-0.2-0.7-0.3-1.1-0.4c0-0.9,0.4-1.4,1.2-1C145.6,108.2,145.2,108.8,144.8,109.3z"/>
<path class="st0" d="M144.8,175.3c0.8,0.1,1.3,0.5,0.8,1.3c-0.1,0.2-0.8,0.4-1,0.3C143.9,176.3,144.1,175.7,144.8,175.3z"/>
<path class="st0" d="M496.6,201.1c-0.3,0.1-0.7,0.3-1.1,0.4c-0.5-0.5-0.8-1-0.1-1.4C496.2,199.6,496.6,200.2,496.6,201.1z"/>
<path class="st0" d="M265.7-54c-0.2,0.6-0.6,0.9-1.2,0.8c-0.6-0.6-0.7-1.1,0-1.6C265.1-54.9,265.5-54.6,265.7-54z"/>
<path class="st0" d="M528,98.6c0.5-0.2,0.8-0.3,1.2-0.5c0.4,0.5,0.8,1,0.1,1.4C528.5,100,528.2,99.4,528,98.6z"/>
<path class="st0" d="M429.2,267.5c0.6,0.5,0.7,1.1,0,1.6c-0.6,0-1-0.2-1.2-0.8C428.2,267.8,428.7,267.6,429.2,267.5z"/>
<path class="st0" d="M178.3,141.2c0.4,0.2,0.8,0.3,1.1,0.5c0,0.9-0.4,1.4-1.2,1C177.5,142.2,178,141.7,178.3,141.2z"/>
<path class="st0" d="M90.4,67.5c0.7,0.5,0.9,1,0.2,1.6c-0.2,0.1-0.9,0-1-0.3C89.1,68,89.7,67.7,90.4,67.5z"/>
<path class="st0" d="M82.5,21.7c0-0.9,0.4-1.4,1.2-1c0.6,0.4,0.2,0.9-0.1,1.4C83.2,22,82.9,21.9,82.5,21.7z"/>
<path class="st0" d="M403.1,282.1c-0.2,0.5-0.3,0.9-0.8,0.9c-0.4,0-0.8-0.2-0.9-0.7c-0.1-0.5,0.5-1.1,1-1
	C402.7,281.5,402.9,281.9,403.1,282.1z"/>
<path class="st0" d="M61.8,14.9c0.2-0.6,0.6-0.8,1.2-0.8c0.7,0.6,0.6,1.1,0,1.6C62.3,15.8,61.9,15.5,61.8,14.9z"/>
<path class="st0" d="M489.6,220.6c0.1,0.1,0.2,0.2,0.2,0.3c0,0.4-0.3,0.5-0.6,0.3c-0.1-0.1-0.2-0.2-0.3-0.3
	C489.1,220.8,489.3,220.7,489.6,220.6z"/>
<path class="st0" d="M158.6,135.2c0.1,0.1,0.2,0.2,0.2,0.3c0,0.4-0.3,0.5-0.6,0.3c-0.1-0.1-0.2-0.2-0.3-0.3
	C158.1,135.5,158.4,135.4,158.6,135.2z"/>
<path class="st0" d="M220,222.7c-0.1,0.3-0.4,0.4-0.7,0.2c-0.1-0.1-0.2-0.2-0.3-0.3c0.2-0.1,0.5-0.2,0.7-0.3
	C219.8,222.3,219.9,222.6,220,222.7z"/>
<path class="st0" d="M318.9-81.3c-0.2-0.1-0.5-0.2-0.7-0.4c0.1-0.1,0.2-0.2,0.3-0.3c0.3-0.2,0.6-0.1,0.6,0.3
	C319.1-81.6,319-81.4,318.9-81.3z"/>
<path class="st0" d="M488.8,152.8c0.1,0.2,0.3,0.5,0.2,0.7c-0.1,0.4-0.4,0.4-0.5,0C488.4,153.3,488.7,153,488.8,152.8z"/>
<path class="st0" d="M251.2-81.4c-0.1,0.2-0.2,0.4-0.3,0.6c-0.1-0.1-0.3-0.2-0.2-0.3c0.1-0.2,0.2-0.4,0.3-0.6
	C251-81.6,251.1-81.5,251.2-81.4z"/>
<path class="st0" d="M386.3-81.9c-0.1,0.1-0.2,0.2-0.3,0.2c-0.1-0.2-0.2-0.4-0.2-0.7c0-0.1,0.2-0.2,0.3-0.3
	C386.1-82.3,386.2-82.1,386.3-81.9z"/>
<path class="st0" d="M495.8,133c-0.1,0.3-0.4,0.4-0.7,0.2c-0.1-0.1-0.2-0.2-0.3-0.3c0.2-0.1,0.5-0.2,0.7-0.3
	C495.7,132.7,495.7,132.9,495.8,133z"/>
<path class="st0" d="M151.6,155.4c0.1,0.2,0.3,0.5,0.2,0.7c-0.1,0.4-0.4,0.3-0.5,0C151.3,155.8,151.5,155.6,151.6,155.4z"/>
<path class="st0" d="M89.9,0.8c0.1,0.1,0.2,0.2,0.3,0.3c-0.2,0.1-0.5,0.2-0.7,0.3c0,0-0.2-0.2-0.2-0.3C89.4,0.7,89.6,0.6,89.9,0.8z"
	/>
<path class="st0" d="M366.1-88.6c-0.1,0.1-0.2,0.2-0.3,0.3c-0.3,0.2-0.6,0.1-0.6-0.3c0-0.4,0.3-0.5,0.6-0.3
	C365.9-88.8,366-88.7,366.1-88.6z"/>
<path class="st0" d="M142.4-93.7c0.1-0.1,0.2-0.2,0.3-0.3c0.3-0.2,0.6-0.1,0.6,0.3c0,0.4-0.3,0.5-0.6,0.3
	C142.5-93.5,142.5-93.6,142.4-93.7z"/>
<path class="st0" d="M468.9,146.4c0.1,0.1,0.2,0.2,0.2,0.3c0,0.4-0.3,0.5-0.6,0.3c-0.1-0.1-0.2-0.2-0.3-0.3
	C468.4,146.7,468.6,146.6,468.9,146.4z"/>
<path class="st0" d="M210.3-94.6c0.1,0.2,0.3,0.5,0.3,0.7c-0.1,0.4-0.4,0.4-0.5,0C210-94.1,210.3-94.4,210.3-94.6z"/>
<path class="st0" d="M345.9-95.5c-0.1,0.4-0.3,0.5-0.6,0.3c-0.1-0.1-0.2-0.2-0.3-0.3c0.2-0.1,0.5-0.2,0.7-0.3
	C345.7-95.8,345.8-95.6,345.9-95.5z"/>
<path class="st0" d="M56.1,34.7c0.1,0.2,0.3,0.5,0.2,0.7c-0.1,0.4-0.4,0.4-0.5,0C55.8,35.2,56,34.9,56.1,34.7z"/>
<path class="st0" d="M185.3,121.4c0.1,0.1,0.2,0.2,0.2,0.3c0,0.4-0.3,0.5-0.6,0.3c-0.1-0.1-0.2-0.2-0.3-0.3
	C184.9,121.7,185.1,121.6,185.3,121.4z"/>
<path class="st0" d="M455,119.2c0.1,0.2,0.3,0.5,0.2,0.7c-0.1,0.4-0.4,0.3-0.5,0C454.6,119.6,454.9,119.4,455,119.2z"/>
<path class="st0" d="M69.7-5.8c0.1,0.2,0.3,0.5,0.2,0.7c-0.1,0.4-0.4,0.3-0.5,0C69.4-5.4,69.6-5.6,69.7-5.8z"/>
<path class="st0" d="M165,115.6c-0.1,0.1-0.2,0.2-0.3,0.2c-0.1-0.2-0.2-0.4-0.2-0.7c0-0.1,0.2-0.2,0.3-0.3
	C164.8,115.1,164.9,115.3,165,115.6z"/>
<path class="st0" d="M482.7,240.7c0.1,0.2,0.3,0.5,0.3,0.7c-0.1,0.4-0.4,0.4-0.5,0C482.4,241.2,482.6,241,482.7,240.7z"/>
<path class="st0" d="M569.2,44.9c-0.1,0.1-0.2,0.2-0.3,0.2c-0.1-0.2-0.2-0.4-0.2-0.7c0-0.1,0.2-0.2,0.3-0.3
	C569,44.4,569.1,44.7,569.2,44.9z"/>
<path class="st0" d="M502.4,112.3c0.1,0.2,0.3,0.5,0.2,0.7c-0.1,0.4-0.4,0.3-0.5,0C502,112.7,502.3,112.5,502.4,112.3z"/>
<path class="st0" d="M233.5,249.4c0.1,0.2,0.3,0.5,0.3,0.7c-0.1,0.4-0.4,0.4-0.5,0C233.1,249.8,233.4,249.6,233.5,249.4z"/>
<path class="st0" d="M149.9-114.4c0.1,0.2,0.3,0.5,0.2,0.7c-0.1,0.4-0.4,0.4-0.5,0C149.5-114,149.8-114.2,149.9-114.4z"/>
<path class="st0" d="M212.8,175.2c0.1,0.2,0.3,0.5,0.2,0.7c-0.1,0.4-0.4,0.3-0.5,0C212.5,175.7,212.7,175.4,212.8,175.2z"/>
<path class="st0" d="M124.4,102.3c-0.3,0.1-0.6,0-0.6-0.4c0-0.1,0.2-0.3,0.2-0.3c0.2,0.1,0.4,0.3,0.6,0.4
	C124.6,102.1,124.5,102.2,124.4,102.3z"/>
<path class="st0" d="M455.9,254.2c0.1,0.1,0.2,0.2,0.2,0.3c0,0.4-0.3,0.5-0.6,0.3c-0.1-0.1-0.2-0.2-0.3-0.3
	C455.5,254.4,455.7,254.3,455.9,254.2z"/>
<path class="st0" d="M69.9,61.4c0.1,0.2,0.3,0.5,0.3,0.7c-0.1,0.4-0.4,0.4-0.5,0C69.6,61.9,69.8,61.7,69.9,61.4z"/>
<path class="st0" d="M253.7,256.6c-0.3,0.1-0.6,0-0.6-0.4c0-0.1,0.2-0.3,0.2-0.3c0.2,0.1,0.4,0.3,0.6,0.4
	C253.9,256.4,253.8,256.5,253.7,256.6z"/>
<path class="st0" d="M104.2,95c0.1,0.2,0.3,0.5,0.3,0.7c-0.1,0.4-0.4,0.4-0.5,0C103.9,95.5,104.1,95.3,104.2,95z"/>
<path class="st0" d="M523,186.4c0.1,0.2,0.3,0.5,0.3,0.7c-0.1,0.4-0.4,0.4-0.5,0C522.7,186.9,522.9,186.6,523,186.4z"/>
<path class="st0" d="M185.4,189c0.1,0.2,0.3,0.5,0.3,0.7c-0.1,0.4-0.4,0.4-0.5,0C185,189.5,185.3,189.2,185.4,189z"/>
<path class="st0" d="M96.4-19.6c0.1,0.2,0.3,0.5,0.3,0.6c-0.1,0.4-0.4,0.4-0.5,0C96.1-19.1,96.3-19.4,96.4-19.6z"/>
<path class="st0" d="M274,262.3c0.1,0.2,0.3,0.5,0.2,0.7c-0.1,0.4-0.4,0.3-0.5,0C273.6,262.7,273.9,262.5,274,262.3z"/>
<path class="st0" d="M183.9-81.1c0.1,0.1,0.2,0.2,0.3,0.3c-0.2,0.1-0.5,0.2-0.7,0.3c0,0-0.2-0.2-0.2-0.3
	C183.3-81.2,183.6-81.3,183.9-81.1z"/>
<path class="st0" d="M103.2-39.4c-0.1,0.1-0.2,0.2-0.3,0.3c-0.3,0.2-0.6,0.1-0.6-0.3c0-0.4,0.3-0.5,0.6-0.3
	C103-39.7,103.1-39.5,103.2-39.4z"/>
<path class="st0" d="M138.7,195.9c0.1,0.2,0.3,0.5,0.2,0.7c-0.1,0.4-0.4,0.4-0.5,0C138.3,196.4,138.6,196.1,138.7,195.9z"/>
<path class="st0" d="M82-46.3c0.1-0.1,0.2-0.2,0.3-0.3c0.3-0.2,0.6-0.1,0.6,0.3c0,0.4-0.3,0.5-0.6,0.3C82.2-46.1,82.1-46.2,82-46.3z
	"/>
<path class="st0" d="M150-47.2c0.1,0.2,0.3,0.5,0.3,0.7c-0.1,0.4-0.4,0.4-0.5,0C149.7-46.7,149.9-47,150-47.2z"/>
<path class="st0" d="M419.8-48.9c0.1,0.2,0.3,0.5,0.2,0.7c-0.1,0.4-0.4,0.4-0.5,0C419.5-48.4,419.7-48.7,419.8-48.9z"/>
<path class="st0" d="M381.9,275.2c0.1,0.2,0.3,0.5,0.3,0.7c-0.1,0.4-0.4,0.4-0.5,0C381.6,275.7,381.8,275.4,381.9,275.2z"/>
<path class="st0" d="M158.5,203.1c-0.1-0.1-0.2-0.3-0.2-0.4c0.1-0.3,0.3-0.4,0.6-0.2c0.1,0.1,0.2,0.2,0.3,0.3
	C159,203,158.7,203,158.5,203.1z"/>
<path class="st0" d="M399.8-55.8c0.1,0.2,0.3,0.5,0.2,0.7c-0.1,0.4-0.4,0.4-0.5,0C399.5-55.4,399.7-55.6,399.8-55.8z"/>
<path class="st0" d="M534.4-56.7c0.1,0.2,0.3,0.5,0.2,0.7c-0.1,0.4-0.4,0.4-0.5,0C534.1-56.2,534.3-56.5,534.4-56.7z"/>
<path class="st0" d="M177.3-60.1c-0.2,0.1-0.5,0.2-0.7,0.3c0,0-0.2-0.2-0.2-0.3c0.1-0.4,0.3-0.5,0.6-0.3
	C177.1-60.3,177.2-60.2,177.3-60.1z"/>
<path class="st0" d="M109.5-60.1c0.1,0.2,0.3,0.5,0.3,0.7c-0.1,0.4-0.4,0.4-0.5,0C109.2-59.6,109.4-59.9,109.5-60.1z"/>
<path class="st0" d="M516.3,206.8c0.1,0.1,0.2,0.2,0.2,0.3c0,0.4-0.3,0.5-0.6,0.3c-0.1-0.1-0.2-0.2-0.3-0.3
	C515.8,207,516,206.9,516.3,206.8z"/>
<path class="st0" d="M183.3-148c-0.1,0.1-0.2,0.2-0.3,0.3c-0.3,0.2-0.6,0.1-0.6-0.3c0-0.4,0.3-0.5,0.6-0.3
	C183.2-148.3,183.3-148.1,183.3-148z"/>
<path class="st0" d="M311.9-61.9c0.1,0.2,0.3,0.5,0.3,0.7c-0.1,0.4-0.4,0.4-0.5,0C311.6-61.4,311.8-61.6,311.9-61.9z"/>
<path class="st0" d="M267.5,283.3c-0.3,0.1-0.6,0-0.6-0.4c0-0.1,0.2-0.3,0.2-0.3c0.2,0.1,0.4,0.3,0.6,0.4
	C267.7,283.1,267.6,283.2,267.5,283.3z"/>
<path class="st0" d="M422.7,288.5c-0.1,0.2-0.2,0.4-0.3,0.6c-0.1-0.1-0.3-0.2-0.2-0.3c0.1-0.2,0.2-0.4,0.3-0.6
	C422.5,288.3,422.6,288.4,422.7,288.5z"/>
<path class="st0" d="M355.3,289.1c-0.1,0.3-0.4,0.4-0.7,0.2c-0.1-0.1-0.2-0.2-0.2-0.3c0-0.1,0.2-0.2,0.3-0.3
	C355.1,288.6,355.3,288.7,355.3,289.1z"/>
<path class="st0" d="M287.2,289.9c0.1-0.1,0.2-0.2,0.3-0.3c0.3-0.2,0.6-0.1,0.6,0.3c0,0.4-0.3,0.5-0.6,0.3
	C287.3,290.1,287.3,290,287.2,289.9z"/>
<path class="st0" d="M446.5-62.7c0.1,0.2,0.3,0.5,0.3,0.7c-0.1,0.4-0.4,0.4-0.5,0C446.2-62.2,446.4-62.5,446.5-62.7z"/>
<path class="st0" d="M308,296.6c-0.1,0.1-0.2,0.2-0.3,0.2c-0.1-0.2-0.2-0.4-0.2-0.7c0-0.1,0.2-0.2,0.3-0.3
	C307.9,296.2,307.9,296.4,308,296.6z"/>
<path class="st0" d="M374.8,296.2c-0.1-0.1-0.2-0.3-0.2-0.4c0.1-0.3,0.3-0.4,0.6-0.2c0.1,0.1,0.2,0.2,0.3,0.3
	C375.3,296.1,375,296.2,374.8,296.2z"/>
<path class="st0" d="M426.6-69.1c0.1,0.1,0.2,0.2,0.2,0.3c0,0.4-0.3,0.5-0.6,0.3c-0.1-0.1-0.2-0.2-0.3-0.3
	C426.2-68.8,426.4-69,426.6-69.1z"/>
<path class="st0" d="M395.5,301.9c0.1,0.2,0.3,0.5,0.3,0.7c-0.1,0.4-0.4,0.4-0.5,0C395.2,302.4,395.4,302.2,395.5,301.9z"/>
<path class="st0" d="M199.4,216.4c-0.1,0.1-0.2,0.2-0.3,0.2c-0.1-0.2-0.2-0.4-0.2-0.7c0-0.1,0.2-0.2,0.3-0.3
	C199.3,216,199.3,216.2,199.4,216.4z"/>
<path class="st0" d="M406.6-75.6c-0.1,0.1-0.2,0.2-0.3,0.3c-0.3,0.2-0.6,0.1-0.6-0.3c0-0.4,0.3-0.5,0.6-0.3
	C406.4-75.9,406.5-75.7,406.6-75.6z"/>
<path class="st0" d="M473.9-76.5c0.1,0.2,0.3,0.5,0.2,0.7c-0.1,0.4-0.4,0.4-0.5,0C473.6-76,473.8-76.3,473.9-76.5z"/>
<path class="st0" d="M116.6-79.9c-0.1,0.4-0.3,0.5-0.6,0.3c-0.1-0.1-0.2-0.2-0.3-0.3c0.2-0.1,0.5-0.2,0.7-0.3
	C116.4-80.3,116.5-80.1,116.6-79.9z"/>
<path class="st0" d="M556.9,220.1c0.1,0.2,0.3,0.5,0.2,0.7c-0.1,0.4-0.4,0.4-0.5,0C556.5,220.5,556.7,220.3,556.9,220.1z"/>
</svg>
