<?xml version="1.0" encoding="utf-8"?>
<!-- Generator: Adobe Illustrator 28.2.0, SVG Export Plug-In . SVG Version: 6.00 Build 0)  -->
<svg version="1.1" id="Layer_1" xmlns="http://www.w3.org/2000/svg" xmlns:xlink="http://www.w3.org/1999/xlink" x="0px" y="0px"
	 viewBox="0 0 450 556" style="enable-background:new 0 0 450 556;" xml:space="preserve">
<style type="text/css">
	.st0{fill:#6C6C6C;}
</style>
<path class="st0" d="M574.1,265.9c0.1,14.5-11,23.9-23.5,24.4c-13.3,0.6-24.8-11.1-24.6-24.5c0.2-13,11.3-24.3,24.2-23.9
	C564.1,242.3,574,252.6,574.1,265.9z"/>
<path class="st0" d="M499.3,273.2c-12.6-0.2-23-10.8-22.9-23.5c0.1-12.6,10.8-23.2,23.4-23.1c12.5,0.1,23,10.9,22.9,23.5
	C522.5,262.9,511.8,273.4,499.3,273.2z"/>
<path class="st0" d="M515.1,176.4c12.8-0.7,23.5,10.3,23.6,22.6c0.1,12.8-10.1,23.2-23.1,23.2c-12.7,0-22.5-9.4-22.9-22.1
	C492.4,187,502.2,176.6,515.1,176.4z"/>
<path class="st0" d="M588.9,215.3c0.1,12.6-9.7,22.7-22.2,23c-12.5,0.3-23.5-10.7-23.3-23.3c0.2-12.3,10.6-22.4,23-22.4
	C578.9,192.7,588.8,202.7,588.9,215.3z"/>
<path class="st0" d="M601.2,260.8c11.5,0.2,21.2,10.2,21.1,21.6c-0.1,11.9-10.5,21.8-22.5,21.3c-11.7-0.5-20.6-10.2-20.3-22.1
	C579.8,269.9,589.5,260.5,601.2,260.8z"/>
<path class="st0" d="M582,185.7c-10.3,0.2-20.7-7.9-20.7-21.3c0-11.7,9.7-20.7,21.6-20.5c11.8,0.2,20.9,9.6,20.7,21.4
	C603.4,176.9,594,185.9,582,185.7z"/>
<path class="st0" d="M465.5,162c10.8,0.3,19.6,9.4,19.5,20.2c-0.1,11.2-9.8,20.5-20.8,19.9c-10.8-0.6-19.4-9.9-18.9-20.7
	C445.8,168.3,456.3,162.2,465.5,162z"/>
<path class="st0" d="M448.6,212.8c9.9-0.5,20.2,7.1,20.4,20.2c0.1,10.9-8.9,19.5-19.8,19.7c-11.5,0.1-20.4-8.7-20.3-20.2
	C429,221.5,437.6,212.9,448.6,212.8z"/>
<path class="st0" d="M483.4,280.9c10.9,0.8,19.4,10.4,18.6,21.1c-0.8,10.7-10.9,19.4-21.3,18.3c-11.1-1.2-18.7-10.4-17.8-21.6
	C463.7,288.2,473.1,280.1,483.4,280.9z"/>
<path class="st0" d="M619.1,114.5c-0.2,11.1-8.9,19.4-20,19.1c-10.4-0.3-18.9-9-19-19.3c-0.1-10.8,9-19.7,19.8-19.7
	C610.8,94.7,619.2,103.4,619.1,114.5z"/>
<path class="st0" d="M229.4,198.2c10.4,0.2,18.9,8.8,18.9,19.4c0,10.6-8.4,19.1-18.9,19.3c-10.8,0.1-20.1-9.2-19.6-19.9
	C210.1,206.7,219.1,198.1,229.4,198.2z"/>
<path class="st0" d="M669.9,130.5c-0.1,10.3-9.1,19.2-19.4,19.2c-11.1,0.1-19.6-8.9-19.3-20.1c0.3-10.8,8.7-18.7,19.6-18.5
	C661.3,111.3,670,120.1,669.9,130.5z"/>
<path class="st0" d="M616.4,212.5c10.9-0.2,19.3,7.6,19.7,18.3c0.4,11.2-8.1,20-19.1,20c-10.4,0-19.5-8.7-19.4-19
	C597.7,221.5,605.6,212.6,616.4,212.5z"/>
<path class="st0" d="M431.6,264.3c10.9,0,19.1,8.2,19.1,19c0,10.8-8.3,19.1-19.1,19.1c-11.3,0-19.3-8.6-19.2-19
	C412.4,272.2,421.2,264.1,431.6,264.3z"/>
<path class="st0" d="M245.4,148c10.4-0.2,19.1,8.1,19.1,19.2c-0.1,10.4-8,18.9-19.4,18.9c-10.8-0.1-19-8.4-18.9-19.2
	C226.2,156,234.5,147.9,245.4,148z"/>
<path class="st0" d="M532.1,167.6c-9.9,0.2-18.7-8.1-19.1-18.1c-0.4-10.4,8.1-19.7,18.5-19.8c8.3,0,18.4,5.6,19,18.1
	C551,158.5,542.6,167.4,532.1,167.6z"/>
<path class="st0" d="M551.7,316.5c0.2,10.4-8.7,19.3-19,19.1c-10.1-0.1-18.2-8.4-18.3-18.6c-0.2-11.2,8.3-19,18.8-19.1
	C543.2,297.8,551.5,306.5,551.7,316.5z"/>
<path class="st0" d="M416,216.6c-0.1,10.7-8.6,18.8-19.5,18.5c-10.3-0.3-18.2-8.4-18.1-18.7c0.1-10.7,8.6-18.9,19.4-18.5
	C408,198.1,416.1,206.5,416,216.6z"/>
<path class="st0" d="M296.6,333.9c10.3-0.2,18.4,7.8,18.6,18.1c0.1,10.5-7.6,18.5-17.9,18.7c-10.2,0.1-18.7-8-18.9-18
	C278.2,342.7,286.6,334.1,296.6,333.9z"/>
<path class="st0" d="M178.9,183.2c10.2,0.3,18,8.9,17.5,19.3c-0.5,9.8-8.7,17.4-18.5,17.1c-9.6-0.3-17.8-8.6-17.8-18.1
	C160.1,191.5,169,182.9,178.9,183.2z"/>
<path class="st0" d="M381.3,285.6c-10,0.2-18.7-8.3-18.8-18.3c-0.1-10.1,8.3-18.3,18.6-18.3c10,0.1,17.7,7.6,18,17.5
	C399.4,276.9,391.5,285.4,381.3,285.6z"/>
<path class="st0" d="M162.6,270.3c-10.1,0.2-18.4-8-18.4-18.2c0-10,7.4-17.7,17.3-18.1c11.5-0.4,18.5,8,19.1,17.5
	C181.3,261.3,172.6,270.1,162.6,270.3z"/>
<path class="st0" d="M263.2,267.3c9.9-0.3,18.7,8.4,18.6,18.3c-0.1,9.5-8.2,17.8-17.8,18c-9.7,0.2-17.9-7.5-18.3-17.2
	C245.2,276.2,253.1,267.6,263.2,267.3z"/>
<path class="st0" d="M414.2,148c10.3-0.4,18.3,7.8,18.4,18.1c0.1,9.7-8.1,17.5-17.9,17.6c-10.4,0.1-18.4-7.8-18.2-18.2
	C396.6,155.7,404.2,148.1,414.2,148z"/>
<path class="st0" d="M451.1,552c9.6,0,17.7,8.1,17.8,17.8c0.2,9.6-7.8,17.9-17.4,18.2c-10,0.3-18.5-8.2-18.3-18.3
	C433.4,560.1,441.6,551.9,451.1,552z"/>
<path class="st0" d="M331,132.2c0.2,9.6-7.8,17.9-17.4,18.2c-9.5,0.3-17.9-7.6-18.3-17.2c-0.4-10.1,7.9-18.8,17.8-18.8
	C322.7,114.5,330.8,122.6,331,132.2z"/>
<path class="st0" d="M332,302.4c-0.4,9.9-8.5,17.2-18.6,16.9c-9.9-0.3-17.6-8.6-17.1-18.4c0.5-9.8,8.6-17.2,18.7-16.9
	C324.9,284.3,332.4,292.5,332,302.4z"/>
<path class="st0" d="M313.7,183.6c-0.3,9.9-8.3,17.4-18.3,17.2c-10-0.2-17.6-8.1-17.3-18.1c0.2-9.9,8.2-17.4,18.3-17.2
	C306.2,165.6,314,173.8,313.7,183.6z"/>
<path class="st0" d="M195,168.4c-10.1,0.2-18-7.3-18.2-17.2c-0.2-9.9,7.4-17.9,17.4-18.1c10-0.2,18,7.4,18.3,17.2
	C212.7,160.2,204.9,168.3,195,168.4z"/>
<path class="st0" d="M418.2,554.1c-0.2,9.9-8,17.5-18.1,17.3c-9.9-0.1-17.8-8.1-17.6-18c0.2-9.9,8.2-17.5,18.2-17.3
	C410.7,536.3,418.4,544.2,418.2,554.1z"/>
<path class="st0" d="M230.7,268.2c0,9.6-8.1,17.9-17.7,17.9c-9.6,0-17.7-8.1-17.8-17.8c0-9.8,8-17.9,17.7-18
	C222.4,250.3,230.7,258.6,230.7,268.2z"/>
<path class="st0" d="M381.5,150.1c-0.2,9.6-8.7,17.8-18.1,17.5c-9.7-0.3-17.5-8.5-17.3-18.3c0.2-9.7,8.5-17.8,18.1-17.5
	C373.8,132.1,381.7,140.5,381.5,150.1z"/>
<path class="st0" d="M484.9,519c0.2,9.9-7.6,17.8-17.5,17.8c-9.7,0.1-17.2-7-17.6-16.6c-0.4-10.1,6.9-18.1,16.9-18.4
	C476.6,501.5,484.7,509.1,484.9,519z"/>
<path class="st0" d="M535.3,536.9c-0.2,10.1-8,17.4-18.2,17.1c-9.5-0.3-16.9-7.9-17-17.3c-0.1-9.8,7.8-17.7,17.8-17.7
	C527.9,519.1,535.5,526.9,535.3,536.9z"/>
<path class="st0" d="M211.1,82.4c9.7,0.3,17.7,8.7,17.3,18.3c-0.3,9.6-9.1,17.7-18.5,17.2c-9.5-0.6-16.7-8.3-16.6-17.8
	C193.4,87.9,203.1,82.6,211.1,82.4z"/>
<path class="st0" d="M245.4,115.3c0.4-9.4,8.1-16.6,17.6-16.3c9.6,0.2,17.6,8.9,17,18.3c-0.6,9.3-8.5,16.5-17.9,16.3
	C252.2,133.3,244.9,125.4,245.4,115.3z"/>
<path class="st0" d="M363.9,200.7c-0.3,9.3-8.1,16.9-17.5,16.8c-9.9-0.1-17.4-8-17-18.1c0.4-9.4,8.3-16.7,17.7-16.4
	C356.4,183.5,364.2,191.7,363.9,200.7z"/>
<path class="st0" d="M94,303.7c-9.5-0.3-16.7-8-16.5-17.6c0.2-9.5,8.1-17,17.5-16.7c9.2,0.3,17.1,8.7,16.8,17.7
	C111.4,296.3,103.3,304,94,303.7z"/>
<path class="st0" d="M297,235c-0.1,9.2-8.1,17.1-17.4,17c-9.5-0.1-16.9-7.6-16.9-17.3c0.1-9.6,7.7-17.2,17.1-17.1
	C289,217.7,297.1,225.9,297,235z"/>
<path class="st0" d="M145,285.8c9.6,0,17,7.3,17,16.9c0,9.6-7.5,17.1-17,17.1c-9.3,0-17.5-7.9-17.3-17.1
	C128,294.6,133.8,285.8,145,285.8z"/>
<path class="st0" d="M416.5,520.3c-9.3-0.1-17.5-8-17.2-17.1c0.3-8.3,6.2-16.9,17.3-16.9c9.6,0,17,7.4,17,17
	C433.5,512.9,426,520.3,416.5,520.3z"/>
<path class="st0" d="M347.2,251c0,9.5-7.5,16.9-17.2,16.7c-9.1-0.1-16.6-7.2-16.7-16.2c-0.1-10,7.5-17.3,16.7-17.2
	C339.8,234.3,347.2,241.5,347.2,251z"/>
<path class="st0" d="M128.8,370.1c-8.9-0.1-16.4-7.6-16.5-16.6c-0.1-9.3,8.1-17.3,17.2-16.9c9,0.5,16,8,15.8,17.1
	C145.1,362.8,137.6,370.2,128.8,370.1z"/>
<path class="st0" d="M246.1,352.8c-8.9-0.2-16-7.6-16-16.6c0-9.1,7.1-16.4,16.1-16.6c9.1-0.2,17.1,8,16.8,17.2
	C262.6,345.5,254.8,352.9,246.1,352.8z"/>
<path class="st0" d="M381.5,318c-0.1,9-7.4,16.2-16.5,16.2c-9.7,0-16.9-7.4-16.5-17.2c0.4-9.2,7.6-16,16.9-15.7
	C374.4,301.6,381.6,309,381.5,318z"/>
<path class="st0" d="M415.8,318.7c9.1,0.2,16,7.3,16,16.5c-0.1,9.6-7.5,16.6-17.3,16.2c-9-0.4-16-8-15.6-17
	C399.3,325.5,406.8,318.5,415.8,318.7z"/>
<path class="st0" d="M295.1,65.4c0.2,8.9-7.1,16.4-16.2,16.5c-9.3,0.1-16.4-6.7-16.5-16c-0.1-9.3,6.8-16.5,16-16.6
	C287.5,49.2,295,56.4,295.1,65.4z"/>
<path class="st0" d="M230.1,370.5c9.1-0.1,16.3,7.1,16.3,16.3c0,9.3-7,16.3-16.2,16.3c-9.1,0-16.5-7.3-16.5-16.2
	C213.7,377.9,221.1,370.5,230.1,370.5z"/>
<path class="st0" d="M179.6,353.2c9,0.1,16.4,7.5,16.4,16.4c0,8.9-7.5,16.2-16.5,16.2c-9.2,0-16.2-7.1-16.2-16.3
	C163.4,360.3,170.5,353.1,179.6,353.2z"/>
<path class="st0" d="M345.4,82.3c0.1,9-7.3,16.1-16.8,15.9C320.1,98,313,90.4,312.9,82c-0.1-8.8,7.6-16.4,16.5-16.4
	C338.6,65.6,345.5,72.9,345.4,82.3z"/>
<path class="st0" d="M111,251.9c-8.5,0.2-15.8-6.5-16.3-15c-0.5-9.1,6.5-16.7,15.4-17c8.7-0.3,16.6,7.5,16.5,16.1
	C126.6,244.4,119.4,251.7,111,251.9z"/>
<path class="st0" d="M533.6,501.9c-8.4-0.2-15.6-7.4-15.7-15.8c-0.1-8.7,7.7-16.5,16.4-16.2c8.9,0.2,15.9,7.9,15.5,16.9
	C549.4,495.3,542.1,502.1,533.6,501.9z"/>
<path class="st0" d="M649.1,181.1c0,9.1-7.4,16.4-16.3,16.1c-8.8-0.2-16.3-8.2-16-16.8c0.4-8.5,7.5-15.3,16.1-15.4
	C642.2,164.8,649.1,171.8,649.1,181.1z"/>
<path class="st0" d="M399.3,401.5c-8.9,0-15.7-6.7-15.8-15.6c-0.1-9.3,7-16.3,16.4-16c8.6,0.2,15.7,7.6,15.5,16.1
	C415.2,394.6,408,401.5,399.3,401.5z"/>
<path class="st0" d="M243.6,49.7c-0.1,8.8-7.2,15.4-16.1,15.2c-8.8-0.2-15.5-7.5-15.1-16.2c0.4-8.4,7.1-14.6,15.6-14.7
	C236.8,34,243.8,41,243.6,49.7z"/>
<path class="st0" d="M652.2,248.8c0-8.6,7.3-15.8,15.7-15.5c8.1,0.3,14.9,7.1,15.2,15.2c0.3,8.5-6.8,15.9-15.3,16.1
	C659.4,264.6,652.2,257.4,652.2,248.8z"/>
<path class="st0" d="M382.9,589c8.5-0.2,15.9,7.2,15.7,15.7c-0.1,8.1-7,15.1-15.1,15.3c-8.1,0.2-15.1-6.4-15.5-14.6
	C367.6,596.5,374.3,589.1,382.9,589z"/>
<path class="st0" d="M366.6,436.8c-0.3-8.5,6.9-15.9,15.5-15.9c8.1,0,14.9,6.7,15.2,15c0.2,8.8-6.8,16-15.3,16
	C373.9,451.8,366.9,444.9,366.6,436.8z"/>
<path class="st0" d="M316.9,623.7c8.2,0.3,15,7.4,14.9,15.5c-0.1,8.5-8,15.8-16.3,15.1c-8.3-0.7-14.4-7.6-14.1-16.1
	C301.6,629.8,308.5,623.4,316.9,623.7z"/>
<path class="st0" d="M564.5,96.6c0.2,8.2-6.4,15.2-14.6,15.5c-9,0.4-15.9-6-16.1-14.9c-0.1-8.5,6-15.2,14.4-15.6
	C556.9,81.2,564.3,88,564.5,96.6z"/>
<path class="st0" d="M211.1,318.7c0.1,8.2-6.5,15.1-14.7,15.4c-9,0.4-15.9-6.1-15.9-15c-0.1-8.5,6.1-15.2,14.5-15.5
	C203.7,303.3,211,310.1,211.1,318.7z"/>
<path class="st0" d="M75.2,218.5c0.1,8-6.7,15.1-14.8,15.4c-8.2,0.3-15.1-6.2-15.5-14.4c-0.4-9,6.2-15.9,15-15.8
	C68.2,203.7,75.1,210.4,75.2,218.5z"/>
<path class="st0" d="M265.4,402.6c0.2-8.2,7.2-14.9,15.4-14.9c8.9,0.1,15.4,7.1,15,16.1c-0.4,8.4-7.1,14.5-15.7,14.2
	C272,417.8,265.2,410.7,265.4,402.6z"/>
<path class="st0" d="M681.4,79.5c0.1,8.5-6.4,15.1-14.8,15.1c-8.2,0-15.2-6.8-15.3-14.9c-0.1-8,7-15.1,15-15.2
	C674.6,64.5,681.3,71.2,681.4,79.5z"/>
<path class="st0" d="M348.8,353.5c8,0.1,15,7.1,15,15.1c-0.1,8-7,14.9-15.1,14.9c-8.2,0-14.8-6.7-14.7-15
	C333.9,360.2,340.7,353.4,348.8,353.5z"/>
<path class="st0" d="M496,131.8c-0.2,8.3-7,14.8-15.2,14.5c-8.1-0.3-14.9-7.5-14.6-15.4c0.3-8,7.5-14.8,15.5-14.6
	C489.7,116.6,496.2,123.6,496,131.8z"/>
<path class="st0" d="M431,100.4c8.2,0.2,15.1,7.2,14.8,15.2c-0.3,8.1-7.5,14.9-15.5,14.7c-8.3-0.2-14.7-7-14.5-15.4
	C415.9,106.4,422.4,100.2,431,100.4z"/>
<path class="st0" d="M93.1,337.3c0,8.4-6.7,15-15,15c-8.1,0-15.2-7.1-15.1-15.1c0-8.1,7-14.8,15.3-14.8
	C86.8,322.4,93.2,328.8,93.1,337.3z"/>
<path class="st0" d="M501.3,572.5c8.3-0.2,15.4,6.5,15.4,14.6c0.1,8.1-7,14.9-15.2,14.9c-8.1-0.1-14.3-6.1-14.6-14.1
	C486.6,579.3,492.8,572.7,501.3,572.5z"/>
<path class="st0" d="M58.5,269.7c-0.2,8.3-7.2,14.9-15.3,14.5c-7.8-0.4-14.1-7-14.2-14.7c-0.1-8,7-15.2,15-15.1
	C52,254.5,58.7,261.5,58.5,269.7z"/>
<path class="st0" d="M715.7,146.4c0,8.3-6.7,15.1-14.9,14.9c-8.1-0.1-15-7.3-14.7-15.3c0.3-7.7,6.9-14.2,14.5-14.5
	C708.7,131.3,715.6,138.2,715.7,146.4z"/>
<path class="st0" d="M142.4,184.8c0.2,8.2-6.6,15.3-14.7,15.2c-7.8-0.1-14.3-6.5-14.6-14.3c-0.3-8,6.8-15.3,14.8-15.3
	C135.6,170.5,142.2,177.1,142.4,184.8z"/>
<path class="st0" d="M394.5,98.7c0.2,7.8-6.1,14.6-13.9,15c-8.1,0.4-15.3-6.6-15.2-14.8c0.1-7.8,6.7-14.5,14.4-14.5
	C387.5,84.3,394.3,90.9,394.5,98.7z"/>
<path class="st0" d="M91.4,167.8c0.1,7.9-5.9,14.5-13.7,14.8c-8,0.3-15.1-6.7-15-14.8c0.2-7.7,6.8-14.3,14.4-14.3
	C84.9,153.5,91.3,159.9,91.4,167.8z"/>
<path class="st0" d="M380,487.5c-0.2,7.9-7,14.3-14.6,13.9c-7.7-0.4-14.1-7.3-13.8-14.9c0.3-7.7,7.2-14.2,14.8-13.9
	C374.3,473,380.2,479.5,380,487.5z"/>
<path class="st0" d="M483.1,454.5c7.8-0.1,14.5,6.4,14.6,14.1c0,7.8-6.6,14.2-14.5,14.1c-7.7-0.1-13.5-5.8-13.8-13.5
	C469.1,461.1,475.1,454.7,483.1,454.5z"/>
<path class="st0" d="M-94,219.4c0.2,8.1-5.9,14.5-13.8,14.8c-7.6,0.2-14.5-6.4-14.7-14.1c-0.2-7.7,6.3-14.5,14-14.8
	C-100.8,205.1-94.2,211.5-94,219.4z"/>
<path class="st0" d="M318.7,588.3c0-7.7,5.7-13.7,13.4-13.9c7.9-0.3,14.7,6.2,14.7,14c0,7.8-6.9,14.4-14.7,14.1
	C324.5,602.1,318.7,595.9,318.7,588.3z"/>
<path class="st0" d="M159.9,96.8c-8-0.2-13.9-6.6-13.5-14.7c0.4-7.5,6.7-13.3,14.1-13.2c7.2,0.2,13.6,6.6,13.8,13.8
	C174.4,90.2,167.5,97,159.9,96.8z"/>
<path class="st0" d="M684.1,211c-7.5,0.2-13.7-5.7-14-13.3c-0.3-8,6.1-14.7,13.9-14.5c7.2,0.2,13.7,6.7,13.7,13.9
	C697.7,204.3,691.3,210.8,684.1,211z"/>
<path class="st0" d="M349.4,551.5c-7.5-0.2-13.4-6.3-13.4-13.9c0-7.5,6.1-13.7,13.5-13.8c7.6-0.1,14.5,7,14.1,14.5
	C363.3,545.6,356.7,551.7,349.4,551.5z"/>
<path class="st0" d="M157.7,134.7c0,7.6-6,13.6-13.5,13.7c-7.3,0.1-13.8-6.1-14.1-13.4c-0.3-7.6,6.7-14.5,14.3-14.3
	C151.8,121,157.7,127.2,157.7,134.7z"/>
<path class="st0" d="M265.4,636.4c-7.6-0.1-13.4-6-13.4-13.7c0-7.7,5.8-13.4,13.5-13.5c8-0.1,14.6,6.5,14.1,14.2
	C279.2,630.8,273,636.5,265.4,636.4z"/>
<path class="st0" d="M597.2,333.3c-0.2,7.6-6.3,13.5-13.8,13.5c-7.3,0-13.7-6.4-13.9-13.7c-0.1-7.6,7-14.5,14.6-14.1
	C591.6,319.4,597.4,325.7,597.2,333.3z"/>
<path class="st0" d="M-145.2,204.1c-0.3,7.4-7,13.6-14.3,13.2c-7.5-0.5-13.2-7.1-12.7-14.6c0.5-7,6.8-12.8,13.7-12.7
	C-151.2,190.1-145,196.7-145.2,204.1z"/>
<path class="st0" d="M-142.3,166.3c-7.8,0.1-13.8-5.7-13.8-13.3c0-7.5,6.2-13.5,13.8-13.3c7.3,0.1,12.9,5.6,13.2,12.8
	C-128.8,160.1-134.6,166.2-142.3,166.3z"/>
<path class="st0" d="M446.1,452.2c0.2,7.2-5.3,13.1-12.5,13.5c-7.9,0.4-13.9-5.1-14.1-12.9c-0.2-7.3,5.3-13.2,12.5-13.5
	C439.7,438.9,445.9,444.6,446.1,452.2z"/>
<path class="st0" d="M433.5,607.4c7.3-0.1,13.1,5.3,13.5,12.5c0.4,7.8-5.3,13.9-13.1,14c-7.3,0.1-13.2-5.3-13.6-12.5
	C420,613.8,425.9,607.5,433.5,607.4z"/>
<path class="st0" d="M730.4,96.3c-0.3,6.9-6.3,12.8-13.2,12.9c-7.4,0.1-13.4-6.3-13.2-13.8c0.2-7.1,6-12.9,13-12.9
	C724.4,82.4,730.7,89,730.4,96.3z"/>
<path class="st0" d="M66.3,505.8c-0.2-7.7,5.7-13.9,13.1-13.9c6.9,0.1,13,6,13.3,12.9c0.3,7.3-6,13.9-13.3,13.9
	C72.4,518.7,66.5,513,66.3,505.8z"/>
<path class="st0" d="M39.5,151.4c0.2,7.3-5.1,13.2-12.2,13.7c-7.1,0.5-14-6.1-14-13.3c0-6.9,6.1-13,13-13.1
	C33.5,138.6,39.3,144.2,39.5,151.4z"/>
<path class="st0" d="M651.9,286.4c7.2,0.3,12.5,6,12.4,13.4c-0.1,7.3-5.7,12.8-13,12.7c-7.5,0-13.7-6.5-13.1-13.8
	C638.7,291.6,644.9,286.2,651.9,286.4z"/>
<path class="st0" d="M479,351.3c0,7.3-5.5,12.9-12.8,13c-7.2,0.1-13.1-5.5-13.4-12.6c-0.3-7.4,6-13.7,13.5-13.5
	C473.6,338.3,479.1,344,479,351.3z"/>
<path class="st0" d="M9.2,215.4c-7.1,0-13.1-5.9-13.1-12.9c0-7,6-12.9,13.1-13c7.2,0,12.8,5.7,12.8,13
	C22.1,209.9,16.5,215.5,9.2,215.4z"/>
<path class="st0" d="M313,689.6c0,7.3-5.6,12.9-12.9,12.9c-7.1-0.1-13-6-13-13c0-7,6.1-12.9,13.1-12.9
	C307.4,676.6,313,682.3,313,689.6z"/>
<path class="st0" d="M331.8,406.2c7.1,0.2,13,6.3,12.7,13.3c-0.2,6.9-6.6,12.9-13.4,12.7c-7.2-0.2-12.6-6.1-12.5-13.4
	C318.8,411.4,324.5,406,331.8,406.2z"/>
<path class="st0" d="M-79.2,169.6c-0.2,7.2-6.2,12.9-13.3,12.6c-6.9-0.3-12.9-6.7-12.7-13.5c0.3-7,6.5-12.7,13.5-12.5
	C-84.3,156.4-79,162.1-79.2,169.6z"/>
<path class="st0" d="M-19.7,253.6c-0.2-7.4,5.1-13.2,12.4-13.4c7.1-0.2,13.2,5.5,13.5,12.5c0.3,6.8-5.8,13.2-12.7,13.4
	C-13.5,266.5-19.5,260.8-19.7,253.6z"/>
<path class="st0" d="M-44.9,237.1c0,7.2-5.9,12.9-13,12.6c-6.6-0.2-12.2-5.8-12.5-12.3c-0.3-6.8,5.8-13.1,12.7-13.2
	C-50.7,224.1-44.8,230-44.9,237.1z"/>
<path class="st0" d="M-24.2,122.9c6.8-0.1,13,6.1,13,12.9c0,6.9-6.3,12.8-13.2,12.6c-6.7-0.2-12-5.6-12.2-12.3
	C-36.9,128.9-31.3,123-24.2,122.9z"/>
<path class="st0" d="M163.3,407.4c6.8,0,13,6.2,12.9,13c-0.1,6.9-6.4,12.8-13.3,12.6c-6.6-0.2-12-5.7-12.1-12.5
	C150.6,413.3,156.3,407.4,163.3,407.4z"/>
<path class="st0" d="M379.5,654.8c0.1,7.2-5.7,13.1-12.7,12.9c-6.6-0.1-12.2-5.7-12.4-12.4c-0.2-6.8,6.2-13.2,12.9-13
	C373.9,642.6,379.3,648.1,379.5,654.8z"/>
<path class="st0" d="M130.4,510c6.9,0.2,12.2,5.6,12.2,12.4c0,7.3-5.7,12.9-13.1,12.6c-6.8-0.2-12.4-5.8-12.4-12.4
	C117,515.6,123.2,509.8,130.4,510z"/>
<path class="st0" d="M249.7,686c-7,0.1-12.4-5-12.7-11.9c-0.3-7.4,5.1-13.1,12.5-13.1c7.3,0,13.2,6,12.9,13
	C262.1,680.6,256.4,685.9,249.7,686z"/>
<path class="st0" d="M264.5,466c-6.9-0.1-12.2-5.2-12.4-12c-0.2-7.2,5.4-12.8,12.7-12.8c6.8,0.1,12.3,5.3,12.5,12
	C277.6,460.2,271.7,466,264.5,466z"/>
<path class="st0" d="M226.4,437c0.3,6.7-4.9,12.5-11.6,13c-6.8,0.5-13.2-5.6-13.2-12.6c0-6.6,5.7-12.4,12.3-12.5
	C220.3,424.7,226.1,430.3,226.4,437z"/>
<path class="st0" d="M327.7,470c-0.1,6.7-5.7,12.2-12.4,12.3c-6.5,0-12.3-5.7-12.5-12.3c-0.2-6.9,6.2-13.2,13-12.9
	C322.4,457.5,327.8,463.4,327.7,470z"/>
<path class="st0" d="M-62.3,118.8c-0.2,6.7-5.9,12.2-12.5,12.2c-6.5,0-12.2-5.8-12.4-12.4c-0.1-6.9,6.4-13.2,13.1-12.7
	C-67.4,106.3-62.1,112.2-62.3,118.8z"/>
<path class="st0" d="M616,51.3c6.9,0.1,12.2,5.3,12.3,12.1c0.1,7.2-5.8,12.7-13.1,12.4c-6.8-0.3-11.9-5.8-11.7-12.6
	C603.7,56.4,609.2,51.2,616,51.3z"/>
<path class="st0" d="M450.1,389.6c6.9,0.1,12.2,5.3,12.3,12.1c0.1,7.2-5.8,12.7-13.1,12.4c-6.8-0.3-11.9-5.8-11.7-12.6
	C437.8,394.7,443.2,389.5,450.1,389.6z"/>
<path class="st0" d="M-126.8,114.5c-6.9-0.1-12.2-5.5-12.2-12.3c0-7.2,6-12.6,13.3-12.2c6.7,0.4,11.8,6.1,11.5,12.8
	C-114.3,109.7-119.8,114.7-126.8,114.5z"/>
<path class="st0" d="M682.9,17c6.9,0.1,12,5.5,11.7,12.6c-0.2,6.6-5.1,11.4-11.7,11.5c-6.8,0.1-12.5-5.3-12.5-12
	C670.4,22.4,676.1,16.9,682.9,17z"/>
<path class="st0" d="M564.9,34.1c6.8-0.2,12.5,5,12.7,11.7c0.2,6.7-5.1,12.3-11.9,12.5c-7,0.2-12.4-4.8-12.6-11.7
	C552.9,39.7,558,34.3,564.9,34.1z"/>
<path class="st0" d="M306.6,14.6c0.2,6.9-5.2,12.6-11.9,12.6c-6.1-0.1-11.7-5.5-12-11.6C282.4,8.9,288.1,3,294.8,3
	C301.2,3,306.4,8.1,306.6,14.6z"/>
<path class="st0" d="M-41,198.2c-6.8,0.2-12.6-5.5-12.4-12.1c0.2-6.3,5.5-11.6,11.7-11.8c6.9-0.2,12.3,5.2,12.2,12.2
	C-29.6,193.2-34.5,198.1-41,198.2z"/>
<path class="st0" d="M333.8,31c0.1-6.4,5.1-11.5,11.4-11.7c6.6-0.2,12.4,5.5,12.3,12c-0.1,6.6-6,12-12.7,11.6
	C338.4,42.6,333.7,37.5,333.8,31z"/>
<path class="st0" d="M81.8,117.7c-0.2-6.4,4.7-11.8,11-12.1c6.5-0.4,12.6,5.5,12.4,11.9c-0.1,6.1-5.5,11.5-11.7,11.5
	C87.1,129.2,82,124.1,81.8,117.7z"/>
<path class="st0" d="M407.6,47.9c0.2,6.4-4.5,11.8-10.9,12.2c-6.6,0.4-12.6-5.2-12.6-11.7c0-6,5.5-11.6,11.6-11.7
	C402,36.5,407.4,41.6,407.6,47.9z"/>
<path class="st0" d="M113,392.2c6.1,0.2,11.6,5.7,11.6,11.7c0.1,6.5-6,12.2-12.6,11.8c-6.3-0.4-11.1-5.7-10.9-12.2
	C101.4,397.3,106.8,392.1,113,392.2z"/>
<path class="st0" d="M508.9,80.8c0,6.4-5.1,11.5-11.4,11.6c-6.2,0.1-11.7-5-12-11.2c-0.3-6.4,5.6-12.4,12.1-12.2
	C503.9,69.1,509,74.5,508.9,80.8z"/>
<path class="st0" d="M42.6,89.7c6.7,0,11.6,4.8,11.7,11.4c0,6.6-4.9,11.7-11.5,11.7c-6.3,0.1-11.8-5.3-11.9-11.5
	C30.8,95.1,36.2,89.8,42.6,89.7z"/>
<path class="st0" d="M165.8,32.8c-0.3-6.7,4.4-11.8,11.1-12c6.5-0.2,12,4.7,12.3,11c0.3,6.1-5,11.9-11.3,12.1
	C171.4,44.2,166.1,39.3,165.8,32.8z"/>
<path class="st0" d="M215,616.7c-6.5,0-11.5-5.2-11.3-11.5c0.2-5.9,5-10.7,11-10.9c6.5-0.2,11.7,4.6,11.8,11
	C226.5,611.8,221.6,616.7,215,616.7z"/>
<path class="st0" d="M282.1,561c5.8,0.1,10.9,5.2,11,11c0.1,6.1-5.7,11.7-11.8,11.3c-5.9-0.4-10.5-5.5-10.3-11.6
	C271.2,565.8,276.2,560.9,282.1,561z"/>
<path class="st0" d="M28,308.9c5.8,0.2,10.8,5.4,10.8,11.2c0,6.2-5.9,11.6-11.9,11.1c-6-0.5-10.3-5.6-10.1-11.7
	C17,313.4,22.1,308.6,28,308.9z"/>
<path class="st0" d="M248.8,515.3c-6.5,0.1-11.6-4.8-11.5-11.3c0.1-6,4.9-10.7,10.9-10.9c6.6-0.2,11.5,4.7,11.4,11.3
	C259.4,510.6,254.9,515.2,248.8,515.3z"/>
<path class="st0" d="M744.1,45.2c0,6.2-4.5,10.8-10.7,10.9c-6,0.1-11-4.5-11.3-10.5c-0.3-6.2,5.1-11.6,11.4-11.4
	C739.7,34.4,744.2,39,744.1,45.2z"/>
<path class="st0" d="M830.2,297.6c-0.1,6.2-4.8,10.7-11,10.5c-5.9-0.2-10.9-5.3-10.7-11.1c0.2-5.8,5.4-10.7,11.3-10.6
	C825.9,286.6,830.3,291.4,830.2,297.6z"/>
<path class="st0" d="M106.2,454.4c0.1,6.3-4.2,11-10.4,11.1c-5.9,0.1-11.1-4.6-11.3-10.5c-0.2-5.7,4.8-11,10.7-11.2
	C101.3,443.6,106,448.2,106.2,454.4z"/>
<path class="st0" d="M457.3,64.5c0,6.2-4.6,10.9-10.8,10.8c-5.9-0.1-11-5.4-10.7-11.2c0.3-5.4,5.1-10.1,10.5-10.3
	C452.4,53.6,457.2,58.3,457.3,64.5z"/>
<path class="st0" d="M209.6,656.7c-0.2,6-5.4,10.8-11.2,10.5c-5.7-0.3-10.8-5.8-10.5-11.4c0.3-5.8,5.6-10.7,11.4-10.4
	C205.3,645.5,209.8,650.5,209.6,656.7z"/>
<path class="st0" d="M2.8,84.7c0.2,6.1-4.5,11.2-10.4,11.4c-5.6,0.2-11.1-5-11.3-10.6c-0.2-5.7,4.7-11,10.6-11.3
	C-2.3,74,2.6,78.6,2.8,84.7z"/>
<path class="st0" d="M872.8,493.2c-5.4,0.3-10.5-4.1-10.9-9.7c-0.4-5.9,4.5-11.3,10.3-11.3"/>
<path class="st0" d="M231.3,544.5c5.8,0,10.2,4.2,10.4,9.9c0.2,6.2-4.4,10.9-10.6,10.8c-5.6-0.1-10.3-4.4-10.6-10
	C220.2,549.5,225.2,544.5,231.3,544.5z"/>
<path class="st0" d="M870.3,324.9c-5.4,0.1-10.3-4.7-10.4-10.2c-0.1-5.4,4.7-10.4,10.1-10.5"/>
<path class="st0" d="M524.4,30.1c0,5.7-4.7,10.4-10.1,10.2c-5.4-0.2-10.1-5.3-9.8-10.7c0.3-5,4.8-9.4,9.8-9.6
	C519.8,19.7,524.4,24.3,524.4,30.1z"/>
<path class="st0" d="M174.6,589.3c0.1,5.5-4.6,10-10.3,10c-5.4-0.1-9.4-3.9-9.7-9.3c-0.3-5.8,3.8-10.4,9.6-10.5
	C169.8,579.3,174.5,583.7,174.6,589.3z"/>
<path class="st0" d="M-209.4,177.3c5.6,0,10,4.7,9.8,10.5c-0.1,5.3-4.2,9.5-9.4,9.8c-5.3,0.3-10.4-4.5-10.5-9.9
	C-219.6,182.2-214.8,177.3-209.4,177.3z"/>
<path class="st0" d="M155.8,471.8c0.1,5.7-4.6,10.4-10.1,10.1c-4.9-0.2-9.4-4.9-9.5-9.8c-0.1-5.4,4.9-10.2,10.3-10
	C151.7,462.2,155.7,466.4,155.8,471.8z"/>
<path class="st0" d="M190.5,539c-0.1,5.7-4.9,10.3-10.4,9.9c-5-0.3-9.4-4.8-9.6-9.9c-0.2-5.4,4.6-10.4,10-10.5
	C186.1,528.5,190.6,533.2,190.5,539z"/>
<path class="st0" d="M123.7,572.7c0.2,5.8-4,10.5-9.6,10.7c-5.3,0.2-10.3-4.8-10.3-10.2c0-5,4.2-9.6,9.3-10.1
	C118.5,562.6,123.4,567,123.7,572.7z"/>
<path class="st0" d="M709.4-21.8c0.1,5.4-3.8,9.6-9,9.9c-5.4,0.3-10.5-4.7-10.3-10c0.2-5,4.6-9.2,9.8-9.2
	C705.3-31.1,709.3-27.2,709.4-21.8z"/>
<path class="st0" d="M308.6,520c0.2,5.4-3.6,9.7-8.9,10.1c-5.5,0.4-10.6-4.3-10.5-9.7c0.1-5,4.6-9.5,9.7-9.6
	C304.1,510.6,308.4,514.7,308.6,520z"/>
<path class="st0" d="M206.4,488.3c-0.2,5-4.8,9.4-9.9,9.3c-5.2-0.1-9.3-4.5-9.2-9.8c0.1-5.2,4.6-9.5,9.7-9.4
	C202,478.7,206.6,483.5,206.4,488.3z"/>
<path class="st0" d="M244.1,8.5c-5.3,0-9.4-4.2-9.4-9.5c0-5.3,3.9-9.6,9.2-9.8c5.5-0.2,10.4,4.7,10.2,10.1
	C253.7,4.3,249.2,8.5,244.1,8.5z"/>
<path class="st0" d="M63,565.4c-5.3-0.1-9.3-4.2-9.2-9.6c0.1-5.3,4.2-9.2,9.6-9.1c5.2,0.1,9.6,4.5,9.4,9.5
	C72.6,561.3,68.1,565.5,63,565.4z"/>
<path class="st0" d="M71.5,388.3c-0.2,5.3-4.5,9.2-9.8,9c-5-0.2-9.4-4.9-9.2-9.8c0.3-5.1,4.7-9.1,10-8.9
	C67.9,378.8,71.7,382.9,71.5,388.3z"/>
<path class="st0" d="M157.6,640.1c0,5.3-4.1,9.4-9.4,9.4c-5.1,0-9.5-4.4-9.5-9.5c0-5.1,4.4-9.3,9.6-9.3
	C153.7,630.7,157.7,634.7,157.6,640.1z"/>
<path class="st0" d="M232.8,733.5c-5.2,0.3-9.7-3.8-10.1-8.9c-0.4-5,3.9-9.6,9.1-9.8c5.4-0.3,9.7,3.5,9.9,8.8
	C241.9,729,238.1,733.2,232.8,733.5z"/>
<path class="st0" d="M641.7,12.8c0,5-4.5,9.4-9.5,9.4c-5.3,0-9.4-4-9.4-9.4c0-5.4,4-9.3,9.4-9.4C637.3,3.5,641.7,7.8,641.7,12.8z"/>
<path class="st0" d="M650.2-47.1c7.4,4.1,9.3,7.3,7.5,12.3c-1.3,3.7-5.2,6.4-8.9,6.2c-4.3-0.3-8.1-3.8-8.6-8
	c-0.3-2.2,0.1-4.2,1.4-6.1C643.5-45.5,646.3-46.8,650.2-47.1z"/>
<path class="st0" d="M-165.7,254.5c-0.2,5.4-4.5,9.2-10.1,8.8c-4.9-0.4-8.7-4.5-8.5-9.4c0.2-5.3,4.7-9.2,10.2-8.8
	C-169.2,245.5-165.5,249.6-165.7,254.5z"/>
<path class="st0" d="M37.4,488.9c0.1,5.2-3.4,8.9-8.5,9c-4.9,0.1-9-3.7-9.2-8.5c-0.2-4.8,3.8-8.9,8.6-9.1
	C33.4,480.2,37.3,483.8,37.4,488.9z"/>
<path class="st0" d="M-124,262.7c5,0.2,8.6,4,8.5,9.1c-0.1,5.1-3.9,8.6-9.1,8.4c-4.9-0.2-8.8-4.3-8.6-9.1
	C-133.1,266.4-128.9,262.5-124,262.7z"/>
<path class="st0" d="M568.5,561.8c-4.7,0.1-8.8-4.1-8.8-9c0-4.9,4-9,8.8-9c4.7,0,9,4.3,9,9C577.5,557.4,573.1,561.7,568.5,561.8z"/>
<path class="st0" d="M118.5,66.2c0.3,4.8-3.5,9-8.4,9.3c-5.2,0.3-9-3.1-9.3-8.2c-0.3-5.1,3.3-9.1,8.2-9.4
	C113.9,57.7,118.2,61.4,118.5,66.2z"/>
<path class="st0" d="M-193.2,127.8c4.8,0,8.8,4.1,8.8,9.1c0,4.9-4.1,9.1-8.8,9c-4.6-0.1-8.9-4.5-8.9-9.1
	C-202.2,132.1-197.9,127.8-193.2,127.8z"/>
<path class="st0" d="M494.2,638.3c-0.2,5.1-4,8.6-9.2,8.3c-4.9-0.2-8.7-4.4-8.5-9.2c0.3-4.8,4.5-8.6,9.3-8.4
	C490.9,629.2,494.4,633.2,494.2,638.3z"/>
<path class="st0" d="M274.1,739.6c4.1-7.1,6.9-8.7,11.7-7.2c3.9,1.2,6.1,4.9,5.5,9.2c-0.5,3.7-3.2,6.4-6.9,7
	C279.6,749.3,277.1,747.1,274.1,739.6z"/>
<path class="st0" d="M417.3,663.9c4-0.2,8.4,3.6,8.8,7.8c0.4,4.1-3.2,8.4-7.4,9c-4.7,0.6-9.1-3.4-9.1-8.2
	C409.4,668.1,413,664.1,417.3,663.9z"/>
<path class="st0" d="M-151.2,35.1c0.2,4-3.5,8.3-7.7,8.8c-4.9,0.6-9.1-3-9.3-8c-0.2-4.7,2.8-8.3,7.4-8.7
	C-155.8,26.8-151.4,30.4-151.2,35.1z"/>
<path class="st0" d="M-177.6,77.7c4-0.3,8.4,3.5,8.9,7.6c0.5,4-3.1,8.5-7.3,9.2c-4.6,0.7-9.2-3.2-9.3-8
	C-185.4,82.1-181.9,78.1-177.6,77.7z"/>
<path class="st0" d="M-109.2,43.2c7.1,3.5,8.7,5.7,7.9,10c-0.8,3.9-4.6,6.9-8.4,6.6c-3.5-0.3-6.6-3-7.4-6.6
	C-118,49-116.3,46.7-109.2,43.2z"/>
<path class="st0" d="M96.3,632c-4.6-0.1-8-3.6-8-8.1c0-4.6,3.3-8,8-8.1c4.8-0.1,9,4,8.7,8.6C104.6,628.6,100.8,632.1,96.3,632z"/>
<path class="st0" d="M-50.5,67.6c0.1,4.5-3.5,8.2-8.1,8.1c-4.3,0-7.6-2.9-8-7.1c-0.4-4.5,2.9-8.4,7.5-8.7
	C-54.5,59.6-50.6,63.1-50.5,67.6z"/>
<path class="st0" d="M-218.5,238c0.1,4.5-3.7,8.1-8.3,8c-4.3-0.1-7.5-3.1-7.9-7.2c-0.3-4.6,3-8.4,7.6-8.6
	C-222.5,229.9-218.6,233.5-218.5,238z"/>
<path class="st0" d="M358.9,706.1c-0.2,4.5-4.1,7.9-8.7,7.5c-4.2-0.3-7.4-3.6-7.4-7.7c-0.1-4.6,3.5-8.1,8.2-8.1
	C355.5,697.9,359.1,701.6,358.9,706.1z"/>
<path class="st0" d="M189.6,706.4c0.2,4.4-3.6,8.4-8,8.3c-3.9-0.1-7.4-3.5-7.6-7.5c-0.2-4.2,2.7-7.7,6.8-8.3
	C185.1,698.4,189.4,702.1,189.6,706.4z"/>
<path class="st0" d="M370.4-19.5c0,3.8-3.5,7.5-7.4,7.7c-4.4,0.2-8-3.6-7.8-8.2c0.2-4.1,3.7-7.3,7.7-7.1
	C366.9-26.9,370.4-23.3,370.4-19.5z"/>
<path class="st0" d="M66.6,51.1c-0.3,3.9-3.9,7.1-7.9,7c-4.6-0.1-7.7-3.9-7.1-8.6c0.5-4.2,4-7,8.2-6.5
	C63.6,43.5,66.9,47.3,66.6,51.1z"/>
<path class="st0" d="M862.7,532.9c0.2,4.3-2.6,7.6-6.8,8c-4.6,0.4-8.5-2.8-8.8-7.3c-0.2-4.3,3.5-8.2,8-8.1
	C859.3,525.6,862.5,528.7,862.7,532.9z"/>
<path class="st0" d="M524.4,367.4c0,4.2-3,7.4-7.2,7.6c-4.5,0.2-8.4-3.4-8.4-7.7c0-4.3,4-7.9,8.5-7.7
	C521.4,359.9,524.5,363.2,524.4,367.4z"/>
<path class="st0" d="M741.4,214.7c-0.1,3.6-3.3,6.8-6.8,6.9c-3.9,0.2-7.6-3.6-7.4-7.5c0.2-3.4,3.6-6.9,6.9-7
	C737.9,206.9,741.6,210.7,741.4,214.7z"/>
<path class="st0" d="M861.2,365c0.1,3.5-2.9,6.9-6.5,7.4c-3.9,0.5-7.8-2.9-7.8-7c-0.1-3.9,3.7-7.7,7.4-7.5
	C857.7,358.1,861.1,361.7,861.2,365z"/>
<path class="st0" d="M827.6,466.4c0.1,4-3.6,7.6-7.5,7.4c-3.5-0.2-6.8-3.6-6.8-7.1c-0.1-3.9,3.9-7.7,7.6-7.4
	C824.5,459.6,827.6,462.8,827.6,466.4z"/>
<path class="st0" d="M51.9,438.2c0.2,4-3.4,7.7-7.4,7.5c-3.5-0.2-6.8-3.5-6.9-7c-0.1-3.9,3.7-7.7,7.5-7.5
	C48.6,431.4,51.8,434.7,51.9,438.2z"/>
<path class="st0" d="M581.7-11.3c3.8,0.1,6.6,2.9,6.7,6.7c0.1,4.2-3.2,7.3-7.4,7.2c-3.6-0.1-6.7-3.2-6.8-6.8
	C574.1-8.2,577.5-11.5,581.7-11.3z"/>
<path class="st0" d="M-15.8,304c-0.2,4.1-3.7,7-7.9,6.7c-3.8-0.3-6.4-3.3-6.3-7.1c0.1-4.2,3.5-7.1,7.8-6.7
	C-18.6,297.3-15.7,300.5-15.8,304z"/>
<path class="st0" d="M8.6,41.3c-4.2,0.2-7.7-3-7.6-7.1c0.1-3.6,3.2-6.6,6.8-6.8c4.3-0.2,7.5,2.9,7.4,7.1
	C15.2,38.4,12.5,41.1,8.6,41.3z"/>
<path class="st0" d="M-73,280.7c2.6,0.5,5,1.9,5.9,4.9c0.4,1.3,0.4,2.8,0,4.1c-0.9,3.1-4.3,5.3-7.3,4.9c-2.8-0.4-5.2-2.5-5.8-5.4
	c-0.2-1-0.3-2.2,0-3.1c0.4-1.3,1.1-2.6,2.1-3.5C-76.9,281.3-75.2,280.6-73,280.7z"/>
<path class="st0" d="M10.6,364.6c4,1.2,6.4,3,6.6,6.7c0.2,4.2-2.4,6.3-6.4,7.4c-4.4-0.2-7.2-2.6-7.3-7.1
	C3.6,367.5,6.3,365.3,10.6,364.6z"/>
<path class="st0" d="M844.7,415.7c0.1,3.8-2.8,6.7-6.7,6.8c-3.9,0.1-6.8-2.7-6.9-6.6c-0.1-3.8,2.8-6.8,6.6-6.8
	C841.6,409.1,844.6,412,844.7,415.7z"/>
<path class="st0" d="M769.1,274.6c3.6,0.2,6.7,3.6,6.4,7.1c-0.3,3.5-4,6.6-7.4,6.2c-3.2-0.4-5.8-3.3-5.8-6.6
	C762.4,277.4,765.4,274.4,769.1,274.6z"/>
<path class="st0" d="M507,417.9c0.1,3.9-2.7,6.8-6.6,6.6c-3.7-0.1-6.7-3.4-6.5-6.9c0.2-3.2,3-5.9,6.2-6.1
	C503.9,411.2,506.9,414,507,417.9z"/>
<path class="st0" d="M803.6,342.4c3.8,0.1,6.7,3.2,6.6,6.9c-0.1,3.8-3.2,6.6-7,6.5c-3.8-0.1-6.6-3.1-6.5-6.9
	C796.8,345,799.7,342.2,803.6,342.4z"/>
<path class="st0" d="M420-3.8c0.3,3.5-2.8,7-6.3,7.2c-3.2,0.2-6.2-2.3-6.7-5.6c-0.6-3.9,1.9-7.2,5.6-7.7
	C416.1-10.3,419.7-7.4,420-3.8z"/>
<path class="st0" d="M770,443.8c3.7,0.1,6.5,3.1,6.3,7c-0.2,3.5-2.7,5.9-6.1,6.1c-3.7,0.1-6.9-2.8-7-6.4
	C763.2,446.9,766.4,443.7,770,443.8z"/>
<path class="st0" d="M592.4,501.7c-1,4.5-3.1,7.1-7.5,6.7c-2.9-0.3-5.1-2.8-5.3-5.8c-0.2-3,1.6-5.9,4.4-6.6
	C588.3,494.9,590.7,497.3,592.4,501.7z"/>
<path class="st0" d="M711.6,264.8c1.5-4.3,3.7-6.8,8.1-5.9c3,0.6,4.8,3.3,4.7,6.3c-0.1,3.1-2.1,5.6-5.1,6
	C714.9,271.8,712.7,269.3,711.6,264.8z"/>
<path class="st0" d="M137.6,690.6c-0.3,2.5-1.3,4.8-3.9,5.7c-1.3,0.4-2.8,0.6-4.1,0.4c-3-0.6-4.8-3.1-4.7-6.2
	c0.1-2.6,1.7-4.9,4.2-5.5c1-0.3,2.1-0.4,3.1-0.2c1,0.2,2.1,0.6,2.9,1.2C136.5,687.1,137.4,688.6,137.6,690.6z"/>
<path class="st0" d="M19,540.1c-0.2,3.1-3.1,6-6.3,6c-3.8,0.1-6.6-3.1-6.2-7c0.4-3.4,3.2-5.7,6.7-5.4C16.5,534,19.2,536.8,19,540.1z
	"/>
<path class="st0" d="M550.7,428.9c4.2,0.9,5.9,2.8,6.7,6.1c-0.5,3.8-2.4,6.6-6.7,6.3c-2.6-0.1-4.6-1.8-5.2-4.6
	C544.5,432.4,547,430.3,550.7,428.9z"/>
<path class="st0" d="M798.2,516.5c1.6-4,3.8-6.5,8.1-5.1c2.5,0.8,4,2.8,4.1,5.6c0,3-1.9,5.6-4.8,6.1c-1,0.2-2.1,0.1-3.1-0.2
	C799.9,522,798.6,519.9,798.2,516.5z"/>
<path class="st0" d="M-221.7,68.5c0.2,3.3-2.4,6.3-5.6,6.5c-3,0.2-6.2-2.6-6.5-5.8c-0.2-3,2.6-6.2,5.8-6.5
	C-225,62.5-221.9,65.3-221.7,68.5z"/>
<path class="st0" d="M197-13.6c-6.2,0.5-8.2-0.2-9.1-3.2c-0.6-2.2,0-4.2,1.7-5.7c2.1-1.9,5.8-2.1,7.7-0.1
	C199.9-20,199.8-17,197-13.6z"/>
<path class="st0" d="M781,399.8c2.5-5.3,4-6.5,7.3-5.9c3,0.5,5,3.1,4.8,6.1c-0.2,2.6-1.9,4.7-4.5,5.3
	C785.2,406.1,783.8,405.1,781,399.8z"/>
<path class="st0" d="M-216.6,18.2c2.7-5.3,4.1-6.3,7.5-5.6c3,0.7,4.8,3.2,4.5,6.3c-0.2,2.6-2.1,4.6-4.7,5.1
	C-212.6,24.6-214.1,23.4-216.6,18.2z"/>
<path class="st0" d="M130.1,20.9c-6.2,0.4-8.2-0.3-9-3.4c-0.6-2.2,0.1-4.2,1.8-5.7c2.1-1.9,5.9-2,7.7,0
	C133.1,14.6,133,17.6,130.1,20.9z"/>
<path class="st0" d="M304.8-35.8c2.7-5.2,4.2-6.3,7.6-5.6c3,0.7,4.8,3.2,4.5,6.3c-0.3,2.6-2.1,4.6-4.7,5.1
	C308.8-29.3,307.3-30.5,304.8-35.8z"/>
<path class="st0" d="M558.1,603.4c0,3.2-3,6-6.2,5.8c-2.8-0.2-5.1-2.8-5.1-5.8c0-2.9,2.3-5.6,5.1-5.8
	C555,597.4,558.1,600.2,558.1,603.4z"/>
<path class="st0" d="M750.3-10.8c2.9-0.1,5.5,2.3,5.7,5.1c0.2,2.7-2.3,5.5-5.1,5.6c-3,0.2-5.5-2-5.6-5.1
	C745.2-8.2,747.4-10.7,750.3-10.8z"/>
<path class="st0" d="M603.1-54.9c-0.7,3.6-2.7,5.6-6.6,5.1c-2.4-0.3-4.3-2.8-4.2-5.3c0-2.6,1.9-4.8,4.4-5.2
	C599.3-60.8,600.5-59.8,603.1-54.9z"/>
<path class="st0" d="M536.3-20.7c-0.6,3.6-2.4,5.8-6.4,5.4c-2.5-0.2-4.4-2.5-4.5-5.1c-0.1-2.6,1.7-5.1,4.1-5.4
	C533.5-26.4,535.5-24.4,536.3-20.7z"/>
<path class="st0" d="M756,160.2c1.7,4.8,0.7,7.7-3.6,9c-2.4,0.2-4.1-0.8-5.4-2.7c-0.9-1.2-1.1-2.6-0.7-4
	C747.3,158.8,750.2,158.1,756,160.2z"/>
<path class="st0" d="M221.7,774.4c0.2,2.8-2.2,5.5-5.1,5.7c-3,0.2-5.5-2-5.6-5c-0.2-3.1,2-5.6,4.9-5.7
	C218.8,769.2,221.5,771.5,221.7,774.4z"/>
<path class="st0" d="M-46.8,13.9c2.9-2.7,5.7-2.9,8.5-0.2c1.9,1.8,1.9,4.7,0.2,6.7c-1.8,2.1-4.4,2.8-6.6,1.6
	C-48.2,20-48.2,17.1-46.8,13.9z"/>
<path class="st0" d="M469.3,14.1c-1.2,3.7-3.2,5.5-6.5,4.8c-2.2-0.5-3.7-2.3-3.7-4.6c-0.1-3.4,1.9-5.2,5.1-5.5
	C467,9.2,468.5,10.9,469.3,14.1z"/>
<path class="st0" d="M46.3,601.4c2.8,0.6,4.3,2.4,4.9,5c-2.5,4.7-4.2,6-6.6,5.1c-2.2-0.8-3.6-2.4-3.6-4.8
	C41,603.4,43,601.6,46.3,601.4z"/>
<path class="st0" d="M76.3,677.8c-1.4-3.7-1.2-6.3,2.1-7.8c2.7-1.2,4-0.4,7.1,3.9C83,680.2,83,680.2,76.3,677.8z"/>
<path class="st0" d="M29.6-14.3c-6,2.7-6,2.7-9.3-2.9c2.6-4.5,4-5.5,6.7-4.8C29.6-21.3,30.2-19.5,29.6-14.3z"/>
<path class="st0" d="M-260.1,166.3c3.5,1.2,5.3,3,4.4,6.5c-0.5,1.8-1.9,3-3.8,3.3c-2.4,0.3-4.2-1-4.9-3.1
	C-265.6,169.5-263.8,167.5-260.1,166.3z"/>
<path class="st0" d="M639,350.3c-0.9,3.2-2.4,4.5-4.8,4.7c-6.5-3.9-6.5-5.7-0.1-9.7C637,345.6,638.4,347.4,639,350.3z"/>
<path class="st0" d="M-243.8,124.4c-3-0.2-4.3-2.1-4.9-4.6c0.4-2.9,1.9-4.6,4.8-5C-237.4,118.6-237.3,120.4-243.8,124.4z"/>
<path class="st0" d="M-283.1,52.9c0.4-2.9,1.9-4.6,4.7-5.1c6.6,3.9,6.6,5.7,0.1,9.7C-281.2,57.3-282.6,55.5-283.1,52.9z"/>
<path class="st0" d="M-240.1,284.9c2.5,2.4,2.5,4.8,0.4,7.4c-2.8,1.5-5.3,1.5-7.2-1.4c-0.8-1.2-0.9-2.6-0.2-4
	C-245.4,283.9-243,283.6-240.1,284.9z"/>
<path class="st0" d="M-35.5,354.7c-0.6,2.7-2,4.4-5,4.5c-6.3-4.3-6.2-6,0.5-9.7C-37.3,350.2-35.7,351.8-35.5,354.7z"/>
<path class="st0" d="M-11.8-80.2c-2.3-3-2.3-5.2-0.2-7.6c1.6-1.1,3.6-1.5,5.6-0.2c2,1.3,2.7,3.2,1.8,5.4
	C-6.1-79.2-8.8-79.3-11.8-80.2z"/>
<path class="st0" d="M758,502.4c-0.9,1.6-2.1,2.7-4,3c-2.3-0.2-3.9-1.2-4.3-3.6c-0.3-2.4,0.7-4.1,2.9-4.8
	C755.4,496.1,756.9,497.7,758,502.4z"/>
<path class="st0" d="M-88.6-0.3c0,3.8-1.7,5.2-4.3,5.7c-4.1-2.6-5.1-4.5-3.5-6.8C-94.9-3.7-92.8-3.5-88.6-0.3z"/>
<path class="st0" d="M832.2,246.6c0.4-2.5,1.9-3.8,4.2-4.1c5.9,2.9,6,4.7,0.5,8.6C834.2,250.7,832.5,249.3,832.2,246.6z"/>
<path class="st0" d="M-281.6,221.9c0.4-3,2.1-4.5,5.1-4.3c2.1,0.2,3.6,2.4,3.4,4.7c-0.2,2-1.3,3.4-3.3,3.7
	C-279.4,226.4-281.2,224.9-281.6,221.9z"/>
<path class="st0" d="M-298.9,103.3c0.4-2.9,2.1-4.4,5.1-4.1c2.1,0.2,3.6,2.5,3.3,4.8c-0.3,1.9-1.4,3.4-3.4,3.6
	C-296.7,107.8-298.5,106.3-298.9,103.3z"/>
<path class="st0" d="M71.4,0.2c2.9-4.5,4.4-5.3,6.6-4.1c2.1,1.1,2.3,2.8,0.6,7.3C75.4,5.1,73.2,3.9,71.4,0.2z"/>
<path class="st0" d="M-261.9,6c-3.8-3.9-3.8-3.9,0.1-7.9c2.6-0.2,3.9,1.2,4.7,3.5C-257.3,4.5-258.8,6.2-261.9,6z"/>
<path class="st0" d="M-3.9,425.9c-3.5,0.8-4.8-0.7-5.8-2.8c-0.1-2.4,1-4,3.4-4.7C-1.4,420.8-1.4,420.8-3.9,425.9z"/>
<path class="st0" d="M265.9,786.9c3.1,0,4,1.5,4.8,3.2c0.1,2.7,0,2.8-4.4,4.8C262.2,791.3,262.2,791.3,265.9,786.9z"/>
<path class="st0" d="M-28.8-30.5c-1.8-3.1-1.6-5.1,0.9-6.2c2.9-1.3,4.8,0.1,5.6,3C-23.1-30-25.3-29.2-28.8-30.5z"/>
<path class="st0" d="M261.5-48.4c-2.8-0.2-4.1-1.1-4.5-3.1c-0.1-2.1,1.2-3.1,3-3.7C264-52.8,264-52.8,261.5-48.4z"/>
<path class="st0" d="M719.2,436.6c-1.7-0.6-3.3-1.3-3.3-3.5c0-2.2,1.6-2.9,3.6-3.5c0.7,0.5,2,0.8,2.3,1.6
	C723,433.9,722.8,434,719.2,436.6z"/>
<path class="st0" d="M44.2-65.1c-3.7,1.5-5.8,0.5-6.6-3c0.9-3,2.9-4.3,5.7-3C45.8-70,45.9-68,44.2-65.1z"/>
<path class="st0" d="M-296.2,269.8c3.5-1.7,5.7-0.8,6.7,2.7c-0.8,2.9-2.6,4.5-5.5,3.2C-298.1,274.4-297.6,272.1-296.2,269.8z"/>
<path class="st0" d="M331.3,755.2c3.5-3.5,5.3-2.2,6.8,0.5c0.2,2.6-1.4,3.3-2.8,4.1C332.3,759.8,331.6,758,331.3,755.2z"/>
<path class="st0" d="M166.6,755.3c2.9,2.4,2.4,4.4,0.5,6.4c-2.7,0.7-4.2-0.3-5-2.6C162.2,756.4,163.5,755.2,166.6,755.3z"/>
<path class="st0" d="M-190.5,307.7c-1.9,0.6-3.5,0.3-4.8-1.4c-1.1-2.9,0.7-4.1,3.3-4.9C-188.5,303-188.2,305.1-190.5,307.7z"/>
<path class="st0" d="M703.6,318.6c-3.2,0.5-5-0.4-4.9-3.5c0.9-2.5,2.6-3.1,4.9-2.4C705.4,314.4,705.8,316.1,703.6,318.6z"/>
<path class="st0" d="M-314.2,154.5c0.7-2.9,2.1-4,4.5-3.6c2.3,1.2,2.8,2.8,1.5,5.2C-310.5,158-312.4,157.5-314.2,154.5z"/>
<path class="st0" d="M471.7,688.6c-0.5,2.4-2,3.4-4.4,3c-2.4-1.1-2.8-2.8-1.6-5C467.7,684.4,468.9,684.8,471.7,688.6z"/>
<path class="st0" d="M399.7,725.8c-2-2.7-1.5-4.4,0.5-5.9c2.9-0.5,4.6,0.4,4.6,3.5C403.9,726,402.2,726.5,399.7,725.8z"/>
<path class="st0" d="M-79.3-50.9c1.8-1.9,3.5-1.6,5.2,0.1c0.5,2.6-0.6,4-3.1,3.7C-79.5-47.3-79.7-49.1-79.3-50.9z"/>
<path class="st0" d="M-56.6-100.3c-0.9,2.6-2.4,3.2-4.3,2.6c-1.9-1.8-1.9-3.6,0.1-5.3C-58.7-103.6-57.5-102.7-56.6-100.3z"/>
<path class="st0" d="M-59,403.7c1.1-1.1,2.4-1.4,3.8-1c1.2,0.8,1.9,2,1.2,3.4c-0.6,1.3-1.8,2-3.3,1.4
	C-59.2,406.9-59.7,405.5-59,403.7z"/>
<path class="st0" d="M330.7-87.8c1.1,2.6-0.1,3.9-2.6,4.1c-1.8,0.1-3.2-2-2.4-3.5C327-89.7,328.9-89.1,330.7-87.8z"/>
<path class="st0" d="M838.7,586.8c-2.7-1.2-2.9-2.6-2-4.4c1.9-1.5,3.6-1.4,5,0.8C842.2,585.5,840.7,586.2,838.7,586.8z"/>
<path class="st0" d="M600.1,619.9c0.1-2.1,1.1-3.2,3.3-3.3c3.2,1.4,2.7,3.3,1.1,5.4C602.1,622.7,600.7,621.9,600.1,619.9z"/>
<path class="st0" d="M-143.4,490.1c0.5-1.4,1.3-2.5,3-2.8c3.2,0.9,3.4,2.8,1.5,5.4C-141.5,493.7-142.8,492.6-143.4,490.1z"/>
<path class="st0" d="M380.4-72.6c1.6,1.9,1.8,3.7-0.6,5.1c-2.3,0.6-3.2-0.7-3.9-2.5C376.5-72.4,377.8-73.7,380.4-72.6z"/>
<path class="st0" d="M-138.5,322c-1,2.7-2.4,3.3-4.4,2.7c-2-1.8-1.8-3.5,0-5.2C-140.6,318.9-139.4,319.9-138.5,322z"/>
<path class="st0" d="M274.5-104.4c2-2,3.8-2.3,5.5-0.4c0.4,1.9,0.1,3.5-2,3.8C276-100.6,274.9-101.8,274.5-104.4z"/>
<path class="st0" d="M-93.5,336.9c1.1-1.1,2.4-1.4,3.8-1c1.2,0.8,1.9,2,1.2,3.4c-0.6,1.3-1.8,2-3.3,1.4
	C-93.7,340.1-94.2,338.7-93.5,336.9z"/>
<path class="st0" d="M537.7,651.6c1.6,1.9,1.8,3.7-0.6,5.1c-2.3,0.6-3.2-0.8-3.9-2.4C533.8,651.7,535,650.5,537.7,651.6z"/>
<path class="st0" d="M688.5,538.3c-3.3,0-4.3-1.1-4.4-3.1c0.5-1.5,1.4-2.4,3-2.6C690.6,533.7,690,535.7,688.5,538.3z"/>
<path class="st0" d="M667.3-90.6c1.3,2.4,0.8,3.8-1.1,4.7c-2,0.4-3.2-0.4-3.8-2.4C662.8-91,664.6-91.2,667.3-90.6z"/>
<path class="st0" d="M715.1-75.2c2.3,0.1,3.3,0.9,3.8,2.5c0.1,2.1-1,3.1-3.6,3.3C712.9-70.8,712.4-72.6,715.1-75.2z"/>
<path class="st0" d="M-3,588.2c1.4,2.4,1.1,4-0.8,4.7c-2.5,0.9-3.5-0.8-4-2.4C-6.7,587.8-5.1,587.7-3,588.2z"/>
<path class="st0" d="M783,229.7c2-2,3.8-2.3,5.5-0.4c0.4,1.9,0.1,3.5-2,3.8C784.5,233.4,783.4,232.3,783,229.7z"/>
<path class="st0" d="M521.2,706.8c-3.4-0.1-3.4-0.1-5.2-2.2c0.4-2,0.6-2.1,4.5-2.1C521.9,703.5,521.5,704.9,521.2,706.8z"/>
<path class="st0" d="M-153.7,541.1c-0.3,1.6-1.5,2.1-2.8,2.5c-2.4-0.6-3.5-1.9-2.3-4.3C-157,537.7-156,538-153.7,541.1z"/>
<path class="st0" d="M449.4,737.8c1.4-1.2,2.8-1.9,4.6-0.5c1.4,2.1,1,4-1.7,4.4C449.8,742,448.8,740.4,449.4,737.8z"/>
<path class="st0" d="M141.2-36.8c1.9-0.5,3.2-0.3,4.3,0.8c1,2.5-0.2,4.1-2.6,4C140.3-32.2,139.4-33.9,141.2-36.8z"/>
<path class="st0" d="M-73,452.8c2.2,0.4,2.9,1.5,3.4,2.9c-1.8,2.3-1.8,2.3-4.6,2.5C-75.7,456.1-75.9,454.4-73,452.8z"/>
<path class="st0" d="M-20.5,470.4c1.7,2.1,1.9,3.8-0.5,5.3c-2.3,0.6-3.2-0.7-3.9-2.5C-24.4,470.6-22.9,469.6-20.5,470.4z"/>
<path class="st0" d="M622,569.1c-0.3,1.6-1.5,2.1-2.8,2.5c-2.4-0.6-3.4-1.9-2.3-4.3C618.7,565.7,619.7,566,622,569.1z"/>
<path class="st0" d="M29,656.2c1.7,0.2,2.7,0.8,2.9,2.4c-0.5,1.5-1.8,2.4-3,1.6C27,658.9,27.9,657.4,29,656.2z"/>
<path class="st0" d="M9-134.2c-0.8,1.3-1.6,1.8-2.6,1.3c-1-0.4-1.7-1.3-1.3-2.3c0.5-1.4,1.7-2.1,3.1-1.2
	C8.9-135.9,9.7-134.9,9-134.2z"/>
<path class="st0" d="M703.8,481.7c1.6,1.4,1.7,2.7,0,4.1c-1.5,0.1-2.5-0.6-2.9-2C701.3,482.3,702.3,481.8,703.8,481.7z"/>
<path class="st0" d="M787.4,566c1.5-0.3,2.6,0.2,3.1,1.7c-0.3,1.5-1.2,2.3-2.7,2.4C786.2,568.8,785.6,567.5,787.4,566z"/>
<path class="st0" d="M584.7,671.1c0.1-2.2,1-3.6,3-2.4c1.5,0.9,0.7,2.3-0.4,3.4C586.5,671.8,585.6,671.5,584.7,671.1z"/>
<path class="st0" d="M-143.1-13.2c-0.8-0.3-1.7-0.7-2.6-1.1c0.1-2.2,0.9-3.6,3-2.4C-141.1-15.7-141.9-14.3-143.1-13.2z"/>
<path class="st0" d="M765.5,113c0.4-1.4,1.5-2,3-2c1.7,1.4,1.4,2.8,0,4.1C766.9,115.2,765.9,114.5,765.5,113z"/>
<path class="st0" d="M-53.3,574.1c-0.4,1.2-0.8,2.2-2,2.2c-1.1,0-1.9-0.6-2.2-1.7c-0.3-1.2,1.2-2.9,2.4-2.4
	C-54.3,572.6-53.8,573.6-53.3,574.1z"/>
<path class="st0" d="M735.7,380.6c1.5-0.3,2.6,0.2,3.1,1.7c-0.3,1.5-1.2,2.3-2.7,2.4C734.5,383.4,733.9,382.1,735.7,380.6z"/>
<path class="st0" d="M-378,190.7c-1.6-0.1-2.5-0.9-2.8-2.4c0.5-1.5,1.8-2.3,3-1.6C-375.7,188-376.7,189.5-378,190.7z"/>
<path class="st0" d="M-89.1,504.5c0.9,1.1,1.8,2.3,0.3,3.4c-1.3,0.9-2.7,0.4-3-1.2C-92.1,504.7-90.5,504.7-89.1,504.5z"/>
<path class="st0" d="M-325.9,205.6c-0.9,0.3-1.8,0.7-2.6,1c-1.1-1.2-1.9-2.6-0.4-3.5C-326.8,202-325.9,203.4-325.9,205.6z"/>
<path class="st0" d="M637,516.2c1.6,1.4,1.7,2.7,0,4.1c-1.5,0.1-2.5-0.6-2.9-2C634.5,516.8,635.5,516.2,637,516.2z"/>
<path class="st0" d="M-207.7,357.6c-0.9-0.4-1.8-0.8-2.7-1.1c0.1-2.2,0.9-3.6,3-2.4C-205.7,355-206.7,356.4-207.7,357.6z"/>
<path class="st0" d="M-207.7,522.6c1.9,0.4,3.3,1.2,2.1,3.3c-0.3,0.5-2,1-2.5,0.6C-209.9,525.2-209.4,523.8-207.7,522.6z"/>
<path class="st0" d="M671.8,587.1c-0.9,0.3-1.8,0.7-2.6,1c-1.2-1.2-1.9-2.6-0.4-3.5C670.9,583.5,671.7,584.9,671.8,587.1z"/>
<path class="st0" d="M94.5-50.7c-0.5,1.4-1.4,2.1-3,2.1c-1.6-1.4-1.7-2.8,0-4.1C93.1-52.8,94.1-52.2,94.5-50.7z"/>
<path class="st0" d="M750.4,330.9c1.2-0.5,2.1-0.8,2.9-1.2c1,1.2,2,2.6,0.4,3.5C751.5,334.5,750.9,332.8,750.4,330.9z"/>
<path class="st0" d="M503.4,753.3c1.6,1.4,1.7,2.7,0,4.1c-1.5,0.1-2.5-0.6-2.9-2C500.9,753.9,501.9,753.3,503.4,753.3z"/>
<path class="st0" d="M-123.9,437.5c1,0.4,1.9,0.8,2.7,1.2c0,2.3-1,3.5-3,2.4C-125.9,440-124.7,438.7-123.9,437.5z"/>
<path class="st0" d="M-343.6,253.2c1.7,1.2,2.2,2.6,0.4,3.9c-0.5,0.3-2.2-0.1-2.5-0.6C-346.9,254.4-345.5,253.6-343.6,253.2z"/>
<path class="st0" d="M-363.4,138.8c0.1-2.2,1-3.6,3-2.4c1.6,0.9,0.6,2.3-0.3,3.5C-361.6,139.5-362.5,139.1-363.4,138.8z"/>
<path class="st0" d="M438,789.7c-0.4,1.2-0.8,2.2-2,2.2c-1.1,0-1.9-0.6-2.2-1.7c-0.3-1.2,1.2-2.9,2.4-2.4
	C437,788.1,437.5,789.1,438,789.7z"/>
<path class="st0" d="M-415.3,121.7c0.5-1.5,1.5-2.1,3-2c1.7,1.4,1.5,2.8,0,4.1C-413.9,123.8-414.8,123.1-415.3,121.7z"/>
<path class="st0" d="M654.2,635.9c0.2,0.3,0.6,0.6,0.6,0.8c-0.1,0.9-0.7,1.2-1.6,0.8c-0.3-0.1-0.5-0.5-0.7-0.7
	C653.1,636.5,653.6,636.2,654.2,635.9z"/>
<path class="st0" d="M-173.2,422.5c0.2,0.3,0.6,0.6,0.6,0.8c-0.1,0.9-0.7,1.2-1.6,0.8c-0.3-0.1-0.5-0.5-0.7-0.7
	C-174.3,423.1-173.8,422.8-173.2,422.5z"/>
<path class="st0" d="M-19.7,641.1c-0.3,0.9-0.9,1.1-1.6,0.6c-0.3-0.2-0.4-0.5-0.7-0.8c0.6-0.2,1.2-0.5,1.8-0.7
	C-20.1,640.2-19.8,640.8-19.7,641.1z"/>
<path class="st0" d="M227.5-118.9c-0.6-0.3-1.2-0.6-1.8-0.9c0.3-0.2,0.5-0.6,0.8-0.7c0.8-0.4,1.4-0.2,1.6,0.8
	C228.2-119.5,227.7-119.1,227.5-118.9z"/>
<path class="st0" d="M652.2,466.5c0.2,0.6,0.7,1.2,0.6,1.7c-0.3,0.9-1.1,0.9-1.3-0.1C651.4,467.6,652,467,652.2,466.5z"/>
<path class="st0" d="M58.2-119c-0.3,0.5-0.5,1-0.8,1.5c-0.2-0.2-0.7-0.6-0.6-0.7c0.2-0.6,0.5-1.1,0.8-1.6
	C57.8-119.5,58-119.2,58.2-119z"/>
<path class="st0" d="M396-120.2c-0.3,0.2-0.5,0.4-0.8,0.6c-0.2-0.6-0.5-1.1-0.6-1.7c0-0.2,0.4-0.4,0.7-0.6
	C395.6-121.4,395.8-120.8,396-120.2z"/>
<path class="st0" d="M669.8,417c-0.3,0.9-0.9,1.1-1.6,0.6c-0.3-0.2-0.4-0.5-0.7-0.8c0.6-0.2,1.2-0.5,1.8-0.7
	C669.4,416.1,669.7,416.7,669.8,417z"/>
<path class="st0" d="M-190.7,472.9c0.2,0.6,0.7,1.3,0.6,1.7c-0.3,0.9-1.1,0.9-1.3-0.1C-191.5,474-191,473.4-190.7,472.9z"/>
<path class="st0" d="M-344.9,86.4c0.3,0.3,0.6,0.6,0.8,0.8c-0.6,0.3-1.2,0.6-1.8,0.8c-0.1,0-0.6-0.6-0.5-0.8
	C-346.2,86.3-345.6,86-344.9,86.4z"/>
<path class="st0" d="M345.5-137c-0.2,0.2-0.4,0.6-0.7,0.7c-0.8,0.5-1.5,0.2-1.6-0.7c0-0.9,0.7-1.2,1.5-0.8
	C345-137.6,345.2-137.3,345.5-137z"/>
<path class="st0" d="M-213.8-149.9c0.3-0.2,0.5-0.5,0.8-0.7c0.8-0.4,1.6-0.2,1.6,0.7c0,0.9-0.8,1.2-1.6,0.7
	C-213.3-149.3-213.5-149.7-213.8-149.9z"/>
<path class="st0" d="M602.5,450.5c0.2,0.3,0.6,0.6,0.6,0.8c-0.1,0.9-0.7,1.2-1.6,0.8c-0.3-0.1-0.5-0.5-0.7-0.7
	C601.4,451.1,601.9,450.8,602.5,450.5z"/>
<path class="st0" d="M-43.8-152.1c0.3,0.6,0.8,1.2,0.7,1.6c-0.3,0.9-1,1-1.3,0C-44.6-150.9-44.1-151.6-43.8-152.1z"/>
<path class="st0" d="M294.9-154.2c-0.3,0.9-0.8,1.2-1.6,0.7c-0.3-0.2-0.5-0.5-0.7-0.7c0.6-0.3,1.2-0.6,1.8-0.8
	C294.5-155.1,294.7-154.5,294.9-154.2z"/>
<path class="st0" d="M-429.5,171.2c0.2,0.6,0.7,1.2,0.6,1.7c-0.3,0.9-1.1,0.9-1.3-0.1C-430.3,172.3-429.7,171.7-429.5,171.2z"/>
<path class="st0" d="M-106.4,388c0.2,0.3,0.6,0.6,0.6,0.8c-0.1,0.9-0.7,1.2-1.6,0.8c-0.3-0.1-0.5-0.5-0.7-0.7
	C-107.5,388.6-107,388.3-106.4,388z"/>
<path class="st0" d="M567.8,382.4c0.2,0.6,0.7,1.3,0.6,1.7c-0.3,0.9-1.1,0.9-1.3-0.1C566.9,383.5,567.5,382.9,567.8,382.4z"/>
<path class="st0" d="M-395.4,69.8c0.2,0.6,0.7,1.3,0.5,1.7c-0.3,0.9-1.1,0.9-1.3-0.1C-396.2,71-395.7,70.4-395.4,69.8z"/>
<path class="st0" d="M-157.3,373.4c-0.3,0.2-0.5,0.4-0.8,0.6c-0.2-0.6-0.5-1.1-0.6-1.7c0-0.2,0.4-0.4,0.7-0.6
	C-157.7,372.2-157.5,372.8-157.3,373.4z"/>
<path class="st0" d="M637.1,686.3c0.3,0.6,0.8,1.2,0.7,1.6c-0.3,0.9-1,1-1.3,0C636.3,687.5,636.8,686.8,637.1,686.3z"/>
<path class="st0" d="M853.3,196.6c-0.3,0.2-0.5,0.4-0.8,0.6c-0.2-0.6-0.5-1.1-0.6-1.7c0-0.2,0.4-0.4,0.7-0.6
	C852.8,195.5,853.1,196.1,853.3,196.6z"/>
<path class="st0" d="M686.3,365.1c0.2,0.6,0.7,1.3,0.5,1.7c-0.3,0.9-1.1,0.9-1.3-0.1C685.4,366.2,686,365.6,686.3,365.1z"/>
<path class="st0" d="M13.9,707.8c0.2,0.6,0.8,1.2,0.6,1.7c-0.3,0.9-1,0.9-1.3,0C13.2,709,13.7,708.4,13.9,707.8z"/>
<path class="st0" d="M-195-201.7c0.2,0.6,0.7,1.2,0.6,1.7c-0.3,0.9-1.1,0.9-1.3-0.1C-195.9-200.5-195.3-201.1-195-201.7z"/>
<path class="st0" d="M-37.7,522.4c0.2,0.6,0.7,1.3,0.5,1.7c-0.3,0.9-1.1,0.9-1.3-0.1C-38.5,523.6-38,523-37.7,522.4z"/>
<path class="st0" d="M-258.7,340.1c-0.9,0.3-1.4,0-1.5-0.9c0-0.2,0.5-0.8,0.6-0.7c0.6,0.3,1.1,0.6,1.6,1
	C-258.2,339.7-258.4,339.9-258.7,340.1z"/>
<path class="st0" d="M570.2,719.9c0.2,0.3,0.6,0.6,0.6,0.8c-0.1,0.9-0.7,1.2-1.6,0.8c-0.3-0.1-0.5-0.5-0.7-0.7
	C569,720.5,569.6,720.2,570.2,719.9z"/>
<path class="st0" d="M-395,238c0.2,0.6,0.8,1.2,0.7,1.7c-0.3,0.9-1,0.9-1.3,0C-395.8,239.2-395.3,238.5-395,238z"/>
<path class="st0" d="M64.5,725.9c-0.9,0.3-1.4,0-1.5-0.9c0-0.2,0.5-0.8,0.6-0.7c0.6,0.3,1.1,0.6,1.6,1
	C65,725.4,64.8,725.7,64.5,725.9z"/>
<path class="st0" d="M-309.3,322c0.2,0.6,0.8,1.2,0.6,1.7c-0.3,0.9-1,0.9-1.3,0C-310.1,323.2-309.5,322.6-309.3,322z"/>
<path class="st0" d="M737.9,550.5c0.2,0.6,0.8,1.2,0.6,1.7c-0.3,0.9-1,0.9-1.3,0C737.1,551.7,737.7,551,737.9,550.5z"/>
<path class="st0" d="M-106.3,557c0.2,0.6,0.8,1.2,0.7,1.7c-0.3,0.9-1,0.9-1.3,0C-107.1,558.2-106.5,557.5-106.3,557z"/>
<path class="st0" d="M-328.7,35.4c0.2,0.5,0.8,1.2,0.7,1.6c-0.2,0.9-1,1-1.3,0C-329.5,36.6-328.9,36-328.7,35.4z"/>
<path class="st0" d="M115.3,740.1c0.2,0.6,0.7,1.3,0.6,1.7c-0.3,0.9-1.1,0.9-1.3-0.1C114.4,741.3,115,740.7,115.3,740.1z"/>
<path class="st0" d="M-110-118.4c0.3,0.3,0.6,0.6,0.8,0.8c-0.6,0.3-1.2,0.6-1.8,0.8c-0.1,0-0.6-0.6-0.5-0.8
	C-111.3-118.5-110.7-118.7-110-118.4z"/>
<path class="st0" d="M-311.7-14.1c-0.2,0.3-0.4,0.6-0.7,0.7c-0.8,0.4-1.6,0.1-1.6-0.8c0-0.9,0.8-1.2,1.6-0.7
	C-312.1-14.7-311.9-14.4-311.7-14.1z"/>
<path class="st0" d="M-223,574.2c0.2,0.6,0.7,1.2,0.6,1.7c-0.3,0.9-1.1,0.9-1.3-0.1C-223.9,575.3-223.3,574.7-223,574.2z"/>
<path class="st0" d="M-364.6-31.4c0.3-0.2,0.5-0.6,0.8-0.7c0.8-0.4,1.6-0.2,1.6,0.7c0,0.9-0.8,1.2-1.6,0.7
	C-364.2-30.8-364.3-31.1-364.6-31.4z"/>
<path class="st0" d="M-194.6-33.6c0.2,0.6,0.8,1.2,0.7,1.7c-0.3,0.9-1,0.9-1.3,0C-195.4-32.4-194.9-33-194.6-33.6z"/>
<path class="st0" d="M479.8-37.9c0.2,0.6,0.7,1.2,0.6,1.7c-0.3,0.9-1.1,0.9-1.3-0.1C479-36.7,479.6-37.3,479.8-37.9z"/>
<path class="st0" d="M385,772.5c0.2,0.6,0.8,1.2,0.7,1.7c-0.3,0.9-1,0.9-1.3,0C384.2,773.7,384.7,773,385,772.5z"/>
<path class="st0" d="M-173.5,592.3c-0.2-0.3-0.5-0.7-0.5-0.9c0.2-0.9,0.9-1.1,1.6-0.6c0.3,0.2,0.4,0.5,0.6,0.8
	C-172.3,591.8-172.9,592-173.5,592.3z"/>
<path class="st0" d="M429.8-55.1c0.2,0.6,0.7,1.2,0.6,1.7c-0.3,0.9-1.1,0.9-1.3-0.1C429-54,429.6-54.6,429.8-55.1z"/>
<path class="st0" d="M766.4-57.3c0.2,0.6,0.7,1.2,0.6,1.7c-0.3,0.9-1.1,0.9-1.3-0.1C765.6-56.1,766.2-56.7,766.4-57.3z"/>
<path class="st0" d="M-126.4-65.9c-0.6,0.3-1.2,0.6-1.8,0.8c-0.1,0-0.6-0.6-0.5-0.8c0.2-0.9,0.8-1.2,1.6-0.7
	C-126.8-66.4-126.6-66.1-126.4-65.9z"/>
<path class="st0" d="M-295.9-65.9c0.2,0.6,0.8,1.2,0.7,1.7c-0.3,0.9-1,0.9-1.3,0C-296.7-64.7-296.1-65.3-295.9-65.9z"/>
<path class="st0" d="M721,601.4c0.2,0.3,0.6,0.6,0.6,0.8c-0.1,0.9-0.7,1.2-1.6,0.8c-0.3-0.1-0.5-0.5-0.7-0.7
	C719.9,602,720.4,601.7,721,601.4z"/>
<path class="st0" d="M-111.3-285.7c-0.2,0.3-0.4,0.6-0.7,0.7c-0.8,0.4-1.6,0.1-1.6-0.8c0-0.9,0.8-1.2,1.6-0.7
	C-111.7-286.3-111.5-285.9-111.3-285.7z"/>
<path class="st0" d="M210-70.2c0.2,0.6,0.8,1.2,0.6,1.7c-0.3,0.9-1,0.9-1.3,0C209.2-69,209.8-69.7,210-70.2z"/>
<path class="st0" d="M99,792.7c-0.9,0.3-1.4,0-1.5-0.9c0-0.2,0.5-0.8,0.6-0.7c0.6,0.3,1.1,0.6,1.6,1C99.5,792.3,99.3,792.5,99,792.7
	z"/>
<path class="st0" d="M487,805.6c-0.3,0.5-0.5,1-0.8,1.5c-0.2-0.2-0.7-0.6-0.6-0.7c0.2-0.6,0.5-1.1,0.8-1.6
	C486.6,805.1,486.8,805.4,487,805.6z"/>
<path class="st0" d="M318.6,807.1c-0.3,0.9-0.9,1.1-1.7,0.6c-0.3-0.2-0.6-0.6-0.6-0.8c0-0.2,0.4-0.5,0.7-0.7
	C318,805.9,318.5,806.2,318.6,807.1z"/>
<path class="st0" d="M148.2,809.1c0.3-0.2,0.5-0.5,0.8-0.7c0.8-0.4,1.6-0.2,1.6,0.7c0,0.9-0.8,1.2-1.6,0.7
	C148.7,809.7,148.5,809.4,148.2,809.1z"/>
<path class="st0" d="M546.6-72.4c0.3,0.6,0.8,1.2,0.7,1.6c-0.3,0.9-1,1-1.3,0C545.8-71.2,546.3-71.8,546.6-72.4z"/>
<path class="st0" d="M200.4,826c-0.3,0.2-0.5,0.4-0.8,0.6c-0.2-0.6-0.5-1.1-0.6-1.7c0-0.2,0.4-0.4,0.7-0.6
	C200,824.8,200.2,825.4,200.4,826z"/>
<path class="st0" d="M367.3,825c-0.2-0.3-0.5-0.7-0.5-0.9c0.2-0.9,0.9-1.1,1.6-0.6c0.3,0.2,0.4,0.5,0.6,0.8
	C368.5,824.6,367.9,824.8,367.3,825z"/>
<path class="st0" d="M496.9-88.3c0.2,0.3,0.6,0.6,0.6,0.8c-0.1,0.9-0.7,1.2-1.6,0.8c-0.3-0.1-0.5-0.5-0.7-0.7
	C495.8-87.7,496.3-88,496.9-88.3z"/>
<path class="st0" d="M419,839.3c0.2,0.6,0.8,1.2,0.6,1.7c-0.3,0.9-1,0.9-1.3,0C418.2,840.5,418.8,839.8,419,839.3z"/>
<path class="st0" d="M-71.1,625.5c-0.3,0.2-0.5,0.4-0.8,0.6c-0.2-0.6-0.5-1.1-0.6-1.7c0-0.2,0.4-0.4,0.7-0.6
	C-71.5,624.4-71.3,625-71.1,625.5z"/>
<path class="st0" d="M446.7-104.7c-0.2,0.2-0.4,0.6-0.7,0.7c-0.8,0.5-1.5,0.2-1.6-0.7c0-0.9,0.7-1.2,1.5-0.8
	C446.3-105.3,446.5-104.9,446.7-104.7z"/>
<path class="st0" d="M615.2-106.9c0.2,0.6,0.7,1.2,0.6,1.7c-0.3,0.9-1.1,0.9-1.3-0.1C614.3-105.7,614.9-106.3,615.2-106.9z"/>
<path class="st0" d="M-278.2-115.4c-0.3,0.9-0.8,1.2-1.6,0.7c-0.3-0.2-0.5-0.5-0.7-0.7c0.6-0.3,1.2-0.6,1.8-0.8
	C-278.7-116.3-278.4-115.7-278.2-115.4z"/>
<path class="st0" d="M822.4,634.6c0.2,0.6,0.7,1.2,0.6,1.7c-0.3,0.9-1.1,0.9-1.3-0.1C821.6,635.7,822.2,635.1,822.4,634.6z"/>
</svg>
