<?xml version="1.0" encoding="utf-8"?>
<!-- Generator: Adobe Illustrator 28.2.0, SVG Export Plug-In . SVG Version: 6.00 Build 0)  -->
<svg version="1.1" id="Layer_1" xmlns="http://www.w3.org/2000/svg" xmlns:xlink="http://www.w3.org/1999/xlink" x="0px" y="0px"
	 viewBox="0 0 364 201" style="enable-background:new 0 0 364 201;" xml:space="preserve">
<style type="text/css">
	.st0{fill:none;stroke:url(#SVGID_1_);}
	.st1{fill:none;stroke:url(#SVGID_00000115488580817068104070000003304573193385140156_);}
	.st2{fill:none;stroke:url(#SVGID_00000137822848864698292780000009576892621751256214_);}
	.st3{fill:none;stroke:url(#SVGID_00000012464996552735228510000001928715860945321389_);}
	.st4{opacity:0.8;fill:none;stroke:url(#SVGID_00000028326675185929145860000000961673391090691994_);enable-background:new    ;}
	.st5{fill:url(#SVGID_00000042703023101709063630000003890466572556671133_);}
</style>
<linearGradient id="SVGID_1_" gradientUnits="userSpaceOnUse" x1="184.5252" y1="132.7595" x2="184.5252" y2="-10.24" gradientTransform="matrix(1 0 0 -1 0 202)">
	<stop  offset="0" style="stop-color:#41865D;stop-opacity:0"/>
	<stop  offset="1" style="stop-color:#41865D"/>
</linearGradient>
<path class="st0" d="M5.9,72.3c27.8-5.9,95.5-7.4,144.3,33.1c61,50.6,79.4,56.7,114.2,61.2c34.7,4.5,73.4,17.1,98.6,45.6"/>
<linearGradient id="SVGID_00000041999862319591924810000000579336800647357334_" gradientUnits="userSpaceOnUse" x1="156.5252" y1="132.7595" x2="156.5252" y2="-10.24" gradientTransform="matrix(1 0 0 -1 0 202)">
	<stop  offset="0" style="stop-color:#41865D;stop-opacity:0"/>
	<stop  offset="1" style="stop-color:#41865D"/>
</linearGradient>
<path style="fill:none;stroke:url(#SVGID_00000041999862319591924810000000579336800647357334_);" d="M-22.1,72.3
	c27.8-5.9,95.5-7.4,144.3,33.1c61,50.6,79.4,56.7,114.2,61.2c34.7,4.5,73.4,17.1,98.6,45.6"/>
<linearGradient id="SVGID_00000127732165736480207540000011870008514654653375_" gradientUnits="userSpaceOnUse" x1="125.5252" y1="132.7595" x2="125.5252" y2="-10.24" gradientTransform="matrix(1 0 0 -1 0 202)">
	<stop  offset="0" style="stop-color:#41865D;stop-opacity:0"/>
	<stop  offset="1" style="stop-color:#41865D"/>
</linearGradient>
<path style="fill:none;stroke:url(#SVGID_00000127732165736480207540000011870008514654653375_);" d="M-53.1,72.3
	c27.8-5.9,95.5-7.4,144.3,33.1c61,50.6,79.4,56.7,114.2,61.2c34.7,4.5,73.4,17.1,98.6,45.6"/>
<linearGradient id="SVGID_00000171700007040468680130000011403364826905687447_" gradientUnits="userSpaceOnUse" x1="93.9843" y1="134.7289" x2="90.0614" y2="-8.2177" gradientTransform="matrix(1 0 0 -1 0 202)">
	<stop  offset="0" style="stop-color:#41865D;stop-opacity:0"/>
	<stop  offset="1" style="stop-color:#41865D"/>
</linearGradient>
<path style="fill:none;stroke:url(#SVGID_00000171700007040468680130000011403364826905687447_);" d="M-98.2,65.1
	c30-5,102.9-4.6,154.2,37.3c64.2,52.4,83.8,59,121.1,64.5c37.2,5.5,78.4,19.2,104.7,48.5"/>
<linearGradient id="SVGID_00000181060936874789982870000013189708831865774780_" gradientUnits="userSpaceOnUse" x1="237.7158" y1="226.2746" x2="235.8948" y2="136.9779" gradientTransform="matrix(0.9727 -0.2321 -0.2321 -0.9727 25.1423 286.6988)">
	<stop  offset="0" style="stop-color:#41865D"/>
	<stop  offset="1" style="stop-color:#41865D;stop-opacity:0"/>
</linearGradient>
<circle style="opacity:0.8;fill:none;stroke:url(#SVGID_00000181060936874789982870000013189708831865774780_);enable-background:new    ;" cx="214.5" cy="60.5" r="49.7"/>
<radialGradient id="SVGID_00000046307711236057960790000008973771311484537749_" cx="156.2093" cy="121.3256" r="1" gradientTransform="matrix(0 43 43 0 -4997 -6654)" gradientUnits="userSpaceOnUse">
	<stop  offset="0.1458" style="stop-color:#FFFFFF;stop-opacity:0"/>
	<stop  offset="1" style="stop-color:#FFFFFF;stop-opacity:8.000000e-02"/>
</radialGradient>
<circle style="fill:url(#SVGID_00000046307711236057960790000008973771311484537749_);" cx="220" cy="63" r="43"/>
</svg>
