<?xml version="1.0" encoding="utf-8"?>
<!-- Generator: Adobe Illustrator 28.2.0, SVG Export Plug-In . SVG Version: 6.00 Build 0)  -->
<svg version="1.1" id="Layer_1" xmlns="http://www.w3.org/2000/svg" xmlns:xlink="http://www.w3.org/1999/xlink" x="0px" y="0px"
	 viewBox="0 0 364 201" style="enable-background:new 0 0 364 201;" xml:space="preserve">
<style type="text/css">
	.st0{fill:#6C6C6C;}
</style>
<path class="st0" d="M151.2-532.8c0.6,1.2,1.1,2.4,2,4.2c-1.3,0.5-2.3,0.9-3.1,1.2c-2.1-2-0.6-3.8-1-5.4
	C149.7-532.8,150.5-532.8,151.2-532.8z"/>
<path class="st0" d="M171-95.9c11.9,0,21.1,9,21.3,20.8c0.2,12.3-9.4,21.7-21.7,21.5c-11.7-0.2-21-9.1-20.8-21.3
	C150-88.4,160.7-96.2,171-95.9z"/>
<path class="st0" d="M-10.9,462.6c11.8,0,21,9.4,20.9,21.1c-0.2,11.4-9,20.3-20.4,20.4c-11.9,0.2-21.3-8.8-21.4-20.6
	C-32,471.9-22.7,462.6-10.9,462.6z"/>
<path class="st0" d="M120.3-69.9c-11.5-0.2-21.1-10.2-20.7-21.8c0.4-11.1,10.1-20.6,21.1-20.2c11.8,0.4,20.9,9.2,20.5,21.7
	C140.8-77,130.1-70.1,120.3-69.9z"/>
<path class="st0" d="M26.9,432.8c0.2,11.7-8.6,20.3-20,20.9c-11.3,0.6-21.4-9.4-21.4-20.8c0-11.5,10-21.3,21.3-20.9
	C18.1,412.3,26.9,421.3,26.9,432.8z"/>
<path class="st0" d="M77.1,448.7c0.2,10.6-8.8,20-19.4,20.5c-11.2,0.5-20.6-8.6-20.9-19.9c-0.3-9.3,6.9-20.3,20.3-20.5
	C67.8,428.6,76.9,438.1,77.1,448.7z"/>
<path class="st0" d="M156.7-141.7c0.1,10.7-9,20-19.7,20.3c-10.8,0.2-20-8.6-20.4-19.4c-0.4-11.3,8.9-21,20.1-20.9
	C147.4-161.6,156.6-152.4,156.7-141.7z"/>
<path class="st0" d="M90.1,496.9c11.5-0.1,20.4,8.8,20.3,20.2c-0.2,11-8.8,19.5-19.8,19.6c-11.4,0.1-20.6-9-20.4-20.2
	C70.3,505.6,79.1,497,90.1,496.9z"/>
<path class="st0" d="M59.1,499.6c0,11.2-8.5,19.7-19.7,19.5c-11-0.1-19.8-9.2-19.5-20c0.3-10.4,8.9-18.9,19.4-19.1
	C50.5,479.9,59.1,488.4,59.1,499.6z"/>
<path class="st0" d="M153.8-4.9c-10.3,0-19.1-8.8-19.2-19.1c-0.1-10.5,9.4-19.8,19.9-19.5c10.4,0.4,18.6,9.2,18.5,19.7
	C172.8-13.3,164.2-4.8,153.8-4.9z"/>
<path class="st0" d="M3,381.8c0.3-10.9,9.5-19.3,20.6-18.7c10.7,0.5,18.4,9.1,18,20c-0.4,10.6-9.1,18.7-19.8,18.3
	C11.4,401,2.7,392,3,381.8z"/>
<path class="st0" d="M-25.3,416.2c0.2,10.8-7.9,19.3-18.6,19.5c-10.6,0.2-19.7-8.1-19.7-18.6c0-10.8,8.4-19.4,18.8-19.5
	C-33.9,397.6-25.5,405.4-25.3,416.2z"/>
<path class="st0" d="M73,417.3c-10.4-0.1-19-9-18.8-19.4c0.2-10.4,9.3-19.1,19.5-18.7c10,0.4,18.2,8.9,18.3,18.9
	C92.1,408.6,83.3,417.4,73,417.3z"/>
<path class="st0" d="M-9.7,366.4c-0.2,10.2-8.3,18.4-18.4,18.5c-10.3,0.1-19.1-8.8-18.9-19.2c0.2-10,8.6-18.6,18.5-18.4
	C-17.8,347.4-9.4,355.2-9.7,366.4z"/>
<path class="st0" d="M107.4,447.7c10.4-0.1,18.4,7.8,18.6,18.1c0.2,10.5-7.4,18.4-17.8,18.9c-11.3,0.5-19.4-9.1-19.4-18.6
	C88.9,456,97.3,447.7,107.4,447.7z"/>
<path class="st0" d="M160.2,532.5c0.2,10.5-7.6,18.7-17.9,18.8c-10.2,0.1-18.8-8.3-18.7-18.3c0-9.5,8.1-17.9,17.7-18.3
	C151.5,514.2,159.9,522.1,160.2,532.5z"/>
<path class="st0" d="M171.8,112.2c-9.8-0.2-17.7-8.2-17.6-17.9c0.1-10.1,8.6-18,19-17.6c9.9,0.4,17.2,8.5,16.9,18.5
	C189.7,105,181.8,112.4,171.8,112.2z"/>
<path class="st0" d="M103.6-157c-0.5,9.8-8.6,17.1-18.6,16.6c-9.9-0.4-16.9-8.5-16.3-18.7c0.6-9.4,8.3-16.4,17.8-16.1
	C96.3-174.9,104.1-166.6,103.6-157z"/>
<path class="st0" d="M225.4,465.3c-9.9,0.2-17.9-7.5-18-17.2c-0.1-9.7,7.8-17.6,17.7-17.6c9.5,0,17,7.2,17.3,16.7
	C242.7,457.3,235.3,465.1,225.4,465.3z"/>
<path class="st0" d="M155.3,26.4c0.1,9.5-8.3,18.1-17.7,17.8c-9.7-0.4-17-7.4-17.3-16.9c-0.3-9.5,6.1-17.6,17-18.3
	C146.8,8.4,155.3,16.8,155.3,26.4z"/>
<path class="st0" d="M237.9-226.9c0.1,9.7-7,17.2-16.5,17.5c-10,0.3-18.1-7.3-18.2-17.1c-0.1-9.7,8.1-17.8,17.9-17.6
	C230.5-243.9,237.8-236.5,237.9-226.9z"/>
<path class="st0" d="M204.7-125.8c0.2,9.2-7.3,17.2-16.5,17.6c-10,0.5-17.9-6.9-18.1-16.9c-0.2-9.6,6.8-17.2,16.2-17.7
	C196-143.2,204.5-135.4,204.7-125.8z"/>
<path class="st0" d="M102.6-225.3c9.6,0.2,16.8,7.8,16.5,17.4c-0.2,9.5-8,16.9-17.5,16.6c-9.4-0.3-17.1-8.4-16.8-17.5
	C85.2-218.2,93.1-225.5,102.6-225.3z"/>
<path class="st0" d="M373.9-194.1c9.3,0.9,16.4,9.5,15.5,18.5c-1,9.3-9.6,16.4-18.6,15.3c-9.3-1.2-15.9-9.6-14.8-18.9
	C356.9-187.9,365.3-194.9,373.9-194.1z"/>
<path class="st0" d="M225.7,498.8c-0.2,9.5-8,16.7-17.7,16.3c-9.1-0.4-16.1-7.8-15.9-16.9c0.2-9.6,7.9-16.7,17.6-16.3
	C218.8,482.3,225.9,489.8,225.7,498.8z"/>
<path class="st0" d="M188.2,60.4c-9.2-0.1-16.5-7.1-16.8-16.2c-0.3-9.4,7.4-17.1,17-17.1c9.6,0,17,7.7,16.7,17.3
	C204.8,53.5,197.5,60.4,188.2,60.4z"/>
<path class="st0" d="M136.2-260.3c0.1,9.1-6.9,16.5-16.1,16.8c-9.7,0.3-17.5-7-17.6-16.4c-0.1-9,7.1-16.5,16.2-16.8
	C128.4-277.1,136.1-269.8,136.2-260.3z"/>
<path class="st0" d="M174.8,482.3c0,8.9-7.4,16.5-16.3,16.8c-9.2,0.3-17.1-7.7-16.8-17.2c0.3-10.9,8.9-16.1,16.7-16.2
	C167.3,465.6,174.8,473.4,174.8,482.3z"/>
<path class="st0" d="M-61.6,483.9c-8.8,0-16.2-7.4-16.2-16.5C-78,458.3-71,451-62,450.7c9.1-0.3,17.2,7.8,17,17
	C-45.2,476.4-52.9,483.9-61.6,483.9z"/>
<path class="st0" d="M389-244.1c9,0.1,16.4,7.6,16.3,16.5c-0.1,8.9-7.5,16.2-16.6,16.1c-9.2-0.1-16.1-7.1-16.1-16.4
	C372.6-237.1,379.8-244.2,389-244.1z"/>
<path class="st0" d="M169.6-226.7c-8.9-0.3-16.3-8.1-15.9-16.8c0.5-8.9,8.4-16,17.2-15.5c8.6,0.5,15.1,7.6,15.1,16.3
	C186-233.6,178.7-226.5,169.6-226.7z"/>
<path class="st0" d="M121.3,94.3c-8.7-0.1-15.5-7.1-15.6-15.8c-0.1-9.1,7.3-16.6,16.3-16.4c8.4,0.2,15.7,7.5,15.9,15.9
	C138,86.9,130.2,94.5,121.3,94.3z"/>
<path class="st0" d="M70.3-91.1c-8.5,0.2-15.8-6.5-16.3-15c-0.5-9.1,6.5-16.7,15.4-17c8.7-0.3,16.6,7.5,16.5,16.1
	C85.9-98.6,78.7-91.3,70.3-91.1z"/>
<path class="st0" d="M321.9-177.3c-9,0-16.1-7.5-15.8-16.6c0.3-8.6,7.4-15.5,15.9-15.5c8.7,0,16.4,8,16,16.6
	C337.6-184.2,330.4-177.3,321.9-177.3z"/>
<path class="st0" d="M353.8-244.4c0.2,8.8-6.4,15.8-15.2,16c-8.9,0.2-15.9-6.3-16.2-15c-0.3-8.6,6.6-15.8,15.3-16
	C346.5-259.7,353.5-253.1,353.8-244.4z"/>
<path class="st0" d="M136-295.2c-8.9,0.2-15.9-6.4-16.2-15.1c-0.3-8.6,6.6-15.8,15.3-16c8.9-0.2,15.9,6.4,16.1,15.1
	C151.5-302.4,144.8-295.4,136-295.2z"/>
<path class="st0" d="M-11.5,534.3c-0.1,8.8-7.1,15.4-16.1,15.2c-8.8-0.2-15.5-7.4-15.1-16.2c0.4-8.3,7.2-14.7,15.5-14.7
	C-18.3,518.6-11.4,525.5-11.5,534.3z"/>
<path class="st0" d="M168.4-192c-0.1,8.8-7.1,15.4-16.1,15.2c-8.8-0.2-15.6-7.4-15.1-16.2c0.4-8.4,7-14.7,15.5-14.7
	C161.5-207.7,168.5-200.8,168.4-192z"/>
<path class="st0" d="M221.2-7.2c0.2,8.8-6.7,15.7-15.6,15.7c-8.5,0-15.2-6.2-15.6-14.6c-0.5-8.7,6.3-16,15-16.3
	C213.9-22.6,221-16,221.2-7.2z"/>
<path class="st0" d="M-62.3,518c0,8.1-6.9,15.1-15,15.4c-8.5,0.3-15.7-6.9-15.7-15.6c0-8.3,6.7-15.2,14.8-15.4
	C-69.7,502.2-62.2,509.5-62.3,518z"/>
<path class="st0" d="M139,415.8c-0.1,8.9-6.8,15.3-15.8,15.1c-8.2-0.2-14.8-6.8-15-15c-0.2-8.6,6.8-15.6,15.5-15.7
	C132.5,400.1,139.1,406.9,139,415.8z"/>
<path class="st0" d="M201.3-293.4c0,8.6-6.4,15-14.9,15.1c-8.3,0.1-15.2-6.5-15.5-14.7c-0.3-8.5,7.1-15.8,15.7-15.6
	C195-308.5,201.3-301.9,201.3-293.4z"/>
<path class="st0" d="M192.8,534c8.3,0.1,14.8,6.6,14.8,15c0.1,8.5-6.2,15-14.6,15.2c-8.6,0.2-15.9-7.1-15.6-15.5
	C177.6,540.7,184.7,534,192.8,534z"/>
<path class="st0" d="M260,500.9c8.5,0.2,14.6,6.8,14.4,15.4c-0.2,8.3-7.1,14.8-15.4,14.5c-8.1-0.3-15-7.6-14.6-15.5
	C244.6,507.1,251.6,500.7,260,500.9z"/>
<path class="st0" d="M218.3-176.6c0.2,8.4-6,15.2-14.4,15.6c-8.1,0.3-15.3-6.4-15.7-14.5c-0.4-8,6.4-15.1,14.6-15.4
	C211.5-191.1,218.1-185,218.3-176.6z"/>
<path class="st0" d="M174.7,417c8.3,0.2,15.1,7.3,14.7,15.3c-0.4,8.3-7.5,14.6-15.9,14.1c-8-0.4-14-6.7-13.9-14.8
	C159.6,423.1,166.1,416.8,174.7,417z"/>
<path class="st0" d="M-64.1,348.5c0.1,8.3-6.6,15.1-14.8,15.1c-8.1-0.1-15-7.1-14.8-15.2c0.2-7.7,6.7-14.3,14.4-14.6
	C-71.3,333.5-64.2,340.4-64.1,348.5z"/>
<path class="st0" d="M237.5,111.6c-0.5,8.3-7.4,14.2-15.9,13.6c-7.7-0.6-14-7.4-13.7-15c0.3-8.1,7.3-14.5,15.6-14.1
	C231.9,96.3,238,103.1,237.5,111.6z"/>
<path class="st0" d="M422.8-175.4c8.5-0.2,15.1,6.2,15,14.6c-0.1,8-6.2,14.2-14.2,14.4c-8.3,0.2-15.3-6.5-15.2-14.6
	C408.5-168.8,415-175.3,422.8-175.4z"/>
<path class="st0" d="M103.6,347.6c0,7.8-6.4,14.2-14.3,14.2c-8.1,0-14.2-6-14.2-14.1c0-8.1,6.1-14.3,14.1-14.3
	C97.1,333.4,103.6,339.8,103.6,347.6z"/>
<path class="st0" d="M276.7,451.2c8,0.6,13.5,7.3,12.7,15.6c-0.7,7.4-7.5,13.1-14.9,12.4c-7.4-0.7-13.4-7.4-13-14.6
	C261.8,456.7,268.8,450.6,276.7,451.2z"/>
<path class="st0" d="M236.8-291.3c7.9,0,14,6.5,13.8,14.5c-0.2,7.6-6.2,13.4-13.8,13.4c-7.7,0-14.4-6.9-14.1-14.4
	C223.1-285.1,229.6-291.3,236.8-291.3z"/>
<path class="st0" d="M-11.7,329.3c-7.5,0.2-13.7-5.5-14.1-13c-0.4-8.1,5.5-14.6,13.4-14.9c7.6-0.2,14.5,6.6,14.4,14.2
	C1.9,322.7-4.4,329.1-11.7,329.3z"/>
<path class="st0" d="M142.4,145c0-7.5,6.3-13.8,13.7-13.7c7.3,0.1,13.8,6.7,13.7,13.9c-0.1,7.3-6.6,13.7-13.9,13.7
	C148.5,158.7,142.4,152.5,142.4,145z"/>
<path class="st0" d="M284.8-208.9c-0.8,7-7.4,12.5-14.2,12c-7.5-0.5-13.3-7.3-12.7-14.7c0.6-7.5,7.7-13.5,14.8-12.6
	C280.2-223.2,285.6-216.4,284.8-208.9z"/>
<path class="st0" d="M52.2,331.7c-0.1,7.6-6.1,13.4-13.8,13.3c-7.6-0.1-13.7-6.2-13.5-13.7c0.1-7.5,6.3-13.3,13.9-13.3
	C46.5,318.1,52.3,324,52.2,331.7z"/>
<path class="st0" d="M-81.7,399.8c-0.2,6.9-6.2,12.9-13.1,13c-7.3,0.2-13.5-6.2-13.3-13.7c0.2-7.2,5.9-12.9,12.9-13
	C-87.9,385.9-81.5,392.5-81.7,399.8z"/>
<path class="st0" d="M293.2-142.8c0.1-7.1,6-12.9,13-12.7c6.4,0.3,12.1,6,12.4,12.4c0.3,6.8-5.7,13-12.7,13.1
	C298.8-129.8,293.1-135.6,293.2-142.8z"/>
<path class="st0" d="M209.1-57.9c0.2-7.3,5.9-12.6,13.4-12.3c6.8,0.3,12.3,5.9,12.3,12.5c0.1,6.8-6.2,13.1-13.1,13
	C214.4-44.7,208.9-50.5,209.1-57.9z"/>
<path class="st0" d="M394.6-110.8c0.2-6.7,5.8-12.2,12.4-12.3c6.8-0.1,13,6.4,12.7,13.2c-0.3,6.6-6,12.2-12.6,12.2
	C400.1-97.6,394.3-103.6,394.6-110.8z"/>
<path class="st0" d="M322.5-12.6c-6.9-0.2-12.1-5.7-12.1-12.6c0-7.3,5.7-12.8,13.2-12.5c6.8,0.2,12.3,5.9,12.3,12.5
	C335.9-18.3,329.7-12.4,322.5-12.6z"/>
<path class="st0" d="M241.7-159.7c-0.1-6.7,5.4-12.5,12-12.8c6.8-0.3,13.1,6.1,12.9,13c-0.2,6.6-6.1,12.3-12.6,12.2
	C247.3-147.4,241.7-153.1,241.7-159.7z"/>
<path class="st0" d="M35.5,550.2c0,7-5.2,12.2-12.2,12.1c-6.4-0.1-11.6-5.1-12-11.4c-0.4-6.6,5.1-12.5,11.8-12.7
	C30.1,538,35.4,543.2,35.5,550.2z"/>
<path class="st0" d="M100.3,179.3c0.1,7-5,12.2-11.9,12.3c-6.8,0.1-12.4-5.2-12.5-11.9c-0.1-6.7,5.3-12.3,12.1-12.4
	C94.9,167.3,100.2,172.4,100.3,179.3z"/>
<path class="st0" d="M356.8-138.6c6.7,0.2,12.1,5.8,11.9,12.5c-0.2,6.7-5.8,11.9-12.6,11.8c-7-0.2-12-5.4-11.8-12.4
	C344.5-133.7,349.8-138.8,356.8-138.6z"/>
<path class="st0" d="M23.4-175.4c0.2-6.9,6-12.3,12.6-11.8c6.3,0.5,11.4,5.8,11.5,12.1c0.1,6.6-5.8,12.5-12.3,12.4
	C28.6-162.8,23.3-168.5,23.4-175.4z"/>
<path class="st0" d="M60.2,230.5c-0.1-6.6,4.5-11.8,11-12.3c6.7-0.5,12.7,5,12.9,11.7c0.2,6.5-5.8,12.5-12.3,12.4
	C65.5,242.2,60.4,237,60.2,230.5z"/>
<path class="st0" d="M326.1,493.2c-6.6-0.1-11.5-5-11.6-11.5c-0.2-7,5.2-12.5,12-12.3c6.3,0.1,11.6,5.3,11.9,11.6
	C338.6,487.6,332.9,493.3,326.1,493.2z"/>
<path class="st0" d="M67.6,281.3c-0.2,6.6-5.1,11.4-11.7,11.5c-6.8,0-12.5-5.7-12.2-12.3c0.3-6.3,5.6-11.4,11.9-11.5
	C62.5,268.8,67.8,274.3,67.6,281.3z"/>
<path class="st0" d="M-51,297.8c0.1,6.5-4.5,11.7-10.9,12.1c-6.7,0.4-12.6-4.9-12.8-11.5c-0.2-6.5,5.6-12.3,12.2-12.2
	C-56.2,286.3-51.1,291.4-51,297.8z"/>
<path class="st0" d="M440.8-223c6.5,0.7,10.8,6.1,10.1,12.9c-0.7,6.4-6.3,10.8-12.9,10.1c-6.3-0.7-11.2-6.8-10.3-12.9
	C428.6-219.4,434.3-223.7,440.8-223z"/>
<path class="st0" d="M114.7-40.2c0,6.3-5.4,11.6-11.6,11.5c-6.1-0.1-11.7-5.6-11.6-11.7c0.1-6,5.8-11.6,11.8-11.6
	C109.5-51.9,114.7-46.5,114.7-40.2z"/>
<path class="st0" d="M-128.1,512.8c-6.5,0.1-11.6-4.8-11.5-11.3c0.1-6,4.9-10.7,10.9-10.9c6.6-0.2,11.5,4.7,11.4,11.3
	C-117.4,508.1-121.9,512.7-128.1,512.8z"/>
<path class="st0" d="M105,140c-6.1-0.2-10.6-4.8-10.6-11c0-6.6,5-11.4,11.6-11.1c6,0.2,10.7,5.1,10.7,11
	C116.7,135.2,111.5,140.2,105,140z"/>
<path class="st0" d="M238.2-97.1c-6.5,0.1-11.6-4.8-11.5-11.3c0.1-6,4.9-10.7,10.9-10.9c6.6-0.2,11.5,4.7,11.4,11.3
	C248.9-101.8,244.4-97.3,238.2-97.1z"/>
<path class="st0" d="M125.1,594.6c-6.2,0.1-10.9-4.2-11.1-10.4c-0.2-6.2,4.1-11.1,10.1-11.5c6.4-0.4,11.9,4.7,11.9,11
	C135.9,589.6,131.1,594.4,125.1,594.6z"/>
<path class="st0" d="M282.9-40.9c-0.2,6.2-5.2,10.6-11.3,10.2c-5.4-0.4-10.1-5.3-10.1-10.7c0-5.7,5.3-10.9,11.1-10.8
	C278.6-52,283.2-47,282.9-40.9z"/>
<path class="st0" d="M84.9,567.5c0,6-4.9,11-10.8,11c-5.7,0-11-5.3-11-11c0-5.8,5.2-10.9,11-10.9C80.1,556.6,84.9,561.4,84.9,567.5z
	"/>
<path class="st0" d="M-101.5,450.1c-0.1,5.8-5.5,10.8-11.3,10.5c-5.6-0.4-9.9-5-9.8-10.7c0.1-6,5.3-11,11.1-10.5
	C-106.2,439.8-101.4,444.9-101.5,450.1z"/>
<path class="st0" d="M150.6,365.3c-0.3,5.9-5.6,10.4-11.6,9.9c-5.7-0.5-9.7-5-9.5-10.8c0.2-6.1,5.1-10.4,11.4-9.9
	C146.4,355,150.9,360,150.6,365.3z"/>
<path class="st0" d="M374.1-18.3c5.7,0.2,10,4.6,10.1,10.3c0.1,6.1-4.8,10.7-10.9,10.5c-5.6-0.2-10.2-4.8-10.3-10.3
	C362.8-13.6,368-18.5,374.1-18.3z"/>
<path class="st0" d="M30-124.3c-0.5,3.6-1.9,6.8-5.2,8.8c-2.2,1.3-4.6,1.7-7.2,1.4c-5.2-0.7-8.9-5-8.9-10.3c0-5.4,3.7-9.6,8.9-10.2
	C24.1-135.4,26.9-133,30-124.3z"/>
<path class="st0" d="M297.7-261c-0.1,5.5-5,10.3-10.4,10.2c-5.4-0.1-10.1-5-10-10.5c0.1-5.4,5-10.3,10.4-10.2
	C293-271.4,297.8-266.4,297.7-261z"/>
<path class="st0" d="M106.5,307.4c-5.4,0.1-10.2-4.8-10.3-10.3c0-5.5,4.7-10.4,10.2-10.4c5.4,0,10.2,4.9,10.3,10.3
	C116.7,302.5,112,307.3,106.5,307.4z"/>
<path class="st0" d="M349.4-75.9c0,5.5-4.7,10.3-10.2,10.4c-5.4,0-10.2-4.8-10.2-10.3c0-5.5,4.8-10.4,10.2-10.4
	C344.5-86.2,349.4-81.3,349.4-75.9z"/>
<path class="st0" d="M320.3,531.4c0.3,5.5-4.2,10.5-9.7,10.9c-5.4,0.3-10.4-4.3-10.8-9.8c-0.3-5.4,4.2-10.6,9.7-10.9
	C314.8,521.2,320,525.9,320.3,531.4z"/>
<path class="st0" d="M288.4-82c-5.7,0-10.2-4.5-10.1-10.1c0.1-5.6,4.6-10,10.3-10c5.7,0,10.2,4.6,10.2,10.2
	C298.7-86.3,294.2-81.9,288.4-82z"/>
<path class="st0" d="M473.1-133.7c-5.7-0.3-9.8-5.1-9.4-10.8c0.4-5.6,5.1-9.6,10.9-9.3c5.6,0.3,9.9,5.1,9.4,10.8
	C483.6-137.3,478.9-133.4,473.1-133.7z"/>
<path class="st0" d="M238.4,69.9c-5.4-0.3-10-5.8-9.4-11c0.6-5,5.4-9.1,10.4-8.8c5.7,0.3,9.7,5,9.1,10.9
	C248.1,66.2,243.5,70.3,238.4,69.9z"/>
<path class="st0" d="M243.1,556.5c5.2-0.1,9.5,3.9,9.8,9.2c0.3,5.8-3.9,10.6-9.5,10.7c-4.9,0.1-9.6-4.3-10.1-9.3
	C232.9,561.8,237.7,556.6,243.1,556.5z"/>
<path class="st0" d="M5.1,274.9c-8.3-3.6-10.5-6.6-9.4-12.5c0.9-4.3,4.7-7.4,9.1-7.6c4.6-0.1,9,3.3,10.1,8c0.5,2.2,0.1,4.2-0.9,6.2
	C12.7,271.6,11.9,272.2,5.1,274.9z"/>
<path class="st0" d="M52-235.4c5.8,0.3,9.7,4.9,9.2,10.8c-0.5,5.3-4.8,9-10.2,8.7c-5.2-0.3-9.4-4.7-9.4-9.7
	C41.5-231.1,46.4-235.7,52-235.4z"/>
<path class="st0" d="M390-49.9c-5.6,0.1-10.3-4.6-10.1-10.1c0.2-5.1,4.5-9.4,9.7-9.5c5.7-0.2,10.1,4.3,9.9,10.1
	C399.4-54,395.3-50,390-49.9z"/>
<path class="st0" d="M37.1,152.6c5-0.2,9.7,3.9,10.2,9c0.5,5.4-4.2,10.4-9.8,10.4c-5.3,0-9.4-4.1-9.5-9.5
	C27.9,157.1,31.9,152.9,37.1,152.6z"/>
<path class="st0" d="M175.1,590.4c4.8-0.2,9.7,4.5,9.7,9.4c0,4.5-4,8.9-8.6,9.4c-5,0.5-9.8-3.6-10-8.8
	C165.9,595.2,170,590.6,175.1,590.4z"/>
<path class="st0" d="M216,161.2c0,5.3-4,9.4-9.3,9.5c-5.1,0-9.6-4.2-9.7-9.3c-0.1-5,4.2-9.4,9.5-9.4
	C211.9,151.9,216,155.8,216,161.2z"/>
<path class="st0" d="M122.4,237.1c3.3,0.3,6.1,1.6,8,4.5c1.2,1.9,1.6,3.9,1.3,6.1c-0.6,4.2-4.5,7.7-8.7,7.9
	c-4.2,0.2-8.2-3.1-9.1-7.3C112.7,242.9,114.6,240.4,122.4,237.1z"/>
<path class="st0" d="M53.5,120.8c-5-0.1-8.9-3.8-9.2-8.7c-0.3-5.2,4.1-9.6,9.5-9.5c5.1,0.1,8.9,3.7,9.1,8.7
	C63.1,116.7,59,120.9,53.5,120.8z"/>
<path class="st0" d="M190.4,372c5.4-0.1,9.8,4.3,9.5,9.5c-0.3,4.9-4.2,8.7-9.2,8.7c-5.5,0.1-9.6-4.2-9.4-9.5
	C181.5,375.7,185.3,372,190.4,372z"/>
<path class="st0" d="M262.4-328.3c0.2,4.8-3.6,9-8.5,9.4c-5.6,0.4-9.9-3.4-10.1-8.8c-0.2-5,3.5-9,8.4-9.4
	C257.7-337.5,262.2-333.6,262.4-328.3z"/>
<path class="st0" d="M173.4,253.7c5.1,0.1,8.7,3.8,8.6,9c-0.1,5.1-3.8,8.7-8.9,8.6c-4.9-0.1-8.9-4.1-8.8-8.9
	C164.4,257.6,168.5,253.7,173.4,253.7z"/>
<path class="st0" d="M21.4,204.3c4.8,0,8.9,4.2,8.8,8.9c-0.2,4.8-4.4,8.7-9.3,8.4c-4.6-0.2-7.9-3.7-8-8.4
	C12.7,208.1,16.4,204.3,21.4,204.3z"/>
<path class="st0" d="M147.3,196c-0.1,5.1-4.1,8.6-9.2,8.3c-4.4-0.3-8-4-8.2-8.4c-0.1-4.7,4-8.9,8.8-8.9
	C143.7,187,147.4,191,147.3,196z"/>
<path class="st0" d="M405.5-269.9c-4.4-0.2-8.1-4.1-8.2-8.4c-0.1-4.6,4.4-8.9,9-8.7c4.8,0.2,8.5,4.6,8,9.5
	C413.9-273,410-269.7,405.5-269.9z"/>
<path class="st0" d="M312.3-311.6c-0.2,4.6-4.7,8.6-9.4,8.2c-4.4-0.4-7.7-4.1-7.6-8.7c0.1-5,4-8.5,9.2-8.1
	C308.8-319.7,312.4-315.8,312.3-311.6z"/>
<path class="st0" d="M449.3-93.5c0.2-4.2,4.3-8.1,8.5-8c4.7,0,8.6,4.5,8.1,9.3c-0.4,4.4-4.5,7.8-8.8,7.4
	C452.8-85.1,449.1-89.3,449.3-93.5z"/>
<path class="st0" d="M79.6,60.6c0.2,4-3.5,8.3-7.7,8.8c-4.9,0.6-9.1-3-9.3-8c-0.2-4.7,2.9-8.3,7.4-8.7
	C74.9,52.3,79.3,55.9,79.6,60.6z"/>
<path class="st0" d="M255.9,1.2c4.4-0.1,8.3,3.2,8.7,7.5c0.4,4.6-3.7,8.8-8.6,8.7c-4.6-0.1-8-3.5-8-8.1C248,4.8,251.3,1.3,255.9,1.2
	z"/>
<path class="st0" d="M-113.4,273.7c4.2-0.1,8.1,3.7,8.1,8.1c0.1,4.4-3.7,8.2-7.9,8.3c-4.2,0.1-8.1-3.9-8.2-8.1
	C-121.5,277.8-117.6,273.8-113.4,273.7z"/>
<path class="st0" d="M250.3,397.6c-0.2,4.6-3.9,7.8-8.7,7.5c-4.2-0.3-7.4-3.6-7.5-7.7c-0.1-4.5,3.6-8.1,8.2-8.1
	C246.9,389.4,250.4,393,250.3,397.6z"/>
<path class="st0" d="M307,33.6c-3.7-0.9-6.3-2.1-7.2-5.2c-0.5-1.6-0.6-3.5-0.2-5.2c0.6-3.2,3.8-5.5,7-5.7c3.4-0.1,7,2.5,8,6
	C315.7,27.8,313.9,30.2,307,33.6z"/>
<path class="st0" d="M354.5-302.3c4.5,0.1,8.1,4.1,7.6,8.5c-0.4,4-3.9,7-8,7c-4.6,0-7.9-3.7-7.5-8.4
	C347-299.5,350.3-302.5,354.5-302.3z"/>
<path class="st0" d="M92.8-326.4c-0.3,4.4-4.3,7.6-8.9,7.1c-4.1-0.5-6.9-3.8-6.6-8.2c0.3-4.6,4.1-7.8,8.7-7.1
	C90-334,93.1-330.3,92.8-326.4z"/>
<path class="st0" d="M164.6,313.1c0,4.2-3,7.5-7.2,7.6c-4,0.1-7.6-3-8-7c-0.4-4.2,3.5-8.3,7.9-8.2
	C161.4,305.7,164.5,308.9,164.6,313.1z"/>
<path class="st0" d="M159.4-361.3c-1.1,4.8-3.7,7.8-8.9,7.2c-3.6-0.4-6.1-3.8-6-7.5c0.1-3.6,2.9-6.9,6.5-7.1
	C156.1-369,158.5-365.9,159.4-361.3z"/>
<path class="st0" d="M-47,240.3c4.2-0.2,7.8,2.9,8,6.9c0.1,3.9-3.5,7.5-7.5,7.6c-3.7,0-6.9-2.8-7.2-6.5
	C-54.1,243.9-51.3,240.6-47,240.3z"/>
<path class="st0" d="M273.7,134.1c-3.9,0.1-7.7-3.4-7.7-7.3c0-4,3.6-7.3,7.8-7.2c3.9,0.1,6.7,2.8,7,6.7
	C280.9,130.5,277.9,134,273.7,134.1z"/>
<path class="st0" d="M-96.8,224.3c2.9,0.5,5.3,2,6.2,5c0.4,1.3,0.3,2.8,0,4.1c-0.9,3.1-4.4,5.2-7.3,4.8c-2.8-0.4-5.2-2.6-5.8-5.4
	c-0.4-1.8-0.1-3.5,0.8-5.1C-101.6,225.4-99.4,224.4-96.8,224.3z"/>
<path class="st0" d="M207.6,323.3c4.7,1.1,7.4,3.4,6.9,8.2c-0.3,3.1-3.4,5.9-6.4,6c-2.9,0.1-6.4-2.4-7-5.4
	C200.2,327.3,202.7,324.8,207.6,323.3z"/>
<path class="st0" d="M-129.5,325.4c4.9,1.5,7.5,4,6.7,8.7c-0.5,3-3.9,5.6-6.9,5.5c-3-0.1-6.2-2.8-6.5-5.9c-0.1-1.3,0.2-2.8,0.5-4.1
	C-135.2,328.3-135,328.3-129.5,325.4z"/>
<path class="st0" d="M496.7-193.9c-0.2,3.8-3.3,6.5-7.2,6.2c-3.8-0.3-6.6-3.4-6.3-7.1c0.3-3.7,3.5-6.5,7.3-6.3
	C494.2-200.9,496.9-197.7,496.7-193.9z"/>
<path class="st0" d="M203.2-337.4c-3-0.4-4.9-1.1-6.2-3c-1-1.5-1.3-3.3-1-5.1c0.5-2.8,3.1-5.1,5.8-5.3c2.6-0.2,5.6,1.8,6.7,4.4
	C209.9-343.2,208.8-341.2,203.2-337.4z"/>
<path class="st0" d="M13.6,44.5c1.6-4.3,3.9-6.8,8.3-5.8c2.9,0.7,4.7,3.5,4.5,6.5c-0.2,3-2.3,5.6-5.2,5.9
	C16.8,51.6,14.7,49,13.6,44.5z"/>
<path class="st0" d="M-100.2,568.1c1.7-4.2,3.9-6.7,8.2-5.3c2.5,0.8,4,2.8,4.1,5.6c0,3-1.9,5.7-4.8,6.1
	C-97.1,575.1-99.2,572.6-100.2,568.1z"/>
<path class="st0" d="M195.9,212.1c-0.2,3.1-3.1,6-6.3,6c-3.8,0.1-6.6-3.1-6.2-7c0.4-3.4,3.2-5.7,6.7-5.4
	C193.4,206.1,196.1,208.9,195.9,212.1z"/>
<path class="st0" d="M-140.4,383.5c-1.6,4.3-3.8,6.8-8.1,5.5c-2.5-0.8-4-2.7-4.1-5.5c-0.1-2.9,1.8-5.7,4.7-6.2
	C-143.6,376.6-141.5,379.1-140.4,383.5z"/>
<path class="st0" d="M80.7,10.7c1.2-4.6,3.3-7.1,7.7-6.3c3,0.5,4.8,3.3,4.7,6.2c-0.1,2.8-1.7,4.6-4.2,5.5
	C86,17.3,84.4,16.1,80.7,10.7z"/>
<path class="st0" d="M230.2,280c-1.6,4.3-3.8,6.8-8.1,5.5c-2.5-0.8-4-2.7-4.1-5.5c-0.1-2.9,1.8-5.7,4.7-6.2
	C227,273.1,229.1,275.6,230.2,280z"/>
<path class="st0" d="M263.7-378.8c0.4-2.2,1.3-4.1,3.3-5.2c1.6-0.8,3.4-1,5.2-0.5c2.5,0.8,4.1,2.9,4.2,5.5c0.1,3.1-1.6,5.7-4.6,6.3
	c-1.3,0.3-2.8,0.1-4.1-0.4C265-373.9,264-376.2,263.7-378.8z"/>
<path class="st0" d="M258.1,352.6c-3.9-1.5-5.8-3.4-5.5-6.7c0.4-3.3,2.8-4.6,5.6-5.2c3.4,0.6,5.5,2.2,5.6,5.5
	C264.1,350.1,261.7,351.9,258.1,352.6z"/>
<path class="st0" d="M323.8,150c-7.2-5-7.1-7.6,0.1-11.9c3.4,0.6,6,2.2,5.9,6.1C329.8,147.5,327.4,149.1,323.8,150z"/>
<path class="st0" d="M67.4-282.3c4.1,1.1,6.4,2.9,6,6.8c-0.3,2.7-3.2,5.2-5.9,5c-2.3-0.2-3.9-1.4-4.9-3.5
	C61.3-277,62.2-278.7,67.4-282.3z"/>
<path class="st0" d="M462.7-261.9c-0.2,3.2-3.4,5.8-6.7,5.4c-3-0.3-5.3-2.8-5.3-5.7c-0.1-3.4,2.6-6,6.2-5.9
	C460.2-268,462.9-265.1,462.7-261.9z"/>
<path class="st0" d="M257,172.7c2.3,0.1,4.2,1,5.2,3c0.6,1.1,0.9,2.7,0.6,4c-0.5,2.7-2.5,4.2-5.1,4.6c-2.2,0.4-4.8-1.5-5.6-3.9
	C251,177.1,251.9,175.8,257,172.7z"/>
<path class="st0" d="M308.3,199.9c-3,0.2-5.6-1.9-5.8-4.9c-0.2-2.8,2.1-5.5,5-5.8c2.9-0.3,5.5,1.9,5.7,4.9
	C313.4,197.3,311.3,199.8,308.3,199.9z"/>
<path class="st0" d="M-23.7,196.8c-0.7,3.7-2.8,5.7-6.6,5.2c-2.4-0.3-4.3-2.8-4.2-5.3c0-2.6,1.9-4.9,4.4-5.2
	C-26.3,191.1-24.3,193.2-23.7,196.8z"/>
<path class="st0" d="M512.8-245.4c0.2,2.8-2.2,5.5-5.1,5.7c-3,0.2-5.5-2-5.6-5c-0.2-3.1,2-5.6,4.9-5.7
	C509.9-250.5,512.5-248.2,512.8-245.4z"/>
<path class="st0" d="M8.6,95.1c0.2,2.8-2.2,5.5-5.1,5.7c-3,0.2-5.5-2-5.6-5c-0.2-3.1,2-5.6,4.9-5.7C5.7,90,8.3,92.3,8.6,95.1z"/>
<path class="st0" d="M-157.4,433.4c0.3,2.8-2.1,5.5-5,5.7c-3,0.3-5.5-1.9-5.7-4.9c-0.2-3.1,2-5.6,4.9-5.8
	C-160.3,428.3-157.6,430.6-157.4,433.4z"/>
<path class="st0" d="M518.1-296.6c0.7-3.2,2.3-4.9,5.2-5.4c3.2,0.4,5.2,2.1,5.1,5.6c-0.1,2.4-1.5,4.1-3.7,4.6
	C521.2-291,519.3-292.9,518.1-296.6z"/>
<path class="st0" d="M381,501c-6,1.5-7.2,1.3-8.7-1.4c-0.9-1.7-0.8-3.3,0.4-4.9c1.6-2.1,4.1-2.7,6.5-1.6
	C381.4,494.2,381.6,495.1,381,501z"/>
<path class="st0" d="M422.1-334.2c6.2,4.5,6.2,5.6,0.7,9.9C415.9-327.2,415.7-329.2,422.1-334.2z"/>
<path class="st0" d="M244.8,229.4c-0.6,2.7-2,4.4-5,4.5c-6.3-4.3-6.2-6,0.5-9.7C243,224.9,244.6,226.5,244.8,229.4z"/>
<path class="st0" d="M475.8-316.6c2,2.5,2.1,4.7,0.2,7.1c-2.5,1.8-5.1,1.8-7.2-0.8c-1.2-1.5-1.1-3.4-0.1-4.9
	C470.4-317.6,472.6-318,475.8-316.6z"/>
<path class="st0" d="M274.7,291.1c2.8,0.5,4.3,2.2,4.6,5.1c-0.5,2.7-2,4.4-4.9,4.6C268,296.6,268.1,294.9,274.7,291.1z"/>
<path class="st0" d="M289.6,71.1c3.5,1.2,5.3,3.1,4.3,6.5c-0.5,1.8-1.9,3-3.8,3.2c-2.4,0.3-4.2-1-4.9-3.2
	C284.1,74.3,285.9,72.3,289.6,71.1z"/>
<path class="st0" d="M354.7,38.6c5.8,0.1,8,1.6,7.4,4.9c-0.5,2.7-2.3,3.4-7.5,3C352.2,44.2,352.3,41.7,354.7,38.6z"/>
<path class="st0" d="M-140.3,553.8c-0.9,1.6-2.1,2.7-4,3c-2.3-0.2-4-1.2-4.3-3.6c-0.3-2.4,0.7-4.1,2.9-4.8
	C-142.9,547.5-141.4,549.1-140.3,553.8z"/>
<path class="st0" d="M440.4-38.1c-2.7-0.6-4.6-1.9-4.2-4.9c0.3-2.4,2.1-3.5,4.4-3.6c1.9-0.1,3.4,1,3.9,2.8
	C445.2-40.5,443.7-38.6,440.4-38.1z"/>
<path class="st0" d="M217.1-391.4c-1.8-4.5-1.6-6.1,0.6-7.3c2.2-1.2,3.7-0.4,6.3,3.7C221.6-391,221.6-391,217.1-391.4z"/>
<path class="st0" d="M-174.8,484.2c-1.1,3.1-2.4,4.5-5,4.2c-3.8-3.9-3.8-3.9,0.2-8c0.9,0.3,2.1,0.3,2.9,0.9
	C-176,482-175.6,483-174.8,484.2z"/>
<path class="st0" d="M290.4-428.6c-1,2.1-2.3,3.7-5,3.1c-3.6-4.1-3.6-4.1,0.5-7.8C288.9-433.1,290.3-431.5,290.4-428.6z"/>
<path class="st0" d="M-146,218.8c-3.5,0.7-4.8-0.8-5.8-2.9c-0.1-2.5,1.2-3.9,3.3-4.8C-143.4,213.7-143.4,213.7-146,218.8z"/>
<path class="st0" d="M320.7-366.6c2.7,0.8,3.8,2.1,4.2,4c-0.1,2-1.2,3.4-3,4c-1.9,0.6-3.5-0.2-4.4-2.1
	C316.5-362.8,316.8-363.3,320.7-366.6z"/>
<path class="st0" d="M344.3,93.2c-0.9,3.6-3.1,4.5-6.3,3.1c-1.8-1.9-2-3.7-0.2-5.7C340.9,88.8,343.1,89.7,344.3,93.2z"/>
<path class="st0" d="M-16.7,145.9c0.9-2.2,2.1-2.8,3.4-3.2c3.7,0.9,4,2.4,1.2,6.6C-14.1,149.8-14.2,149.7-16.7,145.9z"/>
<path class="st0" d="M389.7,112.9c-2.6-2.4-2.7-4.4-0.2-6.4c2.5-0.7,4,0.2,4.8,2.6C394.2,111.6,393,112.9,389.7,112.9z"/>
<path class="st0" d="M371.2,158c3.8-2.3,6-1.7,7.4,1.6c-0.2,2.6-1.8,4.2-4,4.1C372.3,163.6,371.8,162.9,371.2,158z"/>
<path class="st0" d="M370-342.1c-2.4-2.8-1.6-4.5-0.3-6c2.9-1,4.4,0,5.3,2.3C374.8-342.7,373.1-341.5,370-342.1z"/>
<path class="st0" d="M102.2-380.9c2.8,2.4,2.6,4.4,0.3,6.4c-2.5,0.7-4-0.3-4.8-2.7C97.7-379.7,99-380.9,102.2-380.9z"/>
<path class="st0" d="M388.1-400.6c3.6,2.6,3.5,4.7,0.7,6.8c-2.8,0.6-3.9-1.1-4.5-2.4C384.2-399.2,385.9-399.8,388.1-400.6z"/>
<path class="st0" d="M335.6-416.2c3.4-0.2,4.7,1,4.8,3.4c-0.7,2.7-2.5,3.2-4.8,2.7C333.1-412.1,333.4-414,335.6-416.2z"/>
<path class="st0" d="M239.2-444.4c-1.8,2-3.3,2.5-5.3,1.6c-1.8-1.5-1.6-3.3-0.5-5.3C236.9-449.3,238.8-448.4,239.2-444.4z"/>
<path class="st0" d="M297.4,583.6c-1.8,2.1-3.3,2.5-5.1,1.8c-1.8-1.6-2.1-3.4-0.2-5.6C295.1,578.7,297,579.7,297.4,583.6z"/>
<path class="st0" d="M287.6,244.9c1.5-2.2,2.9-2.5,4.8-1.7c1.3,1.3,1.6,3-0.2,4.1C289.9,248.9,288.5,247.6,287.6,244.9z"/>
<path class="st0" d="M-78.2,178.2c1.4,2.7,1,4.1-0.9,5c-2,0.4-3.2-0.4-3.7-2.3C-82.5,178-80.6,178.1-78.2,178.2z"/>
<path class="st0" d="M522.5-125.2c-0.3-5.2-0.3-5.2,4.6-3.7C527.8-125.6,526.3-124.6,522.5-125.2z"/>
<path class="st0" d="M52.5-53.6c-2.7-1.2-2.9-2.6-2-4.5c2-1.7,3.5-0.8,4.9,0.4C55.9-55,54.5-54.2,52.5-53.6z"/>
<path class="st0" d="M294.6,411.1c1.4,2.4,1.1,4.1-0.8,4.6c-2.3,0.7-4-0.1-3.8-3C290.8,410.7,292.4,410.7,294.6,411.1z"/>
<path class="st0" d="M342.8,427.8c1.4,0.5,2.3,0.8,3,1.1c1.1,2.1,0.5,3.5-1.4,4.1c-0.8,0.3-2.1,0-2.7-0.6
	C340.2,431.1,340.6,429.6,342.8,427.8z"/>
<path class="st0" d="M49.8-396.8c2.4,0.4,3.1,1.6,3.6,2.9c-1.8,2.3-1.8,2.3-4.6,2.5C48.1-394.2,48.1-394.2,49.8-396.8z"/>
<path class="st0" d="M120.2-428.1c-0.4,1.4-1.3,2.4-2.9,2.7c-3.7-0.8-2.9-3-2-5.4C118.5-430.4,118.5-430.4,120.2-428.1z"/>
<path class="st0" d="M185.2-459.8c-1.6-0.3-2.6-1.2-3-2.7c0.4-2.6,1.9-3.5,4.4-2.8C188.6-462.7,188.5-460.8,185.2-459.8z"/>
<path class="st0" d="M132.8-481.1c1.9-0.5,3.2-0.2,4.3,0.8c1.1,2.6-0.2,4.1-2.6,4C131.9-476.5,131-478.2,132.8-481.1z"/>
<path class="st0" d="M360.6,545.1c1.6,0.3,2.6,1.3,3,2.7c-0.4,2.5-1.8,3.6-4.5,2.7C357.2,548.1,357.5,546.2,360.6,545.1z"/>
<path class="st0" d="M204.2-513.1c-0.3,1.6-1.5,2.1-2.8,2.5c-2.4-0.6-3.4-1.9-2.3-4.3C200.9-516.6,201.9-516.2,204.2-513.1z"/>
<path class="st0" d="M-46.1,585.3c0.1-2.2,1.1-3.3,3.5-3.4c2.7,1.4,2.9,3.2,0.6,5.5C-44.2,587.9-45.4,587-46.1,585.3z"/>
<path class="st0" d="M-108.2,619.3c-0.4,1.5-1.3,2.5-3,2.8c-3.3-0.9-3.4-2.8-1.6-5.3C-110.1,615.7-108.8,616.9-108.2,619.3z"/>
<path class="st0" d="M438.9-377.7c-0.9-0.3-1.8-0.7-2.6-1.1c0.1-2.2,0.9-3.6,3-2.4C440.8-380.3,440-378.9,438.9-377.7z"/>
<path class="st0" d="M557.3-230.9c0.9,0.4,1.8,0.7,2.6,1.1c0,2.3-1,3.5-3,2.4C555.3-228.3,556.3-229.7,557.3-230.9z"/>
<path class="st0" d="M-128.9,165.4c-0.6,1-1.4,1.5-2.4,1c-1-0.4-1.7-1.3-1.3-2.3c0.5-1.4,1.7-2.1,3.1-1.2
	C-128.7,163.4-128.1,164.3-128.9,165.4z"/>
<path class="st0" d="M404.2-445.4c-1.9-0.4-3.2-1.3-2.1-3.3c0.3-0.5,2-0.9,2.5-0.6C406.5-448,405.9-446.6,404.2-445.4z"/>
<path class="st0" d="M540-180.3c1.4,0.1,2.6,0.7,2.8,2.3c-0.5,1.4-1.5,2-3,1.8C538.2-177.6,538.5-179,540-180.3z"/>
<path class="st0" d="M1.5-239.8c-0.9-0.4-1.8-0.8-2.7-1.1c0.1-2.2,0.9-3.6,3-2.4C3.5-242.3,2.5-241,1.5-239.8z"/>
<path class="st0" d="M423.7,6.2c0.9,0.4,1.7,0.7,2.6,1.1c0,2.3-1,3.5-3,2.4C421.6,8.7,422.7,7.3,423.7,6.2z"/>
<path class="st0" d="M-30.9,26.6c1.4,0.1,2.4,0.5,2.6,1.6c0.3,1.6-0.8,2.6-2.3,2.4c-0.7-0.1-1.7-1.3-1.7-2
	C-32.3,28-31.3,27.2-30.9,26.6z"/>
<path class="st0" d="M-48.2,77.3c0.9,0.4,1.8,0.7,2.6,1.1c0,2.3-1,3.5-3,2.4C-50.2,79.8-49.2,78.5-48.2,77.3z"/>
<path class="st0" d="M-61.1,637.4c-1.1-1.2-2-2.6-0.4-3.5c2.1-1.2,3,0.2,3,2.4C-59.3,636.7-60.3,637-61.1,637.4z"/>
<path class="st0" d="M359.1,212.8c-0.9-0.3-1.8-0.7-2.6-1.1c0.1-2.2,0.9-3.6,3-2.4C361.1,210.2,360.3,211.6,359.1,212.8z"/>
<path class="st0" d="M69-445.2c-0.9,2.6-2.1,3.1-3.4,2.2c-1.5-1.1-0.6-2.3,0.4-3.5C66.9-446.1,67.8-445.7,69-445.2z"/>
<path class="st0" d="M509.4-77c-0.2,0.3-0.4,0.6-0.7,0.7c-0.8,0.4-1.6,0.1-1.6-0.8c0-0.9,0.8-1.2,1.6-0.7
	C509-77.5,509.2-77.2,509.4-77z"/>
<path class="st0" d="M1.7-74.8c0.2,0.6,0.7,1.2,0.6,1.7C2-72.2,1.2-72.3,1-73.2C0.9-73.7,1.4-74.3,1.7-74.8z"/>
<path class="st0" d="M425.8,175.1c0.2,0.6,0.7,1.3,0.5,1.7c-0.3,0.9-1.1,0.9-1.3-0.1C424.9,176.3,425.5,175.7,425.8,175.1z"/>
<path class="st0" d="M343.6,261.4c-0.7,0.3-1.3,0.7-1.9,0.9c-0.1,0-0.6-0.6-0.5-0.8c0.2-0.9,0.8-1.2,1.6-0.7
	C343.1,260.8,343.4,261.1,343.6,261.4z"/>
<path class="st0" d="M-163.7,266.5c-0.9,0.3-1.4,0-1.5-0.9c0-0.2,0.5-0.8,0.6-0.7c0.6,0.3,1.1,0.6,1.6,1
	C-163.2,266.1-163.4,266.3-163.7,266.5z"/>
<path class="st0" d="M394.4,445.9c0.3,0.3,0.6,0.6,0.8,0.8c-0.6,0.3-1.2,0.6-1.8,0.8c-0.1,0-0.6-0.6-0.5-0.8
	C393.1,445.8,393.7,445.6,394.4,445.9z"/>
<path class="st0" d="M0.9-411c-0.2,0.3-0.4,0.6-0.7,0.7c-0.8,0.4-1.6,0.1-1.6-0.8c0-0.9,0.8-1.2,1.6-0.7
	C0.5-411.6,0.7-411.3,0.9-411z"/>
<path class="st0" d="M167.6-413.2c0.2,0.6,0.7,1.2,0.6,1.7c-0.3,0.9-1.1,0.9-1.3-0.1C166.8-412,167.4-412.6,167.6-413.2z"/>
<path class="st0" d="M-13.2-21.4c-0.3,0.2-0.5,0.4-0.8,0.6c-0.2-0.6-0.5-1.1-0.6-1.7c0-0.2,0.4-0.4,0.7-0.6
	C-13.6-22.6-13.4-22-13.2-21.4z"/>
<path class="st0" d="M-63.1,129.1c0.2,0.3,0.6,0.6,0.6,0.8c-0.1,0.9-0.7,1.2-1.6,0.8c-0.3-0.1-0.5-0.5-0.7-0.7
	C-64.2,129.7-63.7,129.4-63.1,129.1z"/>
<path class="st0" d="M443.8,125.7c-0.3,0.9-0.9,1.1-1.6,0.6c-0.3-0.2-0.4-0.5-0.7-0.8c0.6-0.2,1.2-0.5,1.8-0.7
	C443.4,124.8,443.6,125.4,443.8,125.7z"/>
<path class="st0" d="M453.7-429.6c-0.2-0.3-0.5-0.7-0.5-0.9c0.2-0.9,0.9-1.1,1.6-0.6c0.3,0.2,0.4,0.5,0.6,0.8
	C454.9-430.1,454.3-429.9,453.7-429.6z"/>
<path class="st0" d="M37.7-5.9C37-5.6,36.4-5.2,35.8-5c-0.1,0-0.6-0.6-0.5-0.8C35.4-6.8,36-7,36.9-6.6C37.2-6.4,37.4-6.1,37.7-5.9z"
	/>
<path class="st0" d="M324.8,310.9c0.3,0.6,0.8,1.2,0.7,1.6c-0.3,0.9-1,1-1.3,0C324.1,312.1,324.6,311.5,324.8,310.9z"/>
<path class="st0" d="M-15-190.4c-0.9,0.3-1.4,0-1.5-0.9c0-0.2,0.5-0.8,0.6-0.7c0.6,0.3,1.1,0.6,1.6,1
	C-14.5-190.8-14.7-190.6-15-190.4z"/>
<path class="st0" d="M16.3-462.8c0.2,0.6,0.8,1.2,0.6,1.7c-0.3,0.9-1,0.9-1.3,0C15.5-461.6,16.1-462.2,16.3-462.8z"/>
<path class="st0" d="M352.9-464.9c0.2,0.6,0.7,1.2,0.6,1.7c-0.3,0.9-1.1,0.9-1.3-0.1C352.1-463.8,352.7-464.4,352.9-464.9z"/>
<path class="st0" d="M408.8,57.9c0.2,0.3,0.6,0.6,0.6,0.8c-0.1,0.9-0.7,1.2-1.6,0.8c-0.3-0.1-0.5-0.5-0.7-0.7
	C407.6,58.6,408.2,58.2,408.8,57.9z"/>
<path class="st0" d="M-194,535.2c-0.3,0.9-0.9,1.1-1.6,0.6c-0.3-0.2-0.4-0.5-0.7-0.8c0.6-0.2,1.2-0.5,1.8-0.7
	C-194.4,534.3-194.2,534.9-194,535.2z"/>
<path class="st0" d="M85.1-495.1c-0.7,0.3-1.3,0.7-1.9,0.9c-0.1,0-0.6-0.6-0.5-0.8c0.2-0.9,0.8-1.2,1.6-0.7
	C84.6-495.7,84.8-495.4,85.1-495.1z"/>
<path class="st0" d="M252.2-496.4c-0.9,0.3-1.4,0-1.5-0.9c0-0.2,0.5-0.8,0.6-0.7c0.6,0.3,1.1,0.6,1.6,1
	C252.7-496.9,252.4-496.7,252.2-496.4z"/>
<path class="st0" d="M310.2,362.7c-0.3,0.9-0.8,1.2-1.6,0.7c-0.3-0.2-0.5-0.5-0.7-0.7c0.6-0.3,1.2-0.6,1.8-0.8
	C309.7,361.8,310,362.4,310.2,362.7z"/>
<path class="st0" d="M-161.4,602.7c-0.3,0.5-0.5,1-0.8,1.5c-0.2-0.2-0.7-0.6-0.6-0.7c0.2-0.6,0.5-1.1,0.8-1.6
	C-161.8,602.2-161.6,602.5-161.4,602.7z"/>
<path class="st0" d="M8.6,601.9c-0.3,0.9-0.8,1.2-1.6,0.7c-0.3-0.2-0.5-0.5-0.7-0.7c0.6-0.3,1.2-0.6,1.8-0.8
	C8.1,601.1,8.4,601.6,8.6,601.9z"/>
<path class="st0" d="M226.3,616.2c0.3,0.3,0.6,0.6,0.8,0.8c-0.6,0.3-1.2,0.6-1.8,0.8c-0.1,0-0.6-0.6-0.5-0.8
	C225,616.1,225.6,615.9,226.3,616.2z"/>
<path class="st0" d="M109.2,635.1c-0.6-0.3-1.2-0.6-1.8-0.9c0.3-0.2,0.5-0.6,0.8-0.7c0.8-0.4,1.4-0.2,1.6,0.8
	C109.9,634.5,109.4,634.8,109.2,635.1z"/>
<path class="st0" d="M-9.6,651.5c0.2,0.6,0.8,1.2,0.6,1.7c-0.3,0.9-1,0.9-1.3,0C-10.3,652.6-9.8,652-9.6,651.5z"/>
<path class="st0" d="M-126.9,670.5c-0.3,0.2-0.5,0.4-0.8,0.6c-0.2-0.6-0.5-1.1-0.6-1.7c0-0.2,0.4-0.4,0.7-0.6
	C-127.4,669.3-127.1,669.9-126.9,670.5z"/>
<path class="st0" d="M409.5,227.7c-0.9,0.3-1.4,0-1.5-0.9c0-0.2,0.5-0.8,0.6-0.7c0.6,0.3,1.1,0.6,1.6,1
	C410,227.3,409.7,227.5,409.5,227.7z"/>
<path class="st0" d="M34-344.2c0.2,0.6,0.8,1.2,0.7,1.7c-0.3,0.9-1,0.9-1.3,0C33.2-343,33.7-343.7,34-344.2z"/>
<path class="st0" d="M-75.5,686.1c-0.3,0.9-0.9,1.1-1.6,0.6c-0.3-0.2-0.4-0.5-0.7-0.8c0.6-0.2,1.2-0.5,1.8-0.7
	C-75.9,685.2-75.6,685.8-75.5,686.1z"/>
<path class="st0" d="M539.9-348.6c0.2,0.6,0.7,1.2,0.6,1.7c-0.3,0.9-1.1,0.9-1.3-0.1C539.1-347.4,539.7-348,539.9-348.6z"/>
</svg>
