<?xml version="1.0" encoding="utf-8"?>
<!-- Generator: Adobe Illustrator 28.2.0, SVG Export Plug-In . SVG Version: 6.00 Build 0)  -->
<svg version="1.1" id="Layer_1" xmlns="http://www.w3.org/2000/svg" xmlns:xlink="http://www.w3.org/1999/xlink" x="0px" y="0px"
	 viewBox="0 0 474 210" style="enable-background:new 0 0 474 210;" xml:space="preserve">
<style type="text/css">
	.st0{opacity:0.5;fill:none;stroke:url(#SVGID_1_);stroke-width:3;enable-background:new    ;}
	
		.st1{opacity:0.5;fill:none;stroke:url(#SVGID_00000147926103965727082060000005499690157996161198_);stroke-width:3;enable-background:new    ;}
	.st2{opacity:0.8;fill:#41865D;enable-background:new    ;}
	.st3{opacity:0.8;fill:url(#SVGID_00000044160169248284459920000013338229534405474742_);enable-background:new    ;}
	.st4{opacity:0.8;}
	.st5{fill:#FFFFFF;}
	.st6{fill:none;stroke:#FFFFFF;stroke-width:2;stroke-opacity:8.000000e-02;}
</style>
<linearGradient id="SVGID_1_" gradientUnits="userSpaceOnUse" x1="54.5932" y1="40.1994" x2="155.7482" y2="-115.7169" gradientTransform="matrix(1 0 0 1 0 162)">
	<stop  offset="0" style="stop-color:#41865D;stop-opacity:0"/>
	<stop  offset="1" style="stop-color:#41865D"/>
</linearGradient>
<path class="st0" d="M25,163.1h76.2V191h32.1v-27.9H153v-26.9h-19.7V32h-42L25,136.6V163.1z M101.8,136.1h-43v-1.2l41.8-66.2h1.2
	V136.1z"/>
<linearGradient id="SVGID_00000160872958993697218830000008542949502619682440_" gradientUnits="userSpaceOnUse" x1="336.5932" y1="10.1994" x2="437.7482" y2="-145.7169" gradientTransform="matrix(1 0 0 1 0 162)">
	<stop  offset="0" style="stop-color:#41865D;stop-opacity:0"/>
	<stop  offset="1" style="stop-color:#41865D"/>
</linearGradient>
<path style="opacity:0.5;fill:none;stroke:url(#SVGID_00000160872958993697218830000008542949502619682440_);stroke-width:3;enable-background:new    ;" d="
	M307,133.1h76.2V161h32.1v-27.9H435v-26.9h-19.7V2h-42L307,106.6V133.1z M383.8,106.1h-43v-1.2l41.8-66.2h1.2V106.1z"/>
<circle class="st2" cx="227.5" cy="81.5" r="68.5"/>
<g>
	
		<radialGradient id="SVGID_00000016041405060187218990000018419945408941526414_" cx="423.797" cy="5.793" r="1" gradientTransform="matrix(0 73.5368 -73.5368 0 653.4997 -31083.1758)" gradientUnits="userSpaceOnUse">
		<stop  offset="0" style="stop-color:#000000;stop-opacity:0.47"/>
		<stop  offset="1" style="stop-color:#000000;stop-opacity:0"/>
	</radialGradient>
	
		<circle style="opacity:0.8;fill:url(#SVGID_00000016041405060187218990000018419945408941526414_);enable-background:new    ;" cx="227.5" cy="81.5" r="68.5"/>
	<g class="st4">
		
			<ellipse transform="matrix(0.2298 -0.9732 0.9732 0.2298 131.8715 265.2268)" class="st5" cx="233.5" cy="49.3" rx="28.2" ry="28.2"/>
	</g>
</g>
<path class="st6" d="M0,182h83.5v27h67v-31h19v-29.5c0,0,24.5,16.5,60,16.5s64.5-30.5,64.5-30.5V152h12.5H361v26h74v-26h39"/>
</svg>
