<?xml version="1.0" encoding="utf-8"?>
<!-- Generator: Adobe Illustrator 28.2.0, SVG Export Plug-In . SVG Version: 6.00 Build 0)  -->
<svg version="1.1" id="Layer_1" xmlns="http://www.w3.org/2000/svg" xmlns:xlink="http://www.w3.org/1999/xlink" x="0px" y="0px"
	 viewBox="0 0 170 27" style="enable-background:new 0 0 170 27;" xml:space="preserve">
<style type="text/css">
	.st0{fill:#FFFFFF;}
	.st1{fill:#40855D;}
	.st2{fill:#41865D;}
	.st3{fill:#57BA65;}
</style>
<g>
	<path class="st0" d="M36.1,10.9c0-0.5-0.2-0.8-0.6-1.1c-0.4-0.3-0.8-0.4-1.4-0.4c-0.4,0-0.8,0.1-1,0.2s-0.5,0.3-0.6,0.5
		c-0.1,0.2-0.2,0.4-0.2,0.7c0,0.2,0,0.4,0.1,0.6c0.1,0.2,0.2,0.3,0.4,0.4c0.2,0.1,0.4,0.2,0.6,0.3c0.2,0.1,0.5,0.2,0.7,0.2l1.1,0.3
		c0.5,0.1,1,0.3,1.4,0.5c0.4,0.2,0.8,0.4,1.1,0.7c0.3,0.3,0.6,0.6,0.7,1s0.3,0.8,0.3,1.3c0,0.7-0.2,1.4-0.6,1.9
		c-0.4,0.5-0.9,0.9-1.6,1.2c-0.7,0.3-1.5,0.4-2.5,0.4c-1,0-1.8-0.1-2.5-0.4c-0.7-0.3-1.3-0.7-1.7-1.3s-0.6-1.3-0.6-2.2h2.4
		c0,0.4,0.1,0.7,0.3,1c0.2,0.3,0.5,0.5,0.8,0.6c0.3,0.1,0.7,0.2,1.2,0.2c0.4,0,0.8-0.1,1.1-0.2c0.3-0.1,0.6-0.3,0.7-0.5
		s0.3-0.5,0.3-0.8c0-0.3-0.1-0.5-0.2-0.7c-0.2-0.2-0.4-0.3-0.7-0.5c-0.3-0.1-0.7-0.2-1.1-0.3l-1.3-0.3c-1-0.2-1.8-0.6-2.4-1.1
		c-0.6-0.5-0.9-1.2-0.9-2.1c0-0.7,0.2-1.4,0.6-1.9c0.4-0.5,0.9-1,1.6-1.3c0.7-0.3,1.5-0.5,2.3-0.5c0.9,0,1.7,0.2,2.3,0.5
		C37,8.1,37.6,8.5,37.9,9c0.4,0.5,0.6,1.2,0.6,1.9H36.1z"/>
	<path class="st0" d="M44.3,19.6c-0.9,0-1.7-0.2-2.3-0.6c-0.7-0.4-1.2-0.9-1.5-1.6c-0.4-0.7-0.5-1.5-0.5-2.4c0-0.9,0.2-1.7,0.5-2.4
		c0.4-0.7,0.9-1.2,1.5-1.6c0.7-0.4,1.4-0.6,2.3-0.6s1.7,0.2,2.3,0.6c0.7,0.4,1.2,0.9,1.5,1.6c0.4,0.7,0.5,1.5,0.5,2.4
		c0,0.9-0.2,1.7-0.5,2.4c-0.4,0.7-0.9,1.2-1.5,1.6C46,19.4,45.3,19.6,44.3,19.6z M44.4,17.7c0.4,0,0.8-0.1,1-0.4
		c0.3-0.2,0.5-0.6,0.6-1c0.1-0.4,0.2-0.9,0.2-1.4s-0.1-1-0.2-1.4c-0.1-0.4-0.4-0.7-0.6-1c-0.3-0.2-0.6-0.4-1-0.4
		c-0.4,0-0.8,0.1-1,0.4c-0.3,0.2-0.5,0.6-0.6,1c-0.1,0.4-0.2,0.9-0.2,1.4s0.1,1,0.2,1.4c0.1,0.4,0.4,0.7,0.6,1
		C43.6,17.5,43.9,17.7,44.4,17.7z"/>
	<path class="st0" d="M56.1,15.6v-5.1h2.5v9h-2.4v-1.6h-0.1c-0.2,0.5-0.5,0.9-1,1.3c-0.5,0.3-1,0.5-1.7,0.5c-0.6,0-1.1-0.1-1.6-0.4
		c-0.5-0.3-0.8-0.7-1.1-1.2c-0.3-0.5-0.4-1.1-0.4-1.8v-5.7h2.5v5.3c0,0.5,0.1,0.9,0.4,1.3c0.3,0.3,0.7,0.5,1.1,0.5
		c0.3,0,0.6-0.1,0.8-0.2s0.5-0.3,0.6-0.6C56,16.3,56.1,16,56.1,15.6z"/>
	<path class="st0" d="M65.4,10.4v1.9H60v-1.9H65.4z M61.2,8.3h2.5v8.4c0,0.2,0,0.4,0.1,0.5s0.2,0.2,0.3,0.3c0.1,0,0.3,0.1,0.4,0.1
		c0.1,0,0.2,0,0.3,0c0.1,0,0.2,0,0.3,0l0.4,1.8c-0.1,0-0.3,0.1-0.5,0.1c-0.2,0.1-0.5,0.1-0.8,0.1c-0.6,0-1.1-0.1-1.6-0.2
		c-0.4-0.2-0.8-0.5-1-0.9c-0.2-0.4-0.4-0.9-0.4-1.5V8.3z"/>
	<path class="st0" d="M69.6,14.2v5.2h-2.5V7.5h2.4V12h0.1c0.2-0.5,0.5-0.9,1-1.2s1-0.5,1.7-0.5c0.6,0,1.2,0.1,1.6,0.4
		c0.5,0.3,0.8,0.7,1.1,1.2c0.3,0.5,0.4,1.1,0.4,1.8v5.7H73v-5.3c0-0.6-0.1-1-0.4-1.3c-0.3-0.3-0.7-0.5-1.2-0.5
		c-0.3,0-0.6,0.1-0.9,0.2c-0.3,0.1-0.5,0.4-0.6,0.6C69.7,13.5,69.6,13.8,69.6,14.2z"/>
	<path class="st0" d="M81.5,19.6c-0.9,0-1.7-0.2-2.4-0.6c-0.7-0.4-1.2-0.9-1.5-1.6C77.2,16.7,77,15.9,77,15c0-0.9,0.2-1.7,0.5-2.4
		c0.4-0.7,0.9-1.2,1.5-1.6s1.4-0.6,2.3-0.6c0.6,0,1.1,0.1,1.7,0.3c0.5,0.2,1,0.5,1.3,0.8c0.4,0.4,0.7,0.9,0.9,1.4s0.3,1.2,0.3,2v0.7
		H78V14h5.2c0-0.4-0.1-0.7-0.2-1c-0.2-0.3-0.4-0.5-0.6-0.7c-0.3-0.2-0.6-0.2-1-0.2c-0.4,0-0.7,0.1-1,0.3c-0.3,0.2-0.5,0.4-0.7,0.7
		c-0.2,0.3-0.2,0.6-0.3,1v1.5c0,0.4,0.1,0.8,0.2,1.1c0.2,0.3,0.4,0.6,0.7,0.7c0.3,0.2,0.7,0.3,1.1,0.3c0.3,0,0.5,0,0.8-0.1
		s0.4-0.2,0.6-0.3c0.2-0.2,0.3-0.3,0.4-0.6l2.3,0.2c-0.1,0.6-0.4,1-0.7,1.4c-0.4,0.4-0.8,0.7-1.4,1C82.9,19.5,82.2,19.6,81.5,19.6z"
		/>
	<path class="st0" d="M87.2,19.4v-9h2.4V12h0.1c0.2-0.6,0.4-1,0.8-1.3c0.4-0.3,0.8-0.4,1.3-0.4c0.1,0,0.3,0,0.4,0
		c0.1,0,0.3,0,0.4,0.1v2.2c-0.1,0-0.3-0.1-0.5-0.1s-0.4,0-0.6,0c-0.4,0-0.7,0.1-1,0.2c-0.3,0.2-0.5,0.4-0.7,0.7
		c-0.2,0.3-0.2,0.6-0.2,1v5.1H87.2z"/>
	<path class="st0" d="M96.4,14.2v5.2h-2.5v-9h2.4V12h0.1c0.2-0.5,0.5-0.9,1-1.2s1-0.5,1.7-0.5c0.6,0,1.2,0.1,1.6,0.4
		c0.5,0.3,0.8,0.7,1.1,1.2c0.3,0.5,0.4,1.1,0.4,1.8v5.7h-2.5v-5.3c0-0.5-0.1-1-0.4-1.3c-0.3-0.3-0.7-0.5-1.2-0.5
		c-0.3,0-0.6,0.1-0.9,0.2c-0.3,0.1-0.5,0.4-0.6,0.6C96.5,13.5,96.4,13.8,96.4,14.2z"/>
	<path class="st0" d="M114.7,11.6h-2.6c0-0.3-0.1-0.6-0.3-0.9c-0.1-0.3-0.3-0.5-0.6-0.7s-0.5-0.3-0.8-0.4c-0.3-0.1-0.6-0.1-1-0.1
		c-0.6,0-1.2,0.2-1.6,0.5s-0.8,0.7-1.1,1.3c-0.3,0.6-0.4,1.3-0.4,2.1c0,0.9,0.1,1.6,0.4,2.1c0.3,0.6,0.6,1,1.1,1.3
		c0.5,0.3,1,0.4,1.6,0.4c0.3,0,0.7,0,0.9-0.1c0.3-0.1,0.5-0.2,0.8-0.4s0.4-0.4,0.6-0.6s0.3-0.5,0.3-0.9l2.6,0
		c-0.1,0.5-0.2,1.1-0.5,1.6c-0.3,0.5-0.6,1-1.1,1.4c-0.4,0.4-1,0.7-1.6,0.9s-1.3,0.3-2.1,0.3c-1.1,0-2-0.2-2.9-0.7
		c-0.8-0.5-1.5-1.2-2-2.1c-0.5-0.9-0.7-2-0.7-3.3c0-1.3,0.2-2.4,0.7-3.3c0.5-0.9,1.2-1.6,2-2.1c0.8-0.5,1.8-0.7,2.8-0.7
		c0.7,0,1.3,0.1,1.9,0.3c0.6,0.2,1.1,0.5,1.6,0.8s0.8,0.8,1.1,1.4C114.5,10.3,114.6,10.9,114.7,11.6z"/>
	<path class="st0" d="M116.5,19.4v-9h2.4V12h0.1c0.2-0.6,0.4-1,0.8-1.3c0.4-0.3,0.8-0.4,1.3-0.4c0.1,0,0.3,0,0.4,0
		c0.1,0,0.3,0,0.4,0.1v2.2c-0.1,0-0.3-0.1-0.5-0.1s-0.4,0-0.6,0c-0.4,0-0.7,0.1-1,0.2c-0.3,0.2-0.5,0.4-0.7,0.7
		c-0.2,0.3-0.2,0.6-0.2,1v5.1H116.5z"/>
	<path class="st0" d="M126.8,19.6c-0.9,0-1.7-0.2-2.3-0.6c-0.7-0.4-1.2-0.9-1.5-1.6s-0.5-1.5-0.5-2.4c0-0.9,0.2-1.7,0.5-2.4
		c0.4-0.7,0.9-1.2,1.5-1.6c0.7-0.4,1.4-0.6,2.3-0.6c0.9,0,1.7,0.2,2.3,0.6c0.7,0.4,1.2,0.9,1.5,1.6c0.4,0.7,0.5,1.5,0.5,2.4
		c0,0.9-0.2,1.7-0.5,2.4s-0.9,1.2-1.5,1.6C128.5,19.4,127.7,19.6,126.8,19.6z M126.8,17.7c0.4,0,0.8-0.1,1-0.4
		c0.3-0.2,0.5-0.6,0.6-1s0.2-0.9,0.2-1.4s-0.1-1-0.2-1.4s-0.4-0.7-0.6-1c-0.3-0.2-0.6-0.4-1-0.4c-0.4,0-0.8,0.1-1,0.4
		c-0.3,0.2-0.5,0.6-0.6,1c-0.1,0.4-0.2,0.9-0.2,1.4s0.1,1,0.2,1.4c0.1,0.4,0.4,0.7,0.6,1C126.1,17.5,126.4,17.7,126.8,17.7z"/>
	<path class="st0" d="M140.3,13l-2.3,0.1c0-0.2-0.1-0.4-0.3-0.5c-0.1-0.2-0.3-0.3-0.5-0.4s-0.5-0.1-0.7-0.1c-0.4,0-0.7,0.1-1,0.2
		c-0.3,0.2-0.4,0.4-0.4,0.6c0,0.2,0.1,0.4,0.3,0.5c0.2,0.1,0.5,0.3,0.9,0.4l1.6,0.3c0.9,0.2,1.5,0.5,1.9,0.9
		c0.4,0.4,0.6,0.9,0.6,1.6c0,0.6-0.2,1.1-0.5,1.5s-0.8,0.8-1.4,1s-1.3,0.4-2.1,0.4c-1.2,0-2.1-0.2-2.8-0.7c-0.7-0.5-1.1-1.2-1.2-2
		l2.4-0.1c0.1,0.4,0.3,0.6,0.5,0.8c0.3,0.2,0.6,0.3,1.1,0.3c0.4,0,0.8-0.1,1.1-0.3c0.3-0.2,0.4-0.4,0.4-0.7c0-0.2-0.1-0.4-0.3-0.6
		s-0.5-0.3-0.9-0.3l-1.6-0.3c-0.9-0.2-1.5-0.5-2-0.9s-0.6-1-0.6-1.7c0-0.6,0.2-1.1,0.5-1.5c0.3-0.4,0.8-0.7,1.3-1s1.2-0.3,2-0.3
		c1.1,0,2,0.2,2.7,0.7C139.8,11.5,140.2,12.2,140.3,13z"/>
	<path class="st0" d="M149.5,13l-2.3,0.1c0-0.2-0.1-0.4-0.3-0.5c-0.1-0.2-0.3-0.3-0.5-0.4s-0.5-0.1-0.7-0.1c-0.4,0-0.7,0.1-1,0.2
		c-0.3,0.2-0.4,0.4-0.4,0.6c0,0.2,0.1,0.4,0.3,0.5c0.2,0.1,0.5,0.3,0.9,0.4l1.6,0.3c0.9,0.2,1.5,0.5,1.9,0.9
		c0.4,0.4,0.6,0.9,0.6,1.6c0,0.6-0.2,1.1-0.5,1.5s-0.8,0.8-1.4,1s-1.3,0.4-2.1,0.4c-1.2,0-2.1-0.2-2.8-0.7c-0.7-0.5-1.1-1.2-1.2-2
		l2.4-0.1c0.1,0.4,0.3,0.6,0.5,0.8c0.3,0.2,0.6,0.3,1.1,0.3c0.4,0,0.8-0.1,1.1-0.3c0.3-0.2,0.4-0.4,0.4-0.7c0-0.2-0.1-0.4-0.3-0.6
		s-0.5-0.3-0.9-0.3l-1.6-0.3c-0.9-0.2-1.5-0.5-2-0.9s-0.6-1-0.6-1.7c0-0.6,0.2-1.1,0.5-1.5c0.3-0.4,0.8-0.7,1.3-1s1.2-0.3,2-0.3
		c1.1,0,2,0.2,2.7,0.7C149,11.5,149.4,12.2,149.5,13z"/>
	<path class="st0" d="M153.4,19.4h-2.7l4.1-11.9h3.3l4.1,11.9h-2.7l-3-9.2h-0.1L153.4,19.4z M153.2,14.7h6.4v2h-6.4V14.7z"/>
	<path class="st0" d="M166.2,7.5v11.9h-2.5V7.5H166.2z"/>
</g>
<circle class="st1" cx="14.4" cy="18.1" r="8.2"/>
<circle class="st2" cx="5.2" cy="14.4" r="4.1"/>
<circle class="st2" cx="11" cy="7.2" r="6.5"/>
<circle class="st2" cx="20.4" cy="7.8" r="5.3"/>
<circle class="st3" cx="16.5" cy="13.4" r="1.6"/>
</svg>
