<?xml version="1.0" encoding="utf-8"?>
<!-- Generator: Adobe Illustrator 28.2.0, SVG Export Plug-In . SVG Version: 6.00 Build 0)  -->
<svg version="1.1" id="Layer_1" xmlns="http://www.w3.org/2000/svg" xmlns:xlink="http://www.w3.org/1999/xlink" x="0px" y="0px"
	 viewBox="0 0 170 27" style="enable-background:new 0 0 170 27;" xml:space="preserve">
<style type="text/css">
	.st0{fill:#13281C;}
	.st1{fill:#40855D;}
	.st2{fill:#41865D;}
	.st3{fill:#57BA65;}
</style>
<g>
	<path class="st0" d="M36.3,10.9c0-0.5-0.2-0.8-0.6-1.1c-0.4-0.3-0.8-0.4-1.4-0.4c-0.4,0-0.8,0.1-1,0.2s-0.5,0.3-0.6,0.5
		c-0.1,0.2-0.2,0.4-0.2,0.7c0,0.2,0,0.4,0.1,0.6c0.1,0.2,0.2,0.3,0.4,0.4c0.2,0.1,0.4,0.2,0.6,0.3c0.2,0.1,0.5,0.2,0.7,0.2l1.1,0.3
		c0.5,0.1,1,0.3,1.4,0.5c0.4,0.2,0.8,0.4,1.1,0.7c0.3,0.3,0.6,0.6,0.7,1s0.3,0.8,0.3,1.3c0,0.7-0.2,1.4-0.6,1.9
		c-0.4,0.5-0.9,0.9-1.6,1.2c-0.7,0.3-1.5,0.4-2.5,0.4c-1,0-1.8-0.1-2.5-0.4c-0.7-0.3-1.3-0.7-1.7-1.3s-0.6-1.3-0.6-2.2h2.4
		c0,0.4,0.1,0.7,0.3,1c0.2,0.3,0.5,0.5,0.8,0.6c0.3,0.1,0.7,0.2,1.2,0.2c0.4,0,0.8-0.1,1.1-0.2c0.3-0.1,0.6-0.3,0.7-0.5
		s0.3-0.5,0.3-0.8c0-0.3-0.1-0.5-0.2-0.7c-0.2-0.2-0.4-0.3-0.7-0.5c-0.3-0.1-0.7-0.2-1.1-0.3L33,14.2c-1-0.2-1.8-0.6-2.4-1.1
		c-0.6-0.5-0.9-1.2-0.9-2.1c0-0.7,0.2-1.4,0.6-1.9c0.4-0.5,0.9-1,1.6-1.3c0.7-0.3,1.5-0.5,2.3-0.5c0.9,0,1.7,0.2,2.3,0.5
		c0.7,0.3,1.2,0.7,1.5,1.3c0.4,0.5,0.6,1.2,0.6,1.9H36.3z"/>
	<path class="st0" d="M44.6,19.6c-0.9,0-1.7-0.2-2.3-0.6c-0.7-0.4-1.2-0.9-1.5-1.6c-0.4-0.7-0.5-1.5-0.5-2.4c0-0.9,0.2-1.7,0.5-2.4
		c0.4-0.7,0.9-1.2,1.5-1.6c0.7-0.4,1.4-0.6,2.3-0.6s1.7,0.2,2.3,0.6c0.7,0.4,1.2,0.9,1.5,1.6C48.8,13.2,49,14,49,15
		c0,0.9-0.2,1.7-0.5,2.4c-0.4,0.7-0.9,1.2-1.5,1.6C46.3,19.4,45.5,19.6,44.6,19.6z M44.6,17.7c0.4,0,0.8-0.1,1-0.4
		c0.3-0.2,0.5-0.6,0.6-1c0.1-0.4,0.2-0.9,0.2-1.4s-0.1-1-0.2-1.4c-0.1-0.4-0.4-0.7-0.6-1c-0.3-0.2-0.6-0.4-1-0.4
		c-0.4,0-0.8,0.1-1,0.4c-0.3,0.2-0.5,0.6-0.6,1c-0.1,0.4-0.2,0.9-0.2,1.4s0.1,1,0.2,1.4c0.1,0.4,0.4,0.7,0.6,1
		C43.8,17.5,44.2,17.7,44.6,17.7z"/>
	<path class="st0" d="M56.4,15.6v-5.1h2.5v9h-2.4v-1.6h-0.1c-0.2,0.5-0.5,0.9-1,1.3c-0.5,0.3-1,0.5-1.7,0.5c-0.6,0-1.1-0.1-1.6-0.4
		c-0.5-0.3-0.8-0.7-1.1-1.2c-0.3-0.5-0.4-1.1-0.4-1.8v-5.7h2.5v5.3c0,0.5,0.1,0.9,0.4,1.3c0.3,0.3,0.7,0.5,1.1,0.5
		c0.3,0,0.6-0.1,0.8-0.2s0.5-0.3,0.6-0.6C56.3,16.3,56.4,16,56.4,15.6z"/>
	<path class="st0" d="M65.6,10.4v1.9h-5.4v-1.9H65.6z M61.4,8.3h2.5v8.4c0,0.2,0,0.4,0.1,0.5c0.1,0.1,0.2,0.2,0.3,0.3
		c0.1,0,0.3,0.1,0.4,0.1c0.1,0,0.2,0,0.3,0c0.1,0,0.2,0,0.3,0l0.4,1.8c-0.1,0-0.3,0.1-0.5,0.1c-0.2,0.1-0.5,0.1-0.8,0.1
		c-0.6,0-1.1-0.1-1.6-0.2c-0.4-0.2-0.8-0.5-1-0.9c-0.2-0.4-0.4-0.9-0.4-1.5V8.3z"/>
	<path class="st0" d="M69.9,14.2v5.2h-2.5V7.5h2.4V12h0.1c0.2-0.5,0.5-0.9,1-1.2s1-0.5,1.7-0.5c0.6,0,1.2,0.1,1.6,0.4
		c0.5,0.3,0.8,0.7,1.1,1.2c0.3,0.5,0.4,1.1,0.4,1.8v5.7h-2.5v-5.3c0-0.6-0.1-1-0.4-1.3c-0.3-0.3-0.7-0.5-1.2-0.5
		c-0.3,0-0.6,0.1-0.9,0.2c-0.3,0.1-0.5,0.4-0.6,0.6C70,13.5,69.9,13.8,69.9,14.2z"/>
	<path class="st0" d="M81.7,19.6c-0.9,0-1.7-0.2-2.4-0.6c-0.7-0.4-1.2-0.9-1.5-1.6c-0.4-0.7-0.5-1.5-0.5-2.5c0-0.9,0.2-1.7,0.5-2.4
		c0.4-0.7,0.9-1.2,1.5-1.6s1.4-0.6,2.3-0.6c0.6,0,1.1,0.1,1.7,0.3c0.5,0.2,1,0.5,1.3,0.8c0.4,0.4,0.7,0.9,0.9,1.4s0.3,1.2,0.3,2v0.7
		h-7.6V14h5.2c0-0.4-0.1-0.7-0.2-1c-0.2-0.3-0.4-0.5-0.6-0.7c-0.3-0.2-0.6-0.2-1-0.2c-0.4,0-0.7,0.1-1,0.3c-0.3,0.2-0.5,0.4-0.7,0.7
		c-0.2,0.3-0.2,0.6-0.3,1v1.5c0,0.4,0.1,0.8,0.2,1.1c0.2,0.3,0.4,0.6,0.7,0.7c0.3,0.2,0.7,0.3,1.1,0.3c0.3,0,0.5,0,0.8-0.1
		s0.4-0.2,0.6-0.3c0.2-0.2,0.3-0.3,0.4-0.6l2.3,0.2c-0.1,0.6-0.4,1-0.7,1.4c-0.4,0.4-0.8,0.7-1.4,1C83.1,19.5,82.5,19.6,81.7,19.6z"
		/>
	<path class="st0" d="M87.5,19.4v-9h2.4V12H90c0.2-0.6,0.4-1,0.8-1.3c0.4-0.3,0.8-0.4,1.3-0.4c0.1,0,0.3,0,0.4,0
		c0.1,0,0.3,0,0.4,0.1v2.2c-0.1,0-0.3-0.1-0.5-0.1s-0.4,0-0.6,0c-0.4,0-0.7,0.1-1,0.2c-0.3,0.2-0.5,0.4-0.7,0.7
		C90,13.6,90,14,90,14.3v5.1H87.5z"/>
	<path class="st0" d="M96.7,14.2v5.2h-2.5v-9h2.4V12h0.1c0.2-0.5,0.5-0.9,1-1.2s1-0.5,1.7-0.5c0.6,0,1.2,0.1,1.6,0.4
		c0.5,0.3,0.8,0.7,1.1,1.2c0.3,0.5,0.4,1.1,0.4,1.8v5.7H100v-5.3c0-0.5-0.1-1-0.4-1.3c-0.3-0.3-0.7-0.5-1.2-0.5
		c-0.3,0-0.6,0.1-0.9,0.2c-0.3,0.1-0.5,0.4-0.6,0.6C96.7,13.5,96.7,13.8,96.7,14.2z"/>
	<path class="st0" d="M115,11.6h-2.6c0-0.3-0.1-0.6-0.3-0.9c-0.1-0.3-0.3-0.5-0.6-0.7s-0.5-0.3-0.8-0.4c-0.3-0.1-0.6-0.1-1-0.1
		c-0.6,0-1.2,0.2-1.6,0.5s-0.8,0.7-1.1,1.3c-0.3,0.6-0.4,1.3-0.4,2.1c0,0.9,0.1,1.6,0.4,2.1c0.3,0.6,0.6,1,1.1,1.3
		c0.5,0.3,1,0.4,1.6,0.4c0.3,0,0.7,0,0.9-0.1c0.3-0.1,0.5-0.2,0.8-0.4s0.4-0.4,0.6-0.6s0.3-0.5,0.3-0.9l2.6,0
		c-0.1,0.5-0.2,1.1-0.5,1.6c-0.3,0.5-0.6,1-1.1,1.4c-0.4,0.4-1,0.7-1.6,0.9s-1.3,0.3-2.1,0.3c-1.1,0-2-0.2-2.9-0.7
		c-0.8-0.5-1.5-1.2-2-2.1c-0.5-0.9-0.7-2-0.7-3.3c0-1.3,0.2-2.4,0.7-3.3c0.5-0.9,1.2-1.6,2-2.1c0.8-0.5,1.8-0.7,2.8-0.7
		c0.7,0,1.3,0.1,1.9,0.3c0.6,0.2,1.1,0.5,1.6,0.8s0.8,0.8,1.1,1.4C114.7,10.3,114.9,10.9,115,11.6z"/>
	<path class="st0" d="M116.7,19.4v-9h2.4V12h0.1c0.2-0.6,0.4-1,0.8-1.3c0.4-0.3,0.8-0.4,1.3-0.4c0.1,0,0.3,0,0.4,0
		c0.1,0,0.3,0,0.4,0.1v2.2c-0.1,0-0.3-0.1-0.5-0.1s-0.4,0-0.6,0c-0.4,0-0.7,0.1-1,0.2c-0.3,0.2-0.5,0.4-0.7,0.7
		c-0.2,0.3-0.2,0.6-0.2,1v5.1H116.7z"/>
	<path class="st0" d="M127.1,19.6c-0.9,0-1.7-0.2-2.3-0.6c-0.7-0.4-1.2-0.9-1.5-1.6s-0.5-1.5-0.5-2.4c0-0.9,0.2-1.7,0.5-2.4
		c0.4-0.7,0.9-1.2,1.5-1.6c0.7-0.4,1.4-0.6,2.3-0.6c0.9,0,1.7,0.2,2.3,0.6c0.7,0.4,1.2,0.9,1.5,1.6c0.4,0.7,0.5,1.5,0.5,2.4
		c0,0.9-0.2,1.7-0.5,2.4s-0.9,1.2-1.5,1.6C128.8,19.4,128,19.6,127.1,19.6z M127.1,17.7c0.4,0,0.8-0.1,1-0.4c0.3-0.2,0.5-0.6,0.6-1
		s0.2-0.9,0.2-1.4s-0.1-1-0.2-1.4s-0.4-0.7-0.6-1c-0.3-0.2-0.6-0.4-1-0.4c-0.4,0-0.8,0.1-1,0.4c-0.3,0.2-0.5,0.6-0.6,1
		c-0.1,0.4-0.2,0.9-0.2,1.4s0.1,1,0.2,1.4c0.1,0.4,0.4,0.7,0.6,1C126.3,17.5,126.7,17.7,127.1,17.7z"/>
	<path class="st0" d="M140.6,13l-2.3,0.1c0-0.2-0.1-0.4-0.3-0.5c-0.1-0.2-0.3-0.3-0.5-0.4s-0.5-0.1-0.7-0.1c-0.4,0-0.7,0.1-1,0.2
		c-0.3,0.2-0.4,0.4-0.4,0.6c0,0.2,0.1,0.4,0.3,0.5c0.2,0.1,0.5,0.3,0.9,0.4l1.6,0.3c0.9,0.2,1.5,0.5,1.9,0.9
		c0.4,0.4,0.6,0.9,0.6,1.6c0,0.6-0.2,1.1-0.5,1.5s-0.8,0.8-1.4,1s-1.3,0.4-2.1,0.4c-1.2,0-2.1-0.2-2.8-0.7c-0.7-0.5-1.1-1.2-1.2-2
		l2.4-0.1c0.1,0.4,0.3,0.6,0.5,0.8c0.3,0.2,0.6,0.3,1.1,0.3c0.4,0,0.8-0.1,1.1-0.3c0.3-0.2,0.4-0.4,0.4-0.7c0-0.2-0.1-0.4-0.3-0.6
		s-0.5-0.3-0.9-0.3l-1.6-0.3c-0.9-0.2-1.5-0.5-2-0.9s-0.6-1-0.6-1.7c0-0.6,0.2-1.1,0.5-1.5c0.3-0.4,0.8-0.7,1.3-1s1.2-0.3,2-0.3
		c1.1,0,2,0.2,2.7,0.7C140.1,11.5,140.5,12.2,140.6,13z"/>
	<path class="st0" d="M149.8,13l-2.3,0.1c0-0.2-0.1-0.4-0.3-0.5c-0.1-0.2-0.3-0.3-0.5-0.4s-0.5-0.1-0.7-0.1c-0.4,0-0.7,0.1-1,0.2
		c-0.3,0.2-0.4,0.4-0.4,0.6c0,0.2,0.1,0.4,0.3,0.5c0.2,0.1,0.5,0.3,0.9,0.4l1.6,0.3c0.9,0.2,1.5,0.5,1.9,0.9
		c0.4,0.4,0.6,0.9,0.6,1.6c0,0.6-0.2,1.1-0.5,1.5s-0.8,0.8-1.4,1s-1.3,0.4-2.1,0.4c-1.2,0-2.1-0.2-2.8-0.7c-0.7-0.5-1.1-1.2-1.2-2
		l2.4-0.1c0.1,0.4,0.3,0.6,0.5,0.8c0.3,0.2,0.6,0.3,1.1,0.3c0.4,0,0.8-0.1,1.1-0.3c0.3-0.2,0.4-0.4,0.4-0.7c0-0.2-0.1-0.4-0.3-0.6
		s-0.5-0.3-0.9-0.3l-1.6-0.3c-0.9-0.2-1.5-0.5-2-0.9s-0.6-1-0.6-1.7c0-0.6,0.2-1.1,0.5-1.5c0.3-0.4,0.8-0.7,1.3-1s1.2-0.3,2-0.3
		c1.1,0,2,0.2,2.7,0.7C149.3,11.5,149.7,12.2,149.8,13z"/>
	<path class="st0" d="M153.7,19.4H151l4.1-11.9h3.3l4.1,11.9h-2.7l-3-9.2h-0.1L153.7,19.4z M153.5,14.7h6.4v2h-6.4V14.7z"/>
	<path class="st0" d="M166.4,7.5v11.9h-2.5V7.5H166.4z"/>
</g>
<circle class="st1" cx="14.6" cy="18.1" r="8.2"/>
<circle class="st2" cx="5.5" cy="14.4" r="4.1"/>
<circle class="st2" cx="11.2" cy="7.2" r="6.5"/>
<circle class="st2" cx="20.7" cy="7.8" r="5.3"/>
<circle class="st3" cx="16.7" cy="13.4" r="1.6"/>
</svg>
